<svg xmlns="http://www.w3.org/2000/svg" xmlns:xlink="http://www.w3.org/1999/xlink" width="400" height="263" viewBox="0 0 400 263">
  <defs>
    <clipPath id="clip-path">
      <rect id="Rectángulo_375657" data-name="Rectángulo 375657" width="245.232" height="263" fill="none"/>
    </clipPath>
    <clipPath id="clip-path-3">
      <rect id="Rectángulo_375654" data-name="Rectángulo 375654" width="244.494" height="221.497" fill="none"/>
    </clipPath>
  </defs>
  <g id="Grupo_1067057" data-name="Grupo 1067057" transform="translate(-180 -899)">
    <rect id="Rectángulo_375658" data-name="Rectángulo 375658" width="400" height="211" transform="translate(180 914)" fill="#4be5f1" opacity="0.3"/>
    <g id="Grupo_1066811" data-name="Grupo 1066811" transform="translate(257 899)">
      <g id="Grupo_1066810" data-name="Grupo 1066810" clip-path="url(#clip-path)">
        <rect id="Rectángulo_375642" data-name="Rectángulo 375642" width="244.495" height="238.288" transform="translate(0.392 0.346)" fill="#fff"/>
        <g id="Grupo_1066807" data-name="Grupo 1066807">
          <g id="Grupo_1066806" data-name="Grupo 1066806" clip-path="url(#clip-path)">
            <path id="Trazado_806177" data-name="Trazado 806177" d="M244.908,238.98H.413a.345.345,0,0,1-.345-.346V.345A.346.346,0,0,1,.413,0H244.908a.346.346,0,0,1,.346.345V238.634a.345.345,0,0,1-.346.346M.759,238.289h243.8V.691H.759Z" transform="translate(-0.021)" fill="#263238"/>
            <rect id="Rectángulo_375643" data-name="Rectángulo 375643" width="244.495" height="16.862" transform="translate(0.392 0.345)" fill="#4be5f1"/>
            <path id="Trazado_806178" data-name="Trazado 806178" d="M244.908,17.553H.413a.346.346,0,0,1-.345-.345V.345A.346.346,0,0,1,.413,0H244.908a.346.346,0,0,1,.346.345V17.208a.346.346,0,0,1-.346.345M.759,16.862h243.8V.692H.759Z" transform="translate(-0.021)" fill="#263238"/>
            <rect id="Rectángulo_375644" data-name="Rectángulo 375644" width="244.495" height="5.425" transform="translate(0.392 0.345)" fill="#263238"/>
            <path id="Trazado_806179" data-name="Trazado 806179" d="M244.908,6.116H.413A.345.345,0,0,1,.068,5.77V.345A.346.346,0,0,1,.413,0H244.908a.346.346,0,0,1,.346.345V5.77a.345.345,0,0,1-.346.345M.759,5.425h243.8V.691H.759Z" transform="translate(-0.021)" fill="#263238"/>
            <path id="Trazado_806180" data-name="Trazado 806180" d="M336.1,3.953a1.262,1.262,0,1,0-1.262,1.262A1.262,1.262,0,0,0,336.1,3.953" transform="translate(-103.078 -0.832)" fill="#fff"/>
            <path id="Trazado_806181" data-name="Trazado 806181" d="M334.687,5.407A1.608,1.608,0,1,1,336.295,3.8a1.61,1.61,0,0,1-1.608,1.608m0-2.525a.917.917,0,1,0,.917.917.918.918,0,0,0-.917-.917" transform="translate(-102.924 -0.677)" fill="#263238"/>
            <path id="Trazado_806182" data-name="Trazado 806182" d="M341.371,3.953a1.262,1.262,0,1,0-1.262,1.262,1.262,1.262,0,0,0,1.262-1.262" transform="translate(-104.706 -0.832)" fill="#fff"/>
            <path id="Trazado_806183" data-name="Trazado 806183" d="M339.953,5.407A1.608,1.608,0,1,1,341.561,3.8a1.61,1.61,0,0,1-1.608,1.608m0-2.525a.917.917,0,1,0,.917.917.918.918,0,0,0-.917-.917" transform="translate(-104.551 -0.677)" fill="#263238"/>
            <path id="Trazado_806184" data-name="Trazado 806184" d="M346.638,3.953a1.263,1.263,0,1,0-1.263,1.262,1.263,1.263,0,0,0,1.263-1.262" transform="translate(-106.333 -0.832)" fill="#fff"/>
            <path id="Trazado_806185" data-name="Trazado 806185" d="M345.22,5.407A1.608,1.608,0,1,1,346.828,3.8a1.61,1.61,0,0,1-1.608,1.608m0-2.525a.917.917,0,1,0,.917.917.918.918,0,0,0-.917-.917" transform="translate(-106.179 -0.677)" fill="#263238"/>
            <rect id="Rectángulo_375645" data-name="Rectángulo 375645" width="99.906" height="5.7" transform="translate(17.676 8.172)" fill="#fff"/>
            <path id="Trazado_806186" data-name="Trazado 806186" d="M125.331,17.717H25.425a.346.346,0,0,1-.345-.345v-5.7a.346.346,0,0,1,.345-.345h99.906a.346.346,0,0,1,.345.345v5.7a.346.346,0,0,1-.345.345m-99.56-.691h99.215V12.017H25.771Z" transform="translate(-7.75 -3.5)" fill="#263238"/>
            <rect id="Rectángulo_375646" data-name="Rectángulo 375646" width="6.956" height="0.691" transform="translate(233.506 9.59)" fill="#263238"/>
            <rect id="Rectángulo_375647" data-name="Rectángulo 375647" width="6.956" height="0.691" transform="translate(233.506 11.487)" fill="#263238"/>
            <rect id="Rectángulo_375648" data-name="Rectángulo 375648" width="6.956" height="0.691" transform="translate(233.506 13.384)" fill="#263238"/>
            <path id="Trazado_806187" data-name="Trazado 806187" d="M24.96,64.468H20.687a1.054,1.054,0,0,1,0-2.108H24.96a1.054,1.054,0,1,1,0,2.108M26.014,68.3a1.053,1.053,0,0,0-1.054-1.054H20.687a1.054,1.054,0,0,0,0,2.108H24.96A1.053,1.053,0,0,0,26.014,68.3m0,4.883a1.053,1.053,0,0,0-1.054-1.053H20.687a1.054,1.054,0,0,0,0,2.108H24.96a1.054,1.054,0,0,0,1.054-1.054m0,4.883a1.053,1.053,0,0,0-1.054-1.054H20.687a1.054,1.054,0,0,0,0,2.108H24.96a1.053,1.053,0,0,0,1.054-1.054m0,4.883a1.053,1.053,0,0,0-1.054-1.054H20.687a1.054,1.054,0,0,0,0,2.108H24.96a1.053,1.053,0,0,0,1.054-1.054m0,4.884a1.053,1.053,0,0,0-1.054-1.054H20.687a1.054,1.054,0,0,0,0,2.108H24.96a1.053,1.053,0,0,0,1.054-1.054m0,4.883a1.053,1.053,0,0,0-1.054-1.054H20.687a1.054,1.054,0,0,0,0,2.108H24.96a1.053,1.053,0,0,0,1.054-1.054m0,4.883a1.053,1.053,0,0,0-1.054-1.054H20.687a1.054,1.054,0,0,0,0,2.108H24.96a1.053,1.053,0,0,0,1.054-1.054M42,63.413a1.053,1.053,0,0,0-1.054-1.053H29.729a1.054,1.054,0,1,0,0,2.108H40.944A1.053,1.053,0,0,0,42,63.413M42,68.3a1.053,1.053,0,0,0-1.054-1.054H29.729a1.054,1.054,0,1,0,0,2.108H40.944A1.053,1.053,0,0,0,42,68.3m0,4.883a1.053,1.053,0,0,0-1.054-1.053H29.729a1.054,1.054,0,1,0,0,2.108H40.944A1.054,1.054,0,0,0,42,73.179m0,4.883a1.053,1.053,0,0,0-1.054-1.054H29.729a1.054,1.054,0,1,0,0,2.108H40.944A1.053,1.053,0,0,0,42,78.062m0,4.883a1.053,1.053,0,0,0-1.054-1.054H29.729a1.054,1.054,0,1,0,0,2.108H40.944A1.053,1.053,0,0,0,42,82.945m13.428,4.884a1.053,1.053,0,0,0-1.054-1.054H43.157a1.054,1.054,0,0,0,0,2.108H54.372a1.053,1.053,0,0,0,1.054-1.054m0,4.883a1.053,1.053,0,0,0-1.054-1.054H43.157a1.054,1.054,0,0,0,0,2.108H54.372a1.053,1.053,0,0,0,1.054-1.054m0,4.883a1.053,1.053,0,0,0-1.054-1.054H43.157a1.054,1.054,0,1,0,0,2.108H54.372a1.053,1.053,0,0,0,1.054-1.054M46.934,63.413a1.221,1.221,0,1,0-1.221,1.221,1.221,1.221,0,0,0,1.221-1.221m3.662,0a1.221,1.221,0,1,0-1.221,1.221A1.221,1.221,0,0,0,50.6,63.413m3.662,0a1.221,1.221,0,1,0-1.221,1.221,1.221,1.221,0,0,0,1.221-1.221m3.662,0A1.221,1.221,0,1,0,56.7,64.634a1.221,1.221,0,0,0,1.221-1.221m3.662,0a1.221,1.221,0,1,0-1.221,1.221,1.221,1.221,0,0,0,1.221-1.221m3.662,0a1.221,1.221,0,1,0-1.221,1.221,1.221,1.221,0,0,0,1.221-1.221M46.934,73.18A1.221,1.221,0,1,0,45.713,74.4a1.221,1.221,0,0,0,1.221-1.221m3.662,0A1.221,1.221,0,1,0,49.375,74.4,1.221,1.221,0,0,0,50.6,73.18m3.662,0A1.221,1.221,0,1,0,53.037,74.4a1.221,1.221,0,0,0,1.221-1.221m3.662,0A1.221,1.221,0,1,0,56.7,74.4a1.221,1.221,0,0,0,1.221-1.221m3.662,0A1.221,1.221,0,1,0,60.362,74.4a1.221,1.221,0,0,0,1.221-1.221m3.662,0A1.221,1.221,0,1,0,64.024,74.4a1.221,1.221,0,0,0,1.221-1.221m-5.8,14.038a1.221,1.221,0,1,0-1.221,1.221,1.221,1.221,0,0,0,1.221-1.221m3.662,0a1.221,1.221,0,1,0-1.221,1.221,1.221,1.221,0,0,0,1.221-1.221m3.662,0a1.221,1.221,0,1,0-1.221,1.221,1.221,1.221,0,0,0,1.221-1.221m3.662,0a1.221,1.221,0,1,0-1.221,1.221,1.221,1.221,0,0,0,1.221-1.221m3.662,0a1.221,1.221,0,1,0-1.221,1.221A1.221,1.221,0,0,0,74.1,87.218m3.662,0a1.221,1.221,0,1,0-1.221,1.221,1.221,1.221,0,0,0,1.221-1.221M59.446,97.289a1.221,1.221,0,1,0-1.221,1.221,1.221,1.221,0,0,0,1.221-1.221m3.662,0a1.221,1.221,0,1,0-1.221,1.221,1.221,1.221,0,0,0,1.221-1.221m3.662,0A1.221,1.221,0,1,0,65.55,98.51a1.221,1.221,0,0,0,1.221-1.221m3.662,0a1.221,1.221,0,1,0-1.221,1.221,1.221,1.221,0,0,0,1.221-1.221m3.662,0a1.221,1.221,0,1,0-1.221,1.221A1.221,1.221,0,0,0,74.1,97.289m3.662,0a1.221,1.221,0,1,0-1.221,1.221,1.221,1.221,0,0,0,1.221-1.221" transform="translate(-6.067 -19.218)" fill="#4be5f1"/>
            <path id="Trazado_806188" data-name="Trazado 806188" d="M24.96,121.016H20.687a1.054,1.054,0,0,1,0-2.108H24.96a1.054,1.054,0,1,1,0,2.108m1.054,3.829a1.053,1.053,0,0,0-1.054-1.054H20.687a1.054,1.054,0,0,0,0,2.108H24.96a1.052,1.052,0,0,0,1.054-1.053m0,4.883a1.054,1.054,0,0,0-1.054-1.054H20.687a1.054,1.054,0,0,0,0,2.108H24.96a1.053,1.053,0,0,0,1.054-1.053m0,4.882a1.052,1.052,0,0,0-1.054-1.053H20.687a1.054,1.054,0,0,0,0,2.108H24.96a1.054,1.054,0,0,0,1.054-1.054m0,4.883a1.054,1.054,0,0,0-1.054-1.054H20.687a1.054,1.054,0,0,0,0,2.108H24.96a1.054,1.054,0,0,0,1.054-1.054m0,4.883a1.052,1.052,0,0,0-1.054-1.053H20.687a1.054,1.054,0,0,0,0,2.108H24.96a1.054,1.054,0,0,0,1.054-1.055m0,4.884a1.053,1.053,0,0,0-1.054-1.054H20.687a1.053,1.053,0,0,0,0,2.107H24.96a1.052,1.052,0,0,0,1.054-1.053m0,4.882a1.053,1.053,0,0,0-1.054-1.053H20.687a1.054,1.054,0,0,0,0,2.108H24.96a1.054,1.054,0,0,0,1.054-1.054M42,119.962a1.053,1.053,0,0,0-1.054-1.054H29.729a1.054,1.054,0,1,0,0,2.108H40.944A1.054,1.054,0,0,0,42,119.962m0,4.883a1.053,1.053,0,0,0-1.054-1.054H29.729a1.054,1.054,0,1,0,0,2.108H40.944A1.052,1.052,0,0,0,42,124.845m0,4.883a1.054,1.054,0,0,0-1.054-1.054H29.729a1.054,1.054,0,1,0,0,2.108H40.944A1.053,1.053,0,0,0,42,129.728m0,4.882a1.052,1.052,0,0,0-1.054-1.053H29.729a1.054,1.054,0,1,0,0,2.108H40.944A1.054,1.054,0,0,0,42,134.61m0,4.883a1.054,1.054,0,0,0-1.054-1.054H29.729a1.054,1.054,0,0,0,0,2.108H40.944A1.054,1.054,0,0,0,42,139.493m13.428,4.883a1.052,1.052,0,0,0-1.054-1.053H43.157a1.054,1.054,0,0,0,0,2.108H54.372a1.054,1.054,0,0,0,1.054-1.055m0,4.884a1.053,1.053,0,0,0-1.054-1.054H43.157a1.053,1.053,0,1,0,0,2.107H54.372a1.052,1.052,0,0,0,1.054-1.053m0,4.882a1.053,1.053,0,0,0-1.054-1.053H43.157a1.054,1.054,0,1,0,0,2.108H54.372a1.054,1.054,0,0,0,1.054-1.054m-8.492-34.18a1.221,1.221,0,1,0-1.221,1.22,1.22,1.22,0,0,0,1.221-1.22m3.662,0a1.221,1.221,0,1,0-1.221,1.22,1.22,1.22,0,0,0,1.221-1.22m3.662,0a1.221,1.221,0,1,0-1.221,1.22,1.22,1.22,0,0,0,1.221-1.22m3.662,0a1.221,1.221,0,1,0-1.221,1.22,1.22,1.22,0,0,0,1.221-1.22m3.662,0a1.221,1.221,0,1,0-1.221,1.22,1.22,1.22,0,0,0,1.221-1.22m3.662,0a1.221,1.221,0,1,0-1.221,1.22,1.22,1.22,0,0,0,1.221-1.22m-18.311,9.766a1.221,1.221,0,1,0-1.221,1.221,1.221,1.221,0,0,0,1.221-1.221m3.662,0a1.221,1.221,0,1,0-1.221,1.221,1.221,1.221,0,0,0,1.221-1.221m3.662,0a1.221,1.221,0,1,0-1.221,1.221,1.221,1.221,0,0,0,1.221-1.221m3.662,0a1.221,1.221,0,1,0-1.221,1.221,1.221,1.221,0,0,0,1.221-1.221m3.662,0a1.221,1.221,0,1,0-1.221,1.221,1.221,1.221,0,0,0,1.221-1.221m3.662,0a1.221,1.221,0,1,0-1.221,1.221,1.221,1.221,0,0,0,1.221-1.221m-5.8,14.038a1.221,1.221,0,1,0-1.221,1.221,1.221,1.221,0,0,0,1.221-1.221m3.662,0a1.221,1.221,0,1,0-1.221,1.221,1.221,1.221,0,0,0,1.221-1.221m3.662,0a1.221,1.221,0,1,0-1.221,1.221,1.221,1.221,0,0,0,1.221-1.221m3.662,0a1.221,1.221,0,1,0-1.221,1.221,1.221,1.221,0,0,0,1.221-1.221m3.662,0a1.221,1.221,0,1,0-1.221,1.221,1.221,1.221,0,0,0,1.221-1.221m3.662,0a1.221,1.221,0,1,0-1.221,1.221,1.221,1.221,0,0,0,1.221-1.221M59.446,153.837a1.221,1.221,0,1,0-1.221,1.222,1.221,1.221,0,0,0,1.221-1.222m3.662,0a1.221,1.221,0,1,0-1.221,1.222,1.221,1.221,0,0,0,1.221-1.222m3.662,0a1.221,1.221,0,1,0-1.221,1.222,1.221,1.221,0,0,0,1.221-1.222m3.662,0a1.221,1.221,0,1,0-1.221,1.222,1.221,1.221,0,0,0,1.221-1.222m3.662,0a1.221,1.221,0,1,0-1.221,1.222,1.221,1.221,0,0,0,1.221-1.222m3.662,0a1.221,1.221,0,1,0-1.221,1.222,1.221,1.221,0,0,0,1.221-1.222" transform="translate(-6.067 -36.692)" fill="#4be5f1"/>
            <path id="Trazado_806189" data-name="Trazado 806189" d="M24.96,178.928H20.687a1.054,1.054,0,0,1,0-2.108H24.96a1.054,1.054,0,0,1,0,2.108m1.054,3.829A1.053,1.053,0,0,0,24.96,181.7H20.687a1.054,1.054,0,0,0,0,2.108H24.96a1.053,1.053,0,0,0,1.054-1.054m0,4.883a1.054,1.054,0,0,0-1.054-1.054H20.687a1.054,1.054,0,0,0,0,2.108H24.96a1.053,1.053,0,0,0,1.054-1.053m0,4.883a1.053,1.053,0,0,0-1.054-1.054H20.687a1.054,1.054,0,0,0,0,2.108H24.96a1.053,1.053,0,0,0,1.054-1.054m0,4.883a1.053,1.053,0,0,0-1.054-1.054H20.687a1.054,1.054,0,0,0,0,2.108H24.96a1.053,1.053,0,0,0,1.054-1.054m0,4.884a1.053,1.053,0,0,0-1.054-1.054H20.687a1.054,1.054,0,0,0,0,2.108H24.96a1.053,1.053,0,0,0,1.054-1.054m0,4.883a1.053,1.053,0,0,0-1.054-1.054H20.687a1.053,1.053,0,0,0,0,2.107H24.96a1.053,1.053,0,0,0,1.054-1.053m0,4.883A1.053,1.053,0,0,0,24.96,211H20.687a1.054,1.054,0,0,0,0,2.108H24.96a1.053,1.053,0,0,0,1.054-1.054M42,177.874a1.053,1.053,0,0,0-1.054-1.054H29.729a1.054,1.054,0,0,0,0,2.108H40.944A1.054,1.054,0,0,0,42,177.874m0,4.883a1.053,1.053,0,0,0-1.054-1.054H29.729a1.054,1.054,0,1,0,0,2.108H40.944A1.053,1.053,0,0,0,42,182.757m0,4.883a1.054,1.054,0,0,0-1.054-1.054H29.729a1.054,1.054,0,1,0,0,2.108H40.944A1.053,1.053,0,0,0,42,187.64m0,4.883a1.053,1.053,0,0,0-1.054-1.054H29.729a1.054,1.054,0,0,0,0,2.108H40.944A1.053,1.053,0,0,0,42,192.522m0,4.883a1.053,1.053,0,0,0-1.054-1.054H29.729a1.054,1.054,0,1,0,0,2.108H40.944A1.053,1.053,0,0,0,42,197.4m13.428,4.884a1.053,1.053,0,0,0-1.054-1.054H43.157a1.054,1.054,0,0,0,0,2.108H54.372a1.053,1.053,0,0,0,1.054-1.054m0,4.883a1.053,1.053,0,0,0-1.054-1.054H43.157a1.053,1.053,0,1,0,0,2.107H54.372a1.053,1.053,0,0,0,1.054-1.053m0,4.883A1.053,1.053,0,0,0,54.372,211H43.157a1.054,1.054,0,1,0,0,2.108H54.372a1.053,1.053,0,0,0,1.054-1.054m-8.492-34.181a1.221,1.221,0,1,0-1.221,1.221,1.221,1.221,0,0,0,1.221-1.221m3.662,0a1.221,1.221,0,1,0-1.221,1.221,1.221,1.221,0,0,0,1.221-1.221m3.662,0a1.221,1.221,0,1,0-1.221,1.221,1.221,1.221,0,0,0,1.221-1.221m3.662,0a1.221,1.221,0,1,0-1.221,1.221,1.221,1.221,0,0,0,1.221-1.221m3.662,0a1.221,1.221,0,1,0-1.221,1.221,1.221,1.221,0,0,0,1.221-1.221m3.662,0a1.221,1.221,0,1,0-1.221,1.221,1.221,1.221,0,0,0,1.221-1.221M46.934,187.64a1.221,1.221,0,1,0-1.221,1.22,1.221,1.221,0,0,0,1.221-1.22m3.662,0a1.221,1.221,0,1,0-1.221,1.22,1.221,1.221,0,0,0,1.221-1.22m3.662,0a1.221,1.221,0,1,0-1.221,1.22,1.221,1.221,0,0,0,1.221-1.22m3.662,0a1.221,1.221,0,1,0-1.221,1.22,1.221,1.221,0,0,0,1.221-1.22m3.662,0a1.221,1.221,0,1,0-1.221,1.22,1.221,1.221,0,0,0,1.221-1.22m3.662,0a1.221,1.221,0,1,0-1.221,1.22,1.221,1.221,0,0,0,1.221-1.22m-5.8,14.038a1.221,1.221,0,1,0-1.221,1.221,1.221,1.221,0,0,0,1.221-1.221m3.662,0a1.221,1.221,0,1,0-1.221,1.221,1.221,1.221,0,0,0,1.221-1.221m3.662,0A1.221,1.221,0,1,0,65.55,202.9a1.221,1.221,0,0,0,1.221-1.221m3.662,0a1.221,1.221,0,1,0-1.221,1.221,1.221,1.221,0,0,0,1.221-1.221m3.662,0a1.221,1.221,0,1,0-1.221,1.221,1.221,1.221,0,0,0,1.221-1.221m3.662,0a1.221,1.221,0,1,0-1.221,1.221,1.221,1.221,0,0,0,1.221-1.221M59.446,211.749a1.221,1.221,0,1,0-1.221,1.221,1.221,1.221,0,0,0,1.221-1.221m3.662,0a1.221,1.221,0,1,0-1.221,1.221,1.221,1.221,0,0,0,1.221-1.221m3.662,0a1.221,1.221,0,1,0-1.221,1.221,1.221,1.221,0,0,0,1.221-1.221m3.662,0a1.221,1.221,0,1,0-1.221,1.221,1.221,1.221,0,0,0,1.221-1.221m3.662,0a1.221,1.221,0,1,0-1.221,1.221,1.221,1.221,0,0,0,1.221-1.221m3.662,0a1.221,1.221,0,1,0-1.221,1.221,1.221,1.221,0,0,0,1.221-1.221" transform="translate(-6.067 -54.587)" fill="#4be5f1"/>
            <path id="Trazado_806190" data-name="Trazado 806190" d="M119.892,64.468H115.62a1.054,1.054,0,1,1,0-2.108h4.272a1.054,1.054,0,1,1,0,2.108m1.054,3.829a1.053,1.053,0,0,0-1.054-1.054H115.62a1.054,1.054,0,1,0,0,2.108h4.272a1.053,1.053,0,0,0,1.054-1.054m0,4.883a1.053,1.053,0,0,0-1.054-1.053H115.62a1.054,1.054,0,1,0,0,2.108h4.272a1.054,1.054,0,0,0,1.054-1.054m0,4.883a1.053,1.053,0,0,0-1.054-1.054H115.62a1.054,1.054,0,1,0,0,2.108h4.272a1.053,1.053,0,0,0,1.054-1.054m0,4.883a1.053,1.053,0,0,0-1.054-1.054H115.62a1.054,1.054,0,1,0,0,2.108h4.272a1.053,1.053,0,0,0,1.054-1.054m0,4.884a1.053,1.053,0,0,0-1.054-1.054H115.62a1.054,1.054,0,1,0,0,2.108h4.272a1.053,1.053,0,0,0,1.054-1.054m0,4.883a1.053,1.053,0,0,0-1.054-1.054H115.62a1.054,1.054,0,0,0,0,2.108h4.272a1.053,1.053,0,0,0,1.054-1.054m0,4.883a1.053,1.053,0,0,0-1.054-1.054H115.62a1.054,1.054,0,1,0,0,2.108h4.272a1.053,1.053,0,0,0,1.054-1.054M136.93,63.413a1.053,1.053,0,0,0-1.054-1.053H124.661a1.054,1.054,0,1,0,0,2.108h11.216a1.053,1.053,0,0,0,1.054-1.054m0,4.883a1.053,1.053,0,0,0-1.054-1.054H124.661a1.054,1.054,0,1,0,0,2.108h11.216A1.053,1.053,0,0,0,136.93,68.3m0,4.883a1.053,1.053,0,0,0-1.054-1.053H124.661a1.054,1.054,0,1,0,0,2.108h11.216a1.054,1.054,0,0,0,1.054-1.054m0,4.883a1.053,1.053,0,0,0-1.054-1.054H124.661a1.054,1.054,0,1,0,0,2.108h11.216a1.053,1.053,0,0,0,1.054-1.054m0,4.883a1.053,1.053,0,0,0-1.054-1.054H124.661a1.054,1.054,0,0,0,0,2.108h11.216a1.053,1.053,0,0,0,1.054-1.054m13.428,4.884a1.053,1.053,0,0,0-1.054-1.054H138.089a1.054,1.054,0,1,0,0,2.108H149.3a1.053,1.053,0,0,0,1.054-1.054m0,4.883a1.053,1.053,0,0,0-1.054-1.054H138.089a1.054,1.054,0,1,0,0,2.108H149.3a1.053,1.053,0,0,0,1.054-1.054m0,4.883a1.053,1.053,0,0,0-1.054-1.054H138.089a1.054,1.054,0,1,0,0,2.108H149.3a1.053,1.053,0,0,0,1.054-1.054m-8.492-34.181a1.221,1.221,0,1,0-1.22,1.221,1.221,1.221,0,0,0,1.22-1.221m3.662,0a1.221,1.221,0,1,0-1.22,1.221,1.221,1.221,0,0,0,1.22-1.221m3.662,0a1.221,1.221,0,1,0-1.221,1.221,1.221,1.221,0,0,0,1.221-1.221m3.662,0a1.221,1.221,0,1,0-1.22,1.221,1.221,1.221,0,0,0,1.22-1.221m3.662,0a1.221,1.221,0,1,0-1.221,1.221,1.221,1.221,0,0,0,1.221-1.221m3.662,0a1.221,1.221,0,1,0-1.221,1.221,1.221,1.221,0,0,0,1.221-1.221M141.866,73.18a1.221,1.221,0,1,0-1.22,1.221,1.221,1.221,0,0,0,1.22-1.221m3.662,0a1.221,1.221,0,1,0-1.22,1.221,1.221,1.221,0,0,0,1.22-1.221m3.662,0a1.221,1.221,0,1,0-1.221,1.221,1.221,1.221,0,0,0,1.221-1.221m3.662,0a1.221,1.221,0,1,0-1.22,1.221,1.221,1.221,0,0,0,1.22-1.221m3.662,0a1.221,1.221,0,1,0-1.221,1.221,1.221,1.221,0,0,0,1.221-1.221m3.662,0a1.221,1.221,0,1,0-1.221,1.221,1.221,1.221,0,0,0,1.221-1.221m-5.8,14.038a1.221,1.221,0,1,0-1.221,1.221,1.221,1.221,0,0,0,1.221-1.221m3.662,0a1.221,1.221,0,1,0-1.221,1.221,1.221,1.221,0,0,0,1.221-1.221m3.662,0a1.221,1.221,0,1,0-1.22,1.221,1.221,1.221,0,0,0,1.22-1.221m3.662,0a1.221,1.221,0,1,0-1.22,1.221,1.221,1.221,0,0,0,1.22-1.221m3.662,0a1.221,1.221,0,1,0-1.22,1.221,1.221,1.221,0,0,0,1.22-1.221m3.662,0a1.221,1.221,0,1,0-1.22,1.221,1.221,1.221,0,0,0,1.22-1.221M154.379,97.289a1.221,1.221,0,1,0-1.221,1.221,1.221,1.221,0,0,0,1.221-1.221m3.662,0a1.221,1.221,0,1,0-1.221,1.221,1.222,1.222,0,0,0,1.221-1.221m3.662,0a1.221,1.221,0,1,0-1.22,1.221,1.221,1.221,0,0,0,1.22-1.221m3.662,0a1.221,1.221,0,1,0-1.22,1.221,1.221,1.221,0,0,0,1.22-1.221m3.662,0a1.221,1.221,0,1,0-1.22,1.221,1.221,1.221,0,0,0,1.22-1.221m3.662,0a1.221,1.221,0,1,0-1.22,1.221,1.221,1.221,0,0,0,1.22-1.221" transform="translate(-35.402 -19.218)" fill="#4be5f1"/>
            <path id="Trazado_806191" data-name="Trazado 806191" d="M24.96,41.818H20.687a1.054,1.054,0,0,1,0-2.108H24.96a1.054,1.054,0,0,1,0,2.108m1.054,3.829a1.053,1.053,0,0,0-1.054-1.053H20.687a1.054,1.054,0,0,0,0,2.108H24.96a1.053,1.053,0,0,0,1.054-1.054M42,40.764a1.053,1.053,0,0,0-1.054-1.054H29.729a1.054,1.054,0,1,0,0,2.108H40.944A1.053,1.053,0,0,0,42,40.764m0,4.883a1.053,1.053,0,0,0-1.054-1.053H29.729a1.054,1.054,0,1,0,0,2.108H40.944A1.053,1.053,0,0,0,42,45.647m4.936-4.883a1.221,1.221,0,1,0-1.221,1.221,1.221,1.221,0,0,0,1.221-1.221m3.662,0a1.221,1.221,0,1,0-1.221,1.221A1.221,1.221,0,0,0,50.6,40.764m3.662,0a1.221,1.221,0,1,0-1.221,1.221,1.221,1.221,0,0,0,1.221-1.221m3.662,0A1.221,1.221,0,1,0,56.7,41.985a1.221,1.221,0,0,0,1.221-1.221m3.662,0a1.221,1.221,0,1,0-1.221,1.221,1.221,1.221,0,0,0,1.221-1.221m3.662,0a1.221,1.221,0,1,0-1.221,1.221,1.221,1.221,0,0,0,1.221-1.221" transform="translate(-6.067 -12.219)" fill="#4be5f1"/>
            <path id="Trazado_806192" data-name="Trazado 806192" d="M119.892,41.818H115.62a1.054,1.054,0,1,1,0-2.108h4.272a1.054,1.054,0,0,1,0,2.108m1.054,3.829a1.053,1.053,0,0,0-1.054-1.053H115.62a1.054,1.054,0,1,0,0,2.108h4.272a1.053,1.053,0,0,0,1.054-1.054m15.984-4.883a1.053,1.053,0,0,0-1.054-1.054H124.661a1.054,1.054,0,0,0,0,2.108h11.216a1.053,1.053,0,0,0,1.054-1.054m0,4.883a1.053,1.053,0,0,0-1.054-1.053H124.661a1.054,1.054,0,1,0,0,2.108h11.216a1.053,1.053,0,0,0,1.054-1.054m4.936-4.883a1.221,1.221,0,1,0-1.221,1.221,1.221,1.221,0,0,0,1.221-1.221m3.662,0a1.221,1.221,0,1,0-1.22,1.221,1.221,1.221,0,0,0,1.22-1.221m3.662,0a1.221,1.221,0,1,0-1.221,1.221,1.221,1.221,0,0,0,1.221-1.221m3.662,0a1.221,1.221,0,1,0-1.221,1.221,1.221,1.221,0,0,0,1.221-1.221m3.662,0a1.221,1.221,0,1,0-1.221,1.221,1.221,1.221,0,0,0,1.221-1.221m3.662,0a1.221,1.221,0,1,0-1.221,1.221,1.221,1.221,0,0,0,1.221-1.221" transform="translate(-35.402 -12.219)" fill="#4be5f1"/>
            <path id="Trazado_806193" data-name="Trazado 806193" d="M119.892,122.381H115.62a1.054,1.054,0,0,1,0-2.108h4.272a1.054,1.054,0,0,1,0,2.108m1.054,3.829a1.053,1.053,0,0,0-1.054-1.054H115.62a1.054,1.054,0,1,0,0,2.108h4.272a1.053,1.053,0,0,0,1.054-1.054m0,4.883a1.054,1.054,0,0,0-1.054-1.054H115.62a1.054,1.054,0,1,0,0,2.108h4.272a1.053,1.053,0,0,0,1.054-1.054m0,4.883a1.053,1.053,0,0,0-1.054-1.054H115.62a1.054,1.054,0,1,0,0,2.108h4.272a1.053,1.053,0,0,0,1.054-1.054m0,4.883a1.053,1.053,0,0,0-1.054-1.054H115.62a1.054,1.054,0,1,0,0,2.108h4.272a1.053,1.053,0,0,0,1.054-1.054m0,4.884a1.053,1.053,0,0,0-1.054-1.054H115.62a1.054,1.054,0,1,0,0,2.108h4.272a1.053,1.053,0,0,0,1.054-1.054m0,4.883a1.054,1.054,0,0,0-1.054-1.054H115.62a1.054,1.054,0,1,0,0,2.108h4.272a1.053,1.053,0,0,0,1.054-1.053m0,4.883a1.053,1.053,0,0,0-1.054-1.054H115.62a1.054,1.054,0,1,0,0,2.108h4.272a1.053,1.053,0,0,0,1.054-1.054m15.984-34.181a1.054,1.054,0,0,0-1.054-1.054H124.661a1.054,1.054,0,0,0,0,2.108h11.216a1.054,1.054,0,0,0,1.054-1.054m0,4.883a1.053,1.053,0,0,0-1.054-1.054H124.661a1.054,1.054,0,1,0,0,2.108h11.216a1.053,1.053,0,0,0,1.054-1.054m0,4.883a1.054,1.054,0,0,0-1.054-1.054H124.661a1.054,1.054,0,1,0,0,2.108h11.216a1.053,1.053,0,0,0,1.054-1.054m0,4.883a1.053,1.053,0,0,0-1.054-1.054H124.661a1.054,1.054,0,1,0,0,2.108h11.216a1.053,1.053,0,0,0,1.054-1.054m0,4.883a1.053,1.053,0,0,0-1.054-1.054H124.661a1.054,1.054,0,1,0,0,2.108h11.216a1.053,1.053,0,0,0,1.054-1.054m13.428,4.884a1.053,1.053,0,0,0-1.054-1.054H138.089a1.054,1.054,0,1,0,0,2.108H149.3a1.053,1.053,0,0,0,1.054-1.054m0,4.883a1.054,1.054,0,0,0-1.054-1.054H138.089a1.054,1.054,0,1,0,0,2.108H149.3a1.053,1.053,0,0,0,1.054-1.053m0,4.883a1.053,1.053,0,0,0-1.054-1.054H138.089a1.054,1.054,0,1,0,0,2.108H149.3a1.053,1.053,0,0,0,1.054-1.054m-8.492-34.181a1.221,1.221,0,1,0-1.22,1.221,1.221,1.221,0,0,0,1.22-1.221m3.662,0a1.221,1.221,0,1,0-1.22,1.221,1.221,1.221,0,0,0,1.22-1.221m3.662,0a1.221,1.221,0,1,0-1.221,1.221,1.221,1.221,0,0,0,1.221-1.221m3.662,0a1.221,1.221,0,1,0-1.22,1.221,1.221,1.221,0,0,0,1.22-1.221m3.662,0a1.221,1.221,0,1,0-1.221,1.221,1.221,1.221,0,0,0,1.221-1.221m3.662,0a1.221,1.221,0,1,0-1.221,1.221,1.221,1.221,0,0,0,1.221-1.221m-18.311,9.766a1.221,1.221,0,1,0-1.22,1.221,1.221,1.221,0,0,0,1.22-1.221m3.662,0a1.221,1.221,0,1,0-1.22,1.221,1.221,1.221,0,0,0,1.22-1.221m3.662,0a1.221,1.221,0,1,0-1.221,1.221,1.221,1.221,0,0,0,1.221-1.221m3.662,0a1.221,1.221,0,1,0-1.22,1.221,1.221,1.221,0,0,0,1.22-1.221m3.662,0a1.221,1.221,0,1,0-1.221,1.221,1.221,1.221,0,0,0,1.221-1.221m3.662,0a1.221,1.221,0,1,0-1.221,1.221,1.221,1.221,0,0,0,1.221-1.221m-5.8,14.039a1.221,1.221,0,1,0-1.221,1.221,1.221,1.221,0,0,0,1.221-1.221m3.662,0a1.221,1.221,0,1,0-1.221,1.221,1.221,1.221,0,0,0,1.221-1.221m3.662,0a1.221,1.221,0,1,0-1.22,1.221,1.221,1.221,0,0,0,1.22-1.221m3.662,0a1.221,1.221,0,1,0-1.22,1.221,1.221,1.221,0,0,0,1.22-1.221m3.662,0a1.221,1.221,0,1,0-1.22,1.221,1.221,1.221,0,0,0,1.22-1.221m3.662,0a1.221,1.221,0,1,0-1.22,1.221,1.221,1.221,0,0,0,1.22-1.221M154.379,155.2a1.221,1.221,0,1,0-1.221,1.221,1.22,1.22,0,0,0,1.221-1.221m3.662,0a1.221,1.221,0,1,0-1.221,1.221,1.221,1.221,0,0,0,1.221-1.221m3.662,0a1.221,1.221,0,1,0-1.22,1.221,1.22,1.22,0,0,0,1.22-1.221m3.662,0a1.221,1.221,0,1,0-1.22,1.221,1.22,1.22,0,0,0,1.22-1.221m3.662,0a1.221,1.221,0,1,0-1.22,1.221,1.22,1.22,0,0,0,1.22-1.221m3.662,0a1.221,1.221,0,1,0-1.22,1.221,1.22,1.22,0,0,0,1.22-1.221" transform="translate(-35.402 -37.114)" fill="#4be5f1"/>
            <path id="Trazado_806194" data-name="Trazado 806194" d="M24.96,237.135H20.687a1.054,1.054,0,0,1,0-2.108H24.96a1.054,1.054,0,1,1,0,2.108m1.054,3.829a1.053,1.053,0,0,0-1.054-1.054H20.687a1.054,1.054,0,0,0,0,2.108H24.96a1.053,1.053,0,0,0,1.054-1.054m0,4.883a1.053,1.053,0,0,0-1.054-1.053H20.687a1.053,1.053,0,0,0,0,2.107H24.96a1.053,1.053,0,0,0,1.054-1.054m0,4.883a1.053,1.053,0,0,0-1.054-1.054H20.687a1.054,1.054,0,0,0,0,2.108H24.96a1.053,1.053,0,0,0,1.054-1.054m0,4.883a1.053,1.053,0,0,0-1.054-1.054H20.687a1.054,1.054,0,0,0,0,2.108H24.96a1.053,1.053,0,0,0,1.054-1.054m0,4.884a1.053,1.053,0,0,0-1.054-1.054H20.687a1.054,1.054,0,0,0,0,2.108H24.96a1.053,1.053,0,0,0,1.054-1.054m0,4.883a1.053,1.053,0,0,0-1.054-1.054H20.687a1.054,1.054,0,0,0,0,2.108H24.96a1.052,1.052,0,0,0,1.054-1.053m0,4.883a1.053,1.053,0,0,0-1.054-1.054H20.687a1.054,1.054,0,0,0,0,2.108H24.96a1.053,1.053,0,0,0,1.054-1.054M42,236.081a1.053,1.053,0,0,0-1.054-1.054H29.729a1.054,1.054,0,1,0,0,2.108H40.944A1.053,1.053,0,0,0,42,236.081m0,4.883a1.053,1.053,0,0,0-1.054-1.054H29.729a1.054,1.054,0,1,0,0,2.108H40.944A1.053,1.053,0,0,0,42,240.964m0,4.883a1.053,1.053,0,0,0-1.054-1.053H29.729a1.053,1.053,0,1,0,0,2.107H40.944A1.053,1.053,0,0,0,42,245.846m0,4.883a1.053,1.053,0,0,0-1.054-1.054H29.729a1.054,1.054,0,0,0,0,2.108H40.944A1.053,1.053,0,0,0,42,250.729m0,4.883a1.053,1.053,0,0,0-1.054-1.054H29.729a1.054,1.054,0,1,0,0,2.108H40.944A1.053,1.053,0,0,0,42,255.612M55.426,260.5a1.053,1.053,0,0,0-1.054-1.054H43.157a1.054,1.054,0,1,0,0,2.108H54.372a1.053,1.053,0,0,0,1.054-1.054m0,4.883a1.053,1.053,0,0,0-1.054-1.054H43.157a1.054,1.054,0,1,0,0,2.108H54.372a1.052,1.052,0,0,0,1.054-1.053m0,4.883a1.053,1.053,0,0,0-1.054-1.054H43.157a1.054,1.054,0,0,0,0,2.108H54.372a1.053,1.053,0,0,0,1.054-1.054m-8.492-34.181a1.221,1.221,0,1,0-1.221,1.22,1.221,1.221,0,0,0,1.221-1.22m3.662,0a1.221,1.221,0,1,0-1.221,1.22,1.221,1.221,0,0,0,1.221-1.22m3.662,0a1.221,1.221,0,1,0-1.221,1.22,1.221,1.221,0,0,0,1.221-1.22m3.662,0A1.221,1.221,0,1,0,56.7,237.3a1.221,1.221,0,0,0,1.221-1.22m3.662,0a1.221,1.221,0,1,0-1.221,1.22,1.221,1.221,0,0,0,1.221-1.22m3.662,0a1.221,1.221,0,1,0-1.221,1.22,1.221,1.221,0,0,0,1.221-1.22m-18.311,9.766a1.221,1.221,0,1,0-1.221,1.221,1.221,1.221,0,0,0,1.221-1.221m3.662,0a1.221,1.221,0,1,0-1.221,1.221,1.221,1.221,0,0,0,1.221-1.221m3.662,0a1.221,1.221,0,1,0-1.221,1.221,1.221,1.221,0,0,0,1.221-1.221m3.662,0a1.221,1.221,0,1,0-1.221,1.221,1.221,1.221,0,0,0,1.221-1.221m3.662,0a1.221,1.221,0,1,0-1.221,1.221,1.221,1.221,0,0,0,1.221-1.221m3.662,0a1.221,1.221,0,1,0-1.221,1.221,1.221,1.221,0,0,0,1.221-1.221m-5.8,14.038a1.221,1.221,0,1,0-1.221,1.221,1.221,1.221,0,0,0,1.221-1.221m3.662,0a1.221,1.221,0,1,0-1.221,1.221,1.221,1.221,0,0,0,1.221-1.221m3.662,0a1.221,1.221,0,1,0-1.221,1.221,1.221,1.221,0,0,0,1.221-1.221m3.662,0a1.221,1.221,0,1,0-1.221,1.221,1.221,1.221,0,0,0,1.221-1.221m3.662,0a1.221,1.221,0,1,0-1.221,1.221,1.221,1.221,0,0,0,1.221-1.221m3.662,0a1.221,1.221,0,1,0-1.221,1.221,1.221,1.221,0,0,0,1.221-1.221M59.446,269.956a1.221,1.221,0,1,0-1.221,1.221,1.221,1.221,0,0,0,1.221-1.221m3.662,0a1.221,1.221,0,1,0-1.221,1.221,1.221,1.221,0,0,0,1.221-1.221m3.662,0a1.221,1.221,0,1,0-1.221,1.221,1.221,1.221,0,0,0,1.221-1.221m3.662,0a1.221,1.221,0,1,0-1.221,1.221,1.221,1.221,0,0,0,1.221-1.221m3.662,0a1.221,1.221,0,1,0-1.221,1.221,1.221,1.221,0,0,0,1.221-1.221m3.662,0a1.221,1.221,0,1,0-1.221,1.221,1.221,1.221,0,0,0,1.221-1.221" transform="translate(-6.067 -72.574)" fill="#4be5f1"/>
            <path id="Trazado_806195" data-name="Trazado 806195" d="M24.96,293.682H20.687a1.054,1.054,0,0,1,0-2.108H24.96a1.054,1.054,0,0,1,0,2.108m1.054,3.829a1.053,1.053,0,0,0-1.054-1.054H20.687a1.054,1.054,0,0,0,0,2.108H24.96a1.053,1.053,0,0,0,1.054-1.054m0,4.883a1.053,1.053,0,0,0-1.054-1.054H20.687a1.054,1.054,0,0,0,0,2.107H24.96a1.053,1.053,0,0,0,1.054-1.054m0,4.883a1.053,1.053,0,0,0-1.054-1.054H20.687a1.054,1.054,0,0,0,0,2.108H24.96a1.053,1.053,0,0,0,1.054-1.054m0,4.883a1.053,1.053,0,0,0-1.054-1.054H20.687a1.054,1.054,0,0,0,0,2.108H24.96a1.053,1.053,0,0,0,1.054-1.054m0,4.884a1.053,1.053,0,0,0-1.054-1.054H20.687a1.054,1.054,0,0,0,0,2.108H24.96a1.053,1.053,0,0,0,1.054-1.054M42,292.627a1.054,1.054,0,0,0-1.054-1.054H29.729a1.054,1.054,0,0,0,0,2.108H40.944A1.054,1.054,0,0,0,42,292.627m0,4.883a1.053,1.053,0,0,0-1.054-1.054H29.729a1.054,1.054,0,0,0,0,2.108H40.944A1.053,1.053,0,0,0,42,297.511m0,4.883a1.053,1.053,0,0,0-1.054-1.054H29.729a1.054,1.054,0,1,0,0,2.107H40.944A1.053,1.053,0,0,0,42,302.393m0,4.883a1.053,1.053,0,0,0-1.054-1.054H29.729a1.054,1.054,0,0,0,0,2.108H40.944A1.053,1.053,0,0,0,42,307.276m0,4.883a1.053,1.053,0,0,0-1.054-1.054H29.729a1.054,1.054,0,1,0,0,2.108H40.944A1.053,1.053,0,0,0,42,312.159m13.428,4.884a1.053,1.053,0,0,0-1.054-1.054H43.157a1.054,1.054,0,0,0,0,2.108H54.372a1.053,1.053,0,0,0,1.054-1.054m-8.492-24.415a1.221,1.221,0,1,0-1.221,1.221,1.221,1.221,0,0,0,1.221-1.221m3.662,0a1.221,1.221,0,1,0-1.221,1.221,1.221,1.221,0,0,0,1.221-1.221m3.662,0a1.221,1.221,0,1,0-1.221,1.221,1.221,1.221,0,0,0,1.221-1.221m3.662,0a1.221,1.221,0,1,0-1.221,1.221,1.221,1.221,0,0,0,1.221-1.221m3.662,0a1.221,1.221,0,1,0-1.221,1.221,1.221,1.221,0,0,0,1.221-1.221m3.662,0a1.221,1.221,0,1,0-1.221,1.221,1.221,1.221,0,0,0,1.221-1.221m-18.311,9.766a1.221,1.221,0,1,0-1.221,1.22,1.221,1.221,0,0,0,1.221-1.22m3.662,0a1.221,1.221,0,1,0-1.221,1.22,1.221,1.221,0,0,0,1.221-1.22m3.662,0a1.221,1.221,0,1,0-1.221,1.22,1.221,1.221,0,0,0,1.221-1.22m3.662,0a1.221,1.221,0,1,0-1.221,1.22,1.221,1.221,0,0,0,1.221-1.22m3.662,0a1.221,1.221,0,1,0-1.221,1.22,1.221,1.221,0,0,0,1.221-1.22m3.662,0a1.221,1.221,0,1,0-1.221,1.22,1.221,1.221,0,0,0,1.221-1.22m-5.8,14.038a1.221,1.221,0,1,0-1.221,1.221,1.221,1.221,0,0,0,1.221-1.221m3.662,0a1.221,1.221,0,1,0-1.221,1.221,1.221,1.221,0,0,0,1.221-1.221m3.662,0a1.221,1.221,0,1,0-1.221,1.221,1.221,1.221,0,0,0,1.221-1.221m3.662,0a1.221,1.221,0,1,0-1.221,1.221,1.221,1.221,0,0,0,1.221-1.221m3.662,0a1.221,1.221,0,1,0-1.221,1.221,1.221,1.221,0,0,0,1.221-1.221m3.662,0a1.221,1.221,0,1,0-1.221,1.221,1.221,1.221,0,0,0,1.221-1.221" transform="translate(-6.067 -90.047)" fill="#92e3a9"/>
            <path id="Trazado_806196" data-name="Trazado 806196" d="M119.892,237.135H115.62a1.054,1.054,0,1,1,0-2.108h4.272a1.054,1.054,0,1,1,0,2.108m1.054,3.829a1.053,1.053,0,0,0-1.054-1.054H115.62a1.054,1.054,0,1,0,0,2.108h4.272a1.053,1.053,0,0,0,1.054-1.054m0,4.883a1.053,1.053,0,0,0-1.054-1.053H115.62a1.053,1.053,0,1,0,0,2.107h4.272a1.053,1.053,0,0,0,1.054-1.054m0,4.883a1.053,1.053,0,0,0-1.054-1.054H115.62a1.054,1.054,0,0,0,0,2.108h4.272a1.053,1.053,0,0,0,1.054-1.054m0,4.883a1.053,1.053,0,0,0-1.054-1.054H115.62a1.054,1.054,0,1,0,0,2.108h4.272a1.053,1.053,0,0,0,1.054-1.054m0,4.884a1.053,1.053,0,0,0-1.054-1.054H115.62a1.054,1.054,0,1,0,0,2.108h4.272a1.053,1.053,0,0,0,1.054-1.054m0,4.883a1.053,1.053,0,0,0-1.054-1.054H115.62a1.054,1.054,0,1,0,0,2.108h4.272a1.052,1.052,0,0,0,1.054-1.053m0,4.883a1.053,1.053,0,0,0-1.054-1.054H115.62a1.054,1.054,0,0,0,0,2.108h4.272a1.053,1.053,0,0,0,1.054-1.054m15.984-34.181a1.053,1.053,0,0,0-1.054-1.054H124.661a1.054,1.054,0,1,0,0,2.108h11.216a1.053,1.053,0,0,0,1.054-1.054m0,4.883a1.053,1.053,0,0,0-1.054-1.054H124.661a1.054,1.054,0,1,0,0,2.108h11.216a1.053,1.053,0,0,0,1.054-1.054m0,4.883a1.053,1.053,0,0,0-1.054-1.053H124.661a1.053,1.053,0,1,0,0,2.107h11.216a1.053,1.053,0,0,0,1.054-1.054m0,4.883a1.053,1.053,0,0,0-1.054-1.054H124.661a1.054,1.054,0,0,0,0,2.108h11.216a1.053,1.053,0,0,0,1.054-1.054m0,4.883a1.053,1.053,0,0,0-1.054-1.054H124.661a1.054,1.054,0,1,0,0,2.108h11.216a1.053,1.053,0,0,0,1.054-1.054m13.428,4.884a1.053,1.053,0,0,0-1.054-1.054H138.089a1.054,1.054,0,1,0,0,2.108H149.3a1.053,1.053,0,0,0,1.054-1.054m0,4.883a1.053,1.053,0,0,0-1.054-1.054H138.089a1.054,1.054,0,1,0,0,2.108H149.3a1.052,1.052,0,0,0,1.054-1.053m0,4.883a1.053,1.053,0,0,0-1.054-1.054H138.089a1.054,1.054,0,1,0,0,2.108H149.3a1.053,1.053,0,0,0,1.054-1.054m-8.492-34.181a1.221,1.221,0,1,0-1.22,1.22,1.221,1.221,0,0,0,1.22-1.22m3.662,0a1.221,1.221,0,1,0-1.22,1.22,1.221,1.221,0,0,0,1.22-1.22m3.662,0a1.221,1.221,0,1,0-1.221,1.22,1.221,1.221,0,0,0,1.221-1.22m3.662,0a1.221,1.221,0,1,0-1.22,1.22,1.221,1.221,0,0,0,1.22-1.22m3.662,0a1.221,1.221,0,1,0-1.221,1.22,1.221,1.221,0,0,0,1.221-1.22m3.662,0a1.221,1.221,0,1,0-1.221,1.22,1.221,1.221,0,0,0,1.221-1.22m-18.311,9.766a1.221,1.221,0,1,0-1.22,1.221,1.221,1.221,0,0,0,1.22-1.221m3.662,0a1.221,1.221,0,1,0-1.22,1.221,1.221,1.221,0,0,0,1.22-1.221m3.662,0a1.221,1.221,0,1,0-1.221,1.221,1.221,1.221,0,0,0,1.221-1.221m3.662,0a1.221,1.221,0,1,0-1.22,1.221,1.221,1.221,0,0,0,1.22-1.221m3.662,0a1.221,1.221,0,1,0-1.221,1.221,1.221,1.221,0,0,0,1.221-1.221m3.662,0a1.221,1.221,0,1,0-1.221,1.221,1.221,1.221,0,0,0,1.221-1.221m-5.8,14.038a1.221,1.221,0,1,0-1.221,1.221,1.221,1.221,0,0,0,1.221-1.221m3.662,0a1.221,1.221,0,1,0-1.221,1.221,1.222,1.222,0,0,0,1.221-1.221m3.662,0a1.221,1.221,0,1,0-1.22,1.221,1.221,1.221,0,0,0,1.22-1.221m3.662,0a1.221,1.221,0,1,0-1.22,1.221,1.221,1.221,0,0,0,1.22-1.221m3.662,0a1.221,1.221,0,1,0-1.22,1.221,1.221,1.221,0,0,0,1.22-1.221m3.662,0a1.221,1.221,0,1,0-1.22,1.221,1.221,1.221,0,0,0,1.22-1.221m-18.311,10.071a1.221,1.221,0,1,0-1.221,1.221,1.221,1.221,0,0,0,1.221-1.221m3.662,0a1.221,1.221,0,1,0-1.221,1.221,1.222,1.222,0,0,0,1.221-1.221m3.662,0a1.221,1.221,0,1,0-1.22,1.221,1.221,1.221,0,0,0,1.22-1.221m3.662,0a1.221,1.221,0,1,0-1.22,1.221,1.221,1.221,0,0,0,1.22-1.221m3.662,0a1.221,1.221,0,1,0-1.22,1.221,1.221,1.221,0,0,0,1.22-1.221m3.662,0a1.221,1.221,0,1,0-1.22,1.221,1.221,1.221,0,0,0,1.22-1.221" transform="translate(-35.402 -72.574)" fill="#92e3a9"/>
            <path id="Trazado_806197" data-name="Trazado 806197" d="M119.892,295.047H115.62a1.054,1.054,0,1,1,0-2.108h4.272a1.054,1.054,0,1,1,0,2.108m1.054,3.829a1.054,1.054,0,0,0-1.054-1.054H115.62a1.054,1.054,0,0,0,0,2.108h4.272a1.053,1.053,0,0,0,1.054-1.054m0,4.884a1.053,1.053,0,0,0-1.054-1.055H115.62a1.054,1.054,0,0,0,0,2.108h4.272a1.053,1.053,0,0,0,1.054-1.053m0,4.883a1.053,1.053,0,0,0-1.054-1.054H115.62a1.054,1.054,0,0,0,0,2.108h4.272a1.053,1.053,0,0,0,1.054-1.054m0,4.883a1.054,1.054,0,0,0-1.054-1.054H115.62a1.054,1.054,0,0,0,0,2.108h4.272a1.054,1.054,0,0,0,1.054-1.054m0,4.884a1.053,1.053,0,0,0-1.054-1.054H115.62a1.054,1.054,0,0,0,0,2.108h4.272a1.053,1.053,0,0,0,1.054-1.053m15.984-24.416a1.054,1.054,0,0,0-1.054-1.054H124.661a1.054,1.054,0,1,0,0,2.108h11.216a1.053,1.053,0,0,0,1.054-1.054m0,4.883a1.054,1.054,0,0,0-1.054-1.054H124.661a1.054,1.054,0,0,0,0,2.108h11.216a1.053,1.053,0,0,0,1.054-1.054m0,4.884a1.053,1.053,0,0,0-1.054-1.055H124.661a1.054,1.054,0,0,0,0,2.108h11.216a1.053,1.053,0,0,0,1.054-1.053m0,4.883a1.053,1.053,0,0,0-1.054-1.054H124.661a1.054,1.054,0,0,0,0,2.108h11.216a1.053,1.053,0,0,0,1.054-1.054m0,4.883a1.054,1.054,0,0,0-1.054-1.054H124.661a1.054,1.054,0,0,0,0,2.108h11.216a1.054,1.054,0,0,0,1.054-1.054m13.428,4.884a1.053,1.053,0,0,0-1.054-1.054H138.089a1.054,1.054,0,1,0,0,2.108H149.3a1.053,1.053,0,0,0,1.054-1.053m-8.492-24.416a1.221,1.221,0,1,0-1.22,1.222,1.221,1.221,0,0,0,1.22-1.222m3.662,0a1.221,1.221,0,1,0-1.22,1.222,1.221,1.221,0,0,0,1.22-1.222m3.662,0a1.221,1.221,0,1,0-1.221,1.222,1.221,1.221,0,0,0,1.221-1.222m3.662,0a1.221,1.221,0,1,0-1.22,1.222,1.221,1.221,0,0,0,1.22-1.222m3.662,0a1.221,1.221,0,1,0-1.221,1.222,1.221,1.221,0,0,0,1.221-1.222m3.662,0a1.221,1.221,0,1,0-1.221,1.222,1.221,1.221,0,0,0,1.221-1.222m-18.311,9.767a1.221,1.221,0,1,0-1.22,1.22,1.221,1.221,0,0,0,1.22-1.22m3.662,0a1.221,1.221,0,1,0-1.22,1.22,1.221,1.221,0,0,0,1.22-1.22m3.662,0a1.221,1.221,0,1,0-1.221,1.22,1.221,1.221,0,0,0,1.221-1.22m3.662,0a1.221,1.221,0,1,0-1.22,1.22,1.221,1.221,0,0,0,1.22-1.22m3.662,0a1.221,1.221,0,1,0-1.221,1.22,1.221,1.221,0,0,0,1.221-1.22m3.662,0a1.221,1.221,0,1,0-1.221,1.22,1.221,1.221,0,0,0,1.221-1.22m-5.8,14.038a1.221,1.221,0,1,0-1.221,1.222,1.221,1.221,0,0,0,1.221-1.222m3.662,0a1.221,1.221,0,1,0-1.221,1.222,1.222,1.222,0,0,0,1.221-1.222m3.662,0a1.221,1.221,0,1,0-1.22,1.222,1.221,1.221,0,0,0,1.22-1.222m3.662,0a1.221,1.221,0,1,0-1.22,1.222,1.221,1.221,0,0,0,1.22-1.222m3.662,0a1.221,1.221,0,1,0-1.22,1.222,1.221,1.221,0,0,0,1.22-1.222m3.662,0a1.221,1.221,0,1,0-1.22,1.222,1.221,1.221,0,0,0,1.22-1.222" transform="translate(-35.402 -90.469)" fill="#92e3a9"/>
            <path id="Trazado_806198" data-name="Trazado 806198" d="M215.627,64.468h-4.273a1.054,1.054,0,0,1,0-2.108h4.273a1.054,1.054,0,0,1,0,2.108m1.054,3.829a1.053,1.053,0,0,0-1.054-1.054h-4.273a1.054,1.054,0,0,0,0,2.108h4.273a1.053,1.053,0,0,0,1.054-1.054m0,4.883a1.053,1.053,0,0,0-1.054-1.053h-4.273a1.054,1.054,0,0,0,0,2.108h4.273a1.054,1.054,0,0,0,1.054-1.054m0,4.883a1.053,1.053,0,0,0-1.054-1.054h-4.273a1.054,1.054,0,0,0,0,2.108h4.273a1.053,1.053,0,0,0,1.054-1.054m0,4.883a1.053,1.053,0,0,0-1.054-1.054h-4.273a1.054,1.054,0,0,0,0,2.108h4.273a1.053,1.053,0,0,0,1.054-1.054m0,4.884a1.053,1.053,0,0,0-1.054-1.054h-4.273a1.054,1.054,0,0,0,0,2.108h4.273a1.053,1.053,0,0,0,1.054-1.054m0,4.883a1.053,1.053,0,0,0-1.054-1.054h-4.273a1.054,1.054,0,0,0,0,2.108h4.273a1.053,1.053,0,0,0,1.054-1.054m0,4.883a1.053,1.053,0,0,0-1.054-1.054h-4.273a1.054,1.054,0,0,0,0,2.108h4.273a1.053,1.053,0,0,0,1.054-1.054m15.984-34.181a1.053,1.053,0,0,0-1.054-1.053H220.4a1.054,1.054,0,1,0,0,2.108h11.215a1.053,1.053,0,0,0,1.054-1.054m0,4.883a1.053,1.053,0,0,0-1.054-1.054H220.4a1.054,1.054,0,1,0,0,2.108h11.215a1.053,1.053,0,0,0,1.054-1.054m0,4.883a1.053,1.053,0,0,0-1.054-1.053H220.4a1.054,1.054,0,1,0,0,2.108h11.215a1.054,1.054,0,0,0,1.054-1.054m0,4.883a1.053,1.053,0,0,0-1.054-1.054H220.4a1.054,1.054,0,1,0,0,2.108h11.215a1.053,1.053,0,0,0,1.054-1.054m0,4.883a1.053,1.053,0,0,0-1.054-1.054H220.4a1.054,1.054,0,1,0,0,2.108h11.215a1.053,1.053,0,0,0,1.054-1.054m13.428,4.884a1.053,1.053,0,0,0-1.054-1.054H233.824a1.054,1.054,0,1,0,0,2.108h11.215a1.053,1.053,0,0,0,1.054-1.054m0,4.883a1.053,1.053,0,0,0-1.054-1.054H233.824a1.054,1.054,0,1,0,0,2.108h11.215a1.053,1.053,0,0,0,1.054-1.054m0,4.883a1.053,1.053,0,0,0-1.054-1.054H233.824a1.054,1.054,0,1,0,0,2.108h11.215a1.053,1.053,0,0,0,1.054-1.054M237.6,63.413a1.221,1.221,0,1,0-1.221,1.221,1.221,1.221,0,0,0,1.221-1.221m3.662,0a1.221,1.221,0,1,0-1.221,1.221,1.221,1.221,0,0,0,1.221-1.221m3.662,0a1.221,1.221,0,1,0-1.221,1.221,1.221,1.221,0,0,0,1.221-1.221m3.662,0a1.221,1.221,0,1,0-1.221,1.221,1.221,1.221,0,0,0,1.221-1.221m3.662,0a1.221,1.221,0,1,0-1.221,1.221,1.221,1.221,0,0,0,1.221-1.221m3.662,0a1.221,1.221,0,1,0-1.221,1.221,1.221,1.221,0,0,0,1.221-1.221M237.6,73.18A1.221,1.221,0,1,0,236.38,74.4,1.221,1.221,0,0,0,237.6,73.18m3.662,0a1.221,1.221,0,1,0-1.221,1.221,1.221,1.221,0,0,0,1.221-1.221m3.662,0A1.221,1.221,0,1,0,243.7,74.4a1.221,1.221,0,0,0,1.221-1.221m3.662,0a1.221,1.221,0,1,0-1.221,1.221,1.221,1.221,0,0,0,1.221-1.221m3.662,0a1.221,1.221,0,1,0-1.221,1.221,1.221,1.221,0,0,0,1.221-1.221m3.662,0a1.221,1.221,0,1,0-1.221,1.221,1.221,1.221,0,0,0,1.221-1.221m-5.8,14.038a1.221,1.221,0,1,0-1.221,1.221,1.221,1.221,0,0,0,1.221-1.221m3.662,0a1.221,1.221,0,1,0-1.221,1.221,1.221,1.221,0,0,0,1.221-1.221m3.662,0a1.221,1.221,0,1,0-1.221,1.221,1.221,1.221,0,0,0,1.221-1.221m3.662,0a1.221,1.221,0,1,0-1.221,1.221,1.221,1.221,0,0,0,1.221-1.221m3.662,0a1.221,1.221,0,1,0-1.221,1.221,1.221,1.221,0,0,0,1.221-1.221m3.662,0a1.221,1.221,0,1,0-1.221,1.221,1.221,1.221,0,0,0,1.221-1.221M250.113,97.289a1.221,1.221,0,1,0-1.221,1.221,1.221,1.221,0,0,0,1.221-1.221m3.662,0a1.221,1.221,0,1,0-1.221,1.221,1.221,1.221,0,0,0,1.221-1.221m3.662,0a1.221,1.221,0,1,0-1.221,1.221,1.221,1.221,0,0,0,1.221-1.221m3.662,0a1.221,1.221,0,1,0-1.221,1.221,1.221,1.221,0,0,0,1.221-1.221m3.662,0a1.221,1.221,0,1,0-1.221,1.221,1.221,1.221,0,0,0,1.221-1.221m3.662,0A1.221,1.221,0,1,0,267.2,98.51a1.221,1.221,0,0,0,1.221-1.221" transform="translate(-64.985 -19.218)" fill="#4be5f1"/>
            <path id="Trazado_806199" data-name="Trazado 806199" d="M215.627,121.016h-4.273a1.054,1.054,0,0,1,0-2.108h4.273a1.054,1.054,0,0,1,0,2.108m1.054,3.829a1.053,1.053,0,0,0-1.054-1.054h-4.273a1.054,1.054,0,0,0,0,2.108h4.273a1.052,1.052,0,0,0,1.054-1.053m0,4.883a1.054,1.054,0,0,0-1.054-1.054h-4.273a1.054,1.054,0,0,0,0,2.108h4.273a1.053,1.053,0,0,0,1.054-1.053m0,4.882a1.052,1.052,0,0,0-1.054-1.053h-4.273a1.054,1.054,0,0,0,0,2.108h4.273a1.054,1.054,0,0,0,1.054-1.054m0,4.883a1.054,1.054,0,0,0-1.054-1.054h-4.273a1.054,1.054,0,0,0,0,2.108h4.273a1.054,1.054,0,0,0,1.054-1.054m0,4.883a1.052,1.052,0,0,0-1.054-1.053h-4.273a1.054,1.054,0,0,0,0,2.108h4.273a1.054,1.054,0,0,0,1.054-1.055m0,4.884a1.053,1.053,0,0,0-1.054-1.054h-4.273a1.053,1.053,0,0,0,0,2.107h4.273a1.052,1.052,0,0,0,1.054-1.053m0,4.882a1.053,1.053,0,0,0-1.054-1.053h-4.273a1.054,1.054,0,0,0,0,2.108h4.273a1.054,1.054,0,0,0,1.054-1.054m15.984-34.18a1.053,1.053,0,0,0-1.054-1.054H220.4a1.054,1.054,0,1,0,0,2.108h11.215a1.054,1.054,0,0,0,1.054-1.054m0,4.883a1.053,1.053,0,0,0-1.054-1.054H220.4a1.054,1.054,0,1,0,0,2.108h11.215a1.052,1.052,0,0,0,1.054-1.053m0,4.883a1.054,1.054,0,0,0-1.054-1.054H220.4a1.054,1.054,0,1,0,0,2.108h11.215a1.053,1.053,0,0,0,1.054-1.053m0,4.882a1.052,1.052,0,0,0-1.054-1.053H220.4a1.054,1.054,0,1,0,0,2.108h11.215a1.054,1.054,0,0,0,1.054-1.054m0,4.883a1.054,1.054,0,0,0-1.054-1.054H220.4a1.054,1.054,0,0,0,0,2.108h11.215a1.054,1.054,0,0,0,1.054-1.054m13.428,4.883a1.052,1.052,0,0,0-1.054-1.053H233.824a1.054,1.054,0,0,0,0,2.108h11.215a1.054,1.054,0,0,0,1.054-1.055m0,4.884a1.053,1.053,0,0,0-1.054-1.054H233.824a1.053,1.053,0,1,0,0,2.107h11.215a1.052,1.052,0,0,0,1.054-1.053m0,4.882a1.053,1.053,0,0,0-1.054-1.053H233.824a1.054,1.054,0,1,0,0,2.108h11.215a1.054,1.054,0,0,0,1.054-1.054m-8.492-34.18a1.221,1.221,0,1,0-1.221,1.22,1.22,1.22,0,0,0,1.221-1.22m3.662,0a1.221,1.221,0,1,0-1.221,1.22,1.22,1.22,0,0,0,1.221-1.22m3.662,0a1.221,1.221,0,1,0-1.221,1.22,1.22,1.22,0,0,0,1.221-1.22m3.662,0a1.221,1.221,0,1,0-1.221,1.22,1.22,1.22,0,0,0,1.221-1.22m3.662,0a1.221,1.221,0,1,0-1.221,1.22,1.22,1.22,0,0,0,1.221-1.22m3.662,0a1.221,1.221,0,1,0-1.221,1.22,1.22,1.22,0,0,0,1.221-1.22M237.6,129.728a1.221,1.221,0,1,0-1.221,1.221,1.221,1.221,0,0,0,1.221-1.221m3.662,0a1.221,1.221,0,1,0-1.221,1.221,1.221,1.221,0,0,0,1.221-1.221m3.662,0a1.221,1.221,0,1,0-1.221,1.221,1.221,1.221,0,0,0,1.221-1.221m3.662,0a1.221,1.221,0,1,0-1.221,1.221,1.221,1.221,0,0,0,1.221-1.221m3.662,0a1.221,1.221,0,1,0-1.221,1.221,1.221,1.221,0,0,0,1.221-1.221m3.662,0a1.221,1.221,0,1,0-1.221,1.221,1.221,1.221,0,0,0,1.221-1.221m-5.8,14.038a1.221,1.221,0,1,0-1.221,1.221,1.221,1.221,0,0,0,1.221-1.221m3.662,0a1.221,1.221,0,1,0-1.221,1.221,1.221,1.221,0,0,0,1.221-1.221m3.662,0a1.221,1.221,0,1,0-1.221,1.221,1.221,1.221,0,0,0,1.221-1.221m3.662,0a1.221,1.221,0,1,0-1.221,1.221,1.221,1.221,0,0,0,1.221-1.221m3.662,0a1.221,1.221,0,1,0-1.221,1.221,1.221,1.221,0,0,0,1.221-1.221m3.662,0a1.221,1.221,0,1,0-1.221,1.221,1.221,1.221,0,0,0,1.221-1.221m-18.311,10.071a1.221,1.221,0,1,0-1.221,1.222,1.221,1.221,0,0,0,1.221-1.222m3.662,0a1.221,1.221,0,1,0-1.221,1.222,1.221,1.221,0,0,0,1.221-1.222m3.662,0a1.221,1.221,0,1,0-1.221,1.222,1.221,1.221,0,0,0,1.221-1.222m3.662,0a1.221,1.221,0,1,0-1.221,1.222,1.221,1.221,0,0,0,1.221-1.222m3.662,0a1.221,1.221,0,1,0-1.221,1.222,1.221,1.221,0,0,0,1.221-1.222m3.662,0a1.221,1.221,0,1,0-1.221,1.222,1.221,1.221,0,0,0,1.221-1.222" transform="translate(-64.985 -36.692)" fill="#92e3a9"/>
            <path id="Trazado_806200" data-name="Trazado 806200" d="M215.627,178.928h-4.273a1.054,1.054,0,0,1,0-2.108h4.273a1.054,1.054,0,0,1,0,2.108m1.054,3.829a1.053,1.053,0,0,0-1.054-1.054h-4.273a1.054,1.054,0,0,0,0,2.108h4.273a1.053,1.053,0,0,0,1.054-1.054m0,4.883a1.054,1.054,0,0,0-1.054-1.054h-4.273a1.054,1.054,0,0,0,0,2.108h4.273a1.053,1.053,0,0,0,1.054-1.053m0,4.883a1.053,1.053,0,0,0-1.054-1.054h-4.273a1.054,1.054,0,0,0,0,2.108h4.273a1.053,1.053,0,0,0,1.054-1.054m0,4.883a1.053,1.053,0,0,0-1.054-1.054h-4.273a1.054,1.054,0,0,0,0,2.108h4.273a1.053,1.053,0,0,0,1.054-1.054m0,4.884a1.053,1.053,0,0,0-1.054-1.054h-4.273a1.054,1.054,0,0,0,0,2.108h4.273a1.053,1.053,0,0,0,1.054-1.054m0,4.883a1.053,1.053,0,0,0-1.054-1.054h-4.273a1.053,1.053,0,0,0,0,2.107h4.273a1.053,1.053,0,0,0,1.054-1.053m0,4.883A1.053,1.053,0,0,0,215.627,211h-4.273a1.054,1.054,0,0,0,0,2.108h4.273a1.053,1.053,0,0,0,1.054-1.054m15.984-34.181a1.053,1.053,0,0,0-1.054-1.054H220.4a1.054,1.054,0,0,0,0,2.108h11.215a1.054,1.054,0,0,0,1.054-1.054m0,4.883a1.053,1.053,0,0,0-1.054-1.054H220.4a1.054,1.054,0,1,0,0,2.108h11.215a1.053,1.053,0,0,0,1.054-1.054m0,4.883a1.054,1.054,0,0,0-1.054-1.054H220.4a1.054,1.054,0,1,0,0,2.108h11.215a1.053,1.053,0,0,0,1.054-1.053m0,4.883a1.053,1.053,0,0,0-1.054-1.054H220.4a1.054,1.054,0,1,0,0,2.108h11.215a1.053,1.053,0,0,0,1.054-1.054m0,4.883a1.053,1.053,0,0,0-1.054-1.054H220.4a1.054,1.054,0,1,0,0,2.108h11.215a1.053,1.053,0,0,0,1.054-1.054m13.428,4.884a1.053,1.053,0,0,0-1.054-1.054H233.824a1.054,1.054,0,0,0,0,2.108h11.215a1.053,1.053,0,0,0,1.054-1.054m0,4.883a1.053,1.053,0,0,0-1.054-1.054H233.824a1.053,1.053,0,1,0,0,2.107h11.215a1.053,1.053,0,0,0,1.054-1.053m0,4.883A1.053,1.053,0,0,0,245.039,211H233.824a1.054,1.054,0,1,0,0,2.108h11.215a1.053,1.053,0,0,0,1.054-1.054M237.6,177.873a1.221,1.221,0,1,0-1.221,1.221,1.221,1.221,0,0,0,1.221-1.221m3.662,0a1.221,1.221,0,1,0-1.221,1.221,1.221,1.221,0,0,0,1.221-1.221m3.662,0a1.221,1.221,0,1,0-1.221,1.221,1.221,1.221,0,0,0,1.221-1.221m3.662,0a1.221,1.221,0,1,0-1.221,1.221,1.221,1.221,0,0,0,1.221-1.221m3.662,0a1.221,1.221,0,1,0-1.221,1.221,1.221,1.221,0,0,0,1.221-1.221m3.662,0a1.221,1.221,0,1,0-1.221,1.221,1.221,1.221,0,0,0,1.221-1.221M237.6,187.64a1.221,1.221,0,1,0-1.221,1.22,1.221,1.221,0,0,0,1.221-1.22m3.662,0a1.221,1.221,0,1,0-1.221,1.22,1.221,1.221,0,0,0,1.221-1.22m3.662,0a1.221,1.221,0,1,0-1.221,1.22,1.221,1.221,0,0,0,1.221-1.22m3.662,0a1.221,1.221,0,1,0-1.221,1.22,1.221,1.221,0,0,0,1.221-1.22m3.662,0a1.221,1.221,0,1,0-1.221,1.22,1.221,1.221,0,0,0,1.221-1.22m3.662,0a1.221,1.221,0,1,0-1.221,1.22,1.221,1.221,0,0,0,1.221-1.22m-5.8,14.038a1.221,1.221,0,1,0-1.221,1.221,1.221,1.221,0,0,0,1.221-1.221m3.662,0a1.221,1.221,0,1,0-1.221,1.221,1.221,1.221,0,0,0,1.221-1.221m3.662,0a1.221,1.221,0,1,0-1.221,1.221,1.221,1.221,0,0,0,1.221-1.221m3.662,0a1.221,1.221,0,1,0-1.221,1.221,1.221,1.221,0,0,0,1.221-1.221m3.662,0a1.221,1.221,0,1,0-1.221,1.221,1.221,1.221,0,0,0,1.221-1.221m3.662,0A1.221,1.221,0,1,0,267.2,202.9a1.221,1.221,0,0,0,1.221-1.221m-18.311,10.071a1.221,1.221,0,1,0-1.221,1.221,1.221,1.221,0,0,0,1.221-1.221m3.662,0a1.221,1.221,0,1,0-1.221,1.221,1.221,1.221,0,0,0,1.221-1.221m3.662,0a1.221,1.221,0,1,0-1.221,1.221,1.221,1.221,0,0,0,1.221-1.221m3.662,0a1.221,1.221,0,1,0-1.221,1.221,1.221,1.221,0,0,0,1.221-1.221m3.662,0a1.221,1.221,0,1,0-1.221,1.221,1.221,1.221,0,0,0,1.221-1.221m3.662,0a1.221,1.221,0,1,0-1.221,1.221,1.221,1.221,0,0,0,1.221-1.221" transform="translate(-64.985 -54.587)" fill="#92e3a9"/>
            <path id="Trazado_806201" data-name="Trazado 806201" d="M.547,246.521H245.041v-221l-8.115,3.4L182.455,69.83l-67.482,48.531L57.661,166.893l-34.2,35.59L4.908,229.577S-.035,241.925.547,246.521" transform="translate(-0.154 -7.886)" fill="#cfcfcf"/>
            <path id="Trazado_806202" data-name="Trazado 806202" d="M244.887,246.711H.392a.346.346,0,0,1-.343-.3c-.586-4.631,4.18-16.608,4.383-17.115a.365.365,0,0,1,.035-.067l18.55-27.1L57.257,166.5,114.6,117.942l67.5-48.548,54.465-40.9a.3.3,0,0,1,.073-.042l8.116-3.4a.345.345,0,0,1,.479.319v221a.346.346,0,0,1-.346.346M.706,246.02H244.541V25.885l-7.6,3.184L182.508,69.951l-67.487,48.535L57.73,167,23.552,202.566,5.06,229.585C4.777,230.3.39,241.469.706,246.02" transform="translate(0 -7.732)" fill="#263238"/>
            <path id="Trazado_806203" data-name="Trazado 806203" d="M347.562,27.5V246.52h4.724v-221Z" transform="translate(-107.399 -7.886)" fill="#cfcfcf"/>
            <path id="Trazado_806204" data-name="Trazado 806204" d="M352.132,246.711h-4.724a.346.346,0,0,1-.346-.346V27.347a.344.344,0,0,1,.212-.319L352,25.048a.345.345,0,0,1,.479.319v221a.346.346,0,0,1-.345.346m-4.379-.691h4.033V25.886l-4.033,1.69Z" transform="translate(-107.245 -7.732)" fill="#263238"/>
            <rect id="Rectángulo_375649" data-name="Rectángulo 375649" width="4.724" height="46.987" transform="translate(240.163 65.007)" fill="#828282"/>
            <path id="Trazado_806205" data-name="Trazado 806205" d="M352.132,141.256h-4.724a.346.346,0,0,1-.346-.345V93.924a.345.345,0,0,1,.346-.345h4.724a.345.345,0,0,1,.345.345v46.987a.346.346,0,0,1-.345.345m-4.379-.691h4.033v-46.3h-4.033Z" transform="translate(-107.245 -28.916)" fill="#263238"/>
            <path id="Trazado_806206" data-name="Trazado 806206" d="M77.369,251.6c-2.445,0-12.237-.368-19.353-5.954l.426-.544c7.955,6.245,19.363,5.8,19.481,5.8h61.205v.691H77.939c-.013,0-.214.009-.571.009" transform="translate(-17.927 -75.739)" fill="#263238"/>
            <rect id="Rectángulo_375650" data-name="Rectángulo 375650" width="3.751" height="0.691" transform="translate(125.645 175.162)" fill="#263238"/>
            <path id="Trazado_806207" data-name="Trazado 806207" d="M84.251,243.95a35.969,35.969,0,0,1-3.7-.208l.072-.687a32.175,32.175,0,0,0,4.264.193h69.4v.691H84.9c-.02,0-.249.011-.652.011" transform="translate(-24.891 -75.106)" fill="#263238"/>
            <rect id="Rectángulo_375651" data-name="Rectángulo 375651" width="69.384" height="0.691" transform="translate(60.012 161.123)" fill="#263238"/>
            <rect id="Rectángulo_375652" data-name="Rectángulo 375652" width="97.572" height="63.135" transform="translate(138.504 117.828)" fill="#b0b0b0"/>
            <path id="Trazado_806208" data-name="Trazado 806208" d="M298.2,233.846H199.942V170.02H298.2Zm-97.572-.691h96.881V170.711H200.633Z" transform="translate(-61.784 -52.537)" fill="#263238"/>
            <path id="Trazado_806209" data-name="Trazado 806209" d="M298.014,221,273.62,196.13l-24.393,27.263-21.045-14.827-27.741,33h97.572Z" transform="translate(-61.938 -60.606)" fill="#828282"/>
            <path id="Trazado_806210" data-name="Trazado 806210" d="M298.028,241.688H199.369l28.422-33.813,21.052,14.833L273.278,195.4l24.75,25.236ZM200.852,241h96.485v-20.08L273.3,196.41l-24.353,27.217-.252-.177L227.911,208.8Z" transform="translate(-61.607 -60.38)" fill="#263238"/>
            <path id="Trazado_806211" data-name="Trazado 806211" d="M225.381,192.577A7.082,7.082,0,1,1,218.3,185.5a7.081,7.081,0,0,1,7.081,7.081" transform="translate(-65.268 -57.32)" fill="#828282"/>
            <path id="Trazado_806212" data-name="Trazado 806212" d="M218.145,199.85a7.427,7.427,0,1,1,7.427-7.427,7.435,7.435,0,0,1-7.427,7.427m0-14.163a6.736,6.736,0,1,0,6.736,6.736,6.743,6.743,0,0,0-6.736-6.736" transform="translate(-65.113 -57.165)" fill="#263238"/>
            <path id="Trazado_806213" data-name="Trazado 806213" d="M200.441,107.682l64.732-39.364h32.84v63.135H200.441Z" transform="translate(-61.938 -21.111)" fill="#b0b0b0"/>
            <path id="Trazado_806214" data-name="Trazado 806214" d="M298.2,131.643H199.942v-24.31l64.981-39.516H298.2Zm-97.572-.691h96.881V68.508h-32.4l-64.483,39.214Z" transform="translate(-61.784 -20.956)" fill="#263238"/>
            <path id="Trazado_806215" data-name="Trazado 806215" d="M200.441,139.366l27.741-33,21.045,14.827L273.62,93.928,298.014,118.8v20.567Z" transform="translate(-61.938 -29.024)" fill="#828282"/>
            <path id="Trazado_806216" data-name="Trazado 806216" d="M298.028,139.486H199.369l28.422-33.813,21.052,14.833L273.278,93.2l24.75,25.236Zm-97.176-.691h96.485v-20.08L273.3,94.207l-24.353,27.217L227.911,106.6Z" transform="translate(-61.607 -28.799)" fill="#263238"/>
            <path id="Trazado_806217" data-name="Trazado 806217" d="M240.82,306.31H9.591v-.345c0-17.626,27.114-48.454,28.269-49.758l.242-.274.26.257c7.6,7.528,18.362,8.29,18.47,8.3H240.82ZM10.285,305.62H240.129V265.177H56.809c-.13-.008-10.9-.764-18.671-8.239-2.716,3.125-27.508,32.119-27.853,48.682" transform="translate(-2.964 -79.085)" fill="#263238"/>
            <rect id="Rectángulo_375653" data-name="Rectángulo 375653" width="234.179" height="0.691" transform="translate(6.92 226.588) rotate(-10.141)" fill="#263238"/>
            <path id="Trazado_806218" data-name="Trazado 806218" d="M250.324,311.4c-7.568-1.025-185.495-25.167-198.743-30.649a20.826,20.826,0,0,1-9.965-7.957l.584-.37a20.144,20.144,0,0,0,9.646,7.688c13.165,5.447,196.719,30.352,198.572,30.6Z" transform="translate(-12.859 -84.183)" fill="#263238"/>
            <g id="Grupo_1066805" data-name="Grupo 1066805" transform="translate(0.393 17.207)" opacity="0.2">
              <g id="Grupo_1066804" data-name="Grupo 1066804">
                <g id="Grupo_1066803" data-name="Grupo 1066803" clip-path="url(#clip-path-3)">
                  <path id="Trazado_806219" data-name="Trazado 806219" d="M245.063,24.9s-30.013,48.66-43.578,94.884S191.938,246.4,191.938,246.4H.568s3.517-23.143,18.845-39.288c21.672-22.828,63.224-67.758,109.448-101.42s69.772-48.591,75.8-53.615,40.4-27.173,40.4-27.173" transform="translate(-0.568 -24.902)"/>
                </g>
              </g>
            </g>
            <path id="Trazado_806220" data-name="Trazado 806220" d="M245.05,24.9s-16.47,8.376-36.844,36.389-42.274,74.36-42.274,74.36S14.967,171.95.555,246.329c0,0-8.066-68.409,244.495-221.427" transform="translate(-0.163 -7.695)" fill="#fff"/>
            <path id="Trazado_806221" data-name="Trazado 806221" d="M.4,246.521H.384a.347.347,0,0,1-.33-.305c-.083-.7-1.7-17.66,27.612-53.59,17.175-21.054,41.485-44.267,72.258-68.994,37.832-30.4,85.59-63.186,142-97.484,1.777-1.167,2.776-1.687,2.815-1.707a.346.346,0,0,1,.336.6c-.938.568-1.882,1.142-2.814,1.707C236.72,30.4,223.56,40.4,208.328,61.341c-20.12,27.665-42.023,73.842-42.241,74.305a.345.345,0,0,1-.231.188,467.838,467.838,0,0,0-77.229,27.428c-22.928,10.654-41.8,22.263-56.087,34.507-17.83,15.277-28.53,31.586-31.8,48.471a.345.345,0,0,1-.339.281M235.475,30.894C111.879,106.728,54.65,160.7,28.347,192.886,7.723,218.122,2.45,234.173,1.139,241.495c4.232-15.4,14.626-30.265,30.954-44.254,14.339-12.285,33.264-23.93,56.252-34.61a469.651,469.651,0,0,1,77.188-27.43c1.394-2.929,22.651-47.337,42.236-74.266,10.986-15.106,20.912-24.553,27.707-30.04" transform="translate(-0.004 -7.541)" fill="#263238"/>
          </g>
        </g>
        <g id="Grupo_1066809" data-name="Grupo 1066809">
          <g id="Grupo_1066808" data-name="Grupo 1066808" clip-path="url(#clip-path)">
            <path id="Trazado_806222" data-name="Trazado 806222" d="M248.6,368.27s-4.69,2.847-6.365,3.685-5.527,1.674-5.527,2.68,4.355,1.506,7.537,1.506,11.222-.5,12.226-.67,1-1.173.837-2.68a44.848,44.848,0,0,0-1.508-5.526Z" transform="translate(-73.145 -113.488)" fill="#fff"/>
            <path id="Trazado_806223" data-name="Trazado 806223" d="M244.09,376.317c-.321,0-7.882-.021-7.882-1.853,0-.853,1.35-1.384,3.573-2.159a20.3,20.3,0,0,0,2.146-.829c1.642-.822,6.293-3.643,6.339-3.671l.132-.047,7.486-1.044.091.272a44.1,44.1,0,0,1,1.523,5.6c.132,1.189.313,2.819-1.124,3.058-1.092.182-9.154.674-12.284.674m4.473-7.885c-.579.351-4.744,2.868-6.328,3.662a20.58,20.58,0,0,1-2.227.864c-1.086.379-3.109,1.083-3.109,1.506.037.457,3.141,1.162,7.191,1.162,3.209,0,11.238-.51,12.17-.665.614-.1.737-.618.551-2.3a40.3,40.3,0,0,0-1.4-5.184Z" transform="translate(-72.99 -113.317)" fill="#263238"/>
            <path id="Trazado_806224" data-name="Trazado 806224" d="M296.335,365.613s.5,7.369,2.68,8.039,5.527.5,5.862-2.009-2.01-8.709-2.01-8.709-5.192,2.847-6.532,2.68" transform="translate(-91.57 -112.149)" fill="#fff"/>
            <path id="Trazado_806225" data-name="Trazado 806225" d="M301.1,374.112a8.2,8.2,0,0,1-2.356-.351c-2.336-.718-2.869-7.566-2.922-8.345L295.8,365l.415.052c.9.106,4.353-1.56,6.324-2.64l.348-.191.141.372c.1.256,2.371,6.307,2.029,8.877a2.713,2.713,0,0,1-1.258,1.98,5.048,5.048,0,0,1-2.693.665m-4.561-8.387c.231,2.775,1.049,6.958,2.409,7.376a5.954,5.954,0,0,0,4.474-.236,2.013,2.013,0,0,0,.945-1.49c.274-2.052-1.363-6.806-1.853-8.17-1.147.614-4.44,2.32-5.974,2.519" transform="translate(-91.403 -111.928)" fill="#263238"/>
            <path id="Trazado_806226" data-name="Trazado 806226" d="M248.6,258.858S236.37,286.493,236.37,291.35s-.5,6.2,1,9.882,8.92,30.358,8.92,30.358l1,3.684a7.929,7.929,0,0,0,4.69,1.508c2.847,0,3.517.167,3.852-1.34s.837-2.68.5-4.02-.67-1.842-1.341-4.187-1.842-4.523-2.009-10.217-2.465-20.59-2.465-21.428,9.624-17.807,9.624-17.807.168,13.566,1.173,16.749S274.6,325.581,274.6,325.581s.335,2.01.67,3.517,1.173,4.187,1.173,4.187a4.4,4.4,0,0,0,3.014,1c2.01,0,5.361-2.512,5.361-2.512s-.336-2.512-.5-4.69-1.674-4.523-1.674-5.527-1.718-14.3-3.058-17.985-4.689-11.389-4.857-12.9.5-12.562.5-12.562l1.34-11.222Z" transform="translate(-73.015 -79.989)" fill="#451484"/>
            <path id="Trazado_806227" data-name="Trazado 806227" d="M253.153,336.947l-.549,0-.77,0a8.222,8.222,0,0,1-4.909-1.586l-.086-.07-1.034-3.791c-.073-.265-7.423-26.694-8.906-30.318a14.57,14.57,0,0,1-1.077-7.219c.022-.8.047-1.708.047-2.794,0-4.874,11.755-31.5,12.255-32.631l.122-.276,28.543,8.2-1.375,11.514c0,.09-.664,11.021-.5,12.481a65.614,65.614,0,0,0,2.828,7.691c.783,1.944,1.522,3.783,2.01,5.126,1.353,3.72,3.078,16.966,3.078,18.1a6.7,6.7,0,0,0,.584,1.789,12.913,12.913,0,0,1,1.09,3.712c.165,2.143.5,4.646.5,4.67l.026.2-.162.122c-.14.105-3.465,2.581-5.566,2.581a4.721,4.721,0,0,1-3.259-1.106l-.06-.059-.026-.082c-.035-.11-.846-2.711-1.18-4.215-.307-1.377-.616-3.192-.666-3.493-.708-1.607-12.28-27.911-13.269-31.045-.837-2.649-1.1-12.109-1.168-15.579-3.739,6.614-8.816,15.777-8.957,16.56,0,.2.236,1.914.507,3.894.69,5.051,1.844,13.5,1.961,17.5a26.113,26.113,0,0,0,1.532,8.671c.167.5.326.978.464,1.461.345,1.208.6,1.933.813,2.517a16.648,16.648,0,0,1,.531,1.682,6.3,6.3,0,0,1-.265,3.223c-.079.305-.162.622-.236.955-.331,1.491-1.054,1.616-2.87,1.616m-5.707-2.063a7.757,7.757,0,0,0,4.388,1.367l.775,0c2.261.01,2.506-.02,2.74-1.072.076-.341.16-.666.242-.98a5.684,5.684,0,0,0,.263-2.881,15.629,15.629,0,0,0-.51-1.617c-.212-.592-.476-1.331-.827-2.559-.135-.475-.291-.941-.455-1.432a27.061,27.061,0,0,1-1.567-8.869c-.116-3.956-1.267-12.387-1.955-17.425-.345-2.524-.511-3.749-.511-4.014,0-.862,7.4-13.977,9.67-17.977l.631-1.111.015,1.278c0,.135.178,13.55,1.157,16.649.988,3.128,13.138,30.735,13.26,31.013l.024.083c0,.02.338,2.018.667,3.5.293,1.32.987,3.586,1.137,4.068a4.272,4.272,0,0,0,2.714.853c1.631,0,4.308-1.837,4.99-2.325-.083-.645-.339-2.7-.477-4.505a12.361,12.361,0,0,0-1.041-3.5,6.533,6.533,0,0,1-.636-2.052c0-.8-1.689-14.164-3.036-17.866-.485-1.333-1.222-3.165-2-5.1a60.405,60.405,0,0,1-2.873-7.872c-.169-1.52.473-12.168.5-12.62l1.307-10.95-27.4-7.874c-1.274,2.9-12.075,27.6-12.075,32.076,0,1.093-.026,2.009-.048,2.814a13.87,13.87,0,0,0,1.027,6.937c1.5,3.662,8.629,29.306,8.932,30.4Z" transform="translate(-72.861 -79.803)" fill="#263238"/>
            <path id="Trazado_806228" data-name="Trazado 806228" d="M272.05,171.129s-10.082-6.768-11.548-8.528a49.413,49.413,0,0,1-3.958-5.277c-.88-1.466-3.156-4.369-4.916-4.369s-2.188.945-3.067,1.385-2.125,1.741-1.979,2.474-.153,1.683.726,2.122a5.278,5.278,0,0,1,1.648,1.835l-.791,2.77s2.368-.061,3.248-.061a15.79,15.79,0,0,0,2.345-.293h.88s7.9,10.889,9.22,12.8,2.458,3.535,3.337,4.854,4.854,5.461,4.854,5.461,6.255.945,7.281-2.427,3.767-5.188,3.034-6.068-10.315-6.674-10.315-6.674" transform="translate(-76.192 -47.264)" fill="#fff"/>
            <path id="Trazado_806229" data-name="Trazado 806229" d="M273.8,186.616a14.137,14.137,0,0,1-1.953-.13l-.117-.018-.082-.084c-.163-.17-4.006-4.179-4.893-5.509-.716-1.074-1.6-2.356-2.623-3.824l-.711-1.025c-1.22-1.763-8.177-11.356-9.111-12.647h-.7a14.475,14.475,0,0,1-2.345.293c-.878,0-3.239.061-3.239.061l-.471.012.881-3.083A4.591,4.591,0,0,0,247,159.092a1.761,1.761,0,0,1-.864-1.783,3.551,3.551,0,0,0-.046-.581c-.2-1,1.287-2.412,2.163-2.85a3.905,3.905,0,0,0,.661-.457,3.622,3.622,0,0,1,2.561-.965c2.041,0,4.454,3.275,5.211,4.536a49.7,49.7,0,0,0,3.927,5.234c1.4,1.683,11.16,8.25,11.468,8.458,1.02.616,9.648,5.849,10.395,6.744.535.642-.032,1.417-.818,2.49a12.833,12.833,0,0,0-2.15,3.9c-.723,2.374-3.685,2.8-5.71,2.8m-1.736-.8c.83.1,5.928.609,6.784-2.2a13.625,13.625,0,0,1,2.254-4.107c.533-.726,1.034-1.412.846-1.639-.511-.614-6.4-4.283-10.229-6.6l-.014-.008c-.413-.278-10.14-6.817-11.621-8.593a50.332,50.332,0,0,1-3.988-5.321c-1.048-1.744-3.172-4.2-4.619-4.2a2.965,2.965,0,0,0-2.131.814,4.461,4.461,0,0,1-.782.534c-.865.433-1.888,1.629-1.794,2.1a4.152,4.152,0,0,1,.059.7c.019.612.05.969.482,1.186a5.539,5.539,0,0,1,1.8,1.977l.069.125-.7,2.455c.739-.018,2.15-.05,2.787-.05a15.559,15.559,0,0,0,2.277-.286l1.124-.007.1.142c.079.11,7.918,10.914,9.224,12.8l.711,1.025c1.021,1.473,1.912,2.756,2.63,3.834.783,1.174,4.157,4.723,4.733,5.326" transform="translate(-76.038 -47.11)" fill="#263238"/>
            <path id="Trazado_806230" data-name="Trazado 806230" d="M285.574,182.669c-4.038,1.96-6.448,5.959-7.673,8.635,1.486,1.732,3.831,4.176,3.831,4.176s6.255.945,7.281-2.427,3.767-5.189,3.034-6.068a65.451,65.451,0,0,0-6.473-4.316" transform="translate(-85.874 -56.446)" fill="#4be5f1"/>
            <path id="Trazado_806231" data-name="Trazado 806231" d="M283.452,195.776a14.139,14.139,0,0,1-1.953-.13l-.117-.018-.082-.085c-.023-.024-2.369-2.47-3.844-4.189l-.144-.167.092-.2c1.341-2.932,3.788-6.839,7.836-8.8l.171-.083.162.1c6.012,3.736,6.422,4.227,6.556,4.388.536.642-.032,1.417-.818,2.49a12.832,12.832,0,0,0-2.15,3.9c-.723,2.374-3.685,2.8-5.71,2.8m-1.736-.8c.83.1,5.928.609,6.784-2.2a13.625,13.625,0,0,1,2.254-4.107c.533-.726,1.034-1.412.846-1.639-.141-.169-1.03-.909-6.227-4.142-3.673,1.856-5.954,5.423-7.246,8.183,1.3,1.5,3.174,3.471,3.59,3.906" transform="translate(-85.692 -56.27)" fill="#263238"/>
            <path id="Trazado_806232" data-name="Trazado 806232" d="M246.2,204.923s-4.934-13.953-5.786-16.336-1.191-3.4-1.191-3.4,2.043-3.743,2.043-5.275-2.723-3.062-2.723-3.062l-1.361-2.723s-2.552.171-2.723,1.191a6.592,6.592,0,0,1-.51,1.7s-3.233,1.872-3.233,3.4,3.743,6.806,3.743,6.806,3.233,16.506,4.424,20.93,6.151,8.607,7.659,7.1-.342-10.333-.342-10.333" transform="translate(-71.291 -53.805)" fill="#fff"/>
            <path id="Trazado_806233" data-name="Trazado 806233" d="M245.552,215.754a2.553,2.553,0,0,1-.661-.095c-2.224-.594-5.547-4.033-6.5-7.575-1.14-4.235-4.179-19.681-4.415-20.88-.549-.777-3.765-5.4-3.765-6.946,0-1.577,2.687-3.273,3.31-3.646a6.657,6.657,0,0,0,.438-1.516c.2-1.229,2.569-1.447,3.041-1.479l.229-.015,1.417,2.835c.551.323,2.8,1.742,2.8,3.311,0,1.449-1.639,4.608-2.012,5.306.12.353.473,1.383,1.142,3.255.851,2.383,5.786,16.336,5.786,16.336l.012.044c.193.922,1.842,9.055.248,10.649a1.464,1.464,0,0,1-1.074.415m-8.733-41.427c-.907.1-2.1.413-2.178.883a6.876,6.876,0,0,1-.543,1.8l-.046.093-.089.052c-1.184.686-3.06,2.135-3.06,3.1,0,1.043,2.2,4.523,3.68,6.607l.057.133c.032.164,3.244,16.544,4.418,20.906.881,3.27,4.009,6.551,6.012,7.088a1.065,1.065,0,0,0,1.069-.142c1-1,.267-6.651-.431-10-.216-.612-4.946-13.985-5.777-16.313-.853-2.387-1.195-3.409-1.195-3.409l-.047-.142.073-.133c.556-1.02,2-3.926,2-5.109,0-1.088-1.838-2.363-2.546-2.762l-.093-.053Z" transform="translate(-71.137 -53.645)" fill="#263238"/>
            <path id="Trazado_806234" data-name="Trazado 806234" d="M298.966,155.21s-2.68.67-3.35,2.512a12.8,12.8,0,0,1-2.009,3.852c-.5.5-3.35.168-3.35,1.341a9.7,9.7,0,0,0,.838,3.014s-2.01,8.375-1,8.709,4.355,1.843,4.355,1.843l-.67,2.009L303.99,181l1.005-3.35s6.2-.67,9.547-4.522,5.359-10.551,2.68-15.408-11.222-8.542-15.576-6.7-2.68,4.187-2.68,4.187" transform="translate(-89.553 -46.518)" fill="#fff"/>
            <path id="Trazado_806235" data-name="Trazado 806235" d="M304.08,181.261l-10.9-2.68.689-2.068c-.829-.37-3.23-1.433-4.037-1.7-.86-.287-.608-3.317.751-9a9.46,9.46,0,0,1-.82-3.048c0-1.031,1.3-1.206,2.351-1.345a3.566,3.566,0,0,0,1.1-.24,12.689,12.689,0,0,0,1.93-3.726c.565-1.554,2.363-2.327,3.181-2.606a2.391,2.391,0,0,1-.078-1.533c.306-1.087,1.355-2.016,3.116-2.761,4.545-1.92,13.222,1.791,16.014,6.85,2.778,5.036.671,11.9-2.723,15.8-3.071,3.534-8.36,4.446-9.541,4.61Zm-10.007-3.173,9.534,2.346.976-3.255.228-.026c.061-.007,6.1-.7,9.323-4.405,3.24-3.724,5.265-10.253,2.639-15.015-2.6-4.711-10.949-8.322-15.14-6.548-1.528.647-2.468,1.443-2.717,2.3a1.692,1.692,0,0,0,.186,1.368l.284.411-.482.124c-.025.007-2.511.65-3.109,2.295a13.136,13.136,0,0,1-2.09,3.979,2.767,2.767,0,0,1-1.5.435c-.74.1-1.752.235-1.752.661a9.4,9.4,0,0,0,.806,2.872l.049.108-.028.115c-.869,3.618-1.566,7.833-1.179,8.334.957.3,4.2,1.76,4.334,1.822l.285.129Z" transform="translate(-89.406 -46.362)" fill="#263238"/>
            <path id="Trazado_806236" data-name="Trazado 806236" d="M317.876,173.131c3.35-3.852,5.359-10.551,2.679-15.408s-11.222-8.542-15.576-6.7-2.68,4.187-2.68,4.187,2.513-1.508,2.01,0-2.68,1.842-1.842,3.015.168,3.015-.5,3.852-2.011,1.842-1.006,2.345,2.346-1.507,3.183-.67.334,3.852-.67,5.025a5.035,5.035,0,0,1-2.345,1.507,6.161,6.161,0,0,0,2.512,6.03c3.35,2.68,4.689,1.34,4.689,1.34s6.2-.67,9.547-4.522" transform="translate(-92.887 -46.518)" fill="#263238"/>
            <path id="Trazado_806237" data-name="Trazado 806237" d="M307.088,178.174a7.607,7.607,0,0,1-6.451-8.13l.05-.2.2-.05a4.749,4.749,0,0,0,2.167-1.4c.927-1.083,1.352-3.892.688-4.556-.222-.223-.548-.07-1.19.311-.588.35-1.254.748-1.9.424a.9.9,0,0,1-.54-.641c-.1-.562.41-1.11.951-1.691.17-.182.34-.363.479-.538.652-.815,1.186-2.463.491-3.436-.661-.927.084-1.531.684-2.016a3.09,3.09,0,0,0,1.111-1.309.537.537,0,0,0,.047-.256,5.163,5.163,0,0,0-1.551.662l-.274.164-.186-.259a2.4,2.4,0,0,1-.29-1.945c.306-1.087,1.354-2.016,3.116-2.761,4.545-1.92,13.222,1.792,16.014,6.85,2.779,5.037.672,11.9-2.722,15.8-3.2,3.685-8.818,4.519-9.669,4.626a2.075,2.075,0,0,1-1.224.346m-5.816-7.776a5.87,5.87,0,0,0,2.43,5.49c3.018,2.416,4.223,1.372,4.234,1.36l.083-.076.119-.018c.06-.006,6.1-.7,9.323-4.405,3.239-3.724,5.265-10.254,2.638-15.015-2.6-4.712-10.949-8.322-15.14-6.549-1.529.647-2.468,1.443-2.718,2.3a1.708,1.708,0,0,0,.046,1.09c.67-.365,1.595-.749,2.047-.387.247.2.3.527.147.976a3.678,3.678,0,0,1-1.332,1.627c-.722.585-.8.736-.556,1.077.934,1.307.245,3.32-.514,4.269-.149.186-.33.381-.512.577-.325.349-.817.875-.777,1.1.01.062.121.123.169.146.31.154.782-.127,1.24-.4.625-.373,1.4-.835,2.031-.206.992.991.442,4.216-.652,5.493a5.421,5.421,0,0,1-2.308,1.552" transform="translate(-92.732 -46.362)" fill="#263238"/>
            <path id="Trazado_806238" data-name="Trazado 806238" d="M254.62,252.908l-1,4.522a29.9,29.9,0,0,0,13.9,6.7c8.375,1.507,13.4,1,14.4.67s2.01-5.192,2.01-5.192-3.684,3.35-12.729-.167a139.4,139.4,0,0,1-15.911-7.369Z" transform="translate(-78.369 -77.892)" fill="#4be5f1"/>
            <path id="Trazado_806239" data-name="Trazado 806239" d="M277.689,265.308a59.825,59.825,0,0,1-10.4-1.037,30.555,30.555,0,0,1-14.078-6.788l-.143-.134,1.065-4.793.9-1.129.256.143a140.172,140.172,0,0,0,15.867,7.349c8.7,3.383,12.337.264,12.372.233l.781-.7-.211,1.024c-.245,1.185-1.13,5.08-2.238,5.449a16.094,16.094,0,0,1-4.17.379m-23.863-8.2a29.954,29.954,0,0,0,13.581,6.482c8.693,1.565,13.506.926,14.232.682.428-.142,1.118-2.1,1.6-4.1-1.515.824-5.373,2.1-12.331-.608a143.187,143.187,0,0,1-15.7-7.249l-.438.547Z" transform="translate(-78.199 -77.693)" fill="#263238"/>
            <path id="Trazado_806240" data-name="Trazado 806240" d="M284.164,194.947s-6.03-2.345-9.044.5-6.029,9.547-7.2,13.4-8.374,17.586-9.547,20.1-6.2,3.349-4.857,5.694,6.7,7.537,17.754,9.044,14.571-1.005,15.576-3.35,0-4.355,1.005-5.862S298.735,217.39,299.74,211.7s2.345-9.212,0-12.226-15.576-4.522-15.576-4.522" transform="translate(-78.268 -59.96)" fill="#4be5f1"/>
            <path id="Trazado_806241" data-name="Trazado 806241" d="M277.114,244.327a45.042,45.042,0,0,1-6.051-.457c-10.929-1.489-16.558-6.679-18.007-9.215-.931-1.631.643-2.638,2.166-3.613a6.891,6.891,0,0,0,2.678-2.4c.307-.659,1.025-2.081,1.934-3.881,2.519-4.994,6.736-13.351,7.595-16.171,1.182-3.881,4.226-10.651,7.3-13.549,3.036-2.87,8.765-.816,9.364-.59.981.113,13.405,1.612,15.766,4.648,2.027,2.606,1.432,5.572.609,9.678-.176.878-.365,1.816-.542,2.821-1.071,6.075-11.837,22.748-11.944,22.909a4.24,4.24,0,0,0-.444,2.425,8.063,8.063,0,0,1-.53,3.381c-.84,1.958-3.294,4.013-9.889,4.013m2.06-50.1a5.666,5.666,0,0,0-3.975,1.313c-2.978,2.812-5.949,9.44-7.109,13.248-.876,2.877-4.946,10.944-7.64,16.281-.906,1.8-1.621,3.213-1.924,3.863a7.472,7.472,0,0,1-2.933,2.689c-1.625,1.039-2.516,1.676-1.938,2.687,1.392,2.433,6.839,7.42,17.5,8.874,10.825,1.474,14.25-.895,15.212-3.144a7.382,7.382,0,0,0,.475-3.109,4.8,4.8,0,0,1,.56-2.809c.106-.16,10.789-16.7,11.839-22.646.178-1.011.367-1.953.545-2.837.817-4.071,1.356-6.762-.477-9.118-2.23-2.866-15.211-4.375-15.342-4.39l-.086-.022a14.962,14.962,0,0,0-4.707-.881" transform="translate(-78.11 -59.802)" fill="#263238"/>
            <path id="Trazado_806242" data-name="Trazado 806242" d="M298.62,237.381l-.429-.542a27.4,27.4,0,0,0,2.119-1.85l.482.5a28.508,28.508,0,0,1-2.172,1.9" transform="translate(-92.143 -72.613)" fill="#263238"/>
            <path id="Trazado_806243" data-name="Trazado 806243" d="M272.829,248.536l-.238-.649a82.676,82.676,0,0,0,15.367-7.765l.388.573a83.431,83.431,0,0,1-15.518,7.841" transform="translate(-84.233 -74.2)" fill="#263238"/>
            <path id="Trazado_806244" data-name="Trazado 806244" d="M277.687,250.916l-.275-.634c3.8-1.651,11.457-5.643,11.534-5.684l.32.613c-.077.041-7.761,4.045-11.579,5.706" transform="translate(-85.722 -75.583)" fill="#263238"/>
            <path id="Trazado_806245" data-name="Trazado 806245" d="M276.218,212.6l-12.394,3.517-1.508,1.34-2.177.837s-2.345,2.01-3.517,2.01h-.67s-1.843,1.172-3.183.837-2.345-4.187-1.674-8.375.5-2.345,1.507-2.512,1-.335,1-.335.837-1.34,1.508-1.508a3.909,3.909,0,0,1,1.842.335s9.547-6.7,12.226-9.547a41.2,41.2,0,0,1,6.2-5.191s2.345-2.01,4.187.167" transform="translate(-77.524 -59.688)" fill="#4be5f1"/>
            <path id="Trazado_806246" data-name="Trazado 806246" d="M253.133,221.389a2.449,2.449,0,0,1-.6-.07c-1.678-.42-2.6-4.6-1.933-8.764.407-2.539.5-2.879.835-3.027a.576.576,0,0,1,.565.108.5.5,0,0,0,.392.12,3.034,3.034,0,0,0,.782-.2c.18-.286.956-1.451,1.7-1.638a3.718,3.718,0,0,1,1.881.28c1.235-.873,9.579-6.8,12.021-9.393a41.987,41.987,0,0,1,6.256-5.243,3.968,3.968,0,0,1,2.6-.894,2.947,2.947,0,0,1,2.043,1.126l-.528.447a2.288,2.288,0,0,0-1.566-.884,3.392,3.392,0,0,0-2.133.755,41.549,41.549,0,0,0-6.169,5.167c-2.673,2.841-11.889,9.318-12.28,9.593l-.158.111-.178-.075a3.357,3.357,0,0,0-1.622-.318c-.359.089-.947.806-1.271,1.312-.1.247-.477.4-1.268.536a1.125,1.125,0,0,1-.783-.16c-.131.452-.313,1.591-.44,2.386-.67,4.186.4,7.729,1.417,7.984,1.182.3,2.9-.783,2.913-.794l.078.123V219.8h.777c.855,0,2.667-1.391,3.293-1.927l.1-.06,2.119-.815,1.6-1.372,12.394-3.518.189.665-12.318,3.5-1.554,1.351-2.122.816c-.4.341-2.49,2.054-3.7,2.054H255.9a6.124,6.124,0,0,1-2.763.9" transform="translate(-77.37 -59.534)" fill="#263238"/>
            <path id="Trazado_806247" data-name="Trazado 806247" d="M254.707,230.725a4.089,4.089,0,0,1-1.867-2.425l.662-.2a3.415,3.415,0,0,0,1.557,2.029Z" transform="translate(-78.129 -70.485)" fill="#263238"/>
            <path id="Trazado_806248" data-name="Trazado 806248" d="M253.181,223.366l-.691-.028a13.218,13.218,0,0,1,.963-4.187l.634.274a12.729,12.729,0,0,0-.907,3.941" transform="translate(-78.021 -67.719)" fill="#263238"/>
            <path id="Trazado_806249" data-name="Trazado 806249" d="M258.938,223.019c-2.658-1.949-2.006-5.551-1.977-5.7l.679.129c-.006.032-.595,3.329,1.707,5.017Z" transform="translate(-79.375 -67.152)" fill="#263238"/>
            <path id="Trazado_806250" data-name="Trazado 806250" d="M309.263,195.634s-7.872-3.684-10.384-4.355-5.694-2.009-8.039-1.34-4.187,1.34-4.522,3.015,1.34-.5,2.345,2.847,4.355,13.4,11.222,13.9a10.169,10.169,0,0,0,10.719-8.374c.335-3.015-.167-4.69-1.34-5.694" transform="translate(-88.461 -58.636)" fill="#fff"/>
            <path id="Trazado_806251" data-name="Trazado 806251" d="M300.539,209.924q-.409,0-.835-.03c-6.479-.474-10-9.067-11.526-14.147-.517-1.72-1.146-1.788-1.607-1.836a.852.852,0,0,1-.665-.285,1.139,1.139,0,0,1-.082-.893c.376-1.882,2.381-2.6,4.766-3.279,1.953-.559,4.412.193,6.582.856.567.173,1.119.342,1.641.481,2.513.671,10.119,4.225,10.441,4.375l.079.05c1.342,1.151,1.792,3,1.459,6a10.6,10.6,0,0,1-10.252,8.711m-14.017-16.71c.035,0,.082,0,.122.009.54.058,1.546.164,2.194,2.325,1.472,4.909,4.849,13.212,10.915,13.655a9.846,9.846,0,0,0,10.351-8.067c.3-2.717-.064-4.375-1.187-5.364-.634-.3-7.924-3.684-10.283-4.313-.529-.142-1.09-.312-1.665-.488-2.079-.635-4.433-1.353-6.191-.853-2.164.618-3.979,1.251-4.278,2.749a.881.881,0,0,0-.03.364c0-.013.019-.017.051-.017" transform="translate(-88.306 -58.482)" fill="#263238"/>
          </g>
        </g>
      </g>
    </g>
  </g>
</svg>
