<svg xmlns="http://www.w3.org/2000/svg" xmlns:xlink="http://www.w3.org/1999/xlink" width="367.389" height="387.994" viewBox="0 0 367.389 387.994">
  <defs>
    <clipPath id="clip-path">
      <path id="Trazado_806322" data-name="Trazado 806322" d="M383.778,416.094c-5.93,9.634-36.015,14.2-52.438,13.769s-63.675-22.772-66.881-27.537c-2.969-4.379-10.265-18.892.981-27.66a21.792,21.792,0,0,1,3.03-1.962c7.7-4.169,58.9,8.978,58.9,8.978s3.171-2.006,4.336-1.857c3.573.455,6.131,3.346,13.348,5.4,5.054,1.445,18.848-4.108,27.66.666a12.158,12.158,0,0,1,2.68,1.944C383.63,395.7,389.7,406.434,383.778,416.094Z" transform="translate(-259.382 -371.887)" fill="#4be5f1" stroke="#263238" stroke-linecap="round" stroke-linejoin="round" stroke-width="1"/>
    </clipPath>
    <clipPath id="clip-path-2">
      <path id="Trazado_806327" data-name="Trazado 806327" d="M332.16,430.621l15.345,12.043a175.807,175.807,0,0,0,22-3.293h0c7.27-1.682,13.62-4.09,13.961-7.4.534-5.027-4.844-6.4-11.229-6.21-1.191,0-2.417.123-3.652.245-10.221,1.095-23.219-4.546-23.219-4.546Z" transform="translate(-332.16 -421.46)" fill="#263238" stroke="#263238" stroke-linecap="round" stroke-linejoin="round" stroke-width="1"/>
    </clipPath>
    <clipPath id="clip-path-3">
      <path id="Trazado_806331" data-name="Trazado 806331" d="M348.338,437.334c-2.768.447.272,6.131,4.02,4.379S351.106,436.878,348.338,437.334Z" transform="translate(-347.266 -437.288)" fill="#fff" stroke="#263238" stroke-linecap="round" stroke-linejoin="round" stroke-width="1"/>
    </clipPath>
    <clipPath id="clip-path-4">
      <path id="Trazado_806335" data-name="Trazado 806335" d="M374.63,439.968c7.27-1.682,13.62-4.09,13.961-7.4.534-5.027-4.844-6.4-11.229-6.21C377.083,426.629,370.89,432.611,374.63,439.968Z" transform="translate(-373.433 -426.34)" fill="#fff" stroke="#263238" stroke-linecap="round" stroke-linejoin="round" stroke-width="1"/>
    </clipPath>
    <clipPath id="clip-path-5">
      <path id="Trazado_806345" data-name="Trazado 806345" d="M314.134,430.962l-16.519,10.361a176.228,176.228,0,0,1-21.537-5.579h0c-7.051-2.435-13.138-5.5-13.138-8.829,0-5.062,5.492-5.859,11.824-5,1.182.158,2.391.377,3.609.631,10.046,2.163,23.561-2.085,23.561-2.085Z" transform="translate(-262.94 -420.46)" fill="#263238" stroke="#263238" stroke-linecap="round" stroke-linejoin="round" stroke-width="1"/>
    </clipPath>
  </defs>
  <g id="Website_Creator-bro" data-name="Website Creator-bro" transform="translate(-41.49 -29.116)">
    <g id="freepik--background-simple--inject-6" transform="translate(56.287 29.116)">
      <path id="Trazado_806285" data-name="Trazado 806285" d="M66.736,149.962s-24.419,63.062,9.9,126.562,105,97.045,161.57,125.73,115.316,14.714,143.229-32.267-10.37-80.518-10.423-147.512,10.029-84.731-26.276-141.329-125.3-69.132-192.6-27.152S66.736,149.962,66.736,149.962Z" transform="translate(-58.313 -29.116)" fill="#451484" opacity="0.7"/>
      <path id="Trazado_806286" data-name="Trazado 806286" d="M67.881,385.6H252.853c.744-1.191,1.5-2.382,2.268-3.547,19.9-30.287,51.763-51.886,86.561-62.02,15.59-4.537,32.477-7.235,45-17.57,12.893-10.624,18.813-27.581,21.371-44.091,3.109-19.987,1.428-42.4-12.139-57.4-15.932-17.614-42.628-19.593-63.386-31.137-35.726-19.882-49.574-65.155-82.077-89.959C229.914,64.2,202.2,58.135,177.363,61.568c-35.2,4.879-68.317,28.465-78.258,63.062a87.271,87.271,0,0,0-3.013,31.023c1.585,20.626,6.026,41.516,1.839,61.774-4.616,22.326-19.138,41.165-27.817,62.265-10.808,26.276-12.262,55.7-7.681,83.715A144.227,144.227,0,0,0,67.881,385.6Z" transform="translate(-58.52 -33.029)" fill="#451484"/>
      <path id="Trazado_806287" data-name="Trazado 806287" d="M67.881,385.6H252.853c.744-1.191,1.5-2.382,2.268-3.547,19.9-30.287,51.763-51.886,86.561-62.02,15.59-4.537,32.477-7.235,45-17.57,12.893-10.624,18.813-27.581,21.371-44.091,3.109-19.987,1.428-42.4-12.139-57.4-15.932-17.614-42.628-19.593-63.386-31.137-35.726-19.882-49.574-65.155-82.077-89.959C229.914,64.2,202.2,58.135,177.363,61.568c-35.2,4.879-68.317,28.465-78.258,63.062a87.271,87.271,0,0,0-3.013,31.023c1.585,20.626,6.026,41.516,1.839,61.774-4.616,22.326-19.138,41.165-27.817,62.265-10.808,26.276-12.262,55.7-7.681,83.715A144.227,144.227,0,0,0,67.881,385.6Z" transform="translate(-58.52 -33.029)" fill="#fff" opacity="0.7"/>
    </g>
    <g id="freepik--Floor--inject-6" transform="translate(41.99 381.688)">
      <line id="Línea_1850" data-name="Línea 1850" x2="366.389" fill="none" stroke="#263238" stroke-linecap="round" stroke-linejoin="round" stroke-width="1"/>
    </g>
    <g id="freepik--Graphics--inject-6" transform="translate(113.291 58.321)">
      <path id="Trazado_806288" data-name="Trazado 806288" d="M268.3,107.067V93.317L258,92.441a28.536,28.536,0,0,0-2.54-6.175l6.648-7.883-9.722-9.722-7.883,6.648a28.027,28.027,0,0,0-6.131-2.549l-.876-10.3H223.634l-.876,10.3a28.028,28.028,0,0,0-6.131,2.549l-7.883-6.648-9.722,9.722,6.648,7.883a28.534,28.534,0,0,0-2.54,6.175l-10.3.876v13.751l10.3.876a28.535,28.535,0,0,0,2.54,6.131l-6.648,7.883,9.722,9.722,7.883-6.648a28.028,28.028,0,0,0,6.131,2.549l.876,10.3h13.751l.876-10.3a28.3,28.3,0,0,0,6.175-2.549l7.883,6.648,9.722-9.722-6.648-7.883a28.535,28.535,0,0,0,2.54-6.131Zm-37.75,9.1a16.006,16.006,0,1,0-.035,0Z" transform="translate(-132.017 -62.46)" fill="none" stroke="#263238" stroke-linecap="round" stroke-linejoin="round" stroke-width="1"/>
      <path id="Trazado_806289" data-name="Trazado 806289" d="M442.56,263.807v-6.586l-4.94-.429a13.941,13.941,0,0,0-1.217-2.96l3.188-3.792-4.642-4.66-3.784,3.188a13.5,13.5,0,0,0-2.96-1.217l-.429-4.94h-6.6l-.42,4.94a13.322,13.322,0,0,0-2.96,1.217l-3.792-3.188-4.66,4.66,3.188,3.792a13.521,13.521,0,0,0-1.226,2.96l-4.94.429v6.586l4.94.429a13.522,13.522,0,0,0,1.226,2.96l-3.214,3.757,4.66,4.66,3.792-3.188a13.323,13.323,0,0,0,2.96,1.217l.42,4.94h6.6l.429-4.94a13.494,13.494,0,0,0,2.96-1.217l3.784,3.188,4.668-4.66-3.188-3.792a13.941,13.941,0,0,0,1.217-2.96Zm-18.1,4.379a5.711,5.711,0,1,0-.018-.009Z" transform="translate(-158.526 -84.799)" fill="none" stroke="#263238" stroke-linecap="round" stroke-linejoin="round" stroke-width="1"/>
      <path id="Trazado_806290" data-name="Trazado 806290" d="M430.922,125.522a17.981,17.981,0,0,0-22.212-21.406,17.254,17.254,0,0,0-32.249,7.383,14.084,14.084,0,0,0-16.641,12.262,7.883,7.883,0,0,0,.175,15.7h65.935a7.883,7.883,0,0,0,4.992-13.935Z" transform="translate(-151.871 -66.541)" fill="none" stroke="#263238" stroke-linecap="round" stroke-linejoin="round" stroke-width="1"/>
      <line id="Línea_1851" data-name="Línea 1851" y2="18.174" transform="translate(242.817 66.889)" fill="none" stroke="#263238" stroke-linecap="round" stroke-linejoin="round" stroke-width="1"/>
      <line id="Línea_1852" data-name="Línea 1852" y2="7.261" transform="translate(242.817 55.994)" fill="none" stroke="#263238" stroke-linecap="round" stroke-linejoin="round" stroke-width="1"/>
      <line id="Línea_1853" data-name="Línea 1853" y2="3.889" transform="translate(242.817 49.197)" fill="none" stroke="#263238" stroke-linecap="round" stroke-linejoin="round" stroke-width="1"/>
      <path id="Trazado_806291" data-name="Trazado 806291" d="M396.71,157.16l3.433,4.248,3.433-4.248" transform="translate(-157.327 -74.216)" fill="none" stroke="#263238" stroke-linecap="round" stroke-linejoin="round" stroke-width="1"/>
      <path id="Trazado_806292" data-name="Trazado 806292" d="M201.561,368.871a17.99,17.99,0,0,0-22.221-21.406,17.246,17.246,0,0,0-32.24,7.392,14.253,14.253,0,0,0-2.628-.254,14.093,14.093,0,0,0-14.014,12.507,7.883,7.883,0,0,0,.166,15.7h66a7.883,7.883,0,0,0,4.966-13.935Z" transform="translate(-123.397 -96.75)" fill="none" stroke="#263238" stroke-linecap="round" stroke-linejoin="round" stroke-width="1"/>
      <line id="Línea_1854" data-name="Línea 1854" y1="18.165" transform="translate(41.904 264.466)" fill="none" stroke="#263238" stroke-linecap="round" stroke-linejoin="round" stroke-width="1"/>
      <line id="Línea_1855" data-name="Línea 1855" y1="7.27" transform="translate(41.904 286.266)" fill="none" stroke="#263238" stroke-linecap="round" stroke-linejoin="round" stroke-width="1"/>
      <line id="Línea_1856" data-name="Línea 1856" y1="3.889" transform="translate(41.904 296.443)" fill="none" stroke="#263238" stroke-linecap="round" stroke-linejoin="round" stroke-width="1"/>
      <path id="Trazado_806293" data-name="Trazado 806293" d="M174.187,366.228l-3.433-4.248-3.433,4.248" transform="translate(-128.85 -99.643)" fill="none" stroke="#263238" stroke-linecap="round" stroke-linejoin="round" stroke-width="1"/>
    </g>
    <g id="freepik--Window--inject-6" transform="translate(48.34 99.871)">
      <path id="Trazado_806294" data-name="Trazado 806294" d="M52.954,109.9H273.188a3.714,3.714,0,0,1,3.714,3.714V124H49.24V113.614A3.714,3.714,0,0,1,52.954,109.9Z" transform="translate(-49.24 -109.9)" fill="#4be5f1" stroke="#263238" stroke-linecap="round" stroke-linejoin="round" stroke-width="1"/>
      <rect id="Rectángulo_375689" data-name="Rectángulo 375689" width="230.097" height="161.92" transform="translate(9.967 16.703)" fill="#fff" stroke="#263238" stroke-linecap="round" stroke-linejoin="round" stroke-width="1"/>
      <path id="Trazado_806295" data-name="Trazado 806295" d="M326.357,117.443a3.5,3.5,0,1,1-3.5-3.5A3.5,3.5,0,0,1,326.357,117.443Z" transform="translate(-82.772 -110.402)" fill="#fff" stroke="#263238" stroke-linecap="round" stroke-linejoin="round" stroke-width="1"/>
      <path id="Trazado_806296" data-name="Trazado 806296" d="M312.2,117.443a3.5,3.5,0,1,1-3.5-3.5A3.5,3.5,0,0,1,312.2,117.443Z" transform="translate(-81.014 -110.402)" fill="#fff" stroke="#263238" stroke-linecap="round" stroke-linejoin="round" stroke-width="1"/>
      <path id="Trazado_806297" data-name="Trazado 806297" d="M298.007,117.443a3.5,3.5,0,1,1-3.5-3.5A3.5,3.5,0,0,1,298.007,117.443Z" transform="translate(-79.252 -110.402)" fill="#fff" stroke="#263238" stroke-linecap="round" stroke-linejoin="round" stroke-width="1"/>
      <line id="Línea_1857" data-name="Línea 1857" x1="9.109" transform="translate(223.983 23.648)" fill="none" stroke="#263238" stroke-linecap="round" stroke-linejoin="round" stroke-width="2"/>
      <line id="Línea_1858" data-name="Línea 1858" x1="9.109" transform="translate(223.983 27.344)" fill="none" stroke="#263238" stroke-linecap="round" stroke-linejoin="round" stroke-width="2"/>
      <line id="Línea_1859" data-name="Línea 1859" x1="9.109" transform="translate(223.983 31.04)" fill="none" stroke="#263238" stroke-linecap="round" stroke-linejoin="round" stroke-width="2"/>
      <line id="Línea_1860" data-name="Línea 1860" x2="68.956" transform="translate(25.899 119.187)" fill="none" stroke="#263238" stroke-linecap="round" stroke-linejoin="round" stroke-width="2"/>
      <line id="Línea_1861" data-name="Línea 1861" x2="68.956" transform="translate(25.899 124.626)" fill="none" stroke="#263238" stroke-linecap="round" stroke-linejoin="round" stroke-width="2"/>
      <line id="Línea_1862" data-name="Línea 1862" x2="54.373" transform="translate(25.899 130.161)" fill="none" stroke="#263238" stroke-linecap="round" stroke-linejoin="round" stroke-width="2"/>
      <line id="Línea_1863" data-name="Línea 1863" y2="0.438" transform="translate(172.124 18.524)" fill="none" stroke="#263238" stroke-linecap="round" stroke-linejoin="round" stroke-width="1"/>
      <line id="Línea_1864" data-name="Línea 1864" y2="152.601" transform="translate(172.124 21.59)" fill="none" stroke="#263238" stroke-linecap="round" stroke-linejoin="round" stroke-width="1" stroke-dasharray="0.998 2.995"/>
      <line id="Línea_1865" data-name="Línea 1865" y2="0.438" transform="translate(172.124 175.505)" fill="none" stroke="#263238" stroke-linecap="round" stroke-linejoin="round" stroke-width="1"/>
      <line id="Línea_1866" data-name="Línea 1866" x2="0.438" transform="translate(12.735 142.31)" fill="none" stroke="#263238" stroke-linecap="round" stroke-linejoin="round" stroke-width="1"/>
      <line id="Línea_1867" data-name="Línea 1867" x2="219" transform="translate(15.792 142.31)" fill="none" stroke="#263238" stroke-linecap="round" stroke-linejoin="round" stroke-width="1" stroke-dasharray="0.998 2.994"/>
      <line id="Línea_1868" data-name="Línea 1868" x2="0.438" transform="translate(236.105 142.31)" fill="none" stroke="#263238" stroke-linecap="round" stroke-linejoin="round" stroke-width="1"/>
      <rect id="Rectángulo_375690" data-name="Rectángulo 375690" width="3.022" height="3.022" transform="translate(170.617 140.794)" fill="#fff" stroke="#263238" stroke-linecap="round" stroke-linejoin="round" stroke-width="1"/>
      <line id="Línea_1869" data-name="Línea 1869" x1="40.342" transform="translate(119.721 113.284)" fill="none" stroke="#263238" stroke-linecap="round" stroke-linejoin="round" stroke-width="1"/>
      <path id="Trazado_806298" data-name="Trazado 806298" d="M226.936,257.882s0-18.752-20.951-18.752S185,257.882,185,257.882" transform="translate(-66.093 -125.943)" fill="none" stroke="#263238" stroke-linecap="round" stroke-linejoin="round" stroke-width="1"/>
      <circle id="Elipse_4741" data-name="Elipse 4741" cx="1.769" cy="1.769" r="1.769" transform="translate(159.073 130.17)" fill="#4be5f1" stroke="#263238" stroke-linecap="round" stroke-linejoin="round" stroke-width="1"/>
      <path id="Trazado_806299" data-name="Trazado 806299" d="M183,260.292a1.752,1.752,0,1,1,1.752,1.752A1.752,1.752,0,0,1,183,260.292Z" transform="translate(-65.845 -128.352)" fill="#4be5f1" stroke="#263238" stroke-linecap="round" stroke-linejoin="round" stroke-width="1"/>
      <rect id="Rectángulo_375691" data-name="Rectángulo 375691" width="3.101" height="3.101" transform="translate(162.393 114.737) rotate(180)" fill="#4be5f1" stroke="#263238" stroke-linecap="round" stroke-linejoin="round" stroke-width="1"/>
      <rect id="Rectángulo_375692" data-name="Rectángulo 375692" width="3.101" height="3.101" transform="translate(141.442 114.737) rotate(180)" fill="#4be5f1" stroke="#263238" stroke-linecap="round" stroke-linejoin="round" stroke-width="1"/>
      <rect id="Rectángulo_375693" data-name="Rectángulo 375693" width="3.101" height="3.101" transform="translate(120.492 114.737) rotate(180)" fill="#4be5f1" stroke="#263238" stroke-linecap="round" stroke-linejoin="round" stroke-width="1"/>
      <path id="Trazado_806300" data-name="Trazado 806300" d="M102.608,172.02v-6.2l-4.633-.394a13.217,13.217,0,0,0-1.147-2.785l3-3.556L95.444,154.7l-3.565,3a12.455,12.455,0,0,0-2.785-1.147l-.4-4.642H82.507l-.4,4.642a12.263,12.263,0,0,0-2.776,1.147l-3.565-3-4.379,4.379,3,3.556a12.77,12.77,0,0,0-1.147,2.785l-4.642.394v6.2l4.642.394a12.945,12.945,0,0,0,1.147,2.785l-3,3.556,4.379,4.379,3.565-3a12.262,12.262,0,0,0,2.759,1.147l.4,4.642h6.192l.4-4.642a12.454,12.454,0,0,0,2.776-1.147l3.565,3,4.379-4.379-3-3.556a13.41,13.41,0,0,0,1.147-2.785Zm-17.018,4.1a7.2,7.2,0,1,1,7.2-7.2A7.2,7.2,0,0,1,85.59,176.119Z" transform="translate(-51.642 -115.115)" fill="#4be5f1" stroke="#263238" stroke-linecap="round" stroke-linejoin="round" stroke-width="1"/>
      <path id="Trazado_806301" data-name="Trazado 806301" d="M128.169,188.777v-4.239l-3.179-.28a8.592,8.592,0,0,0-.78-1.9l2.05-2.435-3-3-2.435,2.05a9.057,9.057,0,0,0-1.9-.788L118.648,175h-4.239l-.28,3.179a9.057,9.057,0,0,0-1.9.788l-2.435-2.049-3,3,2.058,2.435a8.215,8.215,0,0,0-.788,1.9l-3.179.28v4.239l3.179.272a8.058,8.058,0,0,0,.788,1.9l-2.058,2.452,3,3,2.435-2.049a9.056,9.056,0,0,0,1.9.788l.28,3.171h4.239l.272-3.171a9.057,9.057,0,0,0,1.9-.788l2.435,2.049,3-3-2.006-2.444a8.418,8.418,0,0,0,.78-1.9Zm-11.64,2.8a4.931,4.931,0,1,1,4.922-4.922,4.931,4.931,0,0,1-4.922,4.922Z" transform="translate(-56.147 -117.982)" fill="#4be5f1" stroke="#263238" stroke-linecap="round" stroke-linejoin="round" stroke-width="1"/>
      <line id="Línea_1870" data-name="Línea 1870" x2="33.922" transform="translate(180.777 152.61)" fill="none" stroke="#263238" stroke-linecap="round" stroke-linejoin="round" stroke-width="2"/>
      <line id="Línea_1871" data-name="Línea 1871" x2="33.922" transform="translate(180.777 158.049)" fill="none" stroke="#263238" stroke-linecap="round" stroke-linejoin="round" stroke-width="2"/>
      <line id="Línea_1872" data-name="Línea 1872" x2="19.339" transform="translate(180.777 163.584)" fill="none" stroke="#263238" stroke-linecap="round" stroke-linejoin="round" stroke-width="2"/>
      <path id="Trazado_806302" data-name="Trazado 806302" d="M201.458,298.009H183.6a4.379,4.379,0,0,1-4.379-4.379h0a4.379,4.379,0,0,1,4.379-4.379h17.859a4.379,4.379,0,0,1,4.379,4.379h0A4.379,4.379,0,0,1,201.458,298.009Z" transform="translate(-65.376 -132.165)" fill="#4be5f1" stroke="#263238" stroke-linecap="round" stroke-linejoin="round" stroke-width="1"/>
      <path id="Trazado_806303" data-name="Trazado 806303" d="M239.458,298.009H221.6a4.379,4.379,0,0,1-4.379-4.379h0a4.379,4.379,0,0,1,4.379-4.379h17.859a4.379,4.379,0,0,1,4.379,4.379h0A4.379,4.379,0,0,1,239.458,298.009Z" transform="translate(-70.093 -132.165)" fill="#4be5f1" stroke="#263238" stroke-linecap="round" stroke-linejoin="round" stroke-width="1"/>
      <rect id="Rectángulo_375694" data-name="Rectángulo 375694" width="37.872" height="37.872" transform="translate(183.256 71.882)" fill="#fff" stroke="#263238" stroke-linecap="round" stroke-linejoin="round" stroke-width="1"/>
      <line id="Línea_1873" data-name="Línea 1873" x2="37.872" y2="37.872" transform="translate(183.256 71.882)" fill="#fff" stroke="#263238" stroke-linecap="round" stroke-linejoin="round" stroke-width="1"/>
      <line id="Línea_1874" data-name="Línea 1874" x1="37.872" y2="37.872" transform="translate(183.256 71.882)" fill="#fff" stroke="#263238" stroke-linecap="round" stroke-linejoin="round" stroke-width="1"/>
      <path id="Trazado_806304" data-name="Trazado 806304" d="M273.625,142.88v8.837l-3.9,3.9H260.89V142.88Z" transform="translate(-75.515 -113.994)" fill="#fff" stroke="#263238" stroke-linecap="round" stroke-linejoin="round" stroke-width="1"/>
      <path id="Trazado_806305" data-name="Trazado 806305" d="M274.878,152.97l-3.9,3.9v-3.9Z" transform="translate(-76.767 -115.247)" fill="#fff" stroke="#263238" stroke-linecap="round" stroke-linejoin="round" stroke-width="1"/>
      <path id="Trazado_806306" data-name="Trazado 806306" d="M118.995,220.91v8.837l-3.9,3.906H106.26V220.91Z" transform="translate(-56.319 -123.681)" fill="#fff" stroke="#263238" stroke-linecap="round" stroke-linejoin="round" stroke-width="1"/>
      <path id="Trazado_806307" data-name="Trazado 806307" d="M120.248,231l-3.9,3.906V231Z" transform="translate(-57.571 -124.934)" fill="#fff" stroke="#263238" stroke-linecap="round" stroke-linejoin="round" stroke-width="1"/>
      <path id="Trazado_806308" data-name="Trazado 806308" d="M64.054,283.08v8.837l-3.9,3.9H51.31V283.08Z" transform="translate(-49.497 -131.399)" fill="#fff" stroke="#263238" stroke-linecap="round" stroke-linejoin="round" stroke-width="1"/>
      <path id="Trazado_806309" data-name="Trazado 806309" d="M65.308,293.17l-3.9,3.9v-3.9Z" transform="translate(-50.751 -132.651)" fill="#fff" stroke="#263238" stroke-linecap="round" stroke-linejoin="round" stroke-width="1"/>
    </g>
    <g id="freepik--Screens--inject-6" transform="translate(86.843 149.252)">
      <rect id="Rectángulo_375695" data-name="Rectángulo 375695" width="46.999" height="29.455" transform="translate(176.757)" fill="#263238" stroke="#263238" stroke-linecap="round" stroke-linejoin="round" stroke-width="1"/>
      <rect id="Rectángulo_375696" data-name="Rectángulo 375696" width="46.999" height="4.476" transform="translate(176.757)" fill="#4be5f1" stroke="#263238" stroke-linecap="round" stroke-linejoin="round" stroke-width="1"/>
      <line id="Línea_1875" data-name="Línea 1875" x2="12.017" transform="translate(181.548 8.251)" fill="none" stroke="#fff" stroke-linecap="round" stroke-linejoin="round" stroke-width="1"/>
      <line id="Línea_1876" data-name="Línea 1876" x2="20.793" transform="translate(187.556 11.605)" fill="none" stroke="#fff" stroke-linecap="round" stroke-linejoin="round" stroke-width="1"/>
      <line id="Línea_1877" data-name="Línea 1877" x2="6.122" transform="translate(184.903 14.732)" fill="none" stroke="#fff" stroke-linecap="round" stroke-linejoin="round" stroke-width="1"/>
      <line id="Línea_1878" data-name="Línea 1878" x2="14.005" transform="translate(187.556 18.419)" fill="none" stroke="#fff" stroke-linecap="round" stroke-linejoin="round" stroke-width="1"/>
      <line id="Línea_1879" data-name="Línea 1879" x2="12.017" transform="translate(181.548 21.765)" fill="none" stroke="#fff" stroke-linecap="round" stroke-linejoin="round" stroke-width="1"/>
      <rect id="Rectángulo_375697" data-name="Rectángulo 375697" width="46.999" height="29.455" transform="translate(0 118.512)" fill="#263238" stroke="#263238" stroke-linecap="round" stroke-linejoin="round" stroke-width="1"/>
      <rect id="Rectángulo_375698" data-name="Rectángulo 375698" width="46.999" height="4.476" transform="translate(0 118.512)" fill="#fb405f" stroke="#263238" stroke-linecap="round" stroke-linejoin="round" stroke-width="1"/>
      <line id="Línea_1880" data-name="Línea 1880" x2="12.008" transform="translate(4.8 126.772)" fill="none" stroke="#fff" stroke-linecap="round" stroke-linejoin="round" stroke-width="1"/>
      <line id="Línea_1881" data-name="Línea 1881" x2="20.793" transform="translate(10.799 130.118)" fill="none" stroke="#fff" stroke-linecap="round" stroke-linejoin="round" stroke-width="1"/>
      <line id="Línea_1882" data-name="Línea 1882" x2="6.122" transform="translate(8.145 133.244)" fill="none" stroke="#fff" stroke-linecap="round" stroke-linejoin="round" stroke-width="1"/>
      <line id="Línea_1883" data-name="Línea 1883" x2="14.005" transform="translate(10.799 136.932)" fill="none" stroke="#fff" stroke-linecap="round" stroke-linejoin="round" stroke-width="1"/>
      <line id="Línea_1884" data-name="Línea 1884" x2="12.008" transform="translate(4.8 140.286)" fill="none" stroke="#fff" stroke-linecap="round" stroke-linejoin="round" stroke-width="1"/>
    </g>
    <g id="freepik--speech-bubble--inject-6" transform="translate(106.392 54.414)">
      <path id="Trazado_806310" data-name="Trazado 806310" d="M160.609,58h-43.18a1.918,1.918,0,0,0-1.909,1.909V80.054a1.909,1.909,0,0,0,1.909,1.9h19.356l2.207,7.883,2.216-7.883h19.4a1.909,1.909,0,0,0,1.909-1.9V59.909A1.918,1.918,0,0,0,160.609,58Z" transform="translate(-115.52 -58)" fill="#fb405f" stroke="#263238" stroke-linecap="round" stroke-linejoin="round" stroke-width="1"/>
      <line id="Línea_1885" data-name="Línea 1885" x2="32.626" transform="translate(7.165 5.763)" fill="none" stroke="#263238" stroke-linecap="round" stroke-linejoin="round" stroke-width="2"/>
      <line id="Línea_1886" data-name="Línea 1886" x2="32.626" transform="translate(7.165 9.897)" fill="none" stroke="#263238" stroke-linecap="round" stroke-linejoin="round" stroke-width="2"/>
      <line id="Línea_1887" data-name="Línea 1887" x2="32.626" transform="translate(7.165 14.031)" fill="none" stroke="#263238" stroke-linecap="round" stroke-linejoin="round" stroke-width="2"/>
      <line id="Línea_1888" data-name="Línea 1888" x2="24.585" transform="translate(7.165 18.165)" fill="none" stroke="#263238" stroke-linecap="round" stroke-linejoin="round" stroke-width="2"/>
    </g>
    <g id="freepik--Character--inject-6" transform="translate(127.097 125.946)">
      <path id="Trazado_806311" data-name="Trazado 806311" d="M245.549,218.463c-4.633.394-10.51-5.141-10.51-5.141a1.042,1.042,0,0,1-1.655-.21c-.753-1.086-4.02-3.6-4.2-5.772s3.67-5.693,3.67-5.693c-2.969.806-3.284-.937-3.284-.937s5-4.125,6.753-4.239c.683-.044,3.661,1.673,6.543,3.985,3.013,2.426,8.671,10.966,8.671,10.966s19.138,13.9,23.972,17.456c6.385,4.695,13.952,13.024,13.952,13.024s25.4,11.456,32.407,17.754l-9.477,22.439s-23.1-15.476-25.4-19.4-4.616-1.568-6.928-4.134-4.528-5.5-4.528-5.5a39.046,39.046,0,0,1-11.027-7.953c-5.4-5.544-10.151-14.014-13.138-19.111a31.53,31.53,0,0,0-5.816-7.532Z" transform="translate(-150.334 -146.721)" fill="#fff" stroke="#263238" stroke-linecap="round" stroke-linejoin="round" stroke-width="1"/>
      <path id="Trazado_806312" data-name="Trazado 806312" d="M247.352,215.984s-6.893-1.673-7.489-6.219a8.364,8.364,0,0,0-1.48-3.179s-6.429-.315-6.026-2.934l8.583-.762a14.942,14.942,0,0,1,7.471,6.289" transform="translate(-150.727 -147.518)" fill="#fff" stroke="#263238" stroke-linecap="round" stroke-linejoin="round" stroke-width="1"/>
      <path id="Trazado_806313" data-name="Trazado 806313" d="M235.86,214.642a2.82,2.82,0,0,0,.289-1.857s1.892-.35,1.682-2.023c0,0,2.8-.342.99-3.652" transform="translate(-151.164 -148.042)" fill="none" stroke="#263238" stroke-linecap="round" stroke-linejoin="round" stroke-width="1"/>
      <path id="Trazado_806314" data-name="Trazado 806314" d="M237.515,210.7s-3.775-2.794-4.2-4.073" transform="translate(-150.849 -147.982)" fill="none" stroke="#263238" stroke-linecap="round" stroke-linejoin="round" stroke-width="1"/>
      <path id="Trazado_806315" data-name="Trazado 806315" d="M235.61,213.04s-4.02-2.452-4.09-3.88" transform="translate(-150.626 -148.297)" fill="none" stroke="#263238" stroke-linecap="round" stroke-linejoin="round" stroke-width="1"/>
      <path id="Trazado_806316" data-name="Trazado 806316" d="M236.758,199.21a6.123,6.123,0,0,1-3.4,2.776" transform="translate(-150.854 -147.061)" fill="none" stroke="#263238" stroke-linecap="round" stroke-linejoin="round" stroke-width="1"/>
      <path id="Trazado_806317" data-name="Trazado 806317" d="M236.51,200.23a10.993,10.993,0,0,1,1.892,1.252" transform="translate(-151.245 -147.188)" fill="none" stroke="#263238" stroke-linecap="round" stroke-linejoin="round" stroke-width="1"/>
      <path id="Trazado_806318" data-name="Trazado 806318" d="M393,286.387a206.866,206.866,0,0,0-30.576-10.213c-15.38-3.6-40.289-6.814-40.289-6.814s6.849,69.894,5.045,74.1-12.63,18.323-12.63,18.323,58.586,22.842,68.8,24.787,4.887-33.5,4.887-33.5S399.027,308.012,393,286.387Z" transform="translate(-160.933 -155.77)" fill="#263238"/>
      <path id="Trazado_806319" data-name="Trazado 806319" d="M376.644,277.5s1.393,2.628-2.268,4c-9.486,3.5-19.593.412-18.516-3.3.412-1.419,2.759,0,2.628-5.255a6.455,6.455,0,0,0-.639-2.33,24.059,24.059,0,0,0-2.409-4.038,50.145,50.145,0,0,0-3.249-4.055s15.056-9.634,26.223,0C378.4,262.479,374.244,264.581,376.644,277.5Z" transform="translate(-165.606 -154.39)" fill="#fff" stroke="#263238" stroke-linecap="round" stroke-linejoin="round" stroke-width="1"/>
      <path id="Trazado_806320" data-name="Trazado 806320" d="M383.778,416.094c-5.93,9.634-36.015,14.2-52.438,13.769s-63.675-22.772-66.881-27.537c-2.969-4.379-10.265-18.892.981-27.66a21.792,21.792,0,0,1,3.03-1.962c7.7-4.169,58.9,8.978,58.9,8.978s3.171-2.006,4.336-1.857c3.573.455,6.131,3.346,13.348,5.4,5.054,1.445,18.848-4.108,27.66.666a12.158,12.158,0,0,1,2.68,1.944C383.63,395.7,389.7,406.434,383.778,416.094Z" transform="translate(-154.085 -168.498)" fill="#4be5f1"/>
      <g id="Grupo_1066826" data-name="Grupo 1066826" transform="translate(105.298 203.39)" clip-path="url(#clip-path)">
        <path id="Trazado_806321" data-name="Trazado 806321" d="M373.575,385.895c-9.03-.6-17.079,1.288-22.7,4.607-6.665,3.941-38.144,19.1-38.144,19.1.07-1.629,1.822-4.914,1.822-4.914-2.96-2.628-10.7-4.686-10.7-4.686-6-5.124-29.779-20.408-37.548-25.339a21.792,21.792,0,0,1,3.03-1.962c7.7-4.169,58.9,8.978,58.9,8.978s3.171-2.006,4.336-1.857c3.573.455,6.131,3.346,13.348,5.4C351,386.674,364.764,381.121,373.575,385.895Z" transform="translate(-260.241 -371.887)" fill="rgba(0,0,0,0.7)" opacity="0.3"/>
      </g>
      <path id="Trazado_806323" data-name="Trazado 806323" d="M383.778,416.094c-5.93,9.634-36.015,14.2-52.438,13.769s-63.675-22.772-66.881-27.537c-2.969-4.379-10.265-18.892.981-27.66a21.792,21.792,0,0,1,3.03-1.962c7.7-4.169,58.9,8.978,58.9,8.978s3.171-2.006,4.336-1.857c3.573.455,6.131,3.346,13.348,5.4,5.054,1.445,18.848-4.108,27.66.666a12.158,12.158,0,0,1,2.68,1.944C383.63,395.7,389.7,406.434,383.778,416.094Z" transform="translate(-154.085 -168.498)" fill="none" stroke="#263238" stroke-linecap="round" stroke-linejoin="round" stroke-width="1"/>
      <path id="Trazado_806324" data-name="Trazado 806324" d="M385.75,432.32l.753,3.3s-2.014,5.711-10.869,6.648-14.1,2.89-18.393,3.144a35.752,35.752,0,0,1-6.735-.105l-.876-1.3Z" transform="translate(-165.288 -176)" fill="#fff" stroke="#263238" stroke-linecap="round" stroke-linejoin="round" stroke-width="1"/>
      <path id="Trazado_806325" data-name="Trazado 806325" d="M332.16,430.621l15.345,12.043a175.807,175.807,0,0,0,22-3.293h0c7.27-1.682,13.62-4.09,13.961-7.4.534-5.027-4.844-6.4-11.229-6.21-1.191,0-2.417.123-3.652.245-10.221,1.095-23.219-4.546-23.219-4.546Z" transform="translate(-163.119 -174.652)" fill="#263238"/>
      <g id="Grupo_1066827" data-name="Grupo 1066827" transform="translate(169.041 246.808)" clip-path="url(#clip-path-2)">
        <path id="Trazado_806326" data-name="Trazado 806326" d="M383.477,431.846a46.823,46.823,0,0,0-8.531,4.2s-14.25,7.331-36.155-.219l-6.63-5.211,13.208-9.17S358.357,427.1,368.587,426c1.235-.131,2.461-.219,3.652-.245C378.581,425.558,383.914,426.907,383.477,431.846Z" transform="translate(-332.16 -421.459)" fill="rgba(0,0,0,0.7)" opacity="0.3"/>
      </g>
      <path id="Trazado_806328" data-name="Trazado 806328" d="M332.16,430.621l15.345,12.043a175.807,175.807,0,0,0,22-3.293h0c7.27-1.682,13.62-4.09,13.961-7.4.534-5.027-4.844-6.4-11.229-6.21-1.191,0-2.417.123-3.652.245-10.221,1.095-23.219-4.546-23.219-4.546Z" transform="translate(-163.119 -174.652)" fill="none" stroke="#263238" stroke-linecap="round" stroke-linejoin="round" stroke-width="1"/>
      <path id="Trazado_806329" data-name="Trazado 806329" d="M348.338,437.334c-2.768.447.272,6.131,4.02,4.379S351.106,436.878,348.338,437.334Z" transform="translate(-164.995 -176.617)" fill="#fff"/>
      <g id="Grupo_1066828" data-name="Grupo 1066828" transform="translate(182.271 260.671)" clip-path="url(#clip-path-3)">
        <path id="Trazado_806330" data-name="Trazado 806330" d="M353.533,440.811a58.617,58.617,0,0,1-5.965-1.042c-.526-1.112-.4-2.251.771-2.435C350.66,436.948,354.566,439.094,353.533,440.811Z" transform="translate(-347.266 -437.288)" fill="rgba(0,0,0,0.7)" opacity="0.2"/>
      </g>
      <path id="Trazado_806332" data-name="Trazado 806332" d="M348.338,437.334c-2.768.447.272,6.131,4.02,4.379S351.106,436.878,348.338,437.334Z" transform="translate(-164.995 -176.617)" fill="none" stroke="#263238" stroke-linecap="round" stroke-linejoin="round" stroke-width="1"/>
      <path id="Trazado_806333" data-name="Trazado 806333" d="M374.63,439.968c7.27-1.682,13.62-4.09,13.961-7.4.534-5.027-4.844-6.4-11.229-6.21C377.083,426.629,370.89,432.611,374.63,439.968Z" transform="translate(-168.243 -175.258)" fill="#fff"/>
      <g id="Grupo_1066829" data-name="Grupo 1066829" transform="translate(205.19 251.083)" clip-path="url(#clip-path-4)">
        <path id="Trazado_806334" data-name="Trazado 806334" d="M388.6,432.453a46.824,46.824,0,0,0-8.531,4.2,28.709,28.709,0,0,1-6,2.006c-2.452-6.744,3.03-12.052,3.293-12.306C383.705,426.165,389.039,427.514,388.6,432.453Z" transform="translate(-373.434 -426.34)" fill="rgba(0,0,0,0.7)" opacity="0.3"/>
      </g>
      <path id="Trazado_806336" data-name="Trazado 806336" d="M374.63,439.968c7.27-1.682,13.62-4.09,13.961-7.4.534-5.027-4.844-6.4-11.229-6.21C377.083,426.629,370.89,432.611,374.63,439.968Z" transform="translate(-168.243 -175.258)" fill="none" stroke="#263238" stroke-linecap="round" stroke-linejoin="round" stroke-width="1"/>
      <path id="Trazado_806337" data-name="Trazado 806337" d="M368.788,433.666h.044a.753.753,0,0,0,.788-.727,10.318,10.318,0,0,1,2.628-5.772.753.753,0,0,0,0-1.069.762.762,0,0,0-1.069,0,11.7,11.7,0,0,0-3.039,6.753A.753.753,0,0,0,368.788,433.666Z" transform="translate(-167.585 -175.201)" fill="#fff" stroke="#263238" stroke-linecap="round" stroke-linejoin="round" stroke-width="1"/>
      <path id="Trazado_806338" data-name="Trazado 806338" d="M365.313,433.859h.061a.753.753,0,0,0,.771-.745,11.246,11.246,0,0,1,2.33-6.008.762.762,0,1,0-1.174-.963,12.682,12.682,0,0,0-2.671,6.937.753.753,0,0,0,.683.78Z" transform="translate(-167.15 -175.192)" fill="#fff" stroke="#263238" stroke-linecap="round" stroke-linejoin="round" stroke-width="1"/>
      <path id="Trazado_806339" data-name="Trazado 806339" d="M361.161,433.406h0a.753.753,0,0,0,.823-.683c.237-2.628,2.5-6.07,2.522-6.131a.771.771,0,0,0-.21-1.06.762.762,0,0,0-1.051.21c-.105.149-2.5,3.757-2.776,6.805a.762.762,0,0,0,.692.858Z" transform="translate(-166.633 -175.142)" fill="#fff" stroke="#263238" stroke-linecap="round" stroke-linejoin="round" stroke-width="1"/>
      <path id="Trazado_806340" data-name="Trazado 806340" d="M357.237,432.984a.794.794,0,0,0,.2,0,.753.753,0,0,0,.622-.876c-.534-3.223,2.461-5.982,2.487-6.008a.762.762,0,0,0-.981-1.112c-.149.131-3.644,3.337-2.969,7.392A.771.771,0,0,0,357.237,432.984Z" transform="translate(-166.142 -175.078)" fill="#fff" stroke="#263238" stroke-linecap="round" stroke-linejoin="round" stroke-width="1"/>
      <path id="Trazado_806341" data-name="Trazado 806341" d="M352.966,431.928a.771.771,0,0,0,.245,0,.762.762,0,0,0,.569-.876c-.657-2.873,2.172-6.131,2.207-6.131a.762.762,0,0,0-.07-1.069.753.753,0,0,0-1.069.061c-.14.158-3.381,3.863-2.549,7.506a.753.753,0,0,0,.666.508Z" transform="translate(-165.603 -174.925)" fill="#fff" stroke="#263238" stroke-linecap="round" stroke-linejoin="round" stroke-width="1"/>
      <path id="Trazado_806342" data-name="Trazado 806342" d="M262.845,426.68l-1.095,3.206s1.4,5.895,10.107,7.751,13.716,4.379,17.92,5.062a36.078,36.078,0,0,0,6.709.6l1.007-1.2Z" transform="translate(-154.378 -175.3)" fill="#fff" stroke="#263238" stroke-linecap="round" stroke-linejoin="round" stroke-width="1"/>
      <path id="Trazado_806343" data-name="Trazado 806343" d="M314.134,430.962l-16.519,10.361a176.228,176.228,0,0,1-21.537-5.579h0c-7.051-2.435-13.138-5.5-13.138-8.829,0-5.062,5.492-5.859,11.824-5,1.182.158,2.391.377,3.609.631,10.046,2.163,23.561-2.085,23.561-2.085Z" transform="translate(-154.526 -174.528)" fill="#263238"/>
      <g id="Grupo_1066830" data-name="Grupo 1066830" transform="translate(108.414 245.932)" clip-path="url(#clip-path-5)">
        <path id="Trazado_806344" data-name="Trazado 806344" d="M317.215,430.965,307.5,437.1a39.291,39.291,0,0,1-19.742-13.9,65.769,65.769,0,0,0,17.281-2.706Z" transform="translate(-266.021 -420.464)" fill="rgba(0,0,0,0.7)" opacity="0.3"/>
      </g>
      <path id="Trazado_806346" data-name="Trazado 806346" d="M314.134,430.962l-16.519,10.361a176.228,176.228,0,0,1-21.537-5.579h0c-7.051-2.435-13.138-5.5-13.138-8.829,0-5.062,5.492-5.859,11.824-5,1.182.158,2.391.377,3.609.631,10.046,2.163,23.561-2.085,23.561-2.085Z" transform="translate(-154.526 -174.528)" fill="none" stroke="#263238" stroke-linecap="round" stroke-linejoin="round" stroke-width="1"/>
      <path id="Trazado_806347" data-name="Trazado 806347" d="M276.078,435.9c-7.051-2.435-13.138-5.5-13.138-8.829,0-5.062,5.492-5.859,11.824-5C275.044,422.366,280.571,428.978,276.078,435.9Z" transform="translate(-154.526 -174.69)" fill="#fff" stroke="#263238" stroke-linecap="round" stroke-linejoin="round" stroke-width="1"/>
      <path id="Trazado_806348" data-name="Trazado 806348" d="M284.16,430.281h-.044a.771.771,0,0,1-.718-.806,10.274,10.274,0,0,0-1.988-6.008.762.762,0,1,1,1.191-.937,11.622,11.622,0,0,1,2.312,7.007A.753.753,0,0,1,284.16,430.281Z" transform="translate(-156.792 -174.74)" fill="#fff" stroke="#263238" stroke-linecap="round" stroke-linejoin="round" stroke-width="1"/>
      <path id="Trazado_806349" data-name="Trazado 806349" d="M287.635,430.832h-.07a.762.762,0,0,1-.692-.823,11.185,11.185,0,0,0-1.673-6.21.768.768,0,0,1,1.261-.876,12.551,12.551,0,0,1,1.927,7.182.762.762,0,0,1-.753.727Z" transform="translate(-157.273 -174.792)" fill="#fff" stroke="#263238" stroke-linecap="round" stroke-linejoin="round" stroke-width="1"/>
      <path id="Trazado_806350" data-name="Trazado 806350" d="M291.8,430.836h0a.771.771,0,0,1-.753-.771c.053-2.671-1.839-6.289-1.866-6.324a.771.771,0,0,1,.324-1.034.762.762,0,0,1,1.025.324c.088.158,2.093,3.994,2.041,7.059a.762.762,0,0,1-.771.745Z" transform="translate(-157.773 -174.796)" fill="#fff" stroke="#263238" stroke-linecap="round" stroke-linejoin="round" stroke-width="1"/>
      <path id="Trazado_806351" data-name="Trazado 806351" d="M295.723,430.8h-.2a.762.762,0,0,1-.526-.937c.876-3.144-1.813-6.21-1.839-6.236a.762.762,0,1,1,1.13-1.016c.131.149,3.276,3.7,2.172,7.664a.771.771,0,0,1-.736.526Z" transform="translate(-158.248 -174.757)" fill="#fff" stroke="#263238" stroke-linecap="round" stroke-linejoin="round" stroke-width="1"/>
      <path id="Trazado_806352" data-name="Trazado 806352" d="M300.122,430.207a.578.578,0,0,1-.245-.044.744.744,0,0,1-.473-.963c.955-2.785-1.524-6.315-1.542-6.35a.762.762,0,1,1,1.235-.876c.123.166,2.952,4.2,1.752,7.734A.771.771,0,0,1,300.122,430.207Z" transform="translate(-158.837 -174.667)" fill="#fff" stroke="#263238" stroke-linecap="round" stroke-linejoin="round" stroke-width="1"/>
      <path id="Trazado_806353" data-name="Trazado 806353" d="M303.778,436.1c2.706.745-.876,6.043-4.458,3.941S301.081,435.366,303.778,436.1Z" transform="translate(-158.894 -176.453)" fill="#fff" stroke="#263238" stroke-linecap="round" stroke-linejoin="round" stroke-width="1"/>
      <path id="Trazado_806354" data-name="Trazado 806354" d="M268.92,404c4.055,5.684,16.081,11.964,28.027,17.141a56.253,56.253,0,0,0,7.515,9.818c7.375,7.585,10.379,3.337,10.379,3.337s4.66-.526,11.535-1.463a3.285,3.285,0,0,0,3.5,1.953c.876-.14,2.628-1.419,4.563-3.109,17.368-2.628,40.938-7.007,47.3-12.1" transform="translate(-155.269 -172.484)" fill="#4be5f1" stroke="#263238" stroke-linecap="round" stroke-linejoin="round" stroke-width="1"/>
      <path id="Trazado_806355" data-name="Trazado 806355" d="M378.867,391.188c-3-3.3-6.008-3.451-12.315-3,0,0-16.457,5.255-27.94,12.166s-28.229,14.241-28.229,14.241-5.106-1.48-8.662,0c0,0-2.5.193-.823,4.554" transform="translate(-159.167 -170.498)" fill="none" stroke="#263238" stroke-linecap="round" stroke-linejoin="round" stroke-width="1"/>
      <path id="Trazado_806356" data-name="Trazado 806356" d="M397.71,414.17s.088,5.089-7.13,8.61" transform="translate(-170.372 -173.747)" fill="none" stroke="#263238" stroke-linecap="round" stroke-linejoin="round" stroke-width="1"/>
      <path id="Trazado_806357" data-name="Trazado 806357" d="M307.84,389.93s11.386,8.233,13.672,13.663a46.891,46.891,0,0,1,6.464,3.337" transform="translate(-160.1 -170.738)" fill="none" stroke="#263238" stroke-linecap="round" stroke-linejoin="round" stroke-width="1"/>
      <path id="Trazado_806358" data-name="Trazado 806358" d="M324.39,397.74a13.138,13.138,0,0,1,.4,7.366" transform="translate(-162.155 -171.707)" fill="none" stroke="#263238" stroke-linecap="round" stroke-linejoin="round" stroke-width="1"/>
      <path id="Trazado_806359" data-name="Trazado 806359" d="M321.39,391.64a19.918,19.918,0,0,1,1.629,2.847" transform="translate(-161.782 -170.95)" fill="none" stroke="#263238" stroke-linecap="round" stroke-linejoin="round" stroke-width="1"/>
      <path id="Trazado_806360" data-name="Trazado 806360" d="M339.91,390.78s3.81,5.1,4.756,9.232" transform="translate(-164.081 -170.843)" fill="none" stroke="#263238" stroke-linecap="round" stroke-linejoin="round" stroke-width="1"/>
      <path id="Trazado_806361" data-name="Trazado 806361" d="M364.14,425.866a32.7,32.7,0,0,0,4.222-.526" transform="translate(-167.089 -175.133)" fill="none" stroke="#263238" stroke-linecap="round" stroke-linejoin="round" stroke-width="1"/>
      <path id="Trazado_806362" data-name="Trazado 806362" d="M323.33,421.77a202.914,202.914,0,0,0,32.748,3.757" transform="translate(-162.023 -174.69)" fill="none" stroke="#263238" stroke-linecap="round" stroke-linejoin="round" stroke-width="1"/>
      <path id="Trazado_806363" data-name="Trazado 806363" d="M402.715,332.629s-2.058,35.91-4.484,37.968-6.254,2.7-13.5,3.3-39.282,2.566-39.282,2.566L342,366.175s17.035-1.752,24.594-4.511a126.759,126.759,0,0,1,17.447-4.607,124.62,124.62,0,0,1-1.436-12.919V325.85" transform="translate(-164.341 -162.783)" fill="#fff" stroke="#263238" stroke-linecap="round" stroke-linejoin="round" stroke-width="1"/>
      <path id="Trazado_806364" data-name="Trazado 806364" d="M401.666,288.8c7.8,4.808,10.107,15.923,7.41,39.65,0,0,2.3,2.8-1.1,4.2,0,0-12.761-4.773-18.691-1.48s-4.379-4.546-4.379-4.546-2.444-21.826,2.96-25.777" transform="translate(-169.598 -158.183)" fill="#263238"/>
      <path id="Trazado_806365" data-name="Trazado 806365" d="M387.028,298.75s-7.506,7.8-.876,27.528a32.18,32.18,0,0,0-.876,4.9c0,1.323,1.813,2.006,1.813,2.006" transform="translate(-169.482 -159.418)" fill="none" stroke="#fff" stroke-linecap="round" stroke-linejoin="round" stroke-width="1"/>
      <path id="Trazado_806366" data-name="Trazado 806366" d="M377.52,313.84s.543,9.634,6.516,13.812" transform="translate(-168.75 -161.292)" fill="none" stroke="#fff" stroke-linecap="round" stroke-linejoin="round" stroke-width="1"/>
      <path id="Trazado_806367" data-name="Trazado 806367" d="M376.235,287.15s-11.64,4.458-20.9-.482c-5.492-2.925-3.232-7.629-3.232-7.629" transform="translate(-165.538 -156.972)" fill="none" stroke="#fff" stroke-linecap="round" stroke-linejoin="round" stroke-width="1"/>
      <path id="Trazado_806368" data-name="Trazado 806368" d="M283.665,390.892h63.36a16.51,16.51,0,0,0,4.239-.552l12.5-3.276a.806.806,0,0,0,.6-.779h0a.815.815,0,0,0-.815-.815H281.046a.815.815,0,0,0-.806.815v1.182A3.425,3.425,0,0,0,283.665,390.892Z" transform="translate(-156.674 -170.184)" fill="#757575" stroke="#263238" stroke-linecap="round" stroke-linejoin="round" stroke-width="1"/>
      <path id="Trazado_806369" data-name="Trazado 806369" d="M274.954,380.986h63.535a1.506,1.506,0,0,0,1.48-2.032l-11.78-45.834a2.8,2.8,0,0,0-2.54-2.041H262.1a1.515,1.515,0,0,0-1.48,2.041l11.789,45.834a2.785,2.785,0,0,0,2.549,2.032Z" transform="translate(-154.226 -163.432)" fill="#999" stroke="#263238" stroke-linecap="round" stroke-linejoin="round" stroke-width="1"/>
      <line id="Línea_1889" data-name="Línea 1889" x1="1.2" transform="translate(108.913 169.277)" fill="none" stroke="#263238" stroke-linecap="round" stroke-linejoin="round" stroke-width="1"/>
      <line id="Línea_1890" data-name="Línea 1890" x1="6.201" transform="translate(113.222 169.277)" fill="none" stroke="#263238" stroke-linecap="round" stroke-linejoin="round" stroke-width="1"/>
      <path id="Trazado_806370" data-name="Trazado 806370" d="M339.007,375.428,328.6,334.981a2.794,2.794,0,0,0-2.531-2.041H277.11" transform="translate(-156.285 -163.663)" fill="none" stroke="#263238" stroke-linecap="round" stroke-linejoin="round" stroke-width="1"/>
      <line id="Línea_1891" data-name="Línea 1891" x1="0.263" y1="1.007" transform="translate(183.361 214.279)" fill="none" stroke="#263238" stroke-linecap="round" stroke-linejoin="round" stroke-width="1"/>
      <path id="Trazado_806371" data-name="Trazado 806371" d="M298.81,360.135a6.254,6.254,0,0,0,.228,1.095c.806,2.759,3.39,4.441,5.763,3.74s3.644-3.5,2.838-6.262-3.407-4.441-5.781-3.74a4.048,4.048,0,0,0-.8.342A4.9,4.9,0,0,1,298.81,360.135Z" transform="translate(-158.979 -166.378)" fill="#fff" stroke="#263238" stroke-linecap="round" stroke-linejoin="round" stroke-width="1"/>
      <path id="Trazado_806372" data-name="Trazado 806372" d="M327.608,261.219c-5.5-.6-8.5-5.824-11.807-6.639a36.483,36.483,0,0,1-5.413-1.752s-1.139-3.976-2.847-2.628-3.95,31.093-1.752,30.156S308,282.931,308,282.931l20.416,17.99,17.114-30.3S333.108,261.823,327.608,261.219Z" transform="translate(-159.732 -153.357)" fill="#263238"/>
      <path id="Trazado_806373" data-name="Trazado 806373" d="M140.88,141.828v-.438h.438" transform="translate(-139.374 -139.884)" fill="none" stroke="#263238" stroke-linecap="round" stroke-linejoin="round" stroke-width="1"/>
      <line id="Línea_1892" data-name="Línea 1892" x2="74.098" transform="translate(4.519 1.506)" fill="none" stroke="#263238" stroke-linecap="round" stroke-linejoin="round" stroke-width="1" stroke-dasharray="0.978 2.934"/>
      <path id="Trazado_806374" data-name="Trazado 806374" d="M230.38,141.39h.438v.438" transform="translate(-150.484 -139.884)" fill="none" stroke="#263238" stroke-linecap="round" stroke-linejoin="round" stroke-width="1"/>
      <line id="Línea_1893" data-name="Línea 1893" y2="47.734" transform="translate(80.343 4.572)" fill="none" stroke="#263238" stroke-linecap="round" stroke-linejoin="round" stroke-width="1" stroke-dasharray="1 3"/>
      <path id="Trazado_806375" data-name="Trazado 806375" d="M230.818,200.89v.438h-.438" transform="translate(-150.484 -147.27)" fill="none" stroke="#263238" stroke-linecap="round" stroke-linejoin="round" stroke-width="1"/>
      <line id="Línea_1894" data-name="Línea 1894" x1="74.098" transform="translate(3.232 54.058)" fill="none" stroke="#263238" stroke-linecap="round" stroke-linejoin="round" stroke-width="1" stroke-dasharray="0.978 2.934"/>
      <path id="Trazado_806376" data-name="Trazado 806376" d="M141.318,201.328h-.438v-.438" transform="translate(-139.374 -147.27)" fill="none" stroke="#263238" stroke-linecap="round" stroke-linejoin="round" stroke-width="1"/>
      <line id="Línea_1895" data-name="Línea 1895" y1="47.734" transform="translate(1.515 3.258)" fill="none" stroke="#263238" stroke-linecap="round" stroke-linejoin="round" stroke-width="1" stroke-dasharray="1 3"/>
      <circle id="Elipse_4742" data-name="Elipse 4742" cx="1.296" cy="1.296" r="1.296" transform="translate(39.633 0.21)" fill="#4be5f1" stroke="#263238" stroke-linecap="round" stroke-linejoin="round" stroke-width="1"/>
      <circle id="Elipse_4743" data-name="Elipse 4743" cx="1.296" cy="1.296" r="1.296" transform="translate(0.219 26.486)" fill="#4be5f1" stroke="#263238" stroke-linecap="round" stroke-linejoin="round" stroke-width="1"/>
      <circle id="Elipse_4744" data-name="Elipse 4744" cx="1.296" cy="1.296" r="1.296" transform="translate(39.633 52.762)" fill="#4be5f1" stroke="#263238" stroke-linecap="round" stroke-linejoin="round" stroke-width="1"/>
      <circle id="Elipse_4745" data-name="Elipse 4745" cx="1.296" cy="1.296" r="1.296" transform="translate(79.046 26.486)" fill="#4be5f1" stroke="#263238" stroke-linecap="round" stroke-linejoin="round" stroke-width="1"/>
      <rect id="Rectángulo_375699" data-name="Rectángulo 375699" width="3.022" height="3.022" transform="translate(78.827 52.552)" fill="#4be5f1" stroke="#263238" stroke-linecap="round" stroke-linejoin="round" stroke-width="1"/>
      <rect id="Rectángulo_375700" data-name="Rectángulo 375700" width="3.022" height="3.022" transform="translate(78.827)" fill="#4be5f1" stroke="#263238" stroke-linecap="round" stroke-linejoin="round" stroke-width="1"/>
      <rect id="Rectángulo_375701" data-name="Rectángulo 375701" width="3.022" height="3.022" transform="translate(0 52.552)" fill="#4be5f1" stroke="#263238" stroke-linecap="round" stroke-linejoin="round" stroke-width="1"/>
      <rect id="Rectángulo_375702" data-name="Rectángulo 375702" width="3.022" height="3.022" fill="#4be5f1" stroke="#263238" stroke-linecap="round" stroke-linejoin="round" stroke-width="1"/>
      <rect id="Rectángulo_375703" data-name="Rectángulo 375703" width="68.606" height="43.591" transform="translate(6.744 6.157)" fill="#fff" stroke="#263238" stroke-linecap="round" stroke-linejoin="round" stroke-width="1"/>
      <path id="Trazado_806377" data-name="Trazado 806377" d="M215.466,179.2l-7.629,7.629L187.2,166.189l-8.68,8.68L164.684,161.03,146.86,178.845V192.07h68.606Z" transform="translate(-140.116 -142.322)" fill="#4be5f1" stroke="#263238" stroke-linecap="round" stroke-linejoin="round" stroke-width="1"/>
      <circle id="Elipse_4746" data-name="Elipse 4746" cx="4.843" cy="4.843" r="4.843" transform="translate(56.291 13.69)" fill="#4be5f1" stroke="#263238" stroke-linecap="round" stroke-linejoin="round" stroke-width="1"/>
      <path id="Trazado_806378" data-name="Trazado 806378" d="M334.167,272s-5.255,9.783-5.877,24.752" transform="translate(-162.639 -156.098)" fill="none" stroke="#fff" stroke-linecap="round" stroke-linejoin="round" stroke-width="1"/>
      <path id="Trazado_806379" data-name="Trazado 806379" d="M317.36,279.73s1.568,8.321,6.131,14.347" transform="translate(-161.282 -157.057)" fill="none" stroke="#fff" stroke-linecap="round" stroke-linejoin="round" stroke-width="1"/>
      <path id="Trazado_806380" data-name="Trazado 806380" d="M342,318.93s7.883,25.89,25.006,33.51" transform="translate(-164.341 -161.924)" fill="none" stroke="#fff" stroke-linecap="round" stroke-linejoin="round" stroke-width="1"/>
      <path id="Trazado_806381" data-name="Trazado 806381" d="M364.463,265.42s-.745,5.649-6.175,6.043a24.059,24.059,0,0,0-2.409-4.038,75.823,75.823,0,0,1,8.583-2.006Z" transform="translate(-166.064 -155.281)" fill="#263238"/>
      <path id="Trazado_806382" data-name="Trazado 806382" d="M374.67,260.5s9.083,1.112,12.884-11.08.815-21.38-14.215-25.8c-8.338-2.452-16.641-.482-19.681,5.833-2.575,5.4-1.358,9.9-1.944,11.71-.666,2.032-6.814,3.757-6.814,5.15,0,1.147,3.407,3.109,3.407,3.109l-1,3.03.937.5s-1.752,6.823-.937,9.232c.578,1.752,15.967,2.487,17.167-1.874" transform="translate(-164.701 -149.964)" fill="#fff" stroke="#263238" stroke-linecap="round" stroke-linejoin="round" stroke-width="1"/>
      <path id="Trazado_806383" data-name="Trazado 806383" d="M355,235.47s3,.753,3.828,2.33" transform="translate(-165.955 -151.563)" fill="none" stroke="#263238" stroke-linecap="round" stroke-linejoin="round" stroke-width="1"/>
      <path id="Trazado_806384" data-name="Trazado 806384" d="M355.594,243.167c-.131.876.07,1.638.455,1.69s.788-.613.92-1.5-.079-1.638-.455-1.69S355.726,242.283,355.594,243.167Z" transform="translate(-166.023 -152.332)" fill="#263238"/>
      <path id="Trazado_806385" data-name="Trazado 806385" d="M348.72,257.25s4.887,1.874,6.709.744" transform="translate(-165.175 -154.267)" fill="none" stroke="#263238" stroke-linecap="round" stroke-linejoin="round" stroke-width="1"/>
      <path id="Trazado_806386" data-name="Trazado 806386" d="M350.662,242.119c-.359,1.962.079,3.679.981,3.845s1.936-1.279,2.295-3.232-.07-3.687-.981-3.854S351.03,240.166,350.662,242.119Z" transform="translate(-165.401 -151.984)" fill="none" stroke="#263238" stroke-linecap="round" stroke-linejoin="round" stroke-width="1"/>
      <path id="Trazado_806387" data-name="Trazado 806387" d="M388.821,229.268a14.452,14.452,0,0,0-5.711-8.811,26.722,26.722,0,0,0-10.983-4.493s2.9,1.27,4,2.943c0,0-7.506-5.641-16.422-1.936s-7.8,13.331-7.8,13.331l1.3-2.522s-.149,3,1.428,4.108a19.726,19.726,0,0,1,1.918-4.2s2.365,7.1,8.872,9.512a5.168,5.168,0,0,1-.105-3.5s3.609,7.8,2.557,11.614l1.147,2s4.143-4.2,7.515-.7c1.936,2.014-3.7,9.634-4.511,9.634l3.407,5s8.513,1.217,13.418-8.005,3.7-13.138,3.7-13.138a11.339,11.339,0,0,1,1.752,3.5C394.322,243.58,395.775,233.674,388.821,229.268Z" transform="translate(-165.565 -149.11)" fill="#263238"/>
      <path id="Trazado_806388" data-name="Trazado 806388" d="M371.19,251.885s2.628-8.829,8.216-5.719,1.6,7.821-.4,9.634-3.5,5.106-4.808,5.106-1.594-1.6-1.594-1.6" transform="translate(-167.965 -152.808)" fill="#fff" stroke="#263238" stroke-linecap="round" stroke-linejoin="round" stroke-width="1"/>
      <line id="Línea_1896" data-name="Línea 1896" x2="15.59" y2="3.232" transform="translate(188.537 90.748)" fill="none" stroke="#263238" stroke-linecap="round" stroke-linejoin="round" stroke-width="1"/>
    </g>
  </g>
</svg>
