<svg xmlns="http://www.w3.org/2000/svg" xmlns:xlink="http://www.w3.org/1999/xlink" width="236" height="456" viewBox="0 0 236 456">
  <defs>
    <clipPath id="clip-path">
      <rect id="Rectángulo_375145" data-name="Rectángulo 375145" width="236" height="456" rx="20" transform="translate(431 4692)" fill="#fb405f"/>
    </clipPath>
  </defs>
  <g id="Grupo_1066168" data-name="Grupo 1066168" transform="translate(-431 -4692)">
    <rect id="Rectángulo_375143" data-name="Rectángulo 375143" width="236" height="456" rx="20" transform="translate(431 4692)" fill="#fb405f"/>
    <path id="Trazado_806963" data-name="Trazado 806963" d="M11.654,0H8.587L4.052-7.963V0H.967V-12.8H4.052L8.578-4.834V-12.8h3.076Zm7.479-1.028a3.054,3.054,0,0,1-2.54,1.2,3,3,0,0,1-2.369-.91,3.826,3.826,0,0,1-.8-2.615V-9.51h2.962v6.179a1.065,1.065,0,0,0,1.187,1.222,1.548,1.548,0,0,0,1.45-.729V-9.51H22V0H19.222ZM26.42-9.51l.1,1.116a3.27,3.27,0,0,1,2.716-1.292,2.407,2.407,0,0,1,2.435,1.433,3.165,3.165,0,0,1,2.795-1.433q2.892,0,2.971,3.5V0H34.462V-6a1.813,1.813,0,0,0-.246-1.063,1.048,1.048,0,0,0-.9-.334,1.4,1.4,0,0,0-1.31.782l.009.123V0H29.048V-5.985a1.906,1.906,0,0,0-.237-1.081,1.045,1.045,0,0,0-.905-.334,1.42,1.42,0,0,0-1.3.782V0H23.643V-9.51ZM47.953-4.676a5.8,5.8,0,0,1-.967,3.595A3.238,3.238,0,0,1,44.262.176,2.81,2.81,0,0,1,41.924-.976L41.8,0H39.146V-13.5h2.962v4.755a2.711,2.711,0,0,1,2.136-.94,3.239,3.239,0,0,1,2.742,1.274,5.826,5.826,0,0,1,.967,3.586Zm-2.971-.189a3.866,3.866,0,0,0-.365-1.952A1.229,1.229,0,0,0,43.5-7.4a1.418,1.418,0,0,0-1.389.763v3.773a1.426,1.426,0,0,0,1.406.755,1.258,1.258,0,0,0,1.327-1.018A7.309,7.309,0,0,0,44.982-4.865ZM53.859.176a4.889,4.889,0,0,1-3.542-1.305,4.507,4.507,0,0,1-1.354-3.4v-.246A5.84,5.84,0,0,1,49.5-7.348a3.955,3.955,0,0,1,1.578-1.727,4.763,4.763,0,0,1,2.461-.611,4.117,4.117,0,0,1,3.164,1.244,4.887,4.887,0,0,1,1.16,3.467v1.151H51.979a2.135,2.135,0,0,0,.694,1.257,2.066,2.066,0,0,0,1.389.457,2.662,2.662,0,0,0,2.2-.984l1.354,1.6A3.784,3.784,0,0,1,56.043-.277,5.3,5.3,0,0,1,53.859.176ZM53.525-7.4q-1.3,0-1.547,1.723h2.988v-.229a1.467,1.467,0,0,0-.36-1.1A1.434,1.434,0,0,0,53.525-7.4Zm11.285.571-.976-.07a1.752,1.752,0,0,0-1.793.879V0H59.08V-9.51h2.777l.1,1.222a2.294,2.294,0,0,1,2.083-1.4,2.888,2.888,0,0,1,.826.105Z" transform="translate(517 4771)" fill="#12263f"/>
    <path id="Trazado_806962" data-name="Trazado 806962" d="M36.355,15H34.91V3h1.445Zm5.82.156a3.693,3.693,0,0,1-2.8-1.129,4.19,4.19,0,0,1-1.078-3.02v-.266a5.073,5.073,0,0,1,.48-2.246,3.748,3.748,0,0,1,1.344-1.547A3.378,3.378,0,0,1,42,6.391a3.166,3.166,0,0,1,2.563,1.086,4.7,4.7,0,0,1,.914,3.109v.6H39.746a3,3,0,0,0,.73,2.02,2.3,2.3,0,0,0,1.777.77,2.517,2.517,0,0,0,1.3-.312,3.259,3.259,0,0,0,.93-.828l.883.688A3.55,3.55,0,0,1,42.176,15.156ZM42,7.578a1.928,1.928,0,0,0-1.469.637A3.1,3.1,0,0,0,39.793,10h4.234V9.891a2.753,2.753,0,0,0-.594-1.707A1.815,1.815,0,0,0,42,7.578ZM49.105,4.5V6.547h1.578V7.664H49.105v5.249a1.173,1.173,0,0,0,.211.763.888.888,0,0,0,.719.254,3.5,3.5,0,0,0,.688-.094V15a4.215,4.215,0,0,1-1.109.155,1.8,1.8,0,0,1-1.461-.586,2.517,2.517,0,0,1-.492-1.664V7.664H46.121V6.547H47.66V4.5Zm8.586,2.047.039.938a3.122,3.122,0,0,1,2.508-1.094A2.417,2.417,0,0,1,62.652,7.75a3.2,3.2,0,0,1,1.1-.984,3.242,3.242,0,0,1,1.6-.375q2.781,0,2.828,2.945V15H66.73V9.422a1.941,1.941,0,0,0-.414-1.355,1.823,1.823,0,0,0-1.391-.449,1.916,1.916,0,0,0-1.336.48,1.949,1.949,0,0,0-.617,1.293V15H61.52V9.461a1.613,1.613,0,0,0-1.8-1.844A1.934,1.934,0,0,0,57.77,8.828V15H56.324V6.547ZM71.926,15H70.48V6.547h1.445ZM70.363,4.3a.863.863,0,0,1,.215-.594.807.807,0,0,1,.637-.242.819.819,0,0,1,.641.242.854.854,0,0,1,.219.594.826.826,0,0,1-.219.586.834.834,0,0,1-.641.234.821.821,0,0,1-.637-.234A.834.834,0,0,1,70.363,4.3ZM83.207,15H81.7L75.973,6.234V15H74.465V3.625h1.508l5.742,8.8v-8.8h1.492Zm7.656-.836a3.07,3.07,0,0,1-2.477.992,2.628,2.628,0,0,1-2.059-.785,3.4,3.4,0,0,1-.715-2.324v-5.5h1.445v5.461q0,1.922,1.563,1.922a2.163,2.163,0,0,0,2.2-1.234V6.547H92.27V15H90.895Zm4.961-7.617.039.938a3.122,3.122,0,0,1,2.508-1.094,2.417,2.417,0,0,1,2.414,1.359,3.2,3.2,0,0,1,1.1-.984,3.242,3.242,0,0,1,1.6-.375q2.781,0,2.828,2.945V15h-1.445V9.422a1.941,1.941,0,0,0-.414-1.355,1.823,1.823,0,0,0-1.391-.449,1.916,1.916,0,0,0-1.336.48,1.949,1.949,0,0,0-.617,1.293V15H99.652V9.461a1.613,1.613,0,0,0-1.8-1.844A1.934,1.934,0,0,0,95.9,8.828V15H94.457V6.547ZM112,15.156a3.693,3.693,0,0,1-2.8-1.129,4.19,4.19,0,0,1-1.078-3.02v-.266A5.073,5.073,0,0,1,108.6,8.5a3.748,3.748,0,0,1,1.344-1.547,3.378,3.378,0,0,1,1.871-.559,3.166,3.166,0,0,1,2.563,1.086,4.7,4.7,0,0,1,.914,3.109v.6h-5.727a3,3,0,0,0,.73,2.02,2.3,2.3,0,0,0,1.777.77,2.517,2.517,0,0,0,1.3-.312,3.259,3.259,0,0,0,.93-.828l.883.688A3.55,3.55,0,0,1,112,15.156Zm-.18-7.578a1.928,1.928,0,0,0-1.469.637A3.1,3.1,0,0,0,109.613,10h4.234V9.891a2.753,2.753,0,0,0-.594-1.707A1.815,1.815,0,0,0,111.816,7.578Zm9.234.266a4.331,4.331,0,0,0-.711-.055A1.9,1.9,0,0,0,118.41,9v6h-1.445V6.547h1.406l.023.977a2.251,2.251,0,0,1,2.016-1.133,1.477,1.477,0,0,1,.641.109Zm.789,2.852a4.993,4.993,0,0,1,.488-2.234,3.643,3.643,0,0,1,1.359-1.531,3.7,3.7,0,0,1,1.988-.539,3.565,3.565,0,0,1,2.793,1.2,4.6,4.6,0,0,1,1.066,3.18v.1a5.036,5.036,0,0,1-.473,2.215,3.589,3.589,0,0,1-1.352,1.527,3.743,3.743,0,0,1-2.02.547,3.556,3.556,0,0,1-2.785-1.2A4.575,4.575,0,0,1,121.84,10.8Zm1.453.172a3.616,3.616,0,0,0,.652,2.258,2.211,2.211,0,0,0,3.5-.012,3.955,3.955,0,0,0,.648-2.418,3.61,3.61,0,0,0-.66-2.254,2.1,2.1,0,0,0-1.754-.863,2.075,2.075,0,0,0-1.727.852A3.925,3.925,0,0,0,123.293,10.867Zm18.625-2.227H135.4V7.383h6.516Zm0,3.242H135.4v-1.25h6.516ZM152.652,15H151.2V5.367l-2.914,1.07V5.125l4.141-1.555h.227Zm11.367-4.852a6.61,6.61,0,0,1-.867,3.773,3.6,3.6,0,0,1-5.406.027,6.274,6.274,0,0,1-.906-3.605V8.414a6.463,6.463,0,0,1,.867-3.727,3.668,3.668,0,0,1,5.422-.043,6.237,6.237,0,0,1,.891,3.629Zm-1.445-1.977a5.3,5.3,0,0,0-.516-2.676,1.775,1.775,0,0,0-1.633-.84,1.751,1.751,0,0,0-1.617.836,5.171,5.171,0,0,0-.523,2.57v2.313a5.381,5.381,0,0,0,.535,2.723,1.771,1.771,0,0,0,1.621.879,1.747,1.747,0,0,0,1.59-.828,5.186,5.186,0,0,0,.543-2.609Zm3.219-.828a.905.905,0,0,1,.223-.625.848.848,0,0,1,.668-.25.874.874,0,0,1,.676.25.887.887,0,0,1,.23.625.839.839,0,0,1-.23.6.89.89,0,0,1-.676.242.8.8,0,0,1-.891-.844Zm.273,9.922-.82-.562a3.77,3.77,0,0,0,.766-2.109v-1.3h1.414v1.133A3.559,3.559,0,0,1,167.039,16,3.7,3.7,0,0,1,166.066,17.266Z" transform="translate(448 4796)" fill="#12263f"/>
    <g id="Enmascarar_grupo_6" data-name="Enmascarar grupo 6" clip-path="url(#clip-path)">
      <g id="freepik--Character--inject-11" transform="translate(202.643 4633.067)">
        <path id="Trazado_802201" data-name="Trazado 802201" d="M327.758,445.558s-42.08,12.058-47.957,14.148c-5.34,1.886-19.821,6.965-30.69,5.383a23.066,23.066,0,0,1-3.105-.667c-11.013-3.279-15.962-6.341-17.413-13.263s4.034-12.029,9.316-15.294,33.925-6.675,33.925-6.675l6.922,2.031h0Z" transform="translate(0 99.797)" fill="#fe5672"/>
        <path id="Trazado_802202" data-name="Trazado 802202" d="M249.111,465.089a23.066,23.066,0,0,1-3.105-.667c-11.013-3.279-15.962-6.341-17.413-13.263s4.034-12.029,9.316-15.294,33.925-6.675,33.925-6.675l6.922,2.031c-6.269,2.9-29.6,4.484-34.695,7.415s-7.545,8.445-4.542,15.962C241.131,458.516,245.426,462.361,249.111,465.089Z" transform="translate(0 99.797)" fill="#fff"/>
        <path id="Trazado_802203" data-name="Trazado 802203" d="M321.371,446.733s-31.6,8.184-44.141,13.422-36.436,7.531-44.982-3.265-.987-20.111,7.531-22.186,25.742-5.34,35.144-4.019" transform="translate(0.061 100.333)" fill="none" stroke="#263238" stroke-linecap="round" stroke-linejoin="round" stroke-width="1.103"/>
        <path id="Trazado_802204" data-name="Trazado 802204" d="M246.765,463.892s-16.078-8.822-10.738-21.185c3.947-9.113,25.393-7.139,36.015-12.116" transform="translate(2.97 100.428)" fill="none" stroke="#263238" stroke-linecap="round" stroke-linejoin="round" stroke-width="1.103"/>
        <path id="Trazado_802205" data-name="Trazado 802205" d="M412.456,467.282c-.435,4.353-1.959,8.431-6.312,11-2.9,1.712-7.023,2.728-12.929,2.67-14.757-.189-42.5-10.738-42.5-10.738L324.74,455.848l13.509-21.374,3.7-5.8,9.548,2.148s7.908,4.484,15.86,8.053,27.265,4.353,34.071,9.824S413.2,460.114,412.456,467.282Z" transform="translate(43.473 99.562)" fill="#fe5672"/>
        <path id="Trazado_802206" data-name="Trazado 802206" d="M408.256,467.282c-.435,4.353-1.959,8.431-6.312,11a19.43,19.43,0,0,0-.726-12.972c-2.9-6.515-12.348-12.261-24.769-13.219s-21.925-6.762-26.9-9.359c-3.889-2.017-12.087-6.428-15.5-8.256l3.7-5.8,9.548,2.148s7.908,4.484,15.86,8.053,27.265,4.353,34.071,9.824S409,460.114,408.256,467.282Z" transform="translate(47.672 99.562)" fill="#fff"/>
        <path id="Trazado_802207" data-name="Trazado 802207" d="M329.549,457.217a163.765,163.765,0,0,0,60.8,20.764c4.73.566,10.23.653,13.393-2.9a9.9,9.9,0,0,0,2.177-7.415c-.566-6.675-6.182-11.957-12.334-14.612s-12.929-3.265-19.473-4.73a77.458,77.458,0,0,1-18.718-6.849c-4.7-2.452-9.243-5.427-14.423-6.53s-11.347.232-14.119,4.759" transform="translate(44.425 102.227)" fill="none" stroke="#263238" stroke-linecap="round" stroke-linejoin="round" stroke-width="1.103"/>
        <path id="Trazado_802208" data-name="Trazado 802208" d="M397.873,478.929a17.3,17.3,0,0,0,9.5-12.276c.943-6.283-2.641-12.61-7.676-16.469s-11.347-5.688-17.572-6.98-12.6-2.162-18.559-4.527c-9.1-3.57-18.08-10.593-27.57-8.082" transform="translate(48.552 100.191)" fill="none" stroke="#263238" stroke-linecap="round" stroke-linejoin="round" stroke-width="1.103"/>
        <path id="Trazado_802209" data-name="Trazado 802209" d="M397.809,306.3l-43.952-16.716-.551-.218s.16-1.161.29-2.9c.276-3.512.421-9.229-1.233-11.159-2.452-2.9-9.388-.464-16.165-3.57s-19.3,2.452-19.3,2.452-9.055-1.669-13.059,4.861c-2.031,5.267-1.335,13.059-1.335,13.059l-.827.29c-5.238,1.959-33.737,12.682-39.759,16.992-6.66,4.716-14.032,53.137-16.4,67.358s-6.573,27.033-4.44,31.923,32.75,28.47,50.366,34.549,80.083,4.353,80.083,4.353,1.016-.276,2.83-.856c10.564-3.4,48.044-17.413,67.938-50.322C442.327,396.451,423.058,333.286,397.809,306.3ZM279.056,387.744c-3.236,2.293-1.451,11.173-1.451,11.173l-5.5-4.846L285.919,360.1l5.891,26.119S282.292,385.466,279.056,387.744Zm110.512,21.577c-1.524.784,4.353-15.541,1.567-19.241s-11.188-3.352-11.188-3.352l.711-4.455,4.977-25.538,1.654-1.959s17.093,29.3,20.155,39.628C407.444,394.434,388.813,409.321,389.567,409.321Z" transform="translate(5.476 28.351)" fill="#fe5672"/>
        <path id="Trazado_802210" data-name="Trazado 802210" d="M299.45,222.25l-22.694,24.087s-3.12,2.772-1.886,9.751,4.135,13.059,6.327,13.466a31.011,31.011,0,0,0,5.253.464s4.861,10.535,8.315,14.67c0,0,1.19,16.266.551,20.779,0,0,8.155,7.125,15.831,8.024s19.531-10.854,19.531-10.854l2.9-14.394s6.965-10.564,7.429-13.379,3.657-2.09,5.224-3.482,5.18-7.589,5.8-13.451.638-12.6-6.167-10.622c-5.906-1.582-2.206-14.061-2.206-14.061l-10.375-9.142Z" transform="translate(20.849 6.458)" fill="#fff"/>
        <path id="Trazado_802211" data-name="Trazado 802211" d="M334.831,289.549a25.652,25.652,0,0,1-1.175,2.626c-3.744,7.052-20.053,20.5-20.053,20.5l-4.934-15.163-2.7,15.163c-5.441-2.38-22.041-16.76-22.041-16.76s-.566-1.349-1.248-3.453l.827-.29s-.7-7.85,1.335-13.059c3.976-6.53,13.059-4.861,13.059-4.861s12.523-5.557,19.3-2.452,13.712.7,16.165,3.57.943,14.017.943,14.017Z" transform="translate(24.502 28.383)" fill="#fff" opacity="0.5"/>
        <path id="Trazado_802212" data-name="Trazado 802212" d="M364.958,301.426,321.006,284.71l-.551-.218s.16-1.161.29-2.9l-.914,5.7-6.5,8.822a179.93,179.93,0,0,1,20.315,8.938,17.819,17.819,0,0,1,9.287,17.761l-8.1,69.287-3.323,39.338,10.027,10.4c10.564-3.4,48.044-17.413,67.938-50.322C409.476,391.579,390.206,328.415,364.958,301.426ZM356.716,404.45c-1.524.784,4.353-15.541,1.567-19.241s-11.188-3.352-11.188-3.352l.711-4.455,4.977-25.538,1.654-1.959s17.093,29.3,20.155,39.628C374.593,389.562,355.962,404.45,356.716,404.45Z" transform="translate(38.327 33.223)" opacity="0.2"/>
        <path id="Trazado_802213" data-name="Trazado 802213" d="M291.771,376.3l-6.834-22.839s-12.261-41.8-20.663-52.107l2.206,29.4s-7.255,35.115-13.886,45.548-8.111,13.059,0,13.059,27.86,15.729,27.86,15.729l-1.524-13.059Zm-17.224,8.837-5.5-4.846,13.814-33.969,5.891,26.119s-9.461-.711-12.7,1.567S274.547,385.133,274.547,385.133Z" transform="translate(8.432 42.135)" opacity="0.2"/>
        <path id="Trazado_802214" data-name="Trazado 802214" d="M288.49,265.28s1.248,12.319,0,17.949" transform="translate(27.123 25.866)" fill="none" stroke="#263238" stroke-linecap="round" stroke-linejoin="round" stroke-width="1.103"/>
        <path id="Trazado_802215" data-name="Trazado 802215" d="M314.11,280.168a53.01,53.01,0,0,1,1.364-11.768" transform="translate(38.679 27.273)" fill="none" stroke="#263238" stroke-linecap="round" stroke-linejoin="round" stroke-width="1.103"/>
        <path id="Trazado_802216" data-name="Trazado 802216" d="M331.909,228.58s7.458,9.359,7.067,16.44-.943,15.468-.754,23.681-13.19,25.422-20.068,26.946-12.8,1.915-17.195-2.481-8.793-10.506-14.51-18.341-4.353-25.031-4.353-25.031" transform="translate(24.174 9.313)" fill="none" stroke="#263238" stroke-linecap="round" stroke-linejoin="round" stroke-width="1.103"/>
        <path id="Trazado_802217" data-name="Trazado 802217" d="M304.221,247.71a38.916,38.916,0,0,0-.58,7.792,8.779,8.779,0,0,0,1.915,6.094c.827.842,2.017,1.523,2.176,2.684a2.9,2.9,0,0,1-1.538,2.539,22.578,22.578,0,0,0-2.684,1.6" transform="translate(33.897 17.941)" fill="none" stroke="#263238" stroke-linecap="round" stroke-linejoin="round" stroke-width="1.103"/>
        <path id="Trazado_802218" data-name="Trazado 802218" d="M295.87,262.6s.856,5.557,8.3,6.718" transform="translate(30.451 24.657)" fill="none" stroke="#263238" stroke-linecap="round" stroke-linejoin="round" stroke-width="1.103"/>
        <path id="Trazado_802219" data-name="Trazado 802219" d="M297.365,251.532c0,1.611-.7,2.9-1.553,2.9s-1.553-1.291-1.553-2.9.7-2.9,1.553-2.9S297.365,249.936,297.365,251.532Z" transform="translate(29.725 18.356)" fill="#263238"/>
        <path id="Trazado_802220" data-name="Trazado 802220" d="M312.675,252.012c0,1.611-.7,2.9-1.553,2.9s-1.553-1.306-1.553-2.9.7-2.9,1.553-2.9S312.675,250.4,312.675,252.012Z" transform="translate(36.631 18.573)" fill="#263238"/>
        <path id="Trazado_802221" data-name="Trazado 802221" d="M308.62,247.189s7.255-7.255,13.335.842" transform="translate(36.202 16.358)" fill="none" stroke="#263238" stroke-linecap="round" stroke-linejoin="round" stroke-width="2.206"/>
        <path id="Trazado_802222" data-name="Trazado 802222" d="M301.761,247.07s-4.585-5.137-11.812,0" transform="translate(27.781 16.623)" fill="none" stroke="#263238" stroke-linecap="round" stroke-linejoin="round" stroke-width="2.206"/>
        <path id="Trazado_802223" data-name="Trazado 802223" d="M289.041,272.111s4.426,12.189,14.307,15.657,23-14.51,23-14.51l-.682-2.336s-8.6,11.173-18.167,9.272S288.49,265.32,288.49,265.32Z" transform="translate(27.123 25.884)" fill="#263238"/>
        <path id="Trazado_802224" data-name="Trazado 802224" d="M286.36,262.38s-5.891,2.075-7.458-2.51-6.936-16.673-2.235-20.706,8.474,5.325,8.474,5.325" transform="translate(20.938 13.631)" fill="none" stroke="#263238" stroke-linecap="round" stroke-linejoin="round" stroke-width="1.103"/>
        <path id="Trazado_802225" data-name="Trazado 802225" d="M320.72,264.4s5.47,1.1,7.038-3.482,6.936-16.673,2.235-20.706-8.474,5.325-8.474,5.325" transform="translate(41.66 14.105)" fill="none" stroke="#263238" stroke-linecap="round" stroke-linejoin="round" stroke-width="1.103"/>
        <path id="Trazado_802226" data-name="Trazado 802226" d="M287.119,269.888a8.155,8.155,0,0,0,5.166-3.047,12.683,12.683,0,0,0,1.451-4.629,54.543,54.543,0,0,0,.813-9.345,12.782,12.782,0,0,1,.334-3.642,9.576,9.576,0,0,1,1.973-3.236c2.046-2.409,4.527-4.44,6.486-6.936a11.608,11.608,0,0,0,2.9-8.706,39.831,39.831,0,0,0,32.605,8.431c10.375-2.031,20.315-11.13,19.11-22.564a9.243,9.243,0,0,0-7.255-7.952c-5.122-1.277-9.722,1.451-14.365,3.207-8.46,3.192-16.745-2.293-25.292-3.207-7.255-.8-16.3.116-20.1,7.386,0,0-13.059,1.538-18.864,12.334s5.18,25.727,5.18,25.727,4.353-5.34,10.056,5.456Z" transform="translate(18.96)" fill="#263238"/>
        <path id="Trazado_802227" data-name="Trazado 802227" d="M317.2,228.1s-3.4,17.7,5.47,26.278c0,0,1.944-5.325,3.9-6.631A20.5,20.5,0,0,0,325.02,228.1C318.461,217.8,317.2,228.1,317.2,228.1Z" transform="translate(39.783 7.032)" fill="#263238"/>
        <path id="Trazado_802228" data-name="Trazado 802228" d="M349.465,212.8a16.673,16.673,0,0,1-10.157,10.549c-12.3,5.021-24.247-.537-36.581-1.625-10.056-.9-21.156,8.184-21.867,18.515" transform="translate(23.681 2.195)" fill="none" stroke="#fff" stroke-linecap="round" stroke-linejoin="round" stroke-width="1.103" opacity="0.2"/>
        <path id="Trazado_802229" data-name="Trazado 802229" d="M275.63,235.73a21.49,21.49,0,0,1,13.059-18.98" transform="translate(21.322 3.977)" fill="none" stroke="#fff" stroke-linecap="round" stroke-linejoin="round" stroke-width="1.103" opacity="0.2"/>
        <path id="Trazado_802230" data-name="Trazado 802230" d="M286.53,276.961a56.169,56.169,0,0,0,19.168,13.06s14.728-4.281,22.215-14.511" transform="translate(26.239 30.48)" fill="none" stroke="#263238" stroke-linecap="round" stroke-linejoin="round" stroke-width="1.103"/>
        <circle id="Elipse_1149" data-name="Elipse 1149" cx="13.03" cy="13.03" r="13.03" transform="matrix(0.909, -0.417, 0.417, 0.909, 305.114, 263.448)" fill="none" stroke="#263238" stroke-linecap="round" stroke-linejoin="round" stroke-width="1.103"/>
        <circle id="Elipse_1150" data-name="Elipse 1150" cx="13.03" cy="13.03" r="13.03" transform="translate(336.962 258.573) rotate(-7)" fill="none" stroke="#263238" stroke-linecap="round" stroke-linejoin="round" stroke-width="1.103"/>
        <path id="Trazado_802231" data-name="Trazado 802231" d="M290.857,273.16a10.158,10.158,0,0,0-6.283,4.861c-2.307,4.063-.914,16.847-.914,16.847s11.913,11.782,22.056,16.76L308.7,294.81l4.643,16.818s15.7-11.1,20.053-20.489c0,0,1.451-10.955,0-14.51a5.035,5.035,0,0,0-4.687-3.439" transform="translate(24.756 29.42)" fill="none" stroke="#263238" stroke-linecap="round" stroke-linejoin="round" stroke-width="1.103"/>
        <path id="Trazado_802232" data-name="Trazado 802232" d="M279,364.353s-4.658-31.2-10.854-43.923" transform="translate(17.948 50.741)" fill="none" stroke="#263238" stroke-linecap="round" stroke-linejoin="round" stroke-width="1.103"/>
        <path id="Trazado_802233" data-name="Trazado 802233" d="M258.92,301.35a126.244,126.244,0,0,1,9.635,16.121" transform="translate(13.785 42.135)" fill="none" stroke="#263238" stroke-linecap="round" stroke-linejoin="round" stroke-width="1.103"/>
        <path id="Trazado_802234" data-name="Trazado 802234" d="M343.23,322.131a90.11,90.11,0,0,1,5.122-15.221" transform="translate(51.813 44.643)" fill="none" stroke="#263238" stroke-linecap="round" stroke-linejoin="round" stroke-width="1.103"/>
        <path id="Trazado_802235" data-name="Trazado 802235" d="M336.6,362.824s3.352-21.388,7.357-39" transform="translate(48.823 52.27)" fill="none" stroke="#263238" stroke-linecap="round" stroke-linejoin="round" stroke-width="1.103"/>
        <path id="Trazado_802236" data-name="Trazado 802236" d="M340.52,332.76a24.668,24.668,0,0,1,12.972-8.88" transform="translate(50.591 52.297)" fill="none" stroke="#263238" stroke-linecap="round" stroke-linejoin="round" stroke-width="1.103"/>
        <path id="Trazado_802237" data-name="Trazado 802237" d="M318.25,283.59s27.033,10.81,44.489,16.948c0,0,21.475,20.184,44.5,90.139,0,0-21.1,35.492-61.234,46.869" transform="translate(40.546 34.125)" fill="none" stroke="#263238" stroke-linecap="round" stroke-linejoin="round" stroke-width="1.103"/>
        <path id="Trazado_802238" data-name="Trazado 802238" d="M342.18,373.5l19.4-16.15s10.259-7.792,20.924-2.467" transform="translate(51.339 65.439)" fill="none" stroke="#263238" stroke-linecap="round" stroke-linejoin="round" stroke-width="1.103"/>
        <path id="Trazado_802239" data-name="Trazado 802239" d="M341.67,328.67s16.034,23.7,20.141,39.657" transform="translate(51.109 54.458)" fill="none" stroke="#263238" stroke-linecap="round" stroke-linejoin="round" stroke-width="1.103"/>
        <path id="Trazado_802240" data-name="Trazado 802240" d="M273.5,361.428l-5.674-5.383s-8.416-1.451-17.964,4.919" transform="translate(9.699 66.741)" fill="none" stroke="#263238" stroke-linecap="round" stroke-linejoin="round" stroke-width="1.103"/>
        <path id="Trazado_802241" data-name="Trazado 802241" d="M262.24,366.911s7.052-23.217,14-35.1" transform="translate(15.283 55.874)" fill="none" stroke="#263238" stroke-linecap="round" stroke-linejoin="round" stroke-width="1.103"/>
        <path id="Trazado_802242" data-name="Trazado 802242" d="M302.344,285.55s-38.9,14.6-42.719,18.864-18.312,85.887-18.7,95.232c-.334,8.358,29.964,27.12,44.982,35.028" transform="translate(5.666 35.009)" fill="none" stroke="#263238" stroke-linecap="round" stroke-linejoin="round" stroke-width="1.103"/>
        <path id="Trazado_802243" data-name="Trazado 802243" d="M304.9,305.358a2.554,2.554,0,1,1-.748-1.82A2.568,2.568,0,0,1,304.9,305.358Z" transform="translate(32.206 42.785)" fill="#263238"/>
        <path id="Trazado_802244" data-name="Trazado 802244" d="M362.479,400.07H273.965a2.075,2.075,0,0,1-2.075-2.075h0a2.075,2.075,0,0,1,2.075-2.075h88.514a2.075,2.075,0,0,1,2.075,2.075h0A2.075,2.075,0,0,1,362.479,400.07Z" transform="translate(19.635 84.791)" fill="#263238"/>
        <path id="Trazado_802245" data-name="Trazado 802245" d="M368.579,413.544l11.855-55.72a5.92,5.92,0,0,0-5.8-7.154H271.17a5.92,5.92,0,0,0-5.8,7.081L276,411.614a5.92,5.92,0,0,0,5.674,4.774l80.954,1.857a5.949,5.949,0,0,0,5.949-4.7Z" transform="translate(16.641 64.381)" fill="#fff" stroke="#263238" stroke-linecap="round" stroke-linejoin="round" stroke-width="1.103"/>
        <path id="Trazado_802246" data-name="Trazado 802246" d="M315.573,375.4a8.256,8.256,0,1,1-2.413-5.848,8.256,8.256,0,0,1,2.413,5.848Z" transform="translate(31.89 71.805)" fill="#263238"/>
        <line id="Línea_1685" data-name="Línea 1685" x2="12.29" transform="translate(363.7 420.376)" fill="none" stroke="#263238" stroke-linecap="round" stroke-linejoin="round" stroke-width="1.103"/>
        <line id="Línea_1686" data-name="Línea 1686" x2="46.651" transform="translate(305.006 420.376)" fill="none" stroke="#263238" stroke-linecap="round" stroke-linejoin="round" stroke-width="1.103"/>
        <path id="Trazado_802247" data-name="Trazado 802247" d="M383.38,458.019l-9.432,24.755s-24.058-6.065-54.864-12.377c-32.228-6.6-65.877-15.149-83.334-45.78-2.119-3.729-3.541-8.14-2.539-12.319,2.51-10.578,16.281-13.451,25.35-14.51a165.277,165.277,0,0,1,17.166-.958c2.9,0,12.552-1.582,14.888.145A68.4,68.4,0,0,0,301.8,403.6c5.151,2.191,80.344-1.959,80.344-1.959a26.974,26.974,0,0,0,2.365-9.04c11.826-6.007,39.178-11.086,50.787-8.837,18.182,3.526,28.789,14.133,26.772,25.248S419.889,449.937,383.38,458.019Z" transform="translate(2.042 79.065)" fill="#263238"/>
        <path id="Trazado_802248" data-name="Trazado 802248" d="M367.966,448.242s-22.883-6.065-41.572-18.69-33.287-27.28-59.333-24.247" transform="translate(17.457 88.842)" fill="none" stroke="#fff" stroke-linecap="round" stroke-linejoin="round" stroke-width="1.103"/>
        <path id="Trazado_802249" data-name="Trazado 802249" d="M305,432.1c11.812-3.4,20.474-11.042,29.95-18.37A202.6,202.6,0,0,1,367,392.66" transform="translate(34.57 83.32)" fill="none" stroke="#fff" stroke-linecap="round" stroke-linejoin="round" stroke-width="1.103"/>
        <line id="Línea_1687" data-name="Línea 1687" x2="3.468" transform="translate(335.405 271.949)" fill="none" stroke="#263238" stroke-linecap="round" stroke-linejoin="round" stroke-width="1.103"/>
      </g>
    </g>
  </g>
</svg>
