<svg xmlns="http://www.w3.org/2000/svg" xmlns:xlink="http://www.w3.org/1999/xlink" width="236" height="456" viewBox="0 0 236 456">
  <defs>
    <clipPath id="clip-path">
      <rect id="Rectángulo_375147" data-name="Rectángulo 375147" width="236" height="456" rx="20" transform="translate(431 4692)" fill="#fb405f"/>
    </clipPath>
  </defs>
  <g id="Grupo_1067054" data-name="Grupo 1067054" transform="translate(6819 7497)">
    <rect id="Rectángulo_375140" data-name="Rectángulo 375140" width="234" height="456" rx="20" transform="translate(-6818 -7497)" fill="#4be5f1"/>
    <path id="Trazado_806966" data-name="Trazado 806966" d="M.967,0V-12.8h4.6a6.509,6.509,0,0,1,3.757.905,3.012,3.012,0,0,1,1.288,2.628,3.045,3.045,0,0,1-.457,1.7A2.663,2.663,0,0,1,8.807-6.53a2.7,2.7,0,0,1,1.538.984,2.862,2.862,0,0,1,.536,1.758A3.388,3.388,0,0,1,9.69-.962,5.667,5.667,0,0,1,6.161,0ZM4.052-5.44v3.067H6.073a1.923,1.923,0,0,0,1.283-.382A1.338,1.338,0,0,0,7.8-3.832,1.419,1.419,0,0,0,6.214-5.44Zm0-2.021H5.66A2.285,2.285,0,0,0,7.1-7.832,1.314,1.314,0,0,0,7.532-8.9a1.379,1.379,0,0,0-.466-1.168,2.493,2.493,0,0,0-1.5-.357H4.052Zm8.016,2.619a5.613,5.613,0,0,1,.554-2.536,3.96,3.96,0,0,1,1.591-1.709,4.791,4.791,0,0,1,2.435-.6,4.373,4.373,0,0,1,3.366,1.323,5.076,5.076,0,0,1,1.23,3.6v.105a4.925,4.925,0,0,1-1.235,3.529A4.384,4.384,0,0,1,16.664.176,4.434,4.434,0,0,1,13.4-1.042a4.761,4.761,0,0,1-1.327-3.3Zm2.962.185a3.538,3.538,0,0,0,.413,1.934,1.376,1.376,0,0,0,1.222.615q1.582,0,1.617-2.435v-.3q0-2.558-1.635-2.558-1.485,0-1.608,2.206Zm7.146-.185a5.613,5.613,0,0,1,.554-2.536,3.96,3.96,0,0,1,1.591-1.709,4.791,4.791,0,0,1,2.435-.6A4.373,4.373,0,0,1,30.12-8.363a5.076,5.076,0,0,1,1.23,3.6v.105a4.925,4.925,0,0,1-1.235,3.529A4.384,4.384,0,0,1,26.771.176a4.434,4.434,0,0,1-3.261-1.217,4.761,4.761,0,0,1-1.327-3.3Zm2.962.185a3.538,3.538,0,0,0,.413,1.934,1.376,1.376,0,0,0,1.222.615q1.582,0,1.617-2.435v-.3q0-2.558-1.635-2.558-1.485,0-1.608,2.206ZM35.78,0H32.81V-13.5H35.78Zm6.425.176a4.889,4.889,0,0,1-3.542-1.305,4.507,4.507,0,0,1-1.354-3.4v-.246a5.84,5.84,0,0,1,.541-2.575,3.955,3.955,0,0,1,1.578-1.727,4.763,4.763,0,0,1,2.461-.611,4.117,4.117,0,0,1,3.164,1.244,4.887,4.887,0,0,1,1.16,3.467v1.151H40.324a2.135,2.135,0,0,0,.694,1.257,2.066,2.066,0,0,0,1.389.457,2.662,2.662,0,0,0,2.2-.984l1.354,1.6A3.784,3.784,0,0,1,44.389-.277,5.3,5.3,0,0,1,42.205.176ZM41.871-7.4q-1.3,0-1.547,1.723h2.988v-.229a1.467,1.467,0,0,0-.36-1.1A1.434,1.434,0,0,0,41.871-7.4ZM52.761,0a3.344,3.344,0,0,1-.281-.853A2.754,2.754,0,0,1,50.194.176a3.374,3.374,0,0,1-2.285-.813,2.588,2.588,0,0,1-.94-2.043,2.66,2.66,0,0,1,1.143-2.338,5.821,5.821,0,0,1,3.322-.791h.914v-.5q0-1.316-1.134-1.316a.927.927,0,0,0-1.055,1.042H47.2a2.655,2.655,0,0,1,1.173-2.239,4.931,4.931,0,0,1,2.993-.86,4.323,4.323,0,0,1,2.874.888,3.086,3.086,0,0,1,1.081,2.435v4.21a4.311,4.311,0,0,0,.4,2V0ZM50.906-1.934a1.652,1.652,0,0,0,.918-.237,1.487,1.487,0,0,0,.523-.536V-4.228h-.861q-1.547,0-1.547,1.389a.848.848,0,0,0,.272.655A.986.986,0,0,0,50.906-1.934ZM59.678-9.51l.1,1.116A3.225,3.225,0,0,1,62.49-9.686a2.713,2.713,0,0,1,2.219.888,4.226,4.226,0,0,1,.76,2.672V0H62.5V-6a1.6,1.6,0,0,0-.29-1.059A1.342,1.342,0,0,0,61.154-7.4a1.413,1.413,0,0,0-1.292.686V0H56.9V-9.51Z" transform="translate(-6734 -7418)" fill="#12263f"/>
    <path id="Trazado_806967" data-name="Trazado 806967" d="M35.879,15H34.434V3h1.445Zm5.82.156a3.693,3.693,0,0,1-2.8-1.129,4.19,4.19,0,0,1-1.078-3.02v-.266A5.073,5.073,0,0,1,38.3,8.5a3.748,3.748,0,0,1,1.344-1.547,3.378,3.378,0,0,1,1.871-.559,3.166,3.166,0,0,1,2.563,1.086A4.7,4.7,0,0,1,45,10.586v.6H39.27a3,3,0,0,0,.73,2.02,2.3,2.3,0,0,0,1.777.77,2.517,2.517,0,0,0,1.3-.312,3.259,3.259,0,0,0,.93-.828l.883.688A3.55,3.55,0,0,1,41.7,15.156Zm-.18-7.578a1.928,1.928,0,0,0-1.469.637A3.1,3.1,0,0,0,39.316,10h4.234V9.891a2.753,2.753,0,0,0-.594-1.707A1.815,1.815,0,0,0,41.52,7.578ZM48.629,4.5V6.547h1.578V7.664H48.629v5.249a1.173,1.173,0,0,0,.211.763.888.888,0,0,0,.719.254,3.5,3.5,0,0,0,.688-.094V15a4.215,4.215,0,0,1-1.109.155,1.8,1.8,0,0,1-1.461-.586,2.517,2.517,0,0,1-.492-1.664V7.664H45.645V6.547h1.539V4.5Zm8.586,2.047.039.938a3.122,3.122,0,0,1,2.508-1.094A2.417,2.417,0,0,1,62.176,7.75a3.2,3.2,0,0,1,1.1-.984,3.242,3.242,0,0,1,1.6-.375q2.781,0,2.828,2.945V15H66.254V9.422a1.941,1.941,0,0,0-.414-1.355,1.823,1.823,0,0,0-1.391-.449,1.917,1.917,0,0,0-1.336.48A1.949,1.949,0,0,0,62.5,9.391V15H61.043V9.461a1.613,1.613,0,0,0-1.8-1.844,1.934,1.934,0,0,0-1.945,1.211V15H55.848V6.547ZM71.449,15H70V6.547h1.445ZM69.887,4.3a.863.863,0,0,1,.215-.594.807.807,0,0,1,.637-.242.819.819,0,0,1,.641.242A.854.854,0,0,1,71.6,4.3a.826.826,0,0,1-.219.586.834.834,0,0,1-.641.234.821.821,0,0,1-.637-.234A.834.834,0,0,1,69.887,4.3ZM75.5,13.773h5.391V15h-6.9V3.625H75.5ZM81.988,10.7a4.993,4.993,0,0,1,.488-2.234A3.643,3.643,0,0,1,83.836,6.93a3.7,3.7,0,0,1,1.988-.539,3.565,3.565,0,0,1,2.793,1.2,4.6,4.6,0,0,1,1.066,3.18v.1a5.036,5.036,0,0,1-.473,2.215,3.589,3.589,0,0,1-1.352,1.527,3.743,3.743,0,0,1-2.02.547,3.556,3.556,0,0,1-2.785-1.2A4.575,4.575,0,0,1,81.988,10.8Zm1.453.172a3.616,3.616,0,0,0,.652,2.258,2.211,2.211,0,0,0,3.5-.012,3.955,3.955,0,0,0,.648-2.418,3.61,3.61,0,0,0-.66-2.254,2.1,2.1,0,0,0-1.754-.863A2.075,2.075,0,0,0,84.1,8.43,3.925,3.925,0,0,0,83.441,10.867Zm7.711-.164a4.968,4.968,0,0,1,.914-3.145A3.151,3.151,0,0,1,96.9,7.484l.07-.937h1.32V14.8a3.439,3.439,0,0,1-.973,2.586,3.589,3.589,0,0,1-2.613.945,4.348,4.348,0,0,1-1.789-.391,3.08,3.08,0,0,1-1.336-1.07l.75-.867a2.826,2.826,0,0,0,2.273,1.148,2.214,2.214,0,0,0,1.645-.594,2.269,2.269,0,0,0,.59-1.672v-.727a2.971,2.971,0,0,1-2.367,1,2.887,2.887,0,0,1-2.4-1.2A5.224,5.224,0,0,1,91.152,10.7Zm1.453.164a3.79,3.79,0,0,0,.586,2.246,1.9,1.9,0,0,0,1.641.816,2.117,2.117,0,0,0,2.008-1.242V8.828a2.142,2.142,0,0,0-1.992-1.211,1.921,1.921,0,0,0-1.648.82A4.128,4.128,0,0,0,92.605,10.867ZM102.043,15H100.6V6.547h1.445ZM100.48,4.3a.863.863,0,0,1,.215-.594.807.807,0,0,1,.637-.242.819.819,0,0,1,.641.242.854.854,0,0,1,.219.594.826.826,0,0,1-.219.586.834.834,0,0,1-.641.234.821.821,0,0,1-.637-.234A.834.834,0,0,1,100.48,4.3Zm7.266,9.672a2.082,2.082,0,0,0,1.352-.469,1.649,1.649,0,0,0,.641-1.172h1.367a2.621,2.621,0,0,1-.5,1.383,3.293,3.293,0,0,1-1.23,1.047,3.55,3.55,0,0,1-1.629.391A3.482,3.482,0,0,1,105,14a4.59,4.59,0,0,1-1.02-3.152v-.242a5.089,5.089,0,0,1,.453-2.2,3.451,3.451,0,0,1,1.3-1.492,3.7,3.7,0,0,1,2-.531,3.39,3.39,0,0,1,2.363.852,3.043,3.043,0,0,1,1,2.211h-1.367a1.992,1.992,0,0,0-.621-1.348,1.932,1.932,0,0,0-1.379-.527,2.023,2.023,0,0,0-1.707.793,3.724,3.724,0,0,0-.605,2.293v.273a3.65,3.65,0,0,0,.6,2.25A2.033,2.033,0,0,0,107.746,13.977Zm4.6-3.281a4.993,4.993,0,0,1,.488-2.234A3.643,3.643,0,0,1,114.2,6.93a3.7,3.7,0,0,1,1.988-.539,3.565,3.565,0,0,1,2.793,1.2,4.6,4.6,0,0,1,1.066,3.18v.1a5.036,5.036,0,0,1-.473,2.215,3.589,3.589,0,0,1-1.352,1.527,3.743,3.743,0,0,1-2.02.547,3.556,3.556,0,0,1-2.785-1.2,4.575,4.575,0,0,1-1.066-3.164Zm1.453.172a3.616,3.616,0,0,0,.652,2.258,2.211,2.211,0,0,0,3.5-.012A3.955,3.955,0,0,0,118.6,10.7a3.61,3.61,0,0,0-.66-2.254,2.1,2.1,0,0,0-1.754-.863,2.075,2.075,0,0,0-1.727.852A3.925,3.925,0,0,0,113.8,10.867Zm18.625-2.227H125.91V7.383h6.516Zm0,3.242H125.91v-1.25h6.516ZM140.52,4.5V6.547H142.1V7.664H140.52v5.249a1.173,1.173,0,0,0,.211.763.888.888,0,0,0,.719.254,3.5,3.5,0,0,0,.688-.094V15a4.215,4.215,0,0,1-1.109.155,1.8,1.8,0,0,1-1.461-.586,2.517,2.517,0,0,1-.492-1.664V7.664h-1.539V6.547h1.539V4.5Zm7.352,3.344a4.331,4.331,0,0,0-.711-.055A1.9,1.9,0,0,0,145.23,9v6h-1.445V6.547h1.406l.023.977a2.251,2.251,0,0,1,2.016-1.133,1.477,1.477,0,0,1,.641.109Zm6.547,6.32a3.07,3.07,0,0,1-2.477.992,2.628,2.628,0,0,1-2.059-.785,3.4,3.4,0,0,1-.715-2.324v-5.5h1.445v5.461q0,1.922,1.563,1.922a2.163,2.163,0,0,0,2.2-1.234V6.547h1.445V15h-1.375Zm7.109.992a3.693,3.693,0,0,1-2.8-1.129,4.19,4.19,0,0,1-1.078-3.02v-.266a5.073,5.073,0,0,1,.48-2.246,3.748,3.748,0,0,1,1.344-1.547,3.378,3.378,0,0,1,1.871-.559,3.166,3.166,0,0,1,2.563,1.086,4.7,4.7,0,0,1,.914,3.109v.6H159.1a3,3,0,0,0,.73,2.02,2.3,2.3,0,0,0,1.777.77,2.517,2.517,0,0,0,1.3-.312,3.258,3.258,0,0,0,.93-.828l.883.688A3.55,3.55,0,0,1,161.527,15.156Zm-.18-7.578a1.928,1.928,0,0,0-1.469.637A3.1,3.1,0,0,0,159.145,10h4.234V9.891a2.753,2.753,0,0,0-.594-1.707A1.815,1.815,0,0,0,161.348,7.578Zm4.922-.234a.905.905,0,0,1,.223-.625.848.848,0,0,1,.668-.25.874.874,0,0,1,.676.25.887.887,0,0,1,.23.625.839.839,0,0,1-.23.6.89.89,0,0,1-.676.242.8.8,0,0,1-.891-.844Zm.273,9.922-.82-.562a3.77,3.77,0,0,0,.766-2.109v-1.3H167.9v1.133A3.559,3.559,0,0,1,167.516,16,3.7,3.7,0,0,1,166.543,17.266Z" transform="translate(-6802 -7393)" fill="#12263f"/>
    <g id="Enmascarar_grupo_8" data-name="Enmascarar grupo 8" transform="translate(-7250 -12189)" clip-path="url(#clip-path)">
      <g id="freepik--Character--inject-11" transform="translate(202.643 4633.067)">
        <path id="Trazado_802299" data-name="Trazado 802299" d="M327.758,445.558s-42.08,12.058-47.957,14.148c-5.34,1.886-19.821,6.965-30.69,5.383a23.066,23.066,0,0,1-3.105-.667c-11.013-3.279-15.962-6.341-17.413-13.263s4.034-12.029,9.316-15.294,33.925-6.675,33.925-6.675l6.922,2.031h0Z" transform="translate(0 99.797)" fill="#6df2fc"/>
        <path id="Trazado_802300" data-name="Trazado 802300" d="M249.111,465.089a23.066,23.066,0,0,1-3.105-.667c-11.013-3.279-15.962-6.341-17.413-13.263s4.034-12.029,9.316-15.294,33.925-6.675,33.925-6.675l6.922,2.031c-6.269,2.9-29.6,4.484-34.695,7.415s-7.545,8.445-4.542,15.962C241.131,458.516,245.426,462.361,249.111,465.089Z" transform="translate(0 99.797)" fill="#fff"/>
        <path id="Trazado_802301" data-name="Trazado 802301" d="M321.371,446.733s-31.6,8.184-44.141,13.422-36.436,7.531-44.982-3.265-.987-20.111,7.531-22.186,25.742-5.34,35.144-4.019" transform="translate(0.061 100.333)" fill="none" stroke="#263238" stroke-linecap="round" stroke-linejoin="round" stroke-width="1.103"/>
        <path id="Trazado_802302" data-name="Trazado 802302" d="M246.765,463.892s-16.078-8.822-10.738-21.185c3.947-9.113,25.393-7.139,36.015-12.116" transform="translate(2.97 100.428)" fill="none" stroke="#263238" stroke-linecap="round" stroke-linejoin="round" stroke-width="1.103"/>
        <path id="Trazado_802303" data-name="Trazado 802303" d="M412.456,467.282c-.435,4.353-1.959,8.431-6.312,11-2.9,1.712-7.023,2.728-12.929,2.67-14.757-.189-42.5-10.738-42.5-10.738L324.74,455.848l13.509-21.374,3.7-5.8,9.548,2.148s7.908,4.484,15.86,8.053,27.265,4.353,34.071,9.824S413.2,460.114,412.456,467.282Z" transform="translate(43.473 99.562)" fill="#6df2fc"/>
        <path id="Trazado_802304" data-name="Trazado 802304" d="M408.256,467.282c-.435,4.353-1.959,8.431-6.312,11a19.43,19.43,0,0,0-.726-12.972c-2.9-6.515-12.348-12.261-24.769-13.219s-21.925-6.762-26.9-9.359c-3.889-2.017-12.087-6.428-15.5-8.256l3.7-5.8,9.548,2.148s7.908,4.484,15.86,8.053,27.265,4.353,34.071,9.824S409,460.114,408.256,467.282Z" transform="translate(47.672 99.562)" fill="#fff"/>
        <path id="Trazado_802305" data-name="Trazado 802305" d="M329.549,457.217a163.765,163.765,0,0,0,60.8,20.764c4.73.566,10.23.653,13.393-2.9a9.9,9.9,0,0,0,2.177-7.415c-.566-6.675-6.182-11.957-12.334-14.612s-12.929-3.265-19.473-4.73a77.458,77.458,0,0,1-18.718-6.849c-4.7-2.452-9.243-5.427-14.423-6.53s-11.347.232-14.119,4.759" transform="translate(44.425 102.227)" fill="none" stroke="#263238" stroke-linecap="round" stroke-linejoin="round" stroke-width="1.103"/>
        <path id="Trazado_802306" data-name="Trazado 802306" d="M397.873,478.929a17.3,17.3,0,0,0,9.5-12.276c.943-6.283-2.641-12.61-7.676-16.469s-11.347-5.688-17.572-6.98-12.6-2.162-18.559-4.527c-9.1-3.57-18.08-10.593-27.57-8.082" transform="translate(48.552 100.191)" fill="none" stroke="#263238" stroke-linecap="round" stroke-linejoin="round" stroke-width="1.103"/>
        <path id="Trazado_802307" data-name="Trazado 802307" d="M397.809,306.3l-43.952-16.716-.551-.218s.16-1.161.29-2.9c.276-3.512.421-9.229-1.233-11.159-2.452-2.9-9.388-.464-16.165-3.57s-19.3,2.452-19.3,2.452-9.055-1.669-13.059,4.861c-2.031,5.267-1.335,13.059-1.335,13.059l-.827.29c-5.238,1.959-33.737,12.682-39.759,16.992-6.66,4.716-14.032,53.137-16.4,67.358s-6.573,27.033-4.44,31.923,32.75,28.47,50.366,34.549,80.083,4.353,80.083,4.353,1.016-.276,2.83-.856c10.564-3.4,48.044-17.413,67.938-50.322C442.327,396.451,423.058,333.286,397.809,306.3ZM279.056,387.744c-3.236,2.293-1.451,11.173-1.451,11.173l-5.5-4.846L285.919,360.1l5.891,26.119S282.292,385.466,279.056,387.744Zm110.512,21.577c-1.524.784,4.353-15.541,1.567-19.241s-11.188-3.352-11.188-3.352l.711-4.455,4.977-25.538,1.654-1.959s17.093,29.3,20.155,39.628C407.444,394.434,388.813,409.321,389.567,409.321Z" transform="translate(5.476 28.351)" fill="#6df2fc"/>
        <path id="Trazado_802308" data-name="Trazado 802308" d="M299.45,222.25l-22.694,24.087s-3.12,2.772-1.886,9.751,4.135,13.059,6.327,13.466a31.011,31.011,0,0,0,5.253.464s4.861,10.535,8.315,14.67c0,0,1.19,16.266.551,20.779,0,0,8.155,7.125,15.831,8.024s19.531-10.854,19.531-10.854l2.9-14.394s6.965-10.564,7.429-13.379,3.657-2.09,5.224-3.482,5.18-7.589,5.8-13.451.638-12.6-6.167-10.622c-5.906-1.582-2.206-14.061-2.206-14.061l-10.375-9.142Z" transform="translate(20.849 6.458)" fill="#fff"/>
        <path id="Trazado_802309" data-name="Trazado 802309" d="M334.831,289.549a25.652,25.652,0,0,1-1.175,2.626c-3.744,7.052-20.053,20.5-20.053,20.5l-4.934-15.163-2.7,15.163c-5.441-2.38-22.041-16.76-22.041-16.76s-.566-1.349-1.248-3.453l.827-.29s-.7-7.85,1.335-13.059c3.976-6.53,13.059-4.861,13.059-4.861s12.523-5.557,19.3-2.452,13.712.7,16.165,3.57.943,14.017.943,14.017Z" transform="translate(24.502 28.383)" fill="#fff" opacity="0.5"/>
        <path id="Trazado_802310" data-name="Trazado 802310" d="M364.958,301.426,321.006,284.71l-.551-.218s.16-1.161.29-2.9l-.914,5.7-6.5,8.822a179.93,179.93,0,0,1,20.315,8.938,17.819,17.819,0,0,1,9.287,17.761l-8.1,69.287-3.323,39.338,10.027,10.4c10.564-3.4,48.044-17.413,67.938-50.322C409.476,391.579,390.206,328.415,364.958,301.426ZM356.716,404.45c-1.524.784,4.353-15.541,1.567-19.241s-11.188-3.352-11.188-3.352l.711-4.455,4.977-25.538,1.654-1.959s17.093,29.3,20.155,39.628C374.593,389.562,355.962,404.45,356.716,404.45Z" transform="translate(38.327 33.223)" opacity="0.2"/>
        <path id="Trazado_802311" data-name="Trazado 802311" d="M291.771,376.3l-6.834-22.839s-12.261-41.8-20.663-52.107l2.206,29.4s-7.255,35.115-13.886,45.548-8.111,13.059,0,13.059,27.86,15.729,27.86,15.729l-1.524-13.059Zm-17.224,8.837-5.5-4.846,13.814-33.969,5.891,26.119s-9.461-.711-12.7,1.567S274.547,385.133,274.547,385.133Z" transform="translate(8.432 42.135)" opacity="0.2"/>
        <path id="Trazado_802312" data-name="Trazado 802312" d="M288.49,265.28s1.248,12.319,0,17.949" transform="translate(27.123 25.866)" fill="none" stroke="#263238" stroke-linecap="round" stroke-linejoin="round" stroke-width="1.103"/>
        <path id="Trazado_802313" data-name="Trazado 802313" d="M314.11,280.168a53.01,53.01,0,0,1,1.364-11.768" transform="translate(38.679 27.273)" fill="none" stroke="#263238" stroke-linecap="round" stroke-linejoin="round" stroke-width="1.103"/>
        <path id="Trazado_802314" data-name="Trazado 802314" d="M331.909,228.58s7.458,9.359,7.067,16.44-.943,15.468-.754,23.681-13.19,25.422-20.068,26.946-12.8,1.915-17.195-2.481-8.793-10.506-14.51-18.341-4.353-25.031-4.353-25.031" transform="translate(24.174 9.313)" fill="none" stroke="#263238" stroke-linecap="round" stroke-linejoin="round" stroke-width="1.103"/>
        <path id="Trazado_802315" data-name="Trazado 802315" d="M304.221,247.71a38.916,38.916,0,0,0-.58,7.792,8.779,8.779,0,0,0,1.915,6.094c.827.842,2.017,1.523,2.176,2.684a2.9,2.9,0,0,1-1.538,2.539,22.578,22.578,0,0,0-2.684,1.6" transform="translate(33.897 17.941)" fill="none" stroke="#263238" stroke-linecap="round" stroke-linejoin="round" stroke-width="1.103"/>
        <path id="Trazado_802316" data-name="Trazado 802316" d="M295.87,262.6s.856,5.557,8.3,6.718" transform="translate(30.451 24.657)" fill="none" stroke="#263238" stroke-linecap="round" stroke-linejoin="round" stroke-width="1.103"/>
        <path id="Trazado_802317" data-name="Trazado 802317" d="M297.365,251.532c0,1.611-.7,2.9-1.553,2.9s-1.553-1.291-1.553-2.9.7-2.9,1.553-2.9S297.365,249.936,297.365,251.532Z" transform="translate(29.725 18.356)" fill="#263238"/>
        <path id="Trazado_802318" data-name="Trazado 802318" d="M312.675,252.012c0,1.611-.7,2.9-1.553,2.9s-1.553-1.306-1.553-2.9.7-2.9,1.553-2.9S312.675,250.4,312.675,252.012Z" transform="translate(36.631 18.573)" fill="#263238"/>
        <path id="Trazado_802319" data-name="Trazado 802319" d="M308.62,247.189s7.255-7.255,13.335.842" transform="translate(36.202 16.358)" fill="none" stroke="#263238" stroke-linecap="round" stroke-linejoin="round" stroke-width="2.206"/>
        <path id="Trazado_802320" data-name="Trazado 802320" d="M301.761,247.07s-4.585-5.137-11.812,0" transform="translate(27.781 16.623)" fill="none" stroke="#263238" stroke-linecap="round" stroke-linejoin="round" stroke-width="2.206"/>
        <path id="Trazado_802321" data-name="Trazado 802321" d="M289.041,272.111s4.426,12.189,14.307,15.657,23-14.51,23-14.51l-.682-2.336s-8.6,11.173-18.167,9.272S288.49,265.32,288.49,265.32Z" transform="translate(27.123 25.884)" fill="#263238"/>
        <path id="Trazado_802322" data-name="Trazado 802322" d="M286.36,262.38s-5.891,2.075-7.458-2.51-6.936-16.673-2.235-20.706,8.474,5.325,8.474,5.325" transform="translate(20.938 13.631)" fill="none" stroke="#263238" stroke-linecap="round" stroke-linejoin="round" stroke-width="1.103"/>
        <path id="Trazado_802323" data-name="Trazado 802323" d="M320.72,264.4s5.47,1.1,7.038-3.482,6.936-16.673,2.235-20.706-8.474,5.325-8.474,5.325" transform="translate(41.66 14.105)" fill="none" stroke="#263238" stroke-linecap="round" stroke-linejoin="round" stroke-width="1.103"/>
        <path id="Trazado_802324" data-name="Trazado 802324" d="M287.119,269.888a8.155,8.155,0,0,0,5.166-3.047,12.683,12.683,0,0,0,1.451-4.629,54.543,54.543,0,0,0,.813-9.345,12.782,12.782,0,0,1,.334-3.642,9.576,9.576,0,0,1,1.973-3.236c2.046-2.409,4.527-4.44,6.486-6.936a11.608,11.608,0,0,0,2.9-8.706,39.831,39.831,0,0,0,32.605,8.431c10.375-2.031,20.315-11.13,19.11-22.564a9.243,9.243,0,0,0-7.255-7.952c-5.122-1.277-9.722,1.451-14.365,3.207-8.46,3.192-16.745-2.293-25.292-3.207-7.255-.8-16.3.116-20.1,7.386,0,0-13.059,1.538-18.864,12.334s5.18,25.727,5.18,25.727,4.353-5.34,10.056,5.456Z" transform="translate(18.96)" fill="#263238"/>
        <path id="Trazado_802325" data-name="Trazado 802325" d="M317.2,228.1s-3.4,17.7,5.47,26.278c0,0,1.944-5.325,3.9-6.631A20.5,20.5,0,0,0,325.02,228.1C318.461,217.8,317.2,228.1,317.2,228.1Z" transform="translate(39.783 7.032)" fill="#263238"/>
        <path id="Trazado_802326" data-name="Trazado 802326" d="M349.465,212.8a16.673,16.673,0,0,1-10.157,10.549c-12.3,5.021-24.247-.537-36.581-1.625-10.056-.9-21.156,8.184-21.867,18.515" transform="translate(23.681 2.195)" fill="none" stroke="#fff" stroke-linecap="round" stroke-linejoin="round" stroke-width="1.103" opacity="0.2"/>
        <path id="Trazado_802327" data-name="Trazado 802327" d="M275.63,235.73a21.49,21.49,0,0,1,13.059-18.98" transform="translate(21.322 3.977)" fill="none" stroke="#fff" stroke-linecap="round" stroke-linejoin="round" stroke-width="1.103" opacity="0.2"/>
        <path id="Trazado_802328" data-name="Trazado 802328" d="M286.53,276.961a56.169,56.169,0,0,0,19.168,13.06s14.728-4.281,22.215-14.511" transform="translate(26.239 30.48)" fill="none" stroke="#263238" stroke-linecap="round" stroke-linejoin="round" stroke-width="1.103"/>
        <circle id="Elipse_1153" data-name="Elipse 1153" cx="13.03" cy="13.03" r="13.03" transform="matrix(0.909, -0.417, 0.417, 0.909, 305.114, 263.448)" fill="none" stroke="#263238" stroke-linecap="round" stroke-linejoin="round" stroke-width="1.103"/>
        <circle id="Elipse_1154" data-name="Elipse 1154" cx="13.03" cy="13.03" r="13.03" transform="translate(336.962 258.573) rotate(-7)" fill="none" stroke="#263238" stroke-linecap="round" stroke-linejoin="round" stroke-width="1.103"/>
        <path id="Trazado_802329" data-name="Trazado 802329" d="M290.857,273.16a10.158,10.158,0,0,0-6.283,4.861c-2.307,4.063-.914,16.847-.914,16.847s11.913,11.782,22.056,16.76L308.7,294.81l4.643,16.818s15.7-11.1,20.053-20.489c0,0,1.451-10.955,0-14.51a5.035,5.035,0,0,0-4.687-3.439" transform="translate(24.756 29.42)" fill="none" stroke="#263238" stroke-linecap="round" stroke-linejoin="round" stroke-width="1.103"/>
        <path id="Trazado_802330" data-name="Trazado 802330" d="M279,364.353s-4.658-31.2-10.854-43.923" transform="translate(17.948 50.741)" fill="none" stroke="#263238" stroke-linecap="round" stroke-linejoin="round" stroke-width="1.103"/>
        <path id="Trazado_802331" data-name="Trazado 802331" d="M258.92,301.35a126.244,126.244,0,0,1,9.635,16.121" transform="translate(13.785 42.135)" fill="none" stroke="#263238" stroke-linecap="round" stroke-linejoin="round" stroke-width="1.103"/>
        <path id="Trazado_802332" data-name="Trazado 802332" d="M343.23,322.131a90.11,90.11,0,0,1,5.122-15.221" transform="translate(51.813 44.643)" fill="none" stroke="#263238" stroke-linecap="round" stroke-linejoin="round" stroke-width="1.103"/>
        <path id="Trazado_802333" data-name="Trazado 802333" d="M336.6,362.824s3.352-21.388,7.357-39" transform="translate(48.823 52.27)" fill="none" stroke="#263238" stroke-linecap="round" stroke-linejoin="round" stroke-width="1.103"/>
        <path id="Trazado_802334" data-name="Trazado 802334" d="M340.52,332.76a24.668,24.668,0,0,1,12.972-8.88" transform="translate(50.591 52.297)" fill="none" stroke="#263238" stroke-linecap="round" stroke-linejoin="round" stroke-width="1.103"/>
        <path id="Trazado_802335" data-name="Trazado 802335" d="M318.25,283.59s27.033,10.81,44.489,16.948c0,0,21.475,20.184,44.5,90.139,0,0-21.1,35.492-61.234,46.869" transform="translate(40.546 34.125)" fill="none" stroke="#263238" stroke-linecap="round" stroke-linejoin="round" stroke-width="1.103"/>
        <path id="Trazado_802336" data-name="Trazado 802336" d="M342.18,373.5l19.4-16.15s10.259-7.792,20.924-2.467" transform="translate(51.339 65.439)" fill="none" stroke="#263238" stroke-linecap="round" stroke-linejoin="round" stroke-width="1.103"/>
        <path id="Trazado_802337" data-name="Trazado 802337" d="M341.67,328.67s16.034,23.7,20.141,39.657" transform="translate(51.109 54.458)" fill="none" stroke="#263238" stroke-linecap="round" stroke-linejoin="round" stroke-width="1.103"/>
        <path id="Trazado_802338" data-name="Trazado 802338" d="M273.5,361.428l-5.674-5.383s-8.416-1.451-17.964,4.919" transform="translate(9.699 66.741)" fill="none" stroke="#263238" stroke-linecap="round" stroke-linejoin="round" stroke-width="1.103"/>
        <path id="Trazado_802339" data-name="Trazado 802339" d="M262.24,366.911s7.052-23.217,14-35.1" transform="translate(15.283 55.874)" fill="none" stroke="#263238" stroke-linecap="round" stroke-linejoin="round" stroke-width="1.103"/>
        <path id="Trazado_802340" data-name="Trazado 802340" d="M302.344,285.55s-38.9,14.6-42.719,18.864-18.312,85.887-18.7,95.232c-.334,8.358,29.964,27.12,44.982,35.028" transform="translate(5.666 35.009)" fill="none" stroke="#263238" stroke-linecap="round" stroke-linejoin="round" stroke-width="1.103"/>
        <path id="Trazado_802341" data-name="Trazado 802341" d="M304.9,305.358a2.554,2.554,0,1,1-.748-1.82A2.568,2.568,0,0,1,304.9,305.358Z" transform="translate(32.206 42.785)" fill="#263238"/>
        <path id="Trazado_802342" data-name="Trazado 802342" d="M362.479,400.07H273.965a2.075,2.075,0,0,1-2.075-2.075h0a2.075,2.075,0,0,1,2.075-2.075h88.514a2.075,2.075,0,0,1,2.075,2.075h0A2.075,2.075,0,0,1,362.479,400.07Z" transform="translate(19.635 84.791)" fill="#263238"/>
        <path id="Trazado_802343" data-name="Trazado 802343" d="M368.579,413.544l11.855-55.72a5.92,5.92,0,0,0-5.8-7.154H271.17a5.92,5.92,0,0,0-5.8,7.081L276,411.614a5.92,5.92,0,0,0,5.674,4.774l80.954,1.857a5.949,5.949,0,0,0,5.949-4.7Z" transform="translate(16.641 64.381)" fill="#fff" stroke="#263238" stroke-linecap="round" stroke-linejoin="round" stroke-width="1.103"/>
        <path id="Trazado_802344" data-name="Trazado 802344" d="M315.573,375.4a8.256,8.256,0,1,1-2.413-5.848,8.256,8.256,0,0,1,2.413,5.848Z" transform="translate(31.89 71.805)" fill="#263238"/>
        <line id="Línea_1691" data-name="Línea 1691" x2="12.29" transform="translate(363.7 420.376)" fill="none" stroke="#263238" stroke-linecap="round" stroke-linejoin="round" stroke-width="1.103"/>
        <line id="Línea_1692" data-name="Línea 1692" x2="46.651" transform="translate(305.006 420.376)" fill="none" stroke="#263238" stroke-linecap="round" stroke-linejoin="round" stroke-width="1.103"/>
        <path id="Trazado_802345" data-name="Trazado 802345" d="M383.38,458.019l-9.432,24.755s-24.058-6.065-54.864-12.377c-32.228-6.6-65.877-15.149-83.334-45.78-2.119-3.729-3.541-8.14-2.539-12.319,2.51-10.578,16.281-13.451,25.35-14.51a165.277,165.277,0,0,1,17.166-.958c2.9,0,12.552-1.582,14.888.145A68.4,68.4,0,0,0,301.8,403.6c5.151,2.191,80.344-1.959,80.344-1.959a26.974,26.974,0,0,0,2.365-9.04c11.826-6.007,39.178-11.086,50.787-8.837,18.182,3.526,28.789,14.133,26.772,25.248S419.889,449.937,383.38,458.019Z" transform="translate(2.042 79.065)" fill="#263238"/>
        <path id="Trazado_802346" data-name="Trazado 802346" d="M367.966,448.242s-22.883-6.065-41.572-18.69-33.287-27.28-59.333-24.247" transform="translate(17.457 88.842)" fill="none" stroke="#fff" stroke-linecap="round" stroke-linejoin="round" stroke-width="1.103"/>
        <path id="Trazado_802347" data-name="Trazado 802347" d="M305,432.1c11.812-3.4,20.474-11.042,29.95-18.37A202.6,202.6,0,0,1,367,392.66" transform="translate(34.57 83.32)" fill="none" stroke="#fff" stroke-linecap="round" stroke-linejoin="round" stroke-width="1.103"/>
        <line id="Línea_1693" data-name="Línea 1693" x2="3.468" transform="translate(335.405 271.949)" fill="none" stroke="#263238" stroke-linecap="round" stroke-linejoin="round" stroke-width="1.103"/>
      </g>
    </g>
  </g>
</svg>
