<svg xmlns="http://www.w3.org/2000/svg" xmlns:xlink="http://www.w3.org/1999/xlink" width="236" height="456" viewBox="0 0 236 456">
  <defs>
    <clipPath id="clip-path">
      <rect id="Rectángulo_375146" data-name="Rectángulo 375146" width="236" height="456" rx="20" transform="translate(180 4692)" fill="#451484"/>
    </clipPath>
  </defs>
  <g id="Grupo_1067056" data-name="Grupo 1067056" transform="translate(6317 7497)">
    <rect id="Rectángulo_375139" data-name="Rectángulo 375139" width="236" height="456" rx="20" transform="translate(-6317 -7497)" fill="#451484"/>
    <path id="Trazado_806970" data-name="Trazado 806970" d="M-14.572-6.135a7.546,7.546,0,0,1-.694,3.313A5.132,5.132,0,0,1-17.24-.6a5.494,5.494,0,0,1-2.914.778,5.572,5.572,0,0,1-2.9-.751,5.123,5.123,0,0,1-1.973-2.149,7.329,7.329,0,0,1-.743-3.208v-.721a7.58,7.58,0,0,1,.69-3.318A5.119,5.119,0,0,1-23.1-12.19a5.533,5.533,0,0,1,2.931-.782,5.479,5.479,0,0,1,2.9.773A5.211,5.211,0,0,1-15.289-10a7.362,7.362,0,0,1,.716,3.274Zm-3.138-.536a5.381,5.381,0,0,0-.637-2.9,2.044,2.044,0,0,0-1.824-.989q-2.32,0-2.452,3.48l-.009.94a5.535,5.535,0,0,0,.624,2.892,2.041,2.041,0,0,0,1.854,1.011,2.016,2.016,0,0,0,1.8-.993,5.383,5.383,0,0,0,.642-2.856Zm13.421,2a5.8,5.8,0,0,1-.967,3.595A3.238,3.238,0,0,1-7.98.176,2.81,2.81,0,0,1-10.318-.976L-10.441,0H-13.1V-13.5h2.962v4.755A2.711,2.711,0,0,1-8-9.686,3.239,3.239,0,0,1-5.256-8.411a5.826,5.826,0,0,1,.967,3.586ZM-7.26-4.865a3.866,3.866,0,0,0-.365-1.952A1.229,1.229,0,0,0-8.745-7.4a1.418,1.418,0,0,0-1.389.763v3.773a1.426,1.426,0,0,0,1.406.755A1.258,1.258,0,0,0-7.4-3.127,7.309,7.309,0,0,0-7.26-4.865ZM.2-9.51V.325a3.452,3.452,0,0,1-.967,2.6,3.714,3.714,0,0,1-2.672.914,6.308,6.308,0,0,1-1.4-.149V1.45A5.667,5.667,0,0,0-4,1.529,1.084,1.084,0,0,0-2.769.308V-9.51Zm-3.19-2.461a1.334,1.334,0,0,1,.457-1.043,1.718,1.718,0,0,1,1.187-.407,1.718,1.718,0,0,1,1.187.407A1.334,1.334,0,0,1,.3-11.971a1.334,1.334,0,0,1-.457,1.043,1.718,1.718,0,0,1-1.187.407,1.718,1.718,0,0,1-1.187-.407A1.334,1.334,0,0,1-2.988-11.971ZM6.478.176A4.889,4.889,0,0,1,2.936-1.129a4.507,4.507,0,0,1-1.354-3.4v-.246a5.84,5.84,0,0,1,.541-2.575A3.955,3.955,0,0,1,3.7-9.075a4.763,4.763,0,0,1,2.461-.611A4.117,4.117,0,0,1,9.325-8.442a4.887,4.887,0,0,1,1.16,3.467v1.151H4.6a2.135,2.135,0,0,0,.694,1.257,2.066,2.066,0,0,0,1.389.457,2.662,2.662,0,0,0,2.2-.984l1.354,1.6A3.784,3.784,0,0,1,8.662-.277,5.3,5.3,0,0,1,6.478.176ZM6.144-7.4q-1.3,0-1.547,1.723H7.585v-.229a1.467,1.467,0,0,0-.36-1.1A1.434,1.434,0,0,0,6.144-7.4ZM15.7-2.109a1.317,1.317,0,0,0,.967-.338A1.241,1.241,0,0,0,17-3.393h2.777A3.288,3.288,0,0,1,18.655-.826a4.168,4.168,0,0,1-2.887,1,4.22,4.22,0,0,1-3.27-1.3,5.125,5.125,0,0,1-1.2-3.6v-.123A5.792,5.792,0,0,1,11.834-7.4a3.872,3.872,0,0,1,1.534-1.7,4.573,4.573,0,0,1,2.373-.593,4.116,4.116,0,0,1,2.944,1.028,3.647,3.647,0,0,1,1.09,2.786H17A1.626,1.626,0,0,0,16.638-7a1.244,1.244,0,0,0-.967-.4q-1.151,0-1.345,1.468a10.357,10.357,0,0,0-.062,1.283,4.068,4.068,0,0,0,.343,1.986A1.187,1.187,0,0,0,15.7-2.109Zm8.78-9.765V-9.51h1.564v2.057H24.478V-3.1a1.111,1.111,0,0,0,.193.747,1.037,1.037,0,0,0,.765.211,4.345,4.345,0,0,0,.738-.053V-.079A5.466,5.466,0,0,1,24.5.176a3.1,3.1,0,0,1-2.259-.721,2.954,2.954,0,0,1-.729-2.188v-4.72H20.3V-9.51h1.213v-2.364Z" transform="translate(-6199 -7418)" fill="#fff"/>
    <path id="Trazado_806971" data-name="Trazado 806971" d="M54.629,15H53.184V3h1.445Zm5.82.156a3.693,3.693,0,0,1-2.8-1.129,4.19,4.19,0,0,1-1.078-3.02v-.266a5.073,5.073,0,0,1,.48-2.246A3.748,3.748,0,0,1,58.4,6.949a3.378,3.378,0,0,1,1.871-.559,3.166,3.166,0,0,1,2.563,1.086,4.7,4.7,0,0,1,.914,3.109v.6H58.02a3,3,0,0,0,.73,2.02,2.3,2.3,0,0,0,1.777.77,2.517,2.517,0,0,0,1.3-.312,3.259,3.259,0,0,0,.93-.828l.883.688A3.55,3.55,0,0,1,60.449,15.156Zm-.18-7.578a1.928,1.928,0,0,0-1.469.637A3.1,3.1,0,0,0,58.066,10H62.3V9.891a2.753,2.753,0,0,0-.594-1.707A1.815,1.815,0,0,0,60.27,7.578ZM67.379,4.5V6.547h1.578V7.664H67.379v5.249a1.173,1.173,0,0,0,.211.763.888.888,0,0,0,.719.254A3.5,3.5,0,0,0,69,13.836V15a4.215,4.215,0,0,1-1.109.155,1.8,1.8,0,0,1-1.461-.586,2.517,2.517,0,0,1-.492-1.664V7.664H64.395V6.547h1.539V4.5Zm8.586,2.047L76,7.484a3.122,3.122,0,0,1,2.508-1.094A2.417,2.417,0,0,1,80.926,7.75a3.2,3.2,0,0,1,1.1-.984,3.242,3.242,0,0,1,1.6-.375q2.781,0,2.828,2.945V15H85V9.422a1.941,1.941,0,0,0-.414-1.355A1.823,1.823,0,0,0,83.2,7.617a1.916,1.916,0,0,0-1.336.48,1.949,1.949,0,0,0-.617,1.293V15H79.793V9.461a1.613,1.613,0,0,0-1.8-1.844,1.934,1.934,0,0,0-1.945,1.211V15H74.6V6.547ZM90.2,15H88.754V6.547H90.2ZM88.637,4.3a.863.863,0,0,1,.215-.594.807.807,0,0,1,.637-.242.819.819,0,0,1,.641.242.854.854,0,0,1,.219.594.826.826,0,0,1-.219.586.834.834,0,0,1-.641.234.821.821,0,0,1-.637-.234A.834.834,0,0,1,88.637,4.3ZM101.488,9.68a7.037,7.037,0,0,1-.562,2.918,4.261,4.261,0,0,1-1.594,1.9,4.4,4.4,0,0,1-6.4-1.887,6.752,6.752,0,0,1-.59-2.832v-.82a6.953,6.953,0,0,1,.57-2.9,4.218,4.218,0,0,1,4-2.594,4.41,4.41,0,0,1,2.41.66,4.253,4.253,0,0,1,1.605,1.914,7.071,7.071,0,0,1,.563,2.918ZM100,8.945a5.1,5.1,0,0,0-.812-3.105A2.68,2.68,0,0,0,96.91,4.758,2.651,2.651,0,0,0,94.672,5.84a5,5,0,0,0-.84,3V9.68a5.107,5.107,0,0,0,.824,3.082,2.888,2.888,0,0,0,4.52.063A5.079,5.079,0,0,0,100,9.789Zm10.672,1.922a5.026,5.026,0,0,1-.891,3.113,2.846,2.846,0,0,1-2.391,1.176,2.947,2.947,0,0,1-2.477-1.133l-.07.977h-1.328V3h1.445V7.477a2.93,2.93,0,0,1,2.414-1.086,2.863,2.863,0,0,1,2.418,1.164,5.177,5.177,0,0,1,.879,3.188Zm-1.445-.164a3.906,3.906,0,0,0-.57-2.281,1.888,1.888,0,0,0-1.641-.8,2.122,2.122,0,0,0-2.055,1.328V12.6a2.181,2.181,0,0,0,2.07,1.328,1.878,1.878,0,0,0,1.617-.8A4.153,4.153,0,0,0,109.223,10.7Zm4.758-4.156v9.43q0,2.438-2.211,2.438a2.7,2.7,0,0,1-.883-.14V17.125a2.794,2.794,0,0,0,.656.063.982.982,0,0,0,.738-.262,1.3,1.3,0,0,0,.254-.911V6.547ZM112.387,4.3a.867.867,0,0,1,.215-.59.79.79,0,0,1,.629-.246.819.819,0,0,1,.641.242.854.854,0,0,1,.219.594.826.826,0,0,1-.219.586.834.834,0,0,1-.641.234.808.808,0,0,1-.633-.234A.843.843,0,0,1,112.387,4.3Zm7.43,10.852a3.693,3.693,0,0,1-2.8-1.129,4.19,4.19,0,0,1-1.078-3.02v-.266a5.073,5.073,0,0,1,.48-2.246,3.748,3.748,0,0,1,1.344-1.547,3.378,3.378,0,0,1,1.871-.559A3.166,3.166,0,0,1,122.2,7.477a4.7,4.7,0,0,1,.914,3.109v.6h-5.727a3,3,0,0,0,.73,2.02,2.3,2.3,0,0,0,1.777.77,2.517,2.517,0,0,0,1.3-.312,3.259,3.259,0,0,0,.93-.828l.883.688A3.55,3.55,0,0,1,119.816,15.156Zm-.18-7.578a1.928,1.928,0,0,0-1.469.637A3.1,3.1,0,0,0,117.434,10h4.234V9.891a2.753,2.753,0,0,0-.594-1.707A1.815,1.815,0,0,0,119.637,7.578Zm8.539,6.4a2.082,2.082,0,0,0,1.352-.469,1.649,1.649,0,0,0,.641-1.172h1.367a2.621,2.621,0,0,1-.5,1.383,3.293,3.293,0,0,1-1.23,1.047,3.55,3.55,0,0,1-1.629.391A3.482,3.482,0,0,1,125.43,14a4.59,4.59,0,0,1-1.02-3.152v-.242a5.089,5.089,0,0,1,.453-2.2,3.451,3.451,0,0,1,1.3-1.492,3.7,3.7,0,0,1,2-.531,3.39,3.39,0,0,1,2.363.852,3.043,3.043,0,0,1,1,2.211h-1.367a1.992,1.992,0,0,0-.621-1.348,1.932,1.932,0,0,0-1.379-.527,2.023,2.023,0,0,0-1.707.793,3.724,3.724,0,0,0-.605,2.293v.273a3.65,3.65,0,0,0,.6,2.25A2.033,2.033,0,0,0,128.176,13.977ZM135.121,4.5V6.547H136.7V7.664h-1.578v5.249a1.173,1.173,0,0,0,.211.763.888.888,0,0,0,.719.254,3.5,3.5,0,0,0,.688-.094V15a4.215,4.215,0,0,1-1.109.155,1.8,1.8,0,0,1-1.461-.586,2.517,2.517,0,0,1-.492-1.664V7.664h-1.539V6.547h1.539V4.5Zm13.836,4.141h-6.516V7.383h6.516Zm0,3.242h-6.516v-1.25h6.516ZM1.746,34.7a4.952,4.952,0,0,1,.922-3.129,2.915,2.915,0,0,1,2.414-1.184,2.932,2.932,0,0,1,2.352,1.016V27H8.879V39H7.551l-.07-.906a2.943,2.943,0,0,1-2.414,1.063,2.887,2.887,0,0,1-2.395-1.2,5.008,5.008,0,0,1-.926-3.141Zm1.445.164a3.749,3.749,0,0,0,.594,2.25,1.92,1.92,0,0,0,1.641.813A2.108,2.108,0,0,0,7.434,36.7V32.813a2.125,2.125,0,0,0-1.992-1.2,1.929,1.929,0,0,0-1.656.82A4.128,4.128,0,0,0,3.191,34.867Zm7.547-.172a4.993,4.993,0,0,1,.488-2.234,3.643,3.643,0,0,1,1.359-1.531,3.7,3.7,0,0,1,1.988-.539,3.565,3.565,0,0,1,2.793,1.2,4.6,4.6,0,0,1,1.066,3.18v.1a5.036,5.036,0,0,1-.473,2.215,3.589,3.589,0,0,1-1.352,1.527,3.743,3.743,0,0,1-2.02.547,3.556,3.556,0,0,1-2.785-1.2A4.575,4.575,0,0,1,10.738,34.8Zm1.453.172a3.616,3.616,0,0,0,.652,2.258,2.211,2.211,0,0,0,3.5-.012,3.955,3.955,0,0,0,.648-2.418,3.61,3.61,0,0,0-.66-2.254,2.1,2.1,0,0,0-1.754-.863,2.075,2.075,0,0,0-1.727.852A3.925,3.925,0,0,0,12.191,34.867Zm11.445,3.109a2.082,2.082,0,0,0,1.352-.469,1.649,1.649,0,0,0,.641-1.172H27a2.621,2.621,0,0,1-.5,1.383,3.293,3.293,0,0,1-1.23,1.047,3.55,3.55,0,0,1-1.629.391A3.482,3.482,0,0,1,20.891,38a4.59,4.59,0,0,1-1.02-3.152v-.242a5.089,5.089,0,0,1,.453-2.2,3.451,3.451,0,0,1,1.3-1.492,3.7,3.7,0,0,1,2-.531,3.39,3.39,0,0,1,2.363.852,3.043,3.043,0,0,1,1,2.211H25.629a1.992,1.992,0,0,0-.621-1.348,1.932,1.932,0,0,0-1.379-.527,2.023,2.023,0,0,0-1.707.793,3.724,3.724,0,0,0-.605,2.293v.273a3.65,3.65,0,0,0,.6,2.25A2.033,2.033,0,0,0,23.637,37.977Zm10.2.188a3.07,3.07,0,0,1-2.477.992,2.628,2.628,0,0,1-2.059-.785,3.4,3.4,0,0,1-.715-2.324v-5.5h1.445v5.461q0,1.922,1.563,1.922A2.163,2.163,0,0,0,33.8,36.7V30.547h1.445V39H33.871ZM38.8,30.547l.039.938a3.122,3.122,0,0,1,2.508-1.094,2.417,2.417,0,0,1,2.414,1.359,3.2,3.2,0,0,1,1.1-.984,3.242,3.242,0,0,1,1.6-.375q2.781,0,2.828,2.945V39H47.84V33.422a1.941,1.941,0,0,0-.414-1.355,1.823,1.823,0,0,0-1.391-.449,1.916,1.916,0,0,0-1.336.48,1.949,1.949,0,0,0-.617,1.293V39H42.629V33.461a1.613,1.613,0,0,0-1.8-1.844,1.934,1.934,0,0,0-1.945,1.211V39H37.434V30.547Zm16.172,8.609a3.693,3.693,0,0,1-2.8-1.129,4.19,4.19,0,0,1-1.078-3.02v-.266a5.073,5.073,0,0,1,.48-2.246,3.748,3.748,0,0,1,1.344-1.547,3.378,3.378,0,0,1,1.871-.559,3.166,3.166,0,0,1,2.563,1.086,4.7,4.7,0,0,1,.914,3.109v.6H52.543a3,3,0,0,0,.73,2.02,2.3,2.3,0,0,0,1.777.77,2.517,2.517,0,0,0,1.3-.312,3.258,3.258,0,0,0,.93-.828l.883.688A3.55,3.55,0,0,1,54.973,39.156Zm-.18-7.578a1.928,1.928,0,0,0-1.469.637A3.1,3.1,0,0,0,52.59,34h4.234v-.109a2.753,2.753,0,0,0-.594-1.707A1.815,1.815,0,0,0,54.793,31.578Zm6.516-1.031.047,1.063a3.08,3.08,0,0,1,2.531-1.219q2.68,0,2.7,3.023V39H65.145V33.406a1.946,1.946,0,0,0-.418-1.352,1.675,1.675,0,0,0-1.277-.437,2.086,2.086,0,0,0-1.234.375,2.546,2.546,0,0,0-.828.984V39H59.941V30.547ZM70.73,28.5v2.047h1.578v1.117H70.73v5.249a1.173,1.173,0,0,0,.211.763.888.888,0,0,0,.719.254,3.5,3.5,0,0,0,.688-.094V39a4.215,4.215,0,0,1-1.109.155,1.8,1.8,0,0,1-1.461-.586,2.517,2.517,0,0,1-.492-1.664V31.664H67.746V30.547h1.539V28.5Zm3.3,9.742a.905.905,0,0,1,.223-.625.848.848,0,0,1,.668-.25.874.874,0,0,1,.676.25.887.887,0,0,1,.23.625.839.839,0,0,1-.23.6.89.89,0,0,1-.676.242.8.8,0,0,1-.891-.844ZM77.855,34.7a4.961,4.961,0,0,1,.914-3.152,3.226,3.226,0,0,1,4.82-.152l.063-.852H84.98v11.7H83.535V38.219a3.033,3.033,0,0,1-2.328.938,2.915,2.915,0,0,1-2.441-1.191,5.072,5.072,0,0,1-.91-3.16Zm1.445.164a3.761,3.761,0,0,0,.613,2.281,1.951,1.951,0,0,0,1.652.828,2.164,2.164,0,0,0,1.969-1.141V32.7a2.171,2.171,0,0,0-1.953-1.117,1.965,1.965,0,0,0-1.664.832A4.094,4.094,0,0,0,79.3,34.867Zm13.219,3.3a3.07,3.07,0,0,1-2.477.992,2.628,2.628,0,0,1-2.059-.785,3.4,3.4,0,0,1-.715-2.324v-5.5h1.445v5.461q0,1.922,1.563,1.922a2.163,2.163,0,0,0,2.2-1.234V30.547h1.445V39H92.551Zm7.109.992a3.693,3.693,0,0,1-2.8-1.129,4.19,4.19,0,0,1-1.078-3.02v-.266a5.073,5.073,0,0,1,.48-2.246,3.748,3.748,0,0,1,1.344-1.547,3.378,3.378,0,0,1,1.871-.559,3.166,3.166,0,0,1,2.563,1.086,4.7,4.7,0,0,1,.914,3.109v.6H97.2a3,3,0,0,0,.73,2.02,2.3,2.3,0,0,0,1.777.77,2.517,2.517,0,0,0,1.3-.312,3.259,3.259,0,0,0,.93-.828l.883.688A3.55,3.55,0,0,1,99.629,39.156Zm-.18-7.578a1.928,1.928,0,0,0-1.469.637A3.1,3.1,0,0,0,97.246,34h4.234v-.109a2.753,2.753,0,0,0-.594-1.707A1.815,1.815,0,0,0,99.449,31.578Zm9.234.266a4.331,4.331,0,0,0-.711-.055A1.9,1.9,0,0,0,106.043,33v6H104.6V30.547H106l.023.977a2.251,2.251,0,0,1,2.016-1.133,1.477,1.477,0,0,1,.641.109Zm4.234,5.039,1.969-6.336h1.547l-3.4,9.758q-.789,2.109-2.508,2.109l-.273-.023-.539-.1V41.117l.391.031a1.923,1.923,0,0,0,1.145-.3,2.149,2.149,0,0,0,.676-1.086l.32-.859-3.016-8.359h1.578ZM121.3,33.93a7.053,7.053,0,0,1-2.809-1.363,2.6,2.6,0,0,1-.879-2,2.751,2.751,0,0,1,1.074-2.223,4.269,4.269,0,0,1,2.793-.879,4.66,4.66,0,0,1,2.09.453,3.436,3.436,0,0,1,1.422,1.25,3.2,3.2,0,0,1,.5,1.742h-1.508a2.08,2.08,0,0,0-.656-1.627,2.669,2.669,0,0,0-1.852-.592,2.732,2.732,0,0,0-1.73.489,1.632,1.632,0,0,0-.621,1.358,1.468,1.468,0,0,0,.59,1.178,5.786,5.786,0,0,0,2.008.88,9.316,9.316,0,0,1,2.219.88,3.367,3.367,0,0,1,1.188,1.121,2.861,2.861,0,0,1,.387,1.508,2.658,2.658,0,0,1-1.078,2.215,4.6,4.6,0,0,1-2.883.832,5.347,5.347,0,0,1-2.187-.449,3.681,3.681,0,0,1-1.566-1.23,3,3,0,0,1-.551-1.773h1.508a1.959,1.959,0,0,0,.762,1.629,3.207,3.207,0,0,0,2.035.6,2.948,2.948,0,0,0,1.82-.484,1.573,1.573,0,0,0,.633-1.32,1.545,1.545,0,0,0-.586-1.293A6.755,6.755,0,0,0,121.3,33.93Zm9.422,5.227a3.693,3.693,0,0,1-2.8-1.129,4.19,4.19,0,0,1-1.078-3.02v-.266a5.073,5.073,0,0,1,.48-2.246,3.748,3.748,0,0,1,1.344-1.547,3.378,3.378,0,0,1,1.871-.559,3.166,3.166,0,0,1,2.563,1.086,4.7,4.7,0,0,1,.914,3.109v.6h-5.727a3,3,0,0,0,.73,2.02,2.3,2.3,0,0,0,1.777.77,2.517,2.517,0,0,0,1.3-.312,3.258,3.258,0,0,0,.93-.828l.883.688A3.55,3.55,0,0,1,130.723,39.156Zm-.18-7.578a1.928,1.928,0,0,0-1.469.637A3.1,3.1,0,0,0,128.34,34h4.234v-.109a2.753,2.753,0,0,0-.594-1.707A1.815,1.815,0,0,0,130.543,31.578ZM137.262,39h-1.445V27h1.445Zm5.82.156a3.693,3.693,0,0,1-2.8-1.129,4.19,4.19,0,0,1-1.078-3.02v-.266a5.073,5.073,0,0,1,.48-2.246,3.748,3.748,0,0,1,1.344-1.547,3.378,3.378,0,0,1,1.871-.559,3.166,3.166,0,0,1,2.563,1.086,4.7,4.7,0,0,1,.914,3.109v.6h-5.727a3,3,0,0,0,.73,2.02,2.3,2.3,0,0,0,1.777.77,2.517,2.517,0,0,0,1.3-.312,3.258,3.258,0,0,0,.93-.828l.883.688A3.55,3.55,0,0,1,143.082,39.156Zm-.18-7.578a1.928,1.928,0,0,0-1.469.637A3.1,3.1,0,0,0,140.7,34h4.234v-.109a2.753,2.753,0,0,0-.594-1.707A1.815,1.815,0,0,0,142.9,31.578Zm8.539,6.4a2.082,2.082,0,0,0,1.352-.469,1.649,1.649,0,0,0,.641-1.172H154.8a2.621,2.621,0,0,1-.5,1.383,3.293,3.293,0,0,1-1.23,1.047,3.55,3.55,0,0,1-1.629.391A3.482,3.482,0,0,1,148.7,38a4.59,4.59,0,0,1-1.02-3.152v-.242a5.089,5.089,0,0,1,.453-2.2,3.451,3.451,0,0,1,1.3-1.492,3.7,3.7,0,0,1,2-.531,3.39,3.39,0,0,1,2.363.852,3.043,3.043,0,0,1,1,2.211h-1.367a1.992,1.992,0,0,0-.621-1.348,1.932,1.932,0,0,0-1.379-.527,2.023,2.023,0,0,0-1.707.793,3.724,3.724,0,0,0-.605,2.293v.273a3.65,3.65,0,0,0,.6,2.25A2.033,2.033,0,0,0,151.441,37.977Zm6.945-9.477v2.047h1.578v1.117h-1.578v5.249a1.173,1.173,0,0,0,.211.763.888.888,0,0,0,.719.254,3.5,3.5,0,0,0,.688-.094V39a4.215,4.215,0,0,1-1.109.155,1.8,1.8,0,0,1-1.461-.586,2.517,2.517,0,0,1-.492-1.664V31.664H155.4V30.547h1.539V28.5Zm2.727,6.2a4.993,4.993,0,0,1,.488-2.234,3.642,3.642,0,0,1,1.359-1.531,3.7,3.7,0,0,1,1.988-.539,3.565,3.565,0,0,1,2.793,1.2,4.6,4.6,0,0,1,1.066,3.18v.1a5.036,5.036,0,0,1-.473,2.215,3.589,3.589,0,0,1-1.352,1.527,3.743,3.743,0,0,1-2.02.547,3.556,3.556,0,0,1-2.785-1.2,4.575,4.575,0,0,1-1.066-3.164Zm1.453.172a3.616,3.616,0,0,0,.652,2.258,2.211,2.211,0,0,0,3.5-.012,3.954,3.954,0,0,0,.648-2.418,3.61,3.61,0,0,0-.66-2.254,2.1,2.1,0,0,0-1.754-.863,2.075,2.075,0,0,0-1.727.852A3.925,3.925,0,0,0,162.566,34.867Zm12.141-3.023a4.331,4.331,0,0,0-.711-.055A1.9,1.9,0,0,0,172.066,33v6h-1.445V30.547h1.406l.023.977a2.251,2.251,0,0,1,2.016-1.133,1.477,1.477,0,0,1,.641.109Zm1.273,2.539a12.079,12.079,0,0,1,.473-3.391,9.85,9.85,0,0,1,1.41-2.953,6,6,0,0,1,1.945-1.875l.3.953a6.222,6.222,0,0,0-1.871,2.672,11.583,11.583,0,0,0-.8,4.023l-.008.664a11.643,11.643,0,0,0,1.1,5.234,6.252,6.252,0,0,0,1.578,2.078l-.3.883a6.192,6.192,0,0,1-1.984-1.937A10.859,10.859,0,0,1,175.98,34.383Zm6.406-6.516-.164,2.875h-1.008L181.223,27h1.164Zm3.352,3.7a3.073,3.073,0,0,1,2.5-1.18q2.68,0,2.7,3.023V39H189.5V33.406a1.946,1.946,0,0,0-.418-1.352,1.675,1.675,0,0,0-1.277-.437,2.086,2.086,0,0,0-1.234.375,2.546,2.546,0,0,0-.828.984V39h-1.445V27h1.445ZM197.707,39h-1.453V29.367l-2.914,1.07V29.125l4.141-1.555h.227ZM97.109,51.867l-.164,2.875H95.938L95.945,51h1.164Zm5.242,6.594a12.085,12.085,0,0,1-.457,3.34,9.876,9.876,0,0,1-1.4,2.949,6.127,6.127,0,0,1-1.973,1.922l-.3-.883a6.281,6.281,0,0,0,1.934-2.863,12.387,12.387,0,0,0,.746-4.309v-.25a12.861,12.861,0,0,0-.344-3.051,10.3,10.3,0,0,0-.957-2.527,5.838,5.838,0,0,0-1.379-1.742l.3-.883a6.1,6.1,0,0,1,1.965,1.906,9.9,9.9,0,0,1,1.4,2.945A12.363,12.363,0,0,1,102.352,58.461Zm2-3.117a.905.905,0,0,1,.223-.625.848.848,0,0,1,.668-.25.874.874,0,0,1,.676.25.887.887,0,0,1,.23.625.839.839,0,0,1-.23.6.89.89,0,0,1-.676.242.8.8,0,0,1-.891-.844Zm.273,9.922-.82-.562a3.77,3.77,0,0,0,.766-2.109v-1.3h1.414v1.133A3.559,3.559,0,0,1,105.6,64,3.7,3.7,0,0,1,104.625,65.266ZM54.629,111H53.184V99h1.445Zm5.82.156a3.693,3.693,0,0,1-2.8-1.129,4.19,4.19,0,0,1-1.078-3.02v-.266a5.073,5.073,0,0,1,.48-2.246,3.748,3.748,0,0,1,1.344-1.547,3.378,3.378,0,0,1,1.871-.559,3.166,3.166,0,0,1,2.563,1.086,4.7,4.7,0,0,1,.914,3.109v.6H58.02a3,3,0,0,0,.73,2.02,2.3,2.3,0,0,0,1.777.77,2.517,2.517,0,0,0,1.3-.312,3.259,3.259,0,0,0,.93-.828l.883.688A3.55,3.55,0,0,1,60.449,111.156Zm-.18-7.578a1.928,1.928,0,0,0-1.469.637A3.1,3.1,0,0,0,58.066,106H62.3v-.109a2.753,2.753,0,0,0-.594-1.707A1.815,1.815,0,0,0,60.27,103.578Zm7.109-3.078v2.047h1.578v1.117H67.379v5.249a1.173,1.173,0,0,0,.211.763.888.888,0,0,0,.719.254,3.5,3.5,0,0,0,.688-.094V111a4.215,4.215,0,0,1-1.109.155,1.8,1.8,0,0,1-1.461-.586,2.517,2.517,0,0,1-.492-1.664v-5.242H64.395v-1.117h1.539V100.5Zm8.586,2.047.039.938a3.122,3.122,0,0,1,2.508-1.094,2.417,2.417,0,0,1,2.414,1.359,3.2,3.2,0,0,1,1.1-.984,3.242,3.242,0,0,1,1.6-.375q2.781,0,2.828,2.945V111H85v-5.578a1.941,1.941,0,0,0-.414-1.355,1.823,1.823,0,0,0-1.391-.449,1.916,1.916,0,0,0-1.336.48,1.949,1.949,0,0,0-.617,1.293V111H79.793v-5.539a1.613,1.613,0,0,0-1.8-1.844,1.934,1.934,0,0,0-1.945,1.211V111H74.6v-8.453ZM90.2,111H88.754v-8.453H90.2Zm-1.562-10.7a.863.863,0,0,1,.215-.594.807.807,0,0,1,.637-.242.819.819,0,0,1,.641.242.854.854,0,0,1,.219.594.826.826,0,0,1-.219.586.834.834,0,0,1-.641.234.821.821,0,0,1-.637-.234A.834.834,0,0,1,88.637,100.3Zm12.852,5.375a7.037,7.037,0,0,1-.562,2.918,4.261,4.261,0,0,1-1.594,1.9,4.4,4.4,0,0,1-6.4-1.887,6.752,6.752,0,0,1-.59-2.832v-.82a6.953,6.953,0,0,1,.57-2.9,4.218,4.218,0,0,1,4-2.594,4.41,4.41,0,0,1,2.41.66,4.253,4.253,0,0,1,1.605,1.914,7.071,7.071,0,0,1,.563,2.918ZM100,104.945a5.1,5.1,0,0,0-.812-3.105,2.68,2.68,0,0,0-2.273-1.082,2.651,2.651,0,0,0-2.238,1.082,5,5,0,0,0-.84,3v.836a5.107,5.107,0,0,0,.824,3.082,2.888,2.888,0,0,0,4.52.063,5.079,5.079,0,0,0,.82-3.035Zm10.672,1.922a5.026,5.026,0,0,1-.891,3.113,2.846,2.846,0,0,1-2.391,1.176,2.947,2.947,0,0,1-2.477-1.133l-.07.977h-1.328V99h1.445v4.477a2.93,2.93,0,0,1,2.414-1.086,2.863,2.863,0,0,1,2.418,1.164,5.177,5.177,0,0,1,.879,3.188Zm-1.445-.164a3.906,3.906,0,0,0-.57-2.281,1.888,1.888,0,0,0-1.641-.8,2.122,2.122,0,0,0-2.055,1.328V108.6a2.181,2.181,0,0,0,2.07,1.328,1.878,1.878,0,0,0,1.617-.8A4.153,4.153,0,0,0,109.223,106.7Zm4.758-4.156v9.43q0,2.438-2.211,2.438a2.7,2.7,0,0,1-.883-.14v-1.149a2.794,2.794,0,0,0,.656.063.982.982,0,0,0,.738-.262,1.3,1.3,0,0,0,.254-.911v-9.468Zm-1.594-2.242a.867.867,0,0,1,.215-.59.79.79,0,0,1,.629-.246.819.819,0,0,1,.641.242.854.854,0,0,1,.219.594.826.826,0,0,1-.219.586.834.834,0,0,1-.641.234.808.808,0,0,1-.633-.234A.843.843,0,0,1,112.387,100.3Zm7.43,10.852a3.693,3.693,0,0,1-2.8-1.129,4.19,4.19,0,0,1-1.078-3.02v-.266a5.073,5.073,0,0,1,.48-2.246,3.748,3.748,0,0,1,1.344-1.547,3.378,3.378,0,0,1,1.871-.559,3.166,3.166,0,0,1,2.563,1.086,4.7,4.7,0,0,1,.914,3.109v.6h-5.727a3,3,0,0,0,.73,2.02,2.3,2.3,0,0,0,1.777.77,2.517,2.517,0,0,0,1.3-.312,3.259,3.259,0,0,0,.93-.828l.883.688A3.55,3.55,0,0,1,119.816,111.156Zm-.18-7.578a1.928,1.928,0,0,0-1.469.637,3.1,3.1,0,0,0-.734,1.785h4.234v-.109a2.753,2.753,0,0,0-.594-1.707A1.815,1.815,0,0,0,119.637,103.578Zm8.539,6.4a2.082,2.082,0,0,0,1.352-.469,1.649,1.649,0,0,0,.641-1.172h1.367a2.621,2.621,0,0,1-.5,1.383,3.293,3.293,0,0,1-1.23,1.047,3.55,3.55,0,0,1-1.629.391A3.482,3.482,0,0,1,125.43,110a4.59,4.59,0,0,1-1.02-3.152v-.242a5.089,5.089,0,0,1,.453-2.2,3.451,3.451,0,0,1,1.3-1.492,3.7,3.7,0,0,1,2-.531,3.39,3.39,0,0,1,2.363.852,3.043,3.043,0,0,1,1,2.211h-1.367a1.992,1.992,0,0,0-.621-1.348,1.932,1.932,0,0,0-1.379-.527,2.023,2.023,0,0,0-1.707.793,3.724,3.724,0,0,0-.605,2.293v.273a3.65,3.65,0,0,0,.6,2.25A2.033,2.033,0,0,0,128.176,109.977Zm6.945-9.477v2.047H136.7v1.117h-1.578v5.249a1.173,1.173,0,0,0,.211.763.888.888,0,0,0,.719.254,3.5,3.5,0,0,0,.688-.094V111a4.215,4.215,0,0,1-1.109.155,1.8,1.8,0,0,1-1.461-.586,2.517,2.517,0,0,1-.492-1.664v-5.242h-1.539v-1.117h1.539V100.5Zm13.836,4.141h-6.516v-1.258h6.516Zm0,3.242h-6.516v-1.25h6.516ZM51.285,137.859a3.883,3.883,0,0,1-2.082-1.285,3.731,3.731,0,0,1-.7-2.363v-1.555q0-1.9-1.656-1.9v-1.133q1.656,0,1.656-1.891v-1.625a3.725,3.725,0,0,1,.7-2.309,3.887,3.887,0,0,1,2.082-1.277l.3.9q-1.633.523-1.633,2.727v1.578a2.552,2.552,0,0,1-1.3,2.469,2.584,2.584,0,0,1,1.3,2.492V134.3a2.475,2.475,0,0,0,1.633,2.664Zm2.641-13.8-.234,2.8h-.867L52.832,123h1.094Zm2.109,0-.234,2.8h-.867L54.941,123h1.094Zm3.148,2.484.047,1.063a3.08,3.08,0,0,1,2.531-1.219q2.68,0,2.7,3.023V135H63.02v-5.594a1.946,1.946,0,0,0-.418-1.352,1.675,1.675,0,0,0-1.277-.437,2.086,2.086,0,0,0-1.234.375,2.546,2.546,0,0,0-.828.984V135H57.816v-8.453ZM71.863,135a3.036,3.036,0,0,1-.2-.891,3.225,3.225,0,0,1-2.406,1.047,2.984,2.984,0,0,1-2.051-.707,2.288,2.288,0,0,1-.8-1.793,2.39,2.39,0,0,1,1-2.051,4.733,4.733,0,0,1,2.824-.73h1.406v-.664A1.623,1.623,0,0,0,71.184,128a1.821,1.821,0,0,0-1.336-.449,2.108,2.108,0,0,0-1.3.391,1.151,1.151,0,0,0-.523.945H66.574a2,2,0,0,1,.449-1.223,3.066,3.066,0,0,1,1.219-.934,4.1,4.1,0,0,1,1.691-.344,3.342,3.342,0,0,1,2.289.73,2.635,2.635,0,0,1,.859,2.012v3.891a4.757,4.757,0,0,0,.3,1.852V135Zm-2.4-1.1a2.54,2.54,0,0,0,1.289-.352,2.127,2.127,0,0,0,.883-.914V130.9H70.5q-2.656,0-2.656,1.555a1.316,1.316,0,0,0,.453,1.063A1.742,1.742,0,0,0,69.465,133.9Zm7.242-7.352.039.938a3.122,3.122,0,0,1,2.508-1.094,2.417,2.417,0,0,1,2.414,1.359,3.2,3.2,0,0,1,1.1-.984,3.242,3.242,0,0,1,1.6-.375q2.781,0,2.828,2.945V135H85.746v-5.578a1.941,1.941,0,0,0-.414-1.355,1.823,1.823,0,0,0-1.391-.449,1.916,1.916,0,0,0-1.336.48,1.949,1.949,0,0,0-.617,1.293V135H80.535v-5.539a1.613,1.613,0,0,0-1.8-1.844,1.934,1.934,0,0,0-1.945,1.211V135H75.34v-8.453Zm16.172,8.609a3.693,3.693,0,0,1-2.8-1.129A4.19,4.19,0,0,1,89,131.008v-.266a5.073,5.073,0,0,1,.48-2.246,3.748,3.748,0,0,1,1.344-1.547,3.378,3.378,0,0,1,1.871-.559,3.166,3.166,0,0,1,2.563,1.086,4.7,4.7,0,0,1,.914,3.109v.6H90.449a3,3,0,0,0,.73,2.02,2.3,2.3,0,0,0,1.777.77,2.517,2.517,0,0,0,1.3-.312,3.258,3.258,0,0,0,.93-.828l.883.688A3.55,3.55,0,0,1,92.879,135.156Zm-.18-7.578a1.928,1.928,0,0,0-1.469.637A3.1,3.1,0,0,0,90.5,130H94.73v-.109a2.753,2.753,0,0,0-.594-1.707A1.815,1.815,0,0,0,92.7,127.578Zm6.109-3.516-.234,2.8h-.867L97.715,123h1.094Zm2.109,0-.234,2.8h-.867L99.824,123h1.094Zm1.891,10.18a.905.905,0,0,1,.223-.625.848.848,0,0,1,.668-.25.874.874,0,0,1,.676.25.887.887,0,0,1,.23.625.839.839,0,0,1-.23.6.89.89,0,0,1-.676.242.8.8,0,0,1-.891-.844Zm.008-6.9a.905.905,0,0,1,.223-.625.848.848,0,0,1,.668-.25.874.874,0,0,1,.676.25.887.887,0,0,1,.23.625.839.839,0,0,1-.23.6.89.89,0,0,1-.676.242.8.8,0,0,1-.891-.844Zm4.984-3.281-.234,2.8H106.7l.008-3.859H107.8Zm2.109,0-.234,2.8h-.867l.008-3.859h1.094Zm6.93-.437h1.508v8.055a3.336,3.336,0,0,1-.98,2.555,3.66,3.66,0,0,1-2.613.922,3.762,3.762,0,0,1-2.641-.867,3.132,3.132,0,0,1-.945-2.43h1.5a1.885,1.885,0,0,0,2.086,2.07,2.012,2.012,0,0,0,1.5-.586,2.27,2.27,0,0,0,.582-1.641Zm9.055,10.539a3.07,3.07,0,0,1-2.477.992,2.628,2.628,0,0,1-2.059-.785,3.4,3.4,0,0,1-.715-2.324v-5.5h1.445v5.461q0,1.922,1.563,1.922a2.163,2.163,0,0,0,2.2-1.234v-6.148H127.3V135h-1.375Zm8.82.836a3.036,3.036,0,0,1-.2-.891,3.225,3.225,0,0,1-2.406,1.047,2.984,2.984,0,0,1-2.051-.707,2.287,2.287,0,0,1-.8-1.793,2.39,2.39,0,0,1,1-2.051,4.733,4.733,0,0,1,2.824-.73h1.406v-.664a1.623,1.623,0,0,0-.453-1.207,1.821,1.821,0,0,0-1.336-.449,2.108,2.108,0,0,0-1.3.391,1.151,1.151,0,0,0-.523.945h-1.453a2,2,0,0,1,.449-1.223,3.066,3.066,0,0,1,1.219-.934,4.1,4.1,0,0,1,1.691-.344,3.342,3.342,0,0,1,2.289.73,2.635,2.635,0,0,1,.859,2.012v3.891a4.757,4.757,0,0,0,.3,1.852V135Zm-2.4-1.1a2.54,2.54,0,0,0,1.289-.352,2.127,2.127,0,0,0,.883-.914V130.9h-1.133q-2.656,0-2.656,1.555a1.316,1.316,0,0,0,.453,1.063A1.742,1.742,0,0,0,132.316,133.9Zm7.25-7.352.047,1.063a3.08,3.08,0,0,1,2.531-1.219q2.68,0,2.7,3.023V135H143.4v-5.594a1.946,1.946,0,0,0-.418-1.352,1.675,1.675,0,0,0-1.277-.437,2.086,2.086,0,0,0-1.234.375,2.546,2.546,0,0,0-.828.984V135H138.2v-8.453Zm7.719-2.484-.234,2.8h-.867l.008-3.859h1.094Zm2.109,0-.234,2.8h-.867L148.3,123h1.094Zm.992,12.9a2.452,2.452,0,0,0,1.641-2.586v-1.719a2.46,2.46,0,0,1,1.414-2.461,2.442,2.442,0,0,1-1.414-2.461v-1.586q0-2.2-1.633-2.727l.3-.9a3.906,3.906,0,0,1,2.078,1.27,3.672,3.672,0,0,1,.7,2.324v1.641q0,1.867,1.656,1.867v1.133q-1.656,0-1.656,1.9v1.578a3.652,3.652,0,0,1-.707,2.352,3.954,3.954,0,0,1-2.074,1.273ZM10.973,156.023H6.207L5.137,159H3.59l4.344-11.375H9.246L13.6,159H12.059ZM6.66,154.8h3.867l-1.937-5.32Zm15.383.07a5.062,5.062,0,0,1-.883,3.109,2.829,2.829,0,0,1-2.391,1.18,3.1,3.1,0,0,1-2.422-.977v4.07H14.9v-11.7h1.32l.07.938a2.977,2.977,0,0,1,2.453-1.094,2.882,2.882,0,0,1,2.41,1.148,5.117,5.117,0,0,1,.887,3.2ZM20.6,154.7a3.735,3.735,0,0,0-.609-2.258,1.963,1.963,0,0,0-1.672-.828,2.125,2.125,0,0,0-1.969,1.164v4.039a2.129,2.129,0,0,0,1.984,1.156,1.954,1.954,0,0,0,1.652-.824A4.077,4.077,0,0,0,20.6,154.7Zm4.852,4.3H24V147h1.445Zm3.883,0H27.887v-8.453h1.445ZM27.77,148.3a.863.863,0,0,1,.215-.594.807.807,0,0,1,.637-.242.819.819,0,0,1,.641.242.854.854,0,0,1,.219.594.826.826,0,0,1-.219.586.834.834,0,0,1-.641.234.821.821,0,0,1-.637-.234A.834.834,0,0,1,27.77,148.3Zm7.266,9.672a2.082,2.082,0,0,0,1.352-.469,1.649,1.649,0,0,0,.641-1.172h1.367a2.621,2.621,0,0,1-.5,1.383,3.293,3.293,0,0,1-1.23,1.047,3.55,3.55,0,0,1-1.629.391A3.482,3.482,0,0,1,32.289,158a4.59,4.59,0,0,1-1.02-3.152v-.242a5.089,5.089,0,0,1,.453-2.2,3.451,3.451,0,0,1,1.3-1.492,3.7,3.7,0,0,1,2-.531,3.39,3.39,0,0,1,2.363.852,3.043,3.043,0,0,1,1,2.211H37.027a1.992,1.992,0,0,0-.621-1.348,1.932,1.932,0,0,0-1.379-.527,2.023,2.023,0,0,0-1.707.793,3.724,3.724,0,0,0-.605,2.293v.273a3.65,3.65,0,0,0,.6,2.25A2.033,2.033,0,0,0,35.035,157.977ZM45.238,159a3.036,3.036,0,0,1-.2-.891,3.225,3.225,0,0,1-2.406,1.047,2.984,2.984,0,0,1-2.051-.707,2.288,2.288,0,0,1-.8-1.793,2.39,2.39,0,0,1,1-2.051,4.733,4.733,0,0,1,2.824-.73h1.406v-.664A1.623,1.623,0,0,0,44.559,152a1.821,1.821,0,0,0-1.336-.449,2.107,2.107,0,0,0-1.3.391,1.151,1.151,0,0,0-.523.945H39.949a2,2,0,0,1,.449-1.223,3.066,3.066,0,0,1,1.219-.934,4.1,4.1,0,0,1,1.691-.344,3.342,3.342,0,0,1,2.289.73,2.635,2.635,0,0,1,.859,2.012v3.891a4.757,4.757,0,0,0,.3,1.852V159Zm-2.4-1.1a2.54,2.54,0,0,0,1.289-.352,2.127,2.127,0,0,0,.883-.914V154.9H43.879q-2.656,0-2.656,1.555a1.316,1.316,0,0,0,.453,1.063A1.742,1.742,0,0,0,42.84,157.9Zm16.984-3.031a5.062,5.062,0,0,1-.883,3.109,2.829,2.829,0,0,1-2.391,1.18,3.1,3.1,0,0,1-2.422-.977v4.07H52.684v-11.7H54l.07.938a2.977,2.977,0,0,1,2.453-1.094,2.882,2.882,0,0,1,2.41,1.148,5.117,5.117,0,0,1,.887,3.2Zm-1.445-.164a3.735,3.735,0,0,0-.609-2.258,1.963,1.963,0,0,0-1.672-.828,2.125,2.125,0,0,0-1.969,1.164v4.039a2.129,2.129,0,0,0,1.984,1.156,1.954,1.954,0,0,0,1.652-.824A4.077,4.077,0,0,0,58.379,154.7Zm8.5,4.3a3.036,3.036,0,0,1-.2-.891,3.225,3.225,0,0,1-2.406,1.047,2.984,2.984,0,0,1-2.051-.707,2.288,2.288,0,0,1-.8-1.793,2.39,2.39,0,0,1,1-2.051,4.733,4.733,0,0,1,2.824-.73h1.406v-.664A1.623,1.623,0,0,0,66.2,152a1.821,1.821,0,0,0-1.336-.449,2.107,2.107,0,0,0-1.3.391,1.151,1.151,0,0,0-.523.945H61.59a2,2,0,0,1,.449-1.223,3.066,3.066,0,0,1,1.219-.934,4.1,4.1,0,0,1,1.691-.344,3.342,3.342,0,0,1,2.289.73,2.635,2.635,0,0,1,.859,2.012v3.891a4.757,4.757,0,0,0,.3,1.852V159Zm-2.4-1.1a2.54,2.54,0,0,0,1.289-.352,2.127,2.127,0,0,0,.883-.914V154.9H65.52q-2.656,0-2.656,1.555a1.316,1.316,0,0,0,.453,1.063A1.742,1.742,0,0,0,64.48,157.9Zm9.969-6.055a4.332,4.332,0,0,0-.711-.055A1.9,1.9,0,0,0,71.809,153v6H70.363v-8.453H71.77l.023.977a2.251,2.251,0,0,1,2.016-1.133,1.476,1.476,0,0,1,.641.109ZM80.684,159a3.036,3.036,0,0,1-.2-.891,3.225,3.225,0,0,1-2.406,1.047,2.984,2.984,0,0,1-2.051-.707,2.288,2.288,0,0,1-.8-1.793,2.39,2.39,0,0,1,1-2.051,4.733,4.733,0,0,1,2.824-.73h1.406v-.664A1.623,1.623,0,0,0,80,152a1.821,1.821,0,0,0-1.336-.449,2.107,2.107,0,0,0-1.3.391,1.151,1.151,0,0,0-.523.945H75.395a2,2,0,0,1,.449-1.223,3.066,3.066,0,0,1,1.219-.934,4.1,4.1,0,0,1,1.691-.344,3.342,3.342,0,0,1,2.289.73,2.635,2.635,0,0,1,.859,2.012v3.891a4.757,4.757,0,0,0,.3,1.852V159Zm-2.4-1.1a2.54,2.54,0,0,0,1.289-.352,2.127,2.127,0,0,0,.883-.914V154.9H79.324q-2.656,0-2.656,1.555a1.316,1.316,0,0,0,.453,1.063A1.742,1.742,0,0,0,78.285,157.9Zm11.8-9.4v2.047h1.578v1.117H90.09v5.249a1.173,1.173,0,0,0,.211.763.888.888,0,0,0,.719.254,3.5,3.5,0,0,0,.688-.094V159a4.215,4.215,0,0,1-1.109.155,1.8,1.8,0,0,1-1.461-.586,2.517,2.517,0,0,1-.492-1.664v-5.242H87.105v-1.117h1.539V148.5Zm2.727,6.2a4.993,4.993,0,0,1,.488-2.234,3.643,3.643,0,0,1,1.359-1.531,3.7,3.7,0,0,1,1.988-.539,3.565,3.565,0,0,1,2.793,1.2,4.6,4.6,0,0,1,1.066,3.18v.1a5.036,5.036,0,0,1-.473,2.215,3.589,3.589,0,0,1-1.352,1.527,3.743,3.743,0,0,1-2.02.547,3.556,3.556,0,0,1-2.785-1.2,4.575,4.575,0,0,1-1.066-3.164Zm1.453.172a3.616,3.616,0,0,0,.652,2.258,2.211,2.211,0,0,0,3.5-.012,3.955,3.955,0,0,0,.648-2.418,3.61,3.61,0,0,0-.66-2.254,2.1,2.1,0,0,0-1.754-.863,2.075,2.075,0,0,0-1.727.852A3.925,3.925,0,0,0,94.27,154.867Zm7.7-.164a4.952,4.952,0,0,1,.922-3.129,3.137,3.137,0,0,1,4.766-.168V147h1.445v12h-1.328l-.07-.906a2.943,2.943,0,0,1-2.414,1.063,2.887,2.887,0,0,1-2.395-1.2,5.008,5.008,0,0,1-.926-3.141Zm1.445.164a3.749,3.749,0,0,0,.594,2.25,1.919,1.919,0,0,0,1.641.813,2.108,2.108,0,0,0,2.008-1.234v-3.883a2.125,2.125,0,0,0-1.992-1.2,1.929,1.929,0,0,0-1.656.82A4.128,4.128,0,0,0,103.418,154.867Zm7.547-.172a4.993,4.993,0,0,1,.488-2.234,3.643,3.643,0,0,1,1.359-1.531,3.7,3.7,0,0,1,1.988-.539,3.565,3.565,0,0,1,2.793,1.2,4.6,4.6,0,0,1,1.066,3.18v.1a5.036,5.036,0,0,1-.473,2.215,3.589,3.589,0,0,1-1.352,1.527,3.743,3.743,0,0,1-2.02.547,3.556,3.556,0,0,1-2.785-1.2,4.575,4.575,0,0,1-1.066-3.164Zm1.453.172a3.616,3.616,0,0,0,.652,2.258,2.211,2.211,0,0,0,3.5-.012,3.955,3.955,0,0,0,.648-2.418,3.61,3.61,0,0,0-.66-2.254,2.1,2.1,0,0,0-1.754-.863,2.075,2.075,0,0,0-1.727.852A3.925,3.925,0,0,0,112.418,154.867ZM126,159h-1.445V147H126Zm1.93-4.3a4.993,4.993,0,0,1,.488-2.234,3.642,3.642,0,0,1,1.359-1.531,3.7,3.7,0,0,1,1.988-.539,3.565,3.565,0,0,1,2.793,1.2,4.6,4.6,0,0,1,1.066,3.18v.1a5.036,5.036,0,0,1-.473,2.215,3.589,3.589,0,0,1-1.352,1.527,3.743,3.743,0,0,1-2.02.547,3.556,3.556,0,0,1-2.785-1.2,4.575,4.575,0,0,1-1.066-3.164Zm1.453.172a3.616,3.616,0,0,0,.652,2.258,2.211,2.211,0,0,0,3.5-.012,3.954,3.954,0,0,0,.648-2.418,3.61,3.61,0,0,0-.66-2.254,2.1,2.1,0,0,0-1.754-.863,2.075,2.075,0,0,0-1.727.852A3.925,3.925,0,0,0,129.387,154.867ZM146.621,159a3.036,3.036,0,0,1-.2-.891,3.225,3.225,0,0,1-2.406,1.047,2.984,2.984,0,0,1-2.051-.707,2.287,2.287,0,0,1-.8-1.793,2.39,2.39,0,0,1,1-2.051,4.733,4.733,0,0,1,2.824-.73h1.406v-.664a1.623,1.623,0,0,0-.453-1.207,1.821,1.821,0,0,0-1.336-.449,2.107,2.107,0,0,0-1.3.391,1.151,1.151,0,0,0-.523.945h-1.453a2,2,0,0,1,.449-1.223,3.066,3.066,0,0,1,1.219-.934,4.1,4.1,0,0,1,1.691-.344,3.342,3.342,0,0,1,2.289.73,2.635,2.635,0,0,1,.859,2.012v3.891a4.757,4.757,0,0,0,.3,1.852V159Zm-2.4-1.1a2.54,2.54,0,0,0,1.289-.352,2.127,2.127,0,0,0,.883-.914V154.9h-1.133q-2.656,0-2.656,1.555a1.316,1.316,0,0,0,.453,1.063A1.742,1.742,0,0,0,144.223,157.9Zm7.25-7.352.047,1.063a3.08,3.08,0,0,1,2.531-1.219q2.68,0,2.7,3.023V159h-1.445v-5.594a1.946,1.946,0,0,0-.418-1.352,1.675,1.675,0,0,0-1.277-.437,2.086,2.086,0,0,0-1.234.375,2.546,2.546,0,0,0-.828.984V159h-1.445v-8.453Zm9.422-2.047v2.047h1.578v1.117h-1.578v5.249a1.173,1.173,0,0,0,.211.763.888.888,0,0,0,.719.254,3.5,3.5,0,0,0,.688-.094V159a4.215,4.215,0,0,1-1.109.155,1.8,1.8,0,0,1-1.461-.586,2.517,2.517,0,0,1-.492-1.664v-5.242H157.91v-1.117h1.539V148.5Zm6.773,10.656a3.693,3.693,0,0,1-2.8-1.129,4.19,4.19,0,0,1-1.078-3.02v-.266a5.073,5.073,0,0,1,.48-2.246,3.748,3.748,0,0,1,1.344-1.547,3.379,3.379,0,0,1,1.871-.559,3.166,3.166,0,0,1,2.563,1.086,4.7,4.7,0,0,1,.914,3.109v.6h-5.727a3,3,0,0,0,.73,2.02,2.3,2.3,0,0,0,1.777.77,2.517,2.517,0,0,0,1.3-.312,3.258,3.258,0,0,0,.93-.828l.883.688A3.55,3.55,0,0,1,167.668,159.156Zm-.18-7.578a1.928,1.928,0,0,0-1.469.637,3.1,3.1,0,0,0-.734,1.785h4.234v-.109a2.753,2.753,0,0,0-.594-1.707A1.815,1.815,0,0,0,167.488,151.578Zm9.234.266a4.332,4.332,0,0,0-.711-.055,1.9,1.9,0,0,0-1.93,1.211v6h-1.445v-8.453h1.406l.023.977a2.251,2.251,0,0,1,2.016-1.133,1.476,1.476,0,0,1,.641.109Zm2.9,7.156h-1.445v-8.453h1.445Zm-1.562-10.7a.863.863,0,0,1,.215-.594.807.807,0,0,1,.637-.242.819.819,0,0,1,.641.242.854.854,0,0,1,.219.594.826.826,0,0,1-.219.586.834.834,0,0,1-.641.234.821.821,0,0,1-.637-.234A.834.834,0,0,1,178.059,148.3Zm3.492,6.391a4.993,4.993,0,0,1,.488-2.234,3.642,3.642,0,0,1,1.359-1.531,3.7,3.7,0,0,1,1.988-.539,3.565,3.565,0,0,1,2.793,1.2,4.6,4.6,0,0,1,1.066,3.18v.1a5.036,5.036,0,0,1-.473,2.215,3.589,3.589,0,0,1-1.352,1.527,3.743,3.743,0,0,1-2.02.547,3.556,3.556,0,0,1-2.785-1.2,4.575,4.575,0,0,1-1.066-3.164Zm1.453.172a3.616,3.616,0,0,0,.652,2.258,2.211,2.211,0,0,0,3.5-.012,3.954,3.954,0,0,0,.648-2.418,3.61,3.61,0,0,0-.66-2.254,2.1,2.1,0,0,0-1.754-.863,2.075,2.075,0,0,0-1.727.852A3.925,3.925,0,0,0,183,154.867Zm12.141-3.023a4.332,4.332,0,0,0-.711-.055A1.9,1.9,0,0,0,192.5,153v6h-1.445v-8.453h1.406l.023.977a2.251,2.251,0,0,1,2.016-1.133,1.476,1.476,0,0,1,.641.109Zm.4,6.4a.905.905,0,0,1,.223-.625.848.848,0,0,1,.668-.25.874.874,0,0,1,.676.25.887.887,0,0,1,.23.625.839.839,0,0,1-.23.6.89.89,0,0,1-.676.242.8.8,0,0,1-.891-.844Z" transform="translate(-6300 -7393)" fill="#fff"/>
    <g id="Enmascarar_grupo_7" data-name="Enmascarar grupo 7" transform="translate(-6497 -12189)" clip-path="url(#clip-path)">
      <g id="freepik--Character--inject-11" transform="translate(-48.357 4766.067)">
        <path id="Trazado_802250" data-name="Trazado 802250" d="M327.758,445.558s-42.08,12.058-47.957,14.148c-5.34,1.886-19.821,6.965-30.69,5.383a23.066,23.066,0,0,1-3.105-.667c-11.013-3.279-15.962-6.341-17.413-13.263s4.034-12.029,9.316-15.294,33.925-6.675,33.925-6.675l6.922,2.031h0Z" transform="translate(0 99.797)" fill="#7744ad"/>
        <path id="Trazado_802251" data-name="Trazado 802251" d="M249.111,465.089a23.066,23.066,0,0,1-3.105-.667c-11.013-3.279-15.962-6.341-17.413-13.263s4.034-12.029,9.316-15.294,33.925-6.675,33.925-6.675l6.922,2.031c-6.269,2.9-29.6,4.484-34.695,7.415s-7.545,8.445-4.542,15.962C241.131,458.516,245.426,462.361,249.111,465.089Z" transform="translate(0 99.797)" fill="#fff"/>
        <path id="Trazado_802252" data-name="Trazado 802252" d="M321.371,446.733s-31.6,8.184-44.141,13.422-36.436,7.531-44.982-3.265-.987-20.111,7.531-22.186,25.742-5.34,35.144-4.019" transform="translate(0.061 100.333)" fill="none" stroke="#263238" stroke-linecap="round" stroke-linejoin="round" stroke-width="1.103"/>
        <path id="Trazado_802253" data-name="Trazado 802253" d="M246.765,463.892s-16.078-8.822-10.738-21.185c3.947-9.113,25.393-7.139,36.015-12.116" transform="translate(2.97 100.428)" fill="none" stroke="#263238" stroke-linecap="round" stroke-linejoin="round" stroke-width="1.103"/>
        <path id="Trazado_802254" data-name="Trazado 802254" d="M412.456,467.282c-.435,4.353-1.959,8.431-6.312,11-2.9,1.712-7.023,2.728-12.929,2.67-14.757-.189-42.5-10.738-42.5-10.738L324.74,455.848l13.509-21.374,3.7-5.8,9.548,2.148s7.908,4.484,15.86,8.053,27.265,4.353,34.071,9.824S413.2,460.114,412.456,467.282Z" transform="translate(43.473 99.562)" fill="#7744ad"/>
        <path id="Trazado_802255" data-name="Trazado 802255" d="M408.256,467.282c-.435,4.353-1.959,8.431-6.312,11a19.43,19.43,0,0,0-.726-12.972c-2.9-6.515-12.348-12.261-24.769-13.219s-21.925-6.762-26.9-9.359c-3.889-2.017-12.087-6.428-15.5-8.256l3.7-5.8,9.548,2.148s7.908,4.484,15.86,8.053,27.265,4.353,34.071,9.824S409,460.114,408.256,467.282Z" transform="translate(47.672 99.562)" fill="#fff"/>
        <path id="Trazado_802256" data-name="Trazado 802256" d="M329.549,457.217a163.765,163.765,0,0,0,60.8,20.764c4.73.566,10.23.653,13.393-2.9a9.9,9.9,0,0,0,2.177-7.415c-.566-6.675-6.182-11.957-12.334-14.612s-12.929-3.265-19.473-4.73a77.458,77.458,0,0,1-18.718-6.849c-4.7-2.452-9.243-5.427-14.423-6.53s-11.347.232-14.119,4.759" transform="translate(44.425 102.227)" fill="none" stroke="#263238" stroke-linecap="round" stroke-linejoin="round" stroke-width="1.103"/>
        <path id="Trazado_802257" data-name="Trazado 802257" d="M397.873,478.929a17.3,17.3,0,0,0,9.5-12.276c.943-6.283-2.641-12.61-7.676-16.469s-11.347-5.688-17.572-6.98-12.6-2.162-18.559-4.527c-9.1-3.57-18.08-10.593-27.57-8.082" transform="translate(48.552 100.191)" fill="none" stroke="#263238" stroke-linecap="round" stroke-linejoin="round" stroke-width="1.103"/>
        <path id="Trazado_802258" data-name="Trazado 802258" d="M397.809,306.3l-43.952-16.716-.551-.218s.16-1.161.29-2.9c.276-3.512.421-9.229-1.233-11.159-2.452-2.9-9.388-.464-16.165-3.57s-19.3,2.452-19.3,2.452-9.055-1.669-13.059,4.861c-2.031,5.267-1.335,13.059-1.335,13.059l-.827.29c-5.238,1.959-33.737,12.682-39.759,16.992-6.66,4.716-14.032,53.137-16.4,67.358s-6.573,27.033-4.44,31.923,32.75,28.47,50.366,34.549,80.083,4.353,80.083,4.353,1.016-.276,2.83-.856c10.564-3.4,48.044-17.413,67.938-50.322C442.327,396.451,423.058,333.286,397.809,306.3ZM279.056,387.744c-3.236,2.293-1.451,11.173-1.451,11.173l-5.5-4.846L285.919,360.1l5.891,26.119S282.292,385.466,279.056,387.744Zm110.512,21.577c-1.524.784,4.353-15.541,1.567-19.241s-11.188-3.352-11.188-3.352l.711-4.455,4.977-25.538,1.654-1.959s17.093,29.3,20.155,39.628C407.444,394.434,388.813,409.321,389.567,409.321Z" transform="translate(5.476 28.351)" fill="#7744ad"/>
        <path id="Trazado_802259" data-name="Trazado 802259" d="M299.45,222.25l-22.694,24.087s-3.12,2.772-1.886,9.751,4.135,13.059,6.327,13.466a31.011,31.011,0,0,0,5.253.464s4.861,10.535,8.315,14.67c0,0,1.19,16.266.551,20.779,0,0,8.155,7.125,15.831,8.024s19.531-10.854,19.531-10.854l2.9-14.394s6.965-10.564,7.429-13.379,3.657-2.09,5.224-3.482,5.18-7.589,5.8-13.451.638-12.6-6.167-10.622c-5.906-1.582-2.206-14.061-2.206-14.061l-10.375-9.142Z" transform="translate(20.849 6.458)" fill="#fff"/>
        <path id="Trazado_802260" data-name="Trazado 802260" d="M334.831,289.549a25.652,25.652,0,0,1-1.175,2.626c-3.744,7.052-20.053,20.5-20.053,20.5l-4.934-15.163-2.7,15.163c-5.441-2.38-22.041-16.76-22.041-16.76s-.566-1.349-1.248-3.453l.827-.29s-.7-7.85,1.335-13.059c3.976-6.53,13.059-4.861,13.059-4.861s12.523-5.557,19.3-2.452,13.712.7,16.165,3.57.943,14.017.943,14.017Z" transform="translate(24.502 28.383)" fill="#fff" opacity="0.5"/>
        <path id="Trazado_802261" data-name="Trazado 802261" d="M364.958,301.426,321.006,284.71l-.551-.218s.16-1.161.29-2.9l-.914,5.7-6.5,8.822a179.93,179.93,0,0,1,20.315,8.938,17.819,17.819,0,0,1,9.287,17.761l-8.1,69.287-3.323,39.338,10.027,10.4c10.564-3.4,48.044-17.413,67.938-50.322C409.476,391.579,390.206,328.415,364.958,301.426ZM356.716,404.45c-1.524.784,4.353-15.541,1.567-19.241s-11.188-3.352-11.188-3.352l.711-4.455,4.977-25.538,1.654-1.959s17.093,29.3,20.155,39.628C374.593,389.562,355.962,404.45,356.716,404.45Z" transform="translate(38.327 33.223)" opacity="0.2"/>
        <path id="Trazado_802262" data-name="Trazado 802262" d="M291.771,376.3l-6.834-22.839s-12.261-41.8-20.663-52.107l2.206,29.4s-7.255,35.115-13.886,45.548-8.111,13.059,0,13.059,27.86,15.729,27.86,15.729l-1.524-13.059Zm-17.224,8.837-5.5-4.846,13.814-33.969,5.891,26.119s-9.461-.711-12.7,1.567S274.547,385.133,274.547,385.133Z" transform="translate(8.432 42.135)" opacity="0.2"/>
        <path id="Trazado_802263" data-name="Trazado 802263" d="M288.49,265.28s1.248,12.319,0,17.949" transform="translate(27.123 25.866)" fill="none" stroke="#263238" stroke-linecap="round" stroke-linejoin="round" stroke-width="1.103"/>
        <path id="Trazado_802264" data-name="Trazado 802264" d="M314.11,280.168a53.01,53.01,0,0,1,1.364-11.768" transform="translate(38.679 27.273)" fill="none" stroke="#263238" stroke-linecap="round" stroke-linejoin="round" stroke-width="1.103"/>
        <path id="Trazado_802265" data-name="Trazado 802265" d="M331.909,228.58s7.458,9.359,7.067,16.44-.943,15.468-.754,23.681-13.19,25.422-20.068,26.946-12.8,1.915-17.195-2.481-8.793-10.506-14.51-18.341-4.353-25.031-4.353-25.031" transform="translate(24.174 9.313)" fill="none" stroke="#263238" stroke-linecap="round" stroke-linejoin="round" stroke-width="1.103"/>
        <path id="Trazado_802266" data-name="Trazado 802266" d="M304.221,247.71a38.916,38.916,0,0,0-.58,7.792,8.779,8.779,0,0,0,1.915,6.094c.827.842,2.017,1.523,2.176,2.684a2.9,2.9,0,0,1-1.538,2.539,22.578,22.578,0,0,0-2.684,1.6" transform="translate(33.897 17.941)" fill="none" stroke="#263238" stroke-linecap="round" stroke-linejoin="round" stroke-width="1.103"/>
        <path id="Trazado_802267" data-name="Trazado 802267" d="M295.87,262.6s.856,5.557,8.3,6.718" transform="translate(30.451 24.657)" fill="none" stroke="#263238" stroke-linecap="round" stroke-linejoin="round" stroke-width="1.103"/>
        <path id="Trazado_802268" data-name="Trazado 802268" d="M297.365,251.532c0,1.611-.7,2.9-1.553,2.9s-1.553-1.291-1.553-2.9.7-2.9,1.553-2.9S297.365,249.936,297.365,251.532Z" transform="translate(29.725 18.356)" fill="#263238"/>
        <path id="Trazado_802269" data-name="Trazado 802269" d="M312.675,252.012c0,1.611-.7,2.9-1.553,2.9s-1.553-1.306-1.553-2.9.7-2.9,1.553-2.9S312.675,250.4,312.675,252.012Z" transform="translate(36.631 18.573)" fill="#263238"/>
        <path id="Trazado_802270" data-name="Trazado 802270" d="M308.62,247.189s7.255-7.255,13.335.842" transform="translate(36.202 16.358)" fill="none" stroke="#263238" stroke-linecap="round" stroke-linejoin="round" stroke-width="2.206"/>
        <path id="Trazado_802271" data-name="Trazado 802271" d="M301.761,247.07s-4.585-5.137-11.812,0" transform="translate(27.781 16.623)" fill="none" stroke="#263238" stroke-linecap="round" stroke-linejoin="round" stroke-width="2.206"/>
        <path id="Trazado_802272" data-name="Trazado 802272" d="M289.041,272.111s4.426,12.189,14.307,15.657,23-14.51,23-14.51l-.682-2.336s-8.6,11.173-18.167,9.272S288.49,265.32,288.49,265.32Z" transform="translate(27.123 25.884)" fill="#263238"/>
        <path id="Trazado_802273" data-name="Trazado 802273" d="M286.36,262.38s-5.891,2.075-7.458-2.51-6.936-16.673-2.235-20.706,8.474,5.325,8.474,5.325" transform="translate(20.938 13.631)" fill="none" stroke="#263238" stroke-linecap="round" stroke-linejoin="round" stroke-width="1.103"/>
        <path id="Trazado_802274" data-name="Trazado 802274" d="M320.72,264.4s5.47,1.1,7.038-3.482,6.936-16.673,2.235-20.706-8.474,5.325-8.474,5.325" transform="translate(41.66 14.105)" fill="none" stroke="#263238" stroke-linecap="round" stroke-linejoin="round" stroke-width="1.103"/>
        <path id="Trazado_802275" data-name="Trazado 802275" d="M287.119,269.888a8.155,8.155,0,0,0,5.166-3.047,12.683,12.683,0,0,0,1.451-4.629,54.543,54.543,0,0,0,.813-9.345,12.782,12.782,0,0,1,.334-3.642,9.576,9.576,0,0,1,1.973-3.236c2.046-2.409,4.527-4.44,6.486-6.936a11.608,11.608,0,0,0,2.9-8.706,39.831,39.831,0,0,0,32.605,8.431c10.375-2.031,20.315-11.13,19.11-22.564a9.243,9.243,0,0,0-7.255-7.952c-5.122-1.277-9.722,1.451-14.365,3.207-8.46,3.192-16.745-2.293-25.292-3.207-7.255-.8-16.3.116-20.1,7.386,0,0-13.059,1.538-18.864,12.334s5.18,25.727,5.18,25.727,4.353-5.34,10.056,5.456Z" transform="translate(18.96)" fill="#263238"/>
        <path id="Trazado_802276" data-name="Trazado 802276" d="M317.2,228.1s-3.4,17.7,5.47,26.278c0,0,1.944-5.325,3.9-6.631A20.5,20.5,0,0,0,325.02,228.1C318.461,217.8,317.2,228.1,317.2,228.1Z" transform="translate(39.783 7.032)" fill="#263238"/>
        <path id="Trazado_802277" data-name="Trazado 802277" d="M349.465,212.8a16.673,16.673,0,0,1-10.157,10.549c-12.3,5.021-24.247-.537-36.581-1.625-10.056-.9-21.156,8.184-21.867,18.515" transform="translate(23.681 2.195)" fill="none" stroke="#fff" stroke-linecap="round" stroke-linejoin="round" stroke-width="1.103" opacity="0.2"/>
        <path id="Trazado_802278" data-name="Trazado 802278" d="M275.63,235.73a21.49,21.49,0,0,1,13.059-18.98" transform="translate(21.322 3.977)" fill="none" stroke="#fff" stroke-linecap="round" stroke-linejoin="round" stroke-width="1.103" opacity="0.2"/>
        <path id="Trazado_802279" data-name="Trazado 802279" d="M286.53,276.961a56.169,56.169,0,0,0,19.168,13.06s14.728-4.281,22.215-14.511" transform="translate(26.239 30.48)" fill="none" stroke="#263238" stroke-linecap="round" stroke-linejoin="round" stroke-width="1.103"/>
        <circle id="Elipse_1151" data-name="Elipse 1151" cx="13.03" cy="13.03" r="13.03" transform="matrix(0.909, -0.417, 0.417, 0.909, 305.114, 263.448)" fill="none" stroke="#263238" stroke-linecap="round" stroke-linejoin="round" stroke-width="1.103"/>
        <circle id="Elipse_1152" data-name="Elipse 1152" cx="13.03" cy="13.03" r="13.03" transform="translate(336.962 258.573) rotate(-7)" fill="none" stroke="#263238" stroke-linecap="round" stroke-linejoin="round" stroke-width="1.103"/>
        <path id="Trazado_802280" data-name="Trazado 802280" d="M290.857,273.16a10.158,10.158,0,0,0-6.283,4.861c-2.307,4.063-.914,16.847-.914,16.847s11.913,11.782,22.056,16.76L308.7,294.81l4.643,16.818s15.7-11.1,20.053-20.489c0,0,1.451-10.955,0-14.51a5.035,5.035,0,0,0-4.687-3.439" transform="translate(24.756 29.42)" fill="none" stroke="#263238" stroke-linecap="round" stroke-linejoin="round" stroke-width="1.103"/>
        <path id="Trazado_802281" data-name="Trazado 802281" d="M279,364.353s-4.658-31.2-10.854-43.923" transform="translate(17.948 50.741)" fill="none" stroke="#263238" stroke-linecap="round" stroke-linejoin="round" stroke-width="1.103"/>
        <path id="Trazado_802282" data-name="Trazado 802282" d="M258.92,301.35a126.244,126.244,0,0,1,9.635,16.121" transform="translate(13.785 42.135)" fill="none" stroke="#263238" stroke-linecap="round" stroke-linejoin="round" stroke-width="1.103"/>
        <path id="Trazado_802283" data-name="Trazado 802283" d="M343.23,322.131a90.11,90.11,0,0,1,5.122-15.221" transform="translate(51.813 44.643)" fill="none" stroke="#263238" stroke-linecap="round" stroke-linejoin="round" stroke-width="1.103"/>
        <path id="Trazado_802284" data-name="Trazado 802284" d="M336.6,362.824s3.352-21.388,7.357-39" transform="translate(48.823 52.27)" fill="none" stroke="#263238" stroke-linecap="round" stroke-linejoin="round" stroke-width="1.103"/>
        <path id="Trazado_802285" data-name="Trazado 802285" d="M340.52,332.76a24.668,24.668,0,0,1,12.972-8.88" transform="translate(50.591 52.297)" fill="none" stroke="#263238" stroke-linecap="round" stroke-linejoin="round" stroke-width="1.103"/>
        <path id="Trazado_802286" data-name="Trazado 802286" d="M318.25,283.59s27.033,10.81,44.489,16.948c0,0,21.475,20.184,44.5,90.139,0,0-21.1,35.492-61.234,46.869" transform="translate(40.546 34.125)" fill="none" stroke="#263238" stroke-linecap="round" stroke-linejoin="round" stroke-width="1.103"/>
        <path id="Trazado_802287" data-name="Trazado 802287" d="M342.18,373.5l19.4-16.15s10.259-7.792,20.924-2.467" transform="translate(51.339 65.439)" fill="none" stroke="#263238" stroke-linecap="round" stroke-linejoin="round" stroke-width="1.103"/>
        <path id="Trazado_802288" data-name="Trazado 802288" d="M341.67,328.67s16.034,23.7,20.141,39.657" transform="translate(51.109 54.458)" fill="none" stroke="#263238" stroke-linecap="round" stroke-linejoin="round" stroke-width="1.103"/>
        <path id="Trazado_802289" data-name="Trazado 802289" d="M273.5,361.428l-5.674-5.383s-8.416-1.451-17.964,4.919" transform="translate(9.699 66.741)" fill="none" stroke="#263238" stroke-linecap="round" stroke-linejoin="round" stroke-width="1.103"/>
        <path id="Trazado_802290" data-name="Trazado 802290" d="M262.24,366.911s7.052-23.217,14-35.1" transform="translate(15.283 55.874)" fill="none" stroke="#263238" stroke-linecap="round" stroke-linejoin="round" stroke-width="1.103"/>
        <path id="Trazado_802291" data-name="Trazado 802291" d="M302.344,285.55s-38.9,14.6-42.719,18.864-18.312,85.887-18.7,95.232c-.334,8.358,29.964,27.12,44.982,35.028" transform="translate(5.666 35.009)" fill="none" stroke="#263238" stroke-linecap="round" stroke-linejoin="round" stroke-width="1.103"/>
        <path id="Trazado_802292" data-name="Trazado 802292" d="M304.9,305.358a2.554,2.554,0,1,1-.748-1.82A2.568,2.568,0,0,1,304.9,305.358Z" transform="translate(32.206 42.785)" fill="#263238"/>
        <path id="Trazado_802293" data-name="Trazado 802293" d="M362.479,400.07H273.965a2.075,2.075,0,0,1-2.075-2.075h0a2.075,2.075,0,0,1,2.075-2.075h88.514a2.075,2.075,0,0,1,2.075,2.075h0A2.075,2.075,0,0,1,362.479,400.07Z" transform="translate(19.635 84.791)" fill="#263238"/>
        <path id="Trazado_802294" data-name="Trazado 802294" d="M368.579,413.544l11.855-55.72a5.92,5.92,0,0,0-5.8-7.154H271.17a5.92,5.92,0,0,0-5.8,7.081L276,411.614a5.92,5.92,0,0,0,5.674,4.774l80.954,1.857a5.949,5.949,0,0,0,5.949-4.7Z" transform="translate(16.641 64.381)" fill="#fff" stroke="#263238" stroke-linecap="round" stroke-linejoin="round" stroke-width="1.103"/>
        <path id="Trazado_802295" data-name="Trazado 802295" d="M315.573,375.4a8.256,8.256,0,1,1-2.413-5.848,8.256,8.256,0,0,1,2.413,5.848Z" transform="translate(31.89 71.805)" fill="#263238"/>
        <line id="Línea_1688" data-name="Línea 1688" x2="12.29" transform="translate(363.7 420.376)" fill="none" stroke="#263238" stroke-linecap="round" stroke-linejoin="round" stroke-width="1.103"/>
        <line id="Línea_1689" data-name="Línea 1689" x2="46.651" transform="translate(305.006 420.376)" fill="none" stroke="#263238" stroke-linecap="round" stroke-linejoin="round" stroke-width="1.103"/>
        <path id="Trazado_802296" data-name="Trazado 802296" d="M383.38,458.019l-9.432,24.755s-24.058-6.065-54.864-12.377c-32.228-6.6-65.877-15.149-83.334-45.78-2.119-3.729-3.541-8.14-2.539-12.319,2.51-10.578,16.281-13.451,25.35-14.51a165.277,165.277,0,0,1,17.166-.958c2.9,0,12.552-1.582,14.888.145A68.4,68.4,0,0,0,301.8,403.6c5.151,2.191,80.344-1.959,80.344-1.959a26.974,26.974,0,0,0,2.365-9.04c11.826-6.007,39.178-11.086,50.787-8.837,18.182,3.526,28.789,14.133,26.772,25.248S419.889,449.937,383.38,458.019Z" transform="translate(2.042 79.065)" fill="#263238"/>
        <path id="Trazado_802297" data-name="Trazado 802297" d="M367.966,448.242s-22.883-6.065-41.572-18.69-33.287-27.28-59.333-24.247" transform="translate(17.457 88.842)" fill="none" stroke="#fff" stroke-linecap="round" stroke-linejoin="round" stroke-width="1.103"/>
        <path id="Trazado_802298" data-name="Trazado 802298" d="M305,432.1c11.812-3.4,20.474-11.042,29.95-18.37A202.6,202.6,0,0,1,367,392.66" transform="translate(34.57 83.32)" fill="none" stroke="#fff" stroke-linecap="round" stroke-linejoin="round" stroke-width="1.103"/>
        <line id="Línea_1690" data-name="Línea 1690" x2="3.468" transform="translate(335.405 271.949)" fill="none" stroke="#263238" stroke-linecap="round" stroke-linejoin="round" stroke-width="1.103"/>
      </g>
    </g>
  </g>
</svg>
