<svg id="Grupo_1066695" data-name="Grupo 1066695" xmlns="http://www.w3.org/2000/svg" xmlns:xlink="http://www.w3.org/1999/xlink" width="396.547" height="458" viewBox="0 0 396.547 458">
  <defs>
    <clipPath id="clip-path">
      <rect id="Rect치ngulo_375504" data-name="Rect치ngulo 375504" width="396.547" height="458" fill="none"/>
    </clipPath>
    <clipPath id="clip-path-3">
      <rect id="Rect치ngulo_375483" data-name="Rect치ngulo 375483" width="389.938" height="319.3" fill="none"/>
    </clipPath>
  </defs>
  <g id="Grupo_1066694" data-name="Grupo 1066694" clip-path="url(#clip-path)">
    <g id="Grupo_1066670" data-name="Grupo 1066670">
      <g id="Grupo_1066669" data-name="Grupo 1066669" clip-path="url(#clip-path)">
        <path id="Trazado_805706" data-name="Trazado 805706" d="M389.817,186.11c1.734-46.9-15.123-94.364-52.26-116.96-18.338-11.157-39.774-17.685-61.218-16.725-23,1.03-44.668,10.393-66.368,18.1s-45.186,13.9-67.551,8.418C126.233,74.973,112,65.18,95.944,60.714c-63.038-17.536-117.964,54.038-87.1,110.9,7.575,13.955,19.265,25.142,29.063,37.636s18.05,27.568,16.73,43.392c-1.09,13.1-8.562,24.767-11.65,37.54-5.915,24.464,5.811,51.384,26.092,66.289s47.639,18.427,72.05,12.3,45.967-21.155,62.925-39.753c9.078-9.957,17.926-21.6,30.97-24.984,12.506-3.244,25.409,2.03,38.1,4.455A87.722,87.722,0,0,0,340.8,293.088C371.5,270.421,388.25,228.5,389.817,186.11" transform="translate(0 6.926)" fill="#d1acff"/>
      </g>
    </g>
    <g id="Grupo_1066675" data-name="Grupo 1066675">
      <g id="Grupo_1066674" data-name="Grupo 1066674" clip-path="url(#clip-path)">
        <path id="Trazado_805708" data-name="Trazado 805708" d="M344.976,375.952c0,20.554-68.548,37.217-153.1,37.217S38.765,396.506,38.765,375.952s68.548-37.217,153.106-37.217,153.1,16.663,153.1,37.217" transform="translate(5.131 44.831)" fill="#f2e8ff"/>
      </g>
    </g>
    <g id="Grupo_1066677" data-name="Grupo 1066677">
      <g id="Grupo_1066676" data-name="Grupo 1066676" clip-path="url(#clip-path)">
        <path id="Trazado_805710" data-name="Trazado 805710" d="M36.691,149.583a.567.567,0,0,1-.254-.06l-1.012-.508a.567.567,0,0,1,.51-1.012l1.011.508a.566.566,0,0,1-.255,1.072" transform="translate(4.647 19.58)" fill="#263238"/>
        <path id="Trazado_805711" data-name="Trazado 805711" d="M189.9,226.539a.558.558,0,0,1-.254-.061l-2.02-1.016a.565.565,0,1,1,.508-1.01l2.021,1.013a.567.567,0,0,1-.256,1.073m-4.04-2.029a.572.572,0,0,1-.255-.06l-2.02-1.017a.566.566,0,1,1,.51-1.01l2.02,1.015a.566.566,0,0,1-.255,1.072m-4.041-2.03a.567.567,0,0,1-.254-.06l-2.021-1.015a.567.567,0,0,1,.51-1.013l2.02,1.015a.567.567,0,0,1-.255,1.073m-4.041-2.03a.562.562,0,0,1-.253-.06l-2.021-1.013a.567.567,0,0,1,.507-1.013l2.021,1.013a.567.567,0,0,1-.255,1.073m-4.04-2.029a.559.559,0,0,1-.255-.061l-2.02-1.013a.566.566,0,0,1,.508-1.012l2.021,1.015a.566.566,0,0,1-.255,1.072m-4.041-2.03a.567.567,0,0,1-.254-.06l-2.021-1.015a.567.567,0,0,1,.51-1.012l2.02,1.016a.566.566,0,0,1-.255,1.071m-4.041-2.03a.567.567,0,0,1-.254-.06l-2.02-1.013a.567.567,0,0,1,.507-1.013l2.02,1.015a.566.566,0,0,1-.254,1.072m-4.04-2.029a.572.572,0,0,1-.255-.06l-2.02-1.015a.567.567,0,0,1,.508-1.013l2.021,1.016a.566.566,0,0,1-.255,1.072m-4.041-2.03a.551.551,0,0,1-.254-.061l-2.021-1.015a.566.566,0,1,1,.51-1.011l2.02,1.016a.566.566,0,0,1-.255,1.071m-4.041-2.029a.554.554,0,0,1-.254-.061l-2.02-1.015a.566.566,0,1,1,.508-1.011l2.02,1.016a.566.566,0,0,1-.255,1.071m-4.041-2.03a.554.554,0,0,1-.254-.061l-2.02-1.015a.566.566,0,1,1,.508-1.011l2.02,1.015a.566.566,0,0,1-.255,1.072m-4.04-2.03a.572.572,0,0,1-.255-.06l-2.02-1.015a.566.566,0,0,1,.508-1.012l2.021,1.016a.566.566,0,0,1-.255,1.071m-4.041-2.029a.567.567,0,0,1-.254-.06l-2.021-1.016a.566.566,0,1,1,.508-1.011l2.021,1.015a.566.566,0,0,1-.255,1.072m-4.041-2.03a.567.567,0,0,1-.254-.06l-2.02-1.015a.566.566,0,1,1,.508-1.012l2.02,1.015a.566.566,0,0,1-.255,1.072m-4.041-2.03a.567.567,0,0,1-.254-.06l-2.02-1.015a.566.566,0,0,1,.508-1.012l2.02,1.016a.566.566,0,0,1-.255,1.071m-4.04-2.029a.567.567,0,0,1-.254-.06l-2.021-1.016a.566.566,0,1,1,.508-1.011l2.021,1.015a.566.566,0,0,1-.255,1.072m-4.041-2.029a.568.568,0,0,1-.254-.061l-2.021-1.015a.566.566,0,0,1,.508-1.012l2.021,1.016a.566.566,0,0,1-.255,1.072m-4.041-2.03a.569.569,0,0,1-.254-.061l-2.02-1.015a.566.566,0,0,1,.508-1.011l2.02,1.015a.566.566,0,0,1-.255,1.072M117.158,190a.567.567,0,0,1-.254-.06l-2.02-1.015a.566.566,0,0,1,.508-1.012l2.02,1.015a.566.566,0,0,1-.255,1.072m-4.041-2.029a.554.554,0,0,1-.254-.061l-2.02-1.015a.566.566,0,0,1,.508-1.012l2.02,1.016a.566.566,0,0,1-.255,1.072m-4.04-2.03a.567.567,0,0,1-.254-.06l-2.021-1.016a.566.566,0,1,1,.508-1.011l2.021,1.015a.566.566,0,0,1-.255,1.072m-4.041-2.03a.567.567,0,0,1-.254-.06l-2.02-1.015a.566.566,0,0,1,.508-1.012l2.02,1.015a.566.566,0,0,1-.255,1.072m-4.041-2.029a.554.554,0,0,1-.254-.061l-2.02-1.015a.566.566,0,0,1,.508-1.011l2.02,1.015a.566.566,0,0,1-.255,1.072m-4.041-2.03a.571.571,0,0,1-.254-.06l-2.02-1.016a.566.566,0,1,1,.508-1.011l2.021,1.015a.566.566,0,0,1-.256,1.072m-4.04-2.029a.554.554,0,0,1-.254-.061l-2.021-1.015a.566.566,0,0,1,.508-1.012l2.021,1.016a.566.566,0,0,1-.255,1.072m-4.041-2.03a.559.559,0,0,1-.253-.06L86.6,174.718a.566.566,0,1,1,.507-1.012l2.021,1.015a.566.566,0,0,1-.255,1.072m-4.041-2.03a.567.567,0,0,1-.254-.06l-2.02-1.015a.566.566,0,0,1,.508-1.012l2.02,1.015a.566.566,0,0,1-.255,1.072m-4.04-2.029a.572.572,0,0,1-.255-.06l-2.02-1.016a.566.566,0,0,1,.508-1.011l2.021,1.015a.566.566,0,0,1-.255,1.072m-4.041-2.03a.564.564,0,0,1-.254-.06l-2.021-1.015a.567.567,0,1,1,.51-1.012L77,168.632a.566.566,0,0,1-.255,1.071m-4.041-2.029a.567.567,0,0,1-.254-.06l-2.02-1.016a.566.566,0,1,1,.508-1.011l2.02,1.015a.566.566,0,0,1-.255,1.072m-4.041-2.03a.563.563,0,0,1-.253-.06l-2.021-1.015a.566.566,0,1,1,.507-1.012l2.021,1.015a.566.566,0,0,1-.255,1.072m-4.04-2.03a.572.572,0,0,1-.255-.06l-2.02-1.015a.567.567,0,1,1,.51-1.012l2.02,1.016a.566.566,0,0,1-.255,1.071m-4.041-2.029a.567.567,0,0,1-.254-.06l-2.021-1.016a.566.566,0,1,1,.51-1.011l2.02,1.015a.566.566,0,0,1-.255,1.072m-4.041-2.03a.571.571,0,0,1-.254-.06l-2.02-1.015a.566.566,0,1,1,.508-1.012l2.02,1.016a.565.565,0,0,1-.255,1.071m-4.04-2.03a.564.564,0,0,1-.254-.06l-2.021-1.015a.566.566,0,0,1,.507-1.011l2.021,1.015a.565.565,0,0,1-.254,1.071m-4.041-2.029a.564.564,0,0,1-.254-.06l-2.021-1.016a.566.566,0,1,1,.51-1.011l2.02,1.015a.566.566,0,0,1-.255,1.072m-4.041-2.03a.567.567,0,0,1-.254-.06l-2.02-1.015a.566.566,0,1,1,.508-1.012l2.02,1.016a.566.566,0,0,1-.255,1.071m-4.041-2.029a.567.567,0,0,1-.254-.06l-2.02-1.016a.566.566,0,1,1,.508-1.011l2.02,1.015a.566.566,0,0,1-.255,1.072" transform="translate(5.002 19.758)" fill="#263238"/>
        <path id="Trazado_805712" data-name="Trazado 805712" d="M174.981,219.1a.57.57,0,0,1-.255-.061l-1.011-.508a.871.871,0,0,1,1.2-1.261l.557.986a.567.567,0,0,1-.494.845" transform="translate(22.95 28.718)" fill="#263238"/>
        <path id="Trazado_805713" data-name="Trazado 805713" d="M184.376,235.818a.566.566,0,0,1-.494-.288l-1.105-1.956a.566.566,0,1,1,.985-.557l1.105,1.954a.567.567,0,0,1-.491.846m-2.21-3.912a.564.564,0,0,1-.494-.286l-1.105-1.956a.566.566,0,1,1,.985-.557l1.105,1.954a.565.565,0,0,1-.214.772.558.558,0,0,1-.277.072m-2.21-3.91a.566.566,0,0,1-.494-.288l-1.105-1.956a.566.566,0,1,1,.986-.557l1.105,1.956a.565.565,0,0,1-.493.845m-2.21-3.911a.569.569,0,0,1-.494-.288l-1.105-1.956a.566.566,0,1,1,.986-.557l1.105,1.956a.565.565,0,0,1-.493.845m-2.21-3.911a.565.565,0,0,1-.494-.288l-1.105-1.954a.566.566,0,1,1,.985-.558l1.105,1.956a.565.565,0,0,1-.214.772.558.558,0,0,1-.277.072m-2.21-3.911a.564.564,0,0,1-.493-.286l-1.105-1.956a.566.566,0,1,1,.985-.558l1.105,1.956a.567.567,0,0,1-.214.772.575.575,0,0,1-.279.072m-2.21-3.911a.566.566,0,0,1-.494-.288l-1.105-1.956a.566.566,0,1,1,.985-.557l1.106,1.956a.566.566,0,0,1-.493.845m-2.21-3.91a.569.569,0,0,1-.494-.288L167.3,206.2a.566.566,0,1,1,.985-.557L169.4,207.6a.566.566,0,0,1-.491.845m-2.21-3.911a.567.567,0,0,1-.494-.288l-1.105-1.956a.566.566,0,0,1,.986-.557l1.105,1.956a.566.566,0,0,1-.215.771.559.559,0,0,1-.277.074m-2.21-3.911a.566.566,0,0,1-.494-.288l-1.105-1.956a.566.566,0,0,1,.986-.557l1.105,1.956a.566.566,0,0,1-.493.845m-2.21-3.911a.566.566,0,0,1-.494-.288l-1.105-1.956a.566.566,0,0,1,.985-.557l1.105,1.956a.566.566,0,0,1-.491.845m-2.21-3.911a.565.565,0,0,1-.494-.288l-1.105-1.956a.566.566,0,0,1,.986-.557l1.105,1.956a.566.566,0,0,1-.493.845m-2.21-3.911a.563.563,0,0,1-.493-.288l-1.106-1.954a.566.566,0,0,1,.986-.557l1.105,1.954a.566.566,0,0,1-.493.845m-2.21-3.91a.569.569,0,0,1-.494-.288l-1.105-1.956a.566.566,0,0,1,.985-.558l1.105,1.957a.566.566,0,0,1-.491.845m-2.21-3.911a.567.567,0,0,1-.494-.288l-1.105-1.956a.566.566,0,1,1,.986-.557l1.105,1.954a.567.567,0,0,1-.215.772.56.56,0,0,1-.277.074m-2.21-3.911a.563.563,0,0,1-.493-.288l-1.106-1.956a.566.566,0,0,1,.986-.557l1.105,1.956a.566.566,0,0,1-.493.845m-2.21-3.911a.566.566,0,0,1-.494-.288L147.412,171a.566.566,0,0,1,.985-.557L149.5,172.4a.566.566,0,0,1-.493.845m-2.21-3.911a.565.565,0,0,1-.494-.288l-1.105-1.956a.566.566,0,0,1,.985-.557l1.105,1.956a.566.566,0,0,1-.491.845m-2.21-3.91a.565.565,0,0,1-.493-.288l-1.105-1.956a.566.566,0,1,1,.985-.558l1.105,1.956a.567.567,0,0,1-.493.846m-2.21-3.912a.567.567,0,0,1-.494-.286l-1.105-1.956a.566.566,0,1,1,.985-.558l1.106,1.956a.567.567,0,0,1-.214.772.578.578,0,0,1-.279.072m-2.21-3.91a.566.566,0,0,1-.494-.288l-1.105-1.956a.566.566,0,1,1,.985-.557l1.105,1.956a.566.566,0,0,1-.491.845m-2.21-3.911a.567.567,0,0,1-.494-.288l-1.105-1.956a.566.566,0,1,1,.986-.557l1.105,1.956a.565.565,0,0,1-.215.771.56.56,0,0,1-.277.074m-2.21-3.911a.566.566,0,0,1-.494-.288l-1.105-1.956a.566.566,0,0,1,.986-.557l1.105,1.956a.566.566,0,0,1-.493.845m-2.21-3.911a.566.566,0,0,1-.494-.288l-1.105-1.954a.566.566,0,1,1,.985-.558l1.105,1.956a.566.566,0,0,1-.491.845m-2.21-3.911a.566.566,0,0,1-.494-.286l-1.105-1.957a.566.566,0,0,1,.986-.557l1.105,1.956a.566.566,0,0,1-.493.845m-2.21-3.911a.563.563,0,0,1-.493-.288l-1.106-1.954a.566.566,0,0,1,.986-.557l1.105,1.954a.566.566,0,0,1-.493.845m-2.21-3.91a.569.569,0,0,1-.494-.288l-1.105-1.956a.566.566,0,0,1,.985-.557l1.106,1.956a.566.566,0,0,1-.493.845m-2.21-3.911a.567.567,0,0,1-.494-.288l-1.105-1.956a.566.566,0,0,1,.985-.557l1.105,1.956a.566.566,0,0,1-.491.845m-2.21-3.911a.563.563,0,0,1-.493-.288l-1.105-1.956a.566.566,0,1,1,.985-.557l1.105,1.956a.566.566,0,0,1-.493.845m-2.21-3.911a.566.566,0,0,1-.494-.288l-1.105-1.956a.566.566,0,1,1,.985-.557l1.106,1.956a.566.566,0,0,1-.493.845m-2.21-3.911a.566.566,0,0,1-.494-.288l-1.105-1.956a.566.566,0,0,1,.985-.557l1.105,1.956a.566.566,0,0,1-.491.845m-2.21-3.911a.563.563,0,0,1-.493-.288l-1.105-1.954a.566.566,0,1,1,.985-.557l1.105,1.954a.566.566,0,0,1-.493.845m-2.21-3.91a.569.569,0,0,1-.494-.288l-1.105-1.956a.567.567,0,1,1,.986-.558l1.105,1.956a.567.567,0,0,1-.493.846m-2.21-3.911a.566.566,0,0,1-.494-.288l-1.105-1.956a.566.566,0,0,1,.985-.557l1.105,1.956a.566.566,0,0,1-.491.845m-2.21-3.911a.565.565,0,0,1-.494-.288l-1.105-1.956a.566.566,0,1,1,.986-.557L109.717,102a.565.565,0,0,1-.215.771.559.559,0,0,1-.277.074m-2.21-3.911a.563.563,0,0,1-.493-.288l-1.106-1.956a.566.566,0,0,1,.986-.557l1.105,1.956a.566.566,0,0,1-.493.845m-2.21-3.911a.566.566,0,0,1-.494-.288L103.2,92.779a.566.566,0,1,1,.985-.557l1.105,1.956a.566.566,0,0,1-.491.845m-2.21-3.91a.567.567,0,0,1-.494-.288l-1.105-1.956a.567.567,0,0,1,.986-.558l1.105,1.956a.567.567,0,0,1-.215.772.56.56,0,0,1-.277.074m-2.21-3.912a.564.564,0,0,1-.493-.286l-1.106-1.957a.566.566,0,0,1,.986-.557l1.105,1.956a.566.566,0,0,1-.493.845m-2.21-3.91A.566.566,0,0,1,97.679,83l-1.105-1.956a.566.566,0,0,1,.985-.557l1.106,1.956a.566.566,0,0,1-.493.845m-2.21-3.911a.567.567,0,0,1-.494-.288l-1.105-1.956a.566.566,0,0,1,.985-.557l1.105,1.956a.566.566,0,0,1-.491.845m-2.21-3.911a.563.563,0,0,1-.493-.288l-1.105-1.956a.566.566,0,1,1,.985-.557l1.105,1.956a.566.566,0,0,1-.493.845m-2.21-3.911a.566.566,0,0,1-.494-.288l-1.105-1.954a.566.566,0,1,1,.985-.558l1.106,1.956a.566.566,0,0,1-.493.845" transform="translate(11.894 9.062)" fill="#263238"/>
        <path id="Trazado_805714" data-name="Trazado 805714" d="M89.525,67.99a.566.566,0,0,1-.494-.288l-.557-.986a.566.566,0,1,1,.985-.557l.558.986a.566.566,0,0,1-.493.845" transform="translate(11.7 8.718)" fill="#263238"/>
        <path id="Trazado_805715" data-name="Trazado 805715" d="M313.1,149.583a.566.566,0,0,1-.255-1.072l1.012-.508a.566.566,0,1,1,.508,1.012l-1.011.508a.572.572,0,0,1-.255.06" transform="translate(41.364 19.58)" fill="#263238"/>
        <path id="Trazado_805716" data-name="Trazado 805716" d="M177.487,226.539a.567.567,0,0,1-.255-1.073l2.021-1.015a.566.566,0,0,1,.508,1.012l-2.021,1.016a.567.567,0,0,1-.254.06m4.04-2.029a.566.566,0,0,1-.254-1.072l2.02-1.015a.565.565,0,1,1,.508,1.01l-2.02,1.017a.565.565,0,0,1-.255.06m4.041-2.03a.566.566,0,0,1-.255-1.072l2.02-1.015a.566.566,0,0,1,.51,1.011l-2.021,1.015a.551.551,0,0,1-.254.061m4.041-2.03a.567.567,0,0,1-.255-1.073l2.021-1.013a.567.567,0,0,1,.508,1.013l-2.02,1.013a.572.572,0,0,1-.255.06m4.04-2.029a.566.566,0,0,1-.254-1.072l2.02-1.015a.566.566,0,0,1,.508,1.012l-2.02,1.013a.552.552,0,0,1-.255.061m4.041-2.03a.566.566,0,0,1-.255-1.072l2.021-1.016a.567.567,0,0,1,.51,1.013l-2.022,1.015a.564.564,0,0,1-.254.06m4.041-2.03a.566.566,0,0,1-.254-1.072l2.02-1.015a.567.567,0,1,1,.508,1.013l-2.02,1.013a.572.572,0,0,1-.255.06m4.04-2.029a.566.566,0,0,1-.254-1.071l2.02-1.016a.566.566,0,1,1,.508,1.011l-2.02,1.015a.552.552,0,0,1-.255.061m4.042-2.03a.566.566,0,0,1-.255-1.071l2.02-1.016a.566.566,0,0,1,.51,1.011l-2.021,1.015a.551.551,0,0,1-.254.061m4.04-2.029a.566.566,0,0,1-.254-1.071l2.02-1.016a.566.566,0,0,1,.508,1.011l-2.02,1.015a.555.555,0,0,1-.255.061m4.041-2.03a.566.566,0,0,1-.255-1.072l2.021-1.015a.566.566,0,1,1,.508,1.011l-2.021,1.016a.564.564,0,0,1-.254.06m4.041-2.03a.566.566,0,0,1-.255-1.071l2.02-1.016a.567.567,0,1,1,.51,1.012l-2.021,1.015a.564.564,0,0,1-.254.06m4.04-2.029a.566.566,0,0,1-.254-1.072l2.02-1.015a.566.566,0,0,1,.508,1.011l-2.02,1.016a.569.569,0,0,1-.255.06m4.041-2.03a.566.566,0,0,1-.255-1.072l2.021-1.015a.566.566,0,1,1,.508,1.012l-2.021,1.015a.564.564,0,0,1-.254.06m4.041-2.03a.566.566,0,0,1-.255-1.071l2.021-1.016a.566.566,0,0,1,.508,1.012l-2.02,1.015a.572.572,0,0,1-.255.06m4.04-2.029a.566.566,0,0,1-.254-1.072l2.02-1.015a.566.566,0,0,1,.508,1.011l-2.02,1.016a.568.568,0,0,1-.255.06m4.042-2.029a.566.566,0,0,1-.255-1.072l2.02-1.016a.566.566,0,1,1,.508,1.012L242.4,194a.565.565,0,0,1-.254.061m4.04-2.03a.566.566,0,0,1-.255-1.072l2.021-1.015a.566.566,0,1,1,.508,1.011l-2.02,1.015a.573.573,0,0,1-.255.061m4.04-2.03a.566.566,0,0,1-.254-1.072l2.021-1.015a.566.566,0,1,1,.508,1.012l-2.021,1.015a.565.565,0,0,1-.255.06m4.043-2.029a.566.566,0,0,1-.255-1.072l2.02-1.016a.566.566,0,0,1,.508,1.012l-2.02,1.015a.551.551,0,0,1-.254.061m4.04-2.03a.567.567,0,0,1-.255-1.072l2.021-1.015a.566.566,0,1,1,.508,1.011l-2.02,1.016a.571.571,0,0,1-.255.06m4.041-2.03a.566.566,0,0,1-.254-1.072l2.02-1.015a.566.566,0,1,1,.508,1.012l-2.02,1.015a.565.565,0,0,1-.255.06m4.041-2.029a.566.566,0,0,1-.255-1.072l2.02-1.015a.566.566,0,1,1,.51,1.011l-2.021,1.015a.551.551,0,0,1-.254.061m4.04-2.03a.566.566,0,0,1-.255-1.072l2.022-1.015a.566.566,0,1,1,.508,1.011l-2.021,1.016a.572.572,0,0,1-.255.06m4.041-2.029a.566.566,0,0,1-.254-1.072l2.02-1.016a.566.566,0,0,1,.508,1.012l-2.02,1.015a.552.552,0,0,1-.255.061m4.041-2.03a.566.566,0,0,1-.255-1.072l2.02-1.015a.567.567,0,0,1,.51,1.012l-2.021,1.015a.564.564,0,0,1-.254.06m4.04-2.03a.566.566,0,0,1-.254-1.072l2.021-1.015a.566.566,0,1,1,.508,1.012l-2.021,1.015a.568.568,0,0,1-.255.06m4.041-2.029a.566.566,0,0,1-.254-1.072l2.02-1.015a.566.566,0,0,1,.508,1.011l-2.02,1.016a.565.565,0,0,1-.255.06m4.041-2.03a.566.566,0,0,1-.255-1.071l2.02-1.016a.567.567,0,0,1,.51,1.012l-2.021,1.015a.564.564,0,0,1-.254.06m4.041-2.029a.566.566,0,0,1-.254-1.072l2.02-1.015a.566.566,0,0,1,.508,1.011l-2.02,1.016a.569.569,0,0,1-.255.06m4.041-2.03a.566.566,0,0,1-.255-1.072l2.02-1.015a.566.566,0,1,1,.508,1.012l-2.02,1.015a.564.564,0,0,1-.254.06m4.04-2.03a.566.566,0,0,1-.255-1.071l2.021-1.016a.567.567,0,0,1,.51,1.012l-2.021,1.015a.572.572,0,0,1-.255.06m4.041-2.029a.566.566,0,0,1-.254-1.072l2.02-1.015a.566.566,0,1,1,.508,1.011l-2.02,1.016a.568.568,0,0,1-.255.06m4.041-2.03a.566.566,0,0,1-.255-1.071l2.02-1.016a.566.566,0,1,1,.508,1.012l-2.02,1.015a.563.563,0,0,1-.254.06m4.041-2.03a.566.566,0,0,1-.255-1.071l2.021-1.015a.566.566,0,1,1,.508,1.011l-2.02,1.015a.572.572,0,0,1-.255.06m4.04-2.029a.566.566,0,0,1-.254-1.072l2.02-1.015a.566.566,0,1,1,.508,1.011l-2.02,1.016a.568.568,0,0,1-.255.06m4.041-2.03a.565.565,0,0,1-.255-1.071l2.021-1.016a.566.566,0,1,1,.508,1.012l-2.021,1.015a.564.564,0,0,1-.254.06m4.041-2.029a.567.567,0,0,1-.255-1.072l2.021-1.015a.566.566,0,0,1,.508,1.011l-2.02,1.016a.572.572,0,0,1-.255.06" transform="translate(23.415 19.758)" fill="#263238"/>
        <path id="Trazado_805717" data-name="Trazado 805717" d="M174.809,219.1a.567.567,0,0,1-.494-.845l.558-.986a.871.871,0,0,1,1.2,1.261l-1.011.508a.57.57,0,0,1-.255.061" transform="translate(23.061 28.718)" fill="#263238"/>
        <path id="Trazado_805718" data-name="Trazado 805718" d="M176.277,235.817a.565.565,0,0,1-.493-.845l1.105-1.956a.566.566,0,1,1,.985.558l-1.105,1.954a.564.564,0,0,1-.493.288m2.21-3.911a.566.566,0,0,1-.493-.845l1.105-1.956a.566.566,0,0,1,.986.557l-1.106,1.956a.562.562,0,0,1-.493.288M180.7,228a.567.567,0,0,1-.494-.845l1.106-1.957a.566.566,0,0,1,.986.557l-1.106,1.957a.563.563,0,0,1-.493.288m2.21-3.911a.566.566,0,0,1-.493-.845l1.1-1.957a.566.566,0,0,1,.986.557l-1.1,1.957a.569.569,0,0,1-.494.288m2.21-3.911a.566.566,0,0,1-.493-.845l1.1-1.956a.566.566,0,0,1,.986.557l-1.1,1.956a.569.569,0,0,1-.494.288m2.21-3.911a.574.574,0,0,1-.279-.072.567.567,0,0,1-.214-.772l1.1-1.956a.566.566,0,1,1,.986.557l-1.1,1.956a.566.566,0,0,1-.494.288m2.211-3.911a.566.566,0,0,1-.494-.845l1.105-1.956a.566.566,0,0,1,.986.557l-1.105,1.956a.566.566,0,0,1-.493.288m2.209-3.911a.567.567,0,0,1-.494-.845l1.106-1.956a.566.566,0,0,1,.986.557l-1.106,1.956a.564.564,0,0,1-.493.288m2.21-3.911a.567.567,0,0,1-.494-.845l1.106-1.954a.566.566,0,0,1,.986.557l-1.106,1.954a.564.564,0,0,1-.493.288m2.21-3.91a.568.568,0,0,1-.494-.846l1.106-1.956a.567.567,0,1,1,.986.558l-1.105,1.956a.569.569,0,0,1-.494.288m2.21-3.912a.575.575,0,0,1-.279-.072.567.567,0,0,1-.214-.772l1.1-1.954a.566.566,0,1,1,.986.557l-1.1,1.956a.567.567,0,0,1-.494.286m2.21-3.91a.566.566,0,0,1-.493-.845L201.2,190a.566.566,0,1,1,.986.557l-1.1,1.956a.566.566,0,0,1-.494.288m2.21-3.911a.574.574,0,0,1-.279-.072.567.567,0,0,1-.214-.772l1.1-1.956a.567.567,0,0,1,.987.557L203.3,188.6a.566.566,0,0,1-.494.288m2.211-3.911a.582.582,0,0,1-.28-.072.567.567,0,0,1-.214-.772l1.105-1.956a.566.566,0,0,1,.986.557l-1.105,1.956a.566.566,0,0,1-.493.288m2.209-3.91a.568.568,0,0,1-.494-.846l1.106-1.956a.567.567,0,0,1,.986.558l-1.106,1.956a.567.567,0,0,1-.493.288m2.21-3.912a.567.567,0,0,1-.494-.845l1.106-1.956a.566.566,0,0,1,.986.557l-1.106,1.957a.564.564,0,0,1-.493.286m2.21-3.91a.567.567,0,0,1-.494-.845l1.106-1.956a.566.566,0,0,1,.986.557l-1.105,1.956a.566.566,0,0,1-.494.288m2.21-3.911a.566.566,0,0,1-.493-.845l1.1-1.956a.566.566,0,0,1,.986.557l-1.1,1.956a.569.569,0,0,1-.494.288m2.21-3.911a.575.575,0,0,1-.279-.072.567.567,0,0,1-.214-.772l1.1-1.956a.566.566,0,0,1,.986.557l-1.1,1.956a.566.566,0,0,1-.494.288m2.21-3.911a.581.581,0,0,1-.279-.072.567.567,0,0,1-.214-.772l1.105-1.956a.567.567,0,0,1,.986.558l-1.105,1.954a.566.566,0,0,1-.494.288m2.211-3.911a.575.575,0,0,1-.279-.072.567.567,0,0,1-.215-.772L221.1,154.8a.566.566,0,0,1,.986.557l-1.105,1.956a.566.566,0,0,1-.493.288m2.209-3.911a.567.567,0,0,1-.494-.845l1.106-1.954a.566.566,0,0,1,.986.557l-1.106,1.954a.564.564,0,0,1-.493.288m2.21-3.91a.567.567,0,0,1-.494-.845l1.106-1.956a.566.566,0,0,1,.986.557l-1.105,1.956a.569.569,0,0,1-.494.288m2.21-3.911a.567.567,0,0,1-.493-.846l1.105-1.954a.566.566,0,0,1,.986.557l-1.105,1.956a.57.57,0,0,1-.494.288m2.21-3.911a.566.566,0,0,1-.493-.845l1.1-1.956a.566.566,0,1,1,.986.557l-1.1,1.956a.566.566,0,0,1-.494.288m2.21-3.911a.575.575,0,0,1-.279-.072.567.567,0,0,1-.214-.772l1.1-1.956a.567.567,0,0,1,.987.557l-1.105,1.956a.566.566,0,0,1-.494.288m2.211-3.911a.582.582,0,0,1-.28-.072.567.567,0,0,1-.214-.772l1.105-1.956a.566.566,0,0,1,.986.557l-1.105,1.956a.566.566,0,0,1-.493.288m2.21-3.91a.567.567,0,0,1-.494-.845l1.105-1.957a.567.567,0,0,1,.986.558l-1.105,1.956a.567.567,0,0,1-.493.288m2.209-3.911a.568.568,0,0,1-.494-.846l1.106-1.956a.567.567,0,0,1,.986.558l-1.106,1.956a.565.565,0,0,1-.493.288m2.21-3.911a.567.567,0,0,1-.494-.845l1.106-1.956a.566.566,0,0,1,.986.557l-1.105,1.956a.566.566,0,0,1-.494.288m2.21-3.911a.566.566,0,0,1-.493-.845l1.105-1.956a.566.566,0,0,1,.986.557l-1.105,1.956a.569.569,0,0,1-.494.288m2.21-3.911a.574.574,0,0,1-.279-.072.567.567,0,0,1-.214-.772l1.1-1.956a.566.566,0,0,1,.986.557l-1.1,1.956a.566.566,0,0,1-.494.288m2.21-3.911a.578.578,0,0,1-.279-.072.567.567,0,0,1-.214-.772l1.105-1.956a.567.567,0,0,1,.986.558l-1.105,1.954a.566.566,0,0,1-.494.288m2.211-3.911a.575.575,0,0,1-.279-.072.567.567,0,0,1-.215-.772l1.105-1.956a.567.567,0,0,1,.986.558l-1.105,1.956a.567.567,0,0,1-.493.286m2.21-3.911a.575.575,0,0,1-.279-.072.567.567,0,0,1-.215-.772l1.105-1.954a.566.566,0,1,1,.986.557l-1.105,1.954a.563.563,0,0,1-.493.288m2.209-3.91a.567.567,0,0,1-.494-.845l1.106-1.956a.566.566,0,0,1,.986.557l-1.106,1.956a.565.565,0,0,1-.493.288m2.21-3.911a.566.566,0,0,1-.493-.845l1.105-1.956a.566.566,0,0,1,.986.557l-1.105,1.956a.57.57,0,0,1-.494.288m2.21-3.911a.566.566,0,0,1-.493-.845l1.105-1.956a.566.566,0,0,1,.986.557l-1.105,1.956a.566.566,0,0,1-.494.288m2.21-3.911a.566.566,0,0,1-.493-.845l1.1-1.956a.567.567,0,0,1,.987.557l-1.105,1.956a.566.566,0,0,1-.494.288m2.211-3.911a.582.582,0,0,1-.28-.072.567.567,0,0,1-.214-.772l1.105-1.956a.566.566,0,0,1,.986.557L262.974,83a.566.566,0,0,1-.493.288m2.21-3.91a.567.567,0,0,1-.494-.845l1.105-1.956a.566.566,0,1,1,.986.557l-1.105,1.956a.567.567,0,0,1-.493.288m2.21-3.911a.567.567,0,0,1-.494-.845l1.105-1.957a.567.567,0,1,1,.986.558L267.4,75.18a.565.565,0,0,1-.493.288m2.209-3.911a.567.567,0,0,1-.494-.845l1.106-1.956a.566.566,0,0,1,.986.557l-1.105,1.956a.566.566,0,0,1-.494.288" transform="translate(23.255 9.062)" fill="#263238"/>
        <path id="Trazado_805719" data-name="Trazado 805719" d="M260.213,67.99a.567.567,0,0,1-.494-.845l.558-.986a.566.566,0,0,1,.986.557l-.557.986a.566.566,0,0,1-.494.288" transform="translate(34.364 8.718)" fill="#263238"/>
        <path id="Trazado_805720" data-name="Trazado 805720" d="M174.863,219.12a.566.566,0,0,1-.566-.566v-1.132a.566.566,0,0,1,1.132,0v1.132a.566.566,0,0,1-.566.566" transform="translate(23.068 28.701)" fill="#263238"/>
        <path id="Trazado_805721" data-name="Trazado 805721" d="M174.863,239.2a.566.566,0,0,1-.566-.566v-2.285a.566.566,0,0,1,1.132,0v2.285a.566.566,0,0,1-.566.566m0-4.571a.566.566,0,0,1-.566-.566v-2.284a.566.566,0,0,1,1.132,0v2.284a.566.566,0,0,1-.566.566m0-4.569a.566.566,0,0,1-.566-.566v-2.285a.566.566,0,0,1,1.132,0V229.5a.566.566,0,0,1-.566.566m0-4.57a.566.566,0,0,1-.566-.566v-2.284a.566.566,0,0,1,1.132,0v2.284a.566.566,0,0,1-.566.566m0-4.569a.567.567,0,0,1-.566-.567v-2.285a.566.566,0,0,1,1.132,0v2.285a.567.567,0,0,1-.566.567m0-4.571a.566.566,0,0,1-.566-.566V213.5a.566.566,0,0,1,1.132,0v2.284a.566.566,0,0,1-.566.566m0-4.569a.566.566,0,0,1-.566-.566v-2.285a.566.566,0,0,1,1.132,0v2.285a.566.566,0,0,1-.566.566m0-4.57a.566.566,0,0,1-.566-.566v-2.285a.566.566,0,0,1,1.132,0v2.285a.566.566,0,0,1-.566.566m0-4.57a.566.566,0,0,1-.566-.566v-2.285a.566.566,0,0,1,1.132,0v2.285a.566.566,0,0,1-.566.566m0-4.57a.566.566,0,0,1-.566-.566v-2.285a.566.566,0,0,1,1.132,0v2.285a.566.566,0,0,1-.566.566m0-4.57a.566.566,0,0,1-.566-.566v-2.284a.566.566,0,1,1,1.132,0v2.284a.566.566,0,0,1-.566.566m0-4.57a.566.566,0,0,1-.566-.566v-2.285a.566.566,0,0,1,1.132,0v2.285a.566.566,0,0,1-.566.566m0-4.569a.566.566,0,0,1-.566-.566v-2.285a.566.566,0,0,1,1.132,0V183.8a.566.566,0,0,1-.566.566m0-4.57a.566.566,0,0,1-.566-.566v-2.285a.566.566,0,0,1,1.132,0v2.285a.566.566,0,0,1-.566.566m0-4.57a.566.566,0,0,1-.566-.566v-2.285a.566.566,0,0,1,1.132,0v2.285a.566.566,0,0,1-.566.566m0-4.57a.566.566,0,0,1-.566-.566V167.8a.566.566,0,0,1,1.132,0v2.285a.566.566,0,0,1-.566.566m0-4.57a.566.566,0,0,1-.566-.566v-2.284a.566.566,0,0,1,1.132,0v2.284a.566.566,0,0,1-.566.566m0-4.569a.566.566,0,0,1-.566-.566v-2.285a.566.566,0,0,1,1.132,0v2.285a.566.566,0,0,1-.566.566m0-4.57a.566.566,0,0,1-.566-.566v-2.285a.566.566,0,1,1,1.132,0v2.285a.566.566,0,0,1-.566.566m0-4.57a.566.566,0,0,1-.566-.566v-2.285a.566.566,0,1,1,1.132,0v2.285a.566.566,0,0,1-.566.566m0-4.57a.566.566,0,0,1-.566-.566v-2.285a.566.566,0,0,1,1.132,0v2.285a.566.566,0,0,1-.566.566m0-4.57a.566.566,0,0,1-.566-.566v-2.284a.566.566,0,0,1,1.132,0v2.284a.566.566,0,0,1-.566.566m0-4.57a.566.566,0,0,1-.566-.566v-2.285a.566.566,0,0,1,1.132,0V138.1a.566.566,0,0,1-.566.566m0-4.569a.566.566,0,0,1-.566-.566v-2.285a.566.566,0,0,1,1.132,0v2.285a.566.566,0,0,1-.566.566m0-4.57a.566.566,0,0,1-.566-.566v-2.285a.566.566,0,0,1,1.132,0v2.285a.566.566,0,0,1-.566.566m0-4.57a.566.566,0,0,1-.566-.566V122.1a.566.566,0,1,1,1.132,0v2.285a.566.566,0,0,1-.566.566m0-4.57a.566.566,0,0,1-.566-.566v-2.285a.566.566,0,0,1,1.132,0v2.285a.566.566,0,0,1-.566.566m0-4.57a.566.566,0,0,1-.566-.566v-2.285a.566.566,0,0,1,1.132,0v2.285a.566.566,0,0,1-.566.566m0-4.569a.566.566,0,0,1-.566-.566v-2.285a.566.566,0,0,1,1.132,0v2.285a.566.566,0,0,1-.566.566m0-4.571a.566.566,0,0,1-.566-.566v-2.284a.566.566,0,0,1,1.132,0v2.284a.566.566,0,0,1-.566.566m0-4.569a.566.566,0,0,1-.566-.566V99.254a.566.566,0,0,1,1.132,0v2.285a.566.566,0,0,1-.566.566m0-4.57a.566.566,0,0,1-.566-.566V94.684a.566.566,0,0,1,1.132,0v2.285a.566.566,0,0,1-.566.566m0-4.57a.566.566,0,0,1-.566-.566V90.114a.566.566,0,0,1,1.132,0V92.4a.566.566,0,0,1-.566.566m0-4.57a.566.566,0,0,1-.566-.566V85.544a.566.566,0,0,1,1.132,0v2.285a.566.566,0,0,1-.566.566m0-4.569a.566.566,0,0,1-.566-.566V80.975a.566.566,0,0,1,1.132,0V83.26a.566.566,0,0,1-.566.566m0-4.57a.566.566,0,0,1-.566-.566V76.4a.566.566,0,0,1,1.132,0v2.285a.566.566,0,0,1-.566.566m0-4.57a.566.566,0,0,1-.566-.566V71.834a.566.566,0,0,1,1.132,0v2.285a.566.566,0,0,1-.566.566m0-4.57a.566.566,0,0,1-.566-.566V67.264a.566.566,0,0,1,1.132,0v2.285a.566.566,0,0,1-.566.566m0-4.57a.566.566,0,0,1-.566-.566V62.694a.566.566,0,0,1,1.132,0v2.285a.566.566,0,0,1-.566.566m0-4.569a.566.566,0,0,1-.566-.566V58.124a.566.566,0,0,1,1.132,0V60.41a.566.566,0,0,1-.566.566m0-4.571a.566.566,0,0,1-.566-.566V53.555a.566.566,0,0,1,1.132,0v2.284a.566.566,0,0,1-.566.566m0-4.569a.566.566,0,0,1-.566-.566V48.985a.566.566,0,0,1,1.132,0V51.27a.566.566,0,0,1-.566.566m0-4.57a.566.566,0,0,1-.566-.566V44.414a.566.566,0,0,1,1.132,0V46.7a.566.566,0,0,1-.566.566m0-4.57a.566.566,0,0,1-.566-.566V39.844a.566.566,0,0,1,1.132,0v2.285a.566.566,0,0,1-.566.566" transform="translate(23.068 5.198)" fill="#263238"/>
        <path id="Trazado_805722" data-name="Trazado 805722" d="M174.863,38.525a.566.566,0,0,1-.566-.566V36.826a.566.566,0,0,1,1.132,0v1.132a.566.566,0,0,1-.566.566" transform="translate(23.068 4.799)" fill="#263238"/>
      </g>
    </g>
    <g id="Grupo_1066682" data-name="Grupo 1066682">
      <g id="Grupo_1066681" data-name="Grupo 1066681" clip-path="url(#clip-path)">
        <path id="Trazado_805723" data-name="Trazado 805723" d="M141.515,265.148l-.356,125.967a1.218,1.218,0,0,0,1.036,1.344,1.2,1.2,0,0,0,1.034-1.292L145.716,265.3Z" transform="translate(18.682 35.092)" fill="#fff"/>
        <path id="Trazado_805724" data-name="Trazado 805724" d="M142.261,393.093a1.466,1.466,0,0,1-1.035-.446,2.068,2.068,0,0,1-.566-1.466l.354-125.967a.569.569,0,0,1,.174-.407.577.577,0,0,1,.413-.159l4.2.155a.567.567,0,0,1,.545.578l-2.485,125.864a1.756,1.756,0,0,1-1.6,1.848M142.146,265.8l-.353,125.382a.949.949,0,0,0,.236.664.35.35,0,0,0,.233.113c.213,0,.456-.3.469-.742l2.475-125.3Z" transform="translate(18.616 35.026)" fill="#263238"/>
        <path id="Trazado_805725" data-name="Trazado 805725" d="M212.3,261.57l.3,109.932a1.029,1.029,0,0,1-.874,1.137,1.017,1.017,0,0,1-.874-1.093l-2.1-109.844Z" transform="translate(27.628 34.619)" fill="#fff"/>
        <path id="Trazado_805726" data-name="Trazado 805726" d="M211.789,373.271a1.567,1.567,0,0,1-1.439-1.642l-2.1-109.85a.567.567,0,0,1,.546-.576l3.548-.131a.577.577,0,0,1,.414.159.568.568,0,0,1,.173.407l.3,109.932a1.824,1.824,0,0,1-.505,1.3,1.322,1.322,0,0,1-.936.4m-2.4-110.958,2.089,109.29c.009.326.188.536.307.536a.209.209,0,0,0,.135-.07.709.709,0,0,0,.174-.5l-.3-109.346Z" transform="translate(27.562 34.553)" fill="#263238"/>
        <path id="Trazado_805727" data-name="Trazado 805727" d="M140.8,261.57l.3,109.932a1.029,1.029,0,0,1-.874,1.137,1.017,1.017,0,0,1-.874-1.093l-2.1-109.844Z" transform="translate(18.165 34.619)" fill="#fff"/>
        <path id="Trazado_805728" data-name="Trazado 805728" d="M140.29,373.271a1.567,1.567,0,0,1-1.44-1.643l-2.1-109.849a.566.566,0,0,1,.545-.576l3.549-.131a.543.543,0,0,1,.414.159.568.568,0,0,1,.173.407l.3,109.932a1.835,1.835,0,0,1-.5,1.3,1.326,1.326,0,0,1-.936.4m-2.4-110.958,2.09,109.29c.008.326.188.536.308.536a.212.212,0,0,0,.135-.07.716.716,0,0,0,.173-.5l-.3-109.346Z" transform="translate(18.099 34.553)" fill="#263238"/>
        <path id="Trazado_805729" data-name="Trazado 805729" d="M210.361,265.148l.354,125.967a1.217,1.217,0,0,1-1.035,1.344,1.2,1.2,0,0,1-1.034-1.292L206.16,265.3Z" transform="translate(27.285 35.092)" fill="#fff"/>
        <path id="Trazado_805730" data-name="Trazado 805730" d="M209.747,393.092a1.752,1.752,0,0,1-1.6-1.844L205.659,265.38a.567.567,0,0,1,.546-.576l4.2-.155a.594.594,0,0,1,.413.157.564.564,0,0,1,.173.408l.356,125.967a2.066,2.066,0,0,1-.565,1.464,1.463,1.463,0,0,1-1.036.447M206.8,265.914l2.476,125.308c.01.434.255.737.468.737a.343.343,0,0,0,.233-.113.948.948,0,0,0,.236-.662L209.861,265.8Z" transform="translate(27.219 35.026)" fill="#263238"/>
        <path id="Trazado_805731" data-name="Trazado 805731" d="M231.46,264.117c0,6.358-22.56,11.513-50.39,11.513s-50.39-5.154-50.39-11.513,22.56-11.513,50.39-11.513,50.39,5.154,50.39,11.513" transform="translate(17.296 33.432)" fill="#6b2dbb"/>
        <path id="Trazado_805732" data-name="Trazado 805732" d="M181.137,276.261c-25.048,0-50.956-4.518-50.956-12.079s25.908-12.078,50.956-12.078,50.956,4.517,50.956,12.078-25.908,12.079-50.956,12.079m0-23.024c-29.8,0-49.823,5.659-49.823,10.945s20.02,10.946,49.823,10.946,49.823-5.659,49.823-10.946-20.021-10.945-49.823-10.945" transform="translate(17.229 33.366)" fill="#263238"/>
        <path id="Trazado_805733" data-name="Trazado 805733" d="M150.938,221.271s-10.757,16.419-10.757,26.61,6.794,18.684,11.89,21.515,57.184.566,57.184.566,14.154-8.493,12.456-22.647c-1.417-11.8-10.757-25.478-10.757-25.478Z" transform="translate(18.553 29.285)" fill="#263238"/>
        <path id="Trazado_805734" data-name="Trazado 805734" d="M173.545,271.45c-10.445,0-19.624-.35-21.682-1.492-5.058-2.811-12.181-11.5-12.181-22.011,0-10.242,10.406-26.244,10.849-26.92a.568.568,0,0,1,.474-.256h0l60.015.566a.571.571,0,0,1,.463.247c.384.563,9.435,13.923,10.851,25.729,1.722,14.352-12.583,23.115-12.728,23.2a.566.566,0,0,1-.266.08c-1.284.056-19.991.856-35.8.856m-22.233-49.544c-1.357,2.128-10.5,16.824-10.5,26.041,0,10.054,6.782,18.344,11.6,21.02,3.91,2.173,38.731,1.281,56.735.5,1.345-.858,13.621-9.081,12.067-22.02-1.281-10.681-9.254-23.1-10.5-24.983Z" transform="translate(18.487 29.219)" fill="#263238"/>
        <path id="Trazado_805735" data-name="Trazado 805735" d="M170.331,359.771s-2.831,16.985-7.36,23.779-11.324,5.1-10.757-2.831,7.926-20.948,7.926-20.948Z" transform="translate(20.141 47.615)" fill="#fff"/>
        <path id="Trazado_805736" data-name="Trazado 805736" d="M156.784,388.418a4.616,4.616,0,0,1-1.509-.248c-2.5-.855-3.831-3.631-3.559-7.424.568-7.963,7.694-20.651,8-21.187a.564.564,0,0,1,.493-.288H170.4a.567.567,0,0,1,.558.659c-.117.7-2.9,17.183-7.447,24-1.9,2.855-4.412,4.487-6.725,4.487M160.54,360.4c-1.072,1.952-7.19,13.358-7.7,20.422-.231,3.25.813,5.595,2.8,6.273,2.175.743,4.893-.746,6.927-3.8,3.909-5.864,6.581-19.715,7.156-22.9Z" transform="translate(20.075 47.549)" fill="#263238"/>
        <path id="Trazado_805737" data-name="Trazado 805737" d="M152.912,376.388c.024,2.658.819,5.477,3.808,6.533,3.809,1.344,7.615-4.4,10.344-9.439a130.428,130.428,0,0,0,3.172-13.709H160.045s-5.1,9.02-7.133,16.616" transform="translate(20.238 47.616)" fill="#263238"/>
        <path id="Trazado_805738" data-name="Trazado 805738" d="M157.939,383.754a4.015,4.015,0,0,1-1.341-.233c-2.705-.955-4.152-3.4-4.186-7.061a.575.575,0,0,1,.019-.152c2.031-7.578,7.135-16.658,7.186-16.749a.566.566,0,0,1,.494-.288H170.3a.566.566,0,0,1,.558.659,131.992,131.992,0,0,1-3.188,13.778.529.529,0,0,1-.045.108c-2.379,4.391-5.864,9.938-9.688,9.938m-4.394-7.228c.048,3.146,1.2,5.14,3.43,5.926,2.635.933,5.79-2.051,9.628-9.122a130.151,130.151,0,0,0,3.023-12.926h-9.183c-.873,1.589-5.094,9.452-6.9,16.122" transform="translate(20.172 47.549)" fill="#263238"/>
        <path id="Trazado_805739" data-name="Trazado 805739" d="M165.093,235.771s10.757,6.794,13.588,15.287-6.228,125.125-6.228,125.125H162.262s-4.529-47.559-7.926-63.978,1.7-38.5,1.7-41.9-14.721,3.963-15.853-24.346" transform="translate(18.553 31.204)" fill="#263238"/>
        <path id="Trazado_805740" data-name="Trazado 805740" d="M172.519,376.815H162.328a.567.567,0,0,1-.564-.512c-.045-.476-4.565-47.716-7.917-63.917-2.642-12.771-.234-28.621,1.059-37.138.365-2.4.628-4.142.628-4.875,0-.358-.6-.495-1.977-.72-4.226-.692-13.016-2.134-13.876-23.6a.568.568,0,0,1,.544-.589.586.586,0,0,1,.589.544c.822,20.546,8.7,21.837,12.927,22.531,1.569.257,2.926.48,2.926,1.837a48.707,48.707,0,0,1-.642,5.045c-1.282,8.446-3.669,24.168-1.068,36.737,3.174,15.346,7.384,58.332,7.886,63.527h9.153c.655-8.505,8.882-116.377,6.215-124.38-2.733-8.2-13.247-14.921-13.354-14.987a.566.566,0,1,1,.6-.958c.446.282,10.961,7,13.823,15.587,2.835,8.5-5.829,120.581-6.2,125.348a.567.567,0,0,1-.565.522" transform="translate(18.487 31.138)" fill="#263238"/>
        <path id="Trazado_805741" data-name="Trazado 805741" d="M182.681,359.771s2.831,16.985,7.36,23.779,11.324,5.1,10.757-2.831-7.926-20.948-7.926-20.948Z" transform="translate(24.178 47.615)" fill="#fff"/>
        <path id="Trazado_805742" data-name="Trazado 805742" d="M196.361,388.418c-2.313,0-4.822-1.633-6.725-4.487-4.544-6.817-7.331-23.3-7.447-24a.565.565,0,0,1,.558-.659h10.191a.567.567,0,0,1,.494.288c.3.537,7.428,13.225,8,21.187.272,3.792-1.059,6.569-3.558,7.424a4.627,4.627,0,0,1-1.511.248M183.422,360.4c.575,3.184,3.246,17.035,7.156,22.9,2.033,3.049,4.75,4.541,6.927,3.8,1.983-.678,3.027-3.023,2.795-6.273-.5-7.064-6.621-18.47-7.7-20.422Z" transform="translate(24.112 47.549)" fill="#263238"/>
        <path id="Trazado_805743" data-name="Trazado 805743" d="M195.819,382.185c2.795,0,4.058-1.825,4.57-4.2-1.67-7.863-7.517-18.212-7.517-18.212H182.681s.955,5.715,2.638,11.841c2.586,4.859,6.48,10.573,10.5,10.573" transform="translate(24.178 47.615)" fill="#263238"/>
        <path id="Trazado_805744" data-name="Trazado 805744" d="M195.885,382.817c-3.457,0-7.158-3.658-11-10.872a.569.569,0,0,1-.046-.117c-1.671-6.083-2.639-11.841-2.65-11.9a.566.566,0,0,1,.558-.66h10.191a.567.567,0,0,1,.494.288c.24.426,5.907,10.516,7.578,18.374a.538.538,0,0,1,0,.237c-.666,3.086-2.389,4.648-5.124,4.648m-9.97-11.35c2.5,4.675,6.242,10.217,9.97,10.217,2.154,0,3.424-1.156,3.992-3.637-1.509-6.947-6.331-15.932-7.272-17.644h-9.182c.3,1.667,1.174,6.259,2.492,11.064" transform="translate(24.112 47.549)" fill="#263238"/>
        <path id="Trazado_805745" data-name="Trazado 805745" d="M190.362,235.771s-10.757,6.794-13.588,15.287S183,376.182,183,376.182h10.191s4.529-47.559,7.926-63.978-1.7-38.5-1.7-41.9,16.386,3.4,17.519-24.912" transform="translate(23.323 31.204)" fill="#263238"/>
        <path id="Trazado_805746" data-name="Trazado 805746" d="M193.258,376.815H183.067a.565.565,0,0,1-.564-.522c-.37-4.767-9.036-116.844-6.2-125.348,2.861-8.585,13.376-15.3,13.823-15.587a.566.566,0,0,1,.6.958c-.105.066-10.62,6.787-13.354,14.987-2.667,8,5.562,115.874,6.215,124.38h9.153c.5-5.2,4.712-48.181,7.887-63.527,2.6-12.569.213-28.291-1.07-36.737a48.924,48.924,0,0,1-.641-5.045c0-1.349,1.409-1.6,3.193-1.928,4.719-.858,13.5-2.454,14.325-23.006a.591.591,0,0,1,.588-.544.568.568,0,0,1,.545.589c-.859,21.459-10.583,23.224-15.255,24.074-1.214.222-2.264.412-2.264.815,0,.733.264,2.471.63,4.875,1.292,8.516,3.7,24.367,1.056,37.138-3.352,16.2-7.871,63.441-7.916,63.917a.566.566,0,0,1-.564.512" transform="translate(23.258 31.138)" fill="#263238"/>
        <path id="Trazado_805747" data-name="Trazado 805747" d="M62.879,231.605l-.558,137.266a1.628,1.628,0,0,0,3.254.065l3.909-137.141Z" transform="translate(8.248 30.653)" fill="#fff"/>
        <path id="Trazado_805748" data-name="Trazado 805748" d="M64.013,371.138a2.192,2.192,0,0,1-2.193-2.2l.558-137.265a.568.568,0,0,1,.172-.4.535.535,0,0,1,.41-.16l6.606.188a.567.567,0,0,1,.549.583L66.207,369.017a2.186,2.186,0,0,1-2.193,2.121m-.5-138.884-.557,136.685a1.061,1.061,0,0,0,2.122.043L68.967,232.41Z" transform="translate(8.182 30.587)" fill="#263238"/>
        <path id="Trazado_805749" data-name="Trazado 805749" d="M54.712,259.938l-.558,141.921a1.628,1.628,0,0,0,3.254.063l3.909-141.8Z" transform="translate(7.167 34.403)" fill="#fff"/>
        <path id="Trazado_805750" data-name="Trazado 805750" d="M55.847,404.128a2.2,2.2,0,0,1-2.193-2.2L54.212,260a.568.568,0,0,1,.172-.4.554.554,0,0,1,.41-.16l6.606.189a.567.567,0,0,1,.549.582l-3.909,141.8a2.187,2.187,0,0,1-2.193,2.122m-.505-143.54-.556,141.34a1.061,1.061,0,0,0,2.122.043L60.8,260.744Z" transform="translate(7.101 34.336)" fill="#263238"/>
        <path id="Trazado_805751" data-name="Trazado 805751" d="M291.185,231.605l.558,137.266a1.628,1.628,0,0,1-3.254.065L284.58,231.794Z" transform="translate(37.664 30.653)" fill="#fff"/>
        <path id="Trazado_805752" data-name="Trazado 805752" d="M290.181,371.138a2.188,2.188,0,0,1-2.193-2.117l-3.909-137.146a.567.567,0,0,1,.55-.582l6.6-.188a.6.6,0,0,1,.41.159.569.569,0,0,1,.172.405l.558,137.265a2.192,2.192,0,0,1-2.193,2.2m-4.954-138.73,3.893,136.575a1.061,1.061,0,0,0,2.122-.044l-.556-136.686Z" transform="translate(37.598 30.587)" fill="#263238"/>
        <path id="Trazado_805753" data-name="Trazado 805753" d="M299.352,259.938l.558,141.921a1.628,1.628,0,0,1-3.254.063l-3.909-141.8Z" transform="translate(38.745 34.403)" fill="#fff"/>
        <path id="Trazado_805754" data-name="Trazado 805754" d="M298.348,404.126a2.186,2.186,0,0,1-2.193-2.119l-3.909-141.8a.566.566,0,0,1,.55-.581l6.605-.189a.565.565,0,0,1,.582.564l.558,141.921a2.19,2.19,0,0,1-2.193,2.2m-4.954-143.384,3.893,141.231a1.061,1.061,0,0,0,2.122-.045l-.556-141.342Z" transform="translate(38.679 34.336)" fill="#263238"/>
        <path id="Trazado_805755" data-name="Trazado 805755" d="M337.306,256.327l-4.079-3.672L323.81,232.3a5.421,5.421,0,0,0-4.945-3.068H67.934a5.421,5.421,0,0,0-4.945,3.068L51.243,257.685l-1.932-.711v5.809l.1-.074a3.215,3.215,0,0,0,3.249,2.762H334.142a3.189,3.189,0,0,0,3.256-3Z" transform="translate(6.526 30.339)" fill="#263238"/>
        <path id="Trazado_805756" data-name="Trazado 805756" d="M334.209,266.1H52.721a3.811,3.811,0,0,1-3.736-2.844.569.569,0,0,1-.174-.41V257.04a.565.565,0,0,1,.241-.464.55.55,0,0,1,.52-.067l1.443.53,11.526-24.906a5.985,5.985,0,0,1,5.459-3.4H318.93a5.989,5.989,0,0,1,5.46,3.4l9.368,20.245,3.993,3.593a.572.572,0,0,1,.188.413l.093,6.142a3.756,3.756,0,0,1-3.822,3.577M49.943,262.459a.577.577,0,0,1,.092.248,2.653,2.653,0,0,0,2.686,2.265H334.209a2.622,2.622,0,0,0,2.689-2.458l-.091-5.864-3.9-3.507a.551.551,0,0,1-.134-.183l-9.419-20.349a4.851,4.851,0,0,0-4.431-2.74H68a4.856,4.856,0,0,0-4.433,2.74l-11.744,25.38a.568.568,0,0,1-.71.293l-1.17-.43Z" transform="translate(6.46 30.273)" fill="#263238"/>
        <path id="Trazado_805757" data-name="Trazado 805757" d="M334.134,260.756H52.648a3.128,3.128,0,0,1-3-4.365l13.329-28.8a5.42,5.42,0,0,1,4.945-3.069H318.857a5.42,5.42,0,0,1,4.945,3.069l13.329,28.8a3.128,3.128,0,0,1-3,4.365" transform="translate(6.534 29.715)" fill="#fff"/>
        <path id="Trazado_805758" data-name="Trazado 805758" d="M334.2,261.389H52.715a3.851,3.851,0,0,1-3.275-1.76,3.491,3.491,0,0,1-.234-3.41l13.328-28.8a5.991,5.991,0,0,1,5.459-3.4H318.923a5.99,5.99,0,0,1,5.459,3.4l13.329,28.8a3.5,3.5,0,0,1-.236,3.411,3.852,3.852,0,0,1-3.275,1.759M67.992,225.153a4.857,4.857,0,0,0-4.432,2.74l-13.328,28.8a2.386,2.386,0,0,0,.161,2.326,2.725,2.725,0,0,0,2.321,1.237H334.2a2.725,2.725,0,0,0,2.32-1.235,2.388,2.388,0,0,0,.162-2.327l-13.329-28.8a4.854,4.854,0,0,0-4.431-2.74Z" transform="translate(6.468 29.649)" fill="#263238"/>
        <path id="Trazado_805759" data-name="Trazado 805759" d="M177.783,146.21s-8.648,1.543-12.766,4.243-18.943,7.715-21,11.186-14.826,48.6-15.237,52.074,3.706,6.944,8.648,6.944S153.9,188.642,153.9,188.642l4.942,16.2-11.581,33.944H217l-8.746-35.1,4.529-16.973,15.237,37.417s6.589,6.557,10.708-.772-9.06-35.873-10.3-41.659-6.177-19.287-9.883-23.53-14.414-8.486-20.591-10.8-13.589-1.543-20.178-1.157" transform="translate(17.04 19.293)" fill="#fb405f"/>
        <path id="Trazado_805760" data-name="Trazado 805760" d="M217.069,239.42H147.324a.566.566,0,0,1-.536-.748L158.311,204.9l-4.394-14.406c-2.861,7.775-11.73,30.8-16.425,30.8a10.444,10.444,0,0,1-7.655-3.219,5.6,5.6,0,0,1-1.556-4.356c.451-3.8,13.254-48.828,15.312-52.3,1.389-2.342,7.531-5.045,13.47-7.658a67.733,67.733,0,0,0,7.708-3.713c4.168-2.732,12.62-4.263,12.978-4.328a.633.633,0,0,1,.067-.007l2-.125c5.971-.378,12.741-.81,18.413,1.316,7.177,2.689,17.144,6.751,20.818,10.959,3.836,4.392,8.788,18.055,10.011,23.784a90.136,90.136,0,0,0,2.992,8.661c4.135,11.072,10.384,27.806,7.243,33.394-1.235,2.2-2.818,3.446-4.707,3.708-3.535.494-6.756-2.678-6.891-2.813a.552.552,0,0,1-.125-.188l-14.6-35.854-4.057,15.2,8.711,34.96a.566.566,0,0,1-.549.7m-68.953-1.132h68.229l-8.572-34.4a.584.584,0,0,1,0-.283l4.531-16.973a.568.568,0,0,1,.512-.419.577.577,0,0,1,.559.352l15.192,37.3c.489.453,3.149,2.788,5.862,2.416,1.517-.212,2.821-1.268,3.873-3.14,2.883-5.131-3.5-22.228-7.317-32.443a90.037,90.037,0,0,1-3.039-8.821c-1.171-5.485-6.1-19.086-9.756-23.275-3.911-4.48-16.292-9.119-20.362-10.643-5.445-2.04-11.8-1.636-17.944-1.247l-1.967.122c-.57.1-8.673,1.628-12.524,4.153a67.805,67.805,0,0,1-7.873,3.8c-5.235,2.3-11.748,5.17-12.952,7.2-1.907,3.214-14.742,48.309-15.162,51.851a4.5,4.5,0,0,0,1.277,3.472,9.284,9.284,0,0,0,6.809,2.839c3.31,0,11.533-19.407,15.939-31.641a.533.533,0,0,1,.547-.375.568.568,0,0,1,.528.4l4.942,16.2a.565.565,0,0,1-.006.349Z" transform="translate(16.974 19.227)" fill="#263238"/>
        <path id="Trazado_805761" data-name="Trazado 805761" d="M203.03,184.109a.572.572,0,0,1-.255-.06.565.565,0,0,1-.291-.654l3.59-13.25a.566.566,0,1,1,1.092.3L204.305,181l3.15-4.013a.567.567,0,0,1,.891.7l-4.87,6.2a.569.569,0,0,1-.446.216" transform="translate(26.796 22.463)" fill="#263238"/>
        <path id="Trazado_805762" data-name="Trazado 805762" d="M151.884,186.112a.567.567,0,0,1-.447-.217l-7.347-9.413a.566.566,0,1,1,.892-.7l5.482,7.022-3.907-12.916a.566.566,0,1,1,1.084-.327l4.784,15.818a.566.566,0,0,1-.282.667.555.555,0,0,1-.259.063" transform="translate(19.054 22.388)" fill="#263238"/>
        <path id="Trazado_805763" data-name="Trazado 805763" d="M178.5,169.741c12.468.307,16.3-13.065,16.727-21.651-.666-.256-1.309-.5-1.9-.722-6.177-2.315-13.589-1.542-20.178-1.157a58.371,58.371,0,0,0-9.36,2.568c.488,6.825,2.931,20.671,14.714,20.962" transform="translate(21.677 19.293)" fill="#fff"/>
        <path id="Trazado_805764" data-name="Trazado 805764" d="M178.979,170.378c-.142,0-.285,0-.428-.006-12.412-.306-14.81-15.129-15.264-21.487a.565.565,0,0,1,.359-.568,58.261,58.261,0,0,1,9.466-2.6l2.063-.131c5.971-.378,12.741-.81,18.413,1.316.594.223,1.239.468,1.907.725a.565.565,0,0,1,.361.556c-.507,10.294-5.239,22.193-16.878,22.194m-14.531-21.156c.6,7.556,3.263,19.75,14.131,20.018,10.945.27,15.534-10.888,16.126-20.7-.527-.2-1.036-.4-1.513-.573-5.445-2.042-11.8-1.637-17.944-1.247l-2,.123a60.23,60.23,0,0,0-8.8,2.381" transform="translate(21.611 19.227)" fill="#263238"/>
        <path id="Trazado_805765" data-name="Trazado 805765" d="M179.908,166.939,153.14,235.6h51.888Z" transform="translate(20.268 22.094)" fill="#fff"/>
        <path id="Trazado_805766" data-name="Trazado 805766" d="M205.094,236.233H153.207a.566.566,0,0,1-.528-.772l26.766-68.66a.637.637,0,0,1,.534-.361.568.568,0,0,1,.525.371l25.12,68.661a.567.567,0,0,1-.532.761M154.035,235.1h50.248l-24.325-66.493Z" transform="translate(20.202 22.028)" fill="#263238"/>
        <path id="Trazado_805767" data-name="Trazado 805767" d="M223.428,208.726s-7.289,1.517-9.719,5.563-5.4,10.115-8.369,13.655l8.639,4.552s9.18-6.827,12.689-9.609a10.064,10.064,0,0,0,2.43-12.9" transform="translate(27.177 27.625)" fill="#fb405f"/>
        <path id="Trazado_805768" data-name="Trazado 805768" d="M214.045,233.129a.559.559,0,0,1-.264-.066l-8.639-4.551a.558.558,0,0,1-.291-.392.568.568,0,0,1,.121-.473,66.856,66.856,0,0,0,6.037-9.586c.8-1.43,1.563-2.8,2.281-4,2.529-4.21,9.782-5.761,10.089-5.825a.566.566,0,0,1,.231,1.107c-.07.016-7.076,1.516-9.35,5.3-.711,1.186-1.47,2.546-2.262,3.965a74.79,74.79,0,0,1-5.716,9.218l7.711,4.064c1.582-1.179,9.275-6.916,12.39-9.386a9.511,9.511,0,0,0,2.287-12.176.566.566,0,1,1,.986-.555,10.637,10.637,0,0,1-2.57,13.618c-3.477,2.756-12.611,9.553-12.7,9.62a.567.567,0,0,1-.339.112" transform="translate(27.111 27.558)" fill="#263238"/>
        <path id="Trazado_805769" data-name="Trazado 805769" d="M221.809,215.346c-4.113-1.788-7.017-1.328-8.82-.54-2.284,3.97-4.965,9.227-7.648,12.425l8.639,4.552s9.179-6.828,12.688-9.609a9.721,9.721,0,0,0,1.326-1.283,13,13,0,0,0-6.185-5.545" transform="translate(27.177 28.337)" fill="#fff"/>
        <path id="Trazado_805770" data-name="Trazado 805770" d="M214.046,232.417a.559.559,0,0,1-.264-.066l-8.64-4.551a.566.566,0,0,1-.169-.865,67.216,67.216,0,0,0,6.039-9.589c.533-.957,1.052-1.888,1.552-2.755a.569.569,0,0,1,.264-.237c1.826-.8,4.92-1.352,9.272.539a13.518,13.518,0,0,1,6.451,5.784.566.566,0,0,1-.062.651,10.368,10.368,0,0,1-1.4,1.355c-3.476,2.756-12.61,9.553-12.7,9.62a.565.565,0,0,1-.339.112m-7.765-5.3,7.714,4.064c1.581-1.179,9.273-6.918,12.388-9.386a8.993,8.993,0,0,0,.977-.907,12.376,12.376,0,0,0-5.712-4.957h0c-3.847-1.671-6.559-1.281-8.2-.611-.469.818-.953,1.685-1.451,2.577a75.125,75.125,0,0,1-5.719,9.222" transform="translate(27.111 28.272)" fill="#263238"/>
        <path id="Trazado_805771" data-name="Trazado 805771" d="M207.374,224.5s-3.78-.506-5.939.759-6.479,6.322-5.13,7.081,4.049-4.046,5.4-4.046a20.339,20.339,0,0,1,4.32,1.011Z" transform="translate(25.947 29.7)" fill="#fff"/>
        <path id="Trazado_805772" data-name="Trazado 805772" d="M196.694,233.063a1.2,1.2,0,0,1-.6-.162,1.081,1.081,0,0,1-.546-.979c-.016-1.82,3.673-5.915,5.665-7.083,2.3-1.345,6.138-.853,6.3-.83a.562.562,0,0,1,.4.249.57.57,0,0,1,.072.464l-1.35,4.8a.569.569,0,0,1-.727.384,18.932,18.932,0,0,0-4.138-.982c-.356,0-1.366,1.113-1.969,1.779-1.094,1.2-2.136,2.355-3.107,2.355m8.969-8.027a8.176,8.176,0,0,0-3.877.78c-2.112,1.237-5.357,5.35-5.1,6.143.316.144,1.689-1.366,2.276-2.012,1.047-1.155,1.952-2.15,2.808-2.15a17.157,17.157,0,0,1,3.934.856l1.007-3.582c-.284-.018-.644-.035-1.047-.035" transform="translate(25.881 29.633)" fill="#263238"/>
        <path id="Trazado_805773" data-name="Trazado 805773" d="M213.859,224.7s-5.13-1.517-8.1-1.011-7.018,8.6-8.368,11.126-.271,3.287.81,2.529,4.589-6.322,4.589-6.322l-2.97,7.081a1.211,1.211,0,0,0,1.62.506c1.08-.506,4.882-8.111,4.882-8.111l-2.182,7.857a1.548,1.548,0,0,0,1.619.506c1.08-.253,4.05-6.574,4.05-6.574s-2.7,7.333-1.89,7.586,2.159-.505,2.7-1.77a56.248,56.248,0,0,1,5.4-7.587c1.35-1.517.81-4.551-2.159-5.816" transform="translate(26.041 29.591)" fill="#fff"/>
        <path id="Trazado_805774" data-name="Trazado 805774" d="M208.323,240.552a1.7,1.7,0,0,1-.505-.074.736.736,0,0,1-.437-.384,4.349,4.349,0,0,1,.154-2.216c-.591.872-1.148,1.5-1.58,1.6a2.1,2.1,0,0,1-2.209-.729.56.56,0,0,1-.084-.479l.786-2.833c-1.044,1.834-2.105,3.472-2.7,3.75a1.765,1.765,0,0,1-2.36-.753.566.566,0,0,1-.021-.486l.767-1.828a9.428,9.428,0,0,1-1.54,1.752,1.488,1.488,0,0,1-1.887.089c-.39-.344-.874-1.238.253-3.348l.343-.648c2.673-5.072,5.765-10.317,8.43-10.771,3.057-.52,8.139.965,8.354,1.027a.545.545,0,0,1,.06.023,5.074,5.074,0,0,1,3.1,3.484,3.645,3.645,0,0,1-.744,3.229,56.157,56.157,0,0,0-5.3,7.432,3.5,3.5,0,0,1-2.885,2.163m1.554-8.767a.568.568,0,0,1,.531.762,38.211,38.211,0,0,0-2.012,6.871,2.44,2.44,0,0,0,1.771-1.474,55.662,55.662,0,0,1,5.5-7.74,2.514,2.514,0,0,0,.485-2.228,3.953,3.953,0,0,0-2.412-2.678c-.425-.122-5.127-1.449-7.812-.987-2.473.421-6.212,7.512-7.62,10.182l-.344.653c-.719,1.345-.575,1.9-.5,1.967.024.02.208.027.487-.168.719-.506,3.1-4.048,4.437-6.161a.566.566,0,0,1,1,.521l-2.846,6.784a.6.6,0,0,0,.733.071c.6-.352,2.866-4.35,4.617-7.852a.566.566,0,0,1,1.051.405l-2.091,7.534a1.058,1.058,0,0,0,.855.127c.566-.271,2.352-3.464,3.667-6.264a.563.563,0,0,1,.512-.325" transform="translate(25.975 29.525)" fill="#263238"/>
        <path id="Trazado_805775" data-name="Trazado 805775" d="M202.152,231.218a.553.553,0,0,1-.315-.1.564.564,0,0,1-.155-.785l2.5-3.719a.566.566,0,1,1,.94.63l-2.5,3.719a.564.564,0,0,1-.47.251" transform="translate(26.68 29.96)" fill="#263238"/>
        <path id="Trazado_805776" data-name="Trazado 805776" d="M205.272,230.651a.566.566,0,0,1-.525-.777l1.128-2.825a.566.566,0,0,1,1.052.42L205.8,230.3a.565.565,0,0,1-.524.356" transform="translate(27.093 30.003)" fill="#263238"/>
        <path id="Trazado_805777" data-name="Trazado 805777" d="M208.351,232.246a.573.573,0,0,1-.179-.028.567.567,0,0,1-.359-.717l.989-2.957a.567.567,0,0,1,1.076.359l-.989,2.955a.568.568,0,0,1-.538.387" transform="translate(27.5 30.197)" fill="#263238"/>
        <path id="Trazado_805778" data-name="Trazado 805778" d="M157.483,131.94s1.756,4.565-1.4,12.291-1.405,19.314.7,24.932S162.75,181.1,163.8,179.7s3.16-17.558,3.511-28.445-.7-18.611-3.16-22.123-7.023-1.755-6.672,2.809" transform="translate(20.429 16.844)" fill="#263238"/>
        <path id="Trazado_805779" data-name="Trazado 805779" d="M162.986,173.57s-2.458,6.672-2.458,11.588,5.97,7.725,5.97,7.725,3.16-5.267,2.107-10.534-5.619-8.779-5.619-8.779" transform="translate(21.246 22.972)" fill="#263238"/>
        <path id="Trazado_805780" data-name="Trazado 805780" d="M158.6,126.615s-2.574-4.471-4.606-2.167,1.626,7.587,3.657,9.348,3.523.677,3.387-1.22-2.438-5.961-2.438-5.961" transform="translate(20.302 16.383)" fill="#fff"/>
        <path id="Trazado_805781" data-name="Trazado 805781" d="M159.632,135.317a3.636,3.636,0,0,1-2.288-1.028c-1.745-1.512-4.259-5.037-4.438-7.723a3.2,3.2,0,0,1,.726-2.427,2.207,2.207,0,0,1,1.927-.84c1.867.188,3.423,2.8,3.594,3.1l0,0c.1.171,2.368,4.2,2.51,6.2a2.459,2.459,0,0,1-1.165,2.515,1.93,1.93,0,0,1-.869.2m-4.29-10.9a1.126,1.126,0,0,0-.861.469,2.12,2.12,0,0,0-.445,1.6c.151,2.258,2.461,5.566,4.049,6.942.744.645,1.456.9,1.908.671a1.416,1.416,0,0,0,.544-1.422c-.1-1.448-1.742-4.618-2.365-5.72-.362-.626-1.635-2.428-2.726-2.536a.994.994,0,0,0-.1-.006" transform="translate(20.236 16.317)" fill="#263238"/>
        <path id="Trazado_805782" data-name="Trazado 805782" d="M194.485,126.615s2.574-4.471,4.606-2.167-1.626,7.587-3.659,9.348-3.522.677-3.386-1.22,2.438-5.961,2.438-5.961" transform="translate(25.416 16.383)" fill="#fff"/>
        <path id="Trazado_805783" data-name="Trazado 805783" d="M193.582,135.317a1.92,1.92,0,0,1-.87-.2,2.46,2.46,0,0,1-1.165-2.515c.144-2,2.414-6.029,2.512-6.2v0c.171-.3,1.728-2.911,3.594-3.1a2.215,2.215,0,0,1,1.927.84,3.2,3.2,0,0,1,.726,2.427c-.194,2.908-2.985,6.465-4.438,7.724a3.637,3.637,0,0,1-2.287,1.027m1.461-8.354c-.624,1.1-2.261,4.271-2.365,5.721a1.411,1.411,0,0,0,.542,1.421c.448.225,1.163-.024,1.909-.67,1.589-1.377,3.9-4.686,4.048-6.944a2.115,2.115,0,0,0-.445-1.6,1.067,1.067,0,0,0-.965-.463c-1.09.109-2.363,1.91-2.724,2.536" transform="translate(25.35 16.317)" fill="#263238"/>
        <path id="Trazado_805784" data-name="Trazado 805784" d="M183.987,159.206c1.067-5.718,1.7-13.341,1.7-13.341s-12.734,1.761-16.934-.677c0,0,1.816,8.17,3.881,14.328" transform="translate(22.335 19.216)" fill="#fff"/>
        <path id="Trazado_805785" data-name="Trazado 805785" d="M172.7,160.147a.566.566,0,0,1-.537-.386c-2.051-6.115-3.878-14.3-3.9-14.384a.566.566,0,0,1,.837-.613c3.985,2.313,16.445.623,16.572.606a.567.567,0,0,1,.642.608c-.007.076-.649,7.717-1.71,13.4a.573.573,0,0,1-.66.453.566.566,0,0,1-.452-.66c.862-4.626,1.447-10.577,1.632-12.587-2.54.307-11.155,1.191-15.5-.346.57,2.438,2.024,8.435,3.61,13.166a.566.566,0,0,1-.357.717.555.555,0,0,1-.18.029" transform="translate(22.269 19.149)" fill="#263238"/>
        <path id="Trazado_805786" data-name="Trazado 805786" d="M158.3,131.091s3.523,12.464,10.161,19.779,9.076,9.077,12.6,8.535,7.315-5.148,12.6-14.766,5.69-16.934,6.1-17.611-1.084-14.225-8.67-20.051-15.985-8.4-23.3-2.031-11.921,16.8-9.483,26.146" transform="translate(20.865 13.398)" fill="#fff"/>
        <path id="Trazado_805787" data-name="Trazado 805787" d="M180.006,160.124c-3.326,0-6.067-2.389-11.894-8.811-6.651-7.331-10.141-19.492-10.286-20.006l0-.011c-2.328-8.924,1.554-19.66,9.659-26.714,6.561-5.71,14.868-5.017,24.018,2.009,7.672,5.893,9.421,19.773,8.81,20.791-.045.105-.149.654-.25,1.186a53.055,53.055,0,0,1-5.834,16.407c-5.563,10.127-9.332,14.487-13.01,15.053a7.856,7.856,0,0,1-1.209.1M158.916,131c.092.319,3.617,12.476,10.034,19.548,6.615,7.289,8.88,8.846,12.094,8.356,3.243-.5,6.888-4.829,12.189-14.48a51.984,51.984,0,0,0,5.714-16.071,5.63,5.63,0,0,1,.393-1.557c.237-1.08-1.306-13.763-8.529-19.311-8.794-6.752-16.394-7.444-22.585-2.054-7.787,6.778-11.527,17.054-9.309,25.571" transform="translate(20.799 13.335)" fill="#263238"/>
        <path id="Trazado_805788" data-name="Trazado 805788" d="M177.613,145.788c-1.4,0-2.643-1.682-2.791-1.889a.567.567,0,0,1,.922-.659c.371.519,1.341,1.548,1.99,1.4a.533.533,0,0,0,.224-.078,4.627,4.627,0,0,0-.117-.879,16.753,16.753,0,0,1-.279-2.256,54.874,54.874,0,0,1,.683-8.106.566.566,0,0,1,1.119.172,55.32,55.32,0,0,0-.67,7.88,15.362,15.362,0,0,0,.262,2.11c.181,1.011.354,1.968-.976,2.265a1.753,1.753,0,0,1-.366.038" transform="translate(23.124 17.582)" fill="#263238"/>
        <path id="Trazado_805789" data-name="Trazado 805789" d="M178.928,147.381h-3.843a.566.566,0,0,1,0-1.132h3.843a.566.566,0,0,1,0,1.132" transform="translate(23.097 19.356)" fill="#263238"/>
        <path id="Trazado_805790" data-name="Trazado 805790" d="M175.364,132.349a.567.567,0,0,1-.524-.352c-.1-.238-2.5-5.826-10.4-3.065a.566.566,0,0,1-.374-1.069c8.938-3.121,11.792,3.639,11.821,3.708a.566.566,0,0,1-.524.778" transform="translate(21.664 16.814)" fill="#263238"/>
        <path id="Trazado_805791" data-name="Trazado 805791" d="M180.333,131.6a.557.557,0,0,1-.186-.032.568.568,0,0,1-.35-.72,6.591,6.591,0,0,1,3.47-3.619c2-.838,4.423-.6,7.2.719a.566.566,0,1,1-.484,1.023c-2.474-1.171-4.583-1.408-6.275-.7a5.468,5.468,0,0,0-2.837,2.946.568.568,0,0,1-.536.38" transform="translate(23.792 16.775)" fill="#263238"/>
        <path id="Trazado_805792" data-name="Trazado 805792" d="M170.624,134c0,1.239-.5,2.242-1.121,2.242s-1.121-1-1.121-2.242.5-2.242,1.121-2.242,1.121,1,1.121,2.242" transform="translate(22.285 17.438)" fill="#263238"/>
        <path id="Trazado_805793" data-name="Trazado 805793" d="M184.757,134c0,1.239-.5,2.242-1.121,2.242s-1.121-1-1.121-2.242.5-2.242,1.121-2.242,1.121,1,1.121,2.242" transform="translate(24.156 17.438)" fill="#263238"/>
        <path id="Trazado_805794" data-name="Trazado 805794" d="M169.49,142.218c-4.39,0-7.963-2.629-7.963-5.861,0-3.039,2.824-4.783,7.748-4.783,5.12,0,8.179,1.788,8.179,4.783,0,3.232-3.573,5.861-7.964,5.861m-.215-8.946c-1.819,0-6.049.3-6.049,3.085,0,2.3,2.811,4.163,6.264,4.163s6.265-1.867,6.265-4.163c0-2.274-3.347-3.085-6.48-3.085" transform="translate(21.378 17.414)" fill="#263238"/>
        <path id="Trazado_805795" data-name="Trazado 805795" d="M185.408,142.218c-4.391,0-7.963-2.629-7.963-5.861,0-3.039,2.824-4.783,7.748-4.783,5.12,0,8.179,1.788,8.179,4.783,0,3.232-3.573,5.861-7.964,5.861m-.215-8.946c-1.819,0-6.049.3-6.049,3.085,0,2.3,2.81,4.163,6.264,4.163s6.265-1.867,6.265-4.163c0-2.274-3.347-3.085-6.48-3.085" transform="translate(23.485 17.414)" fill="#263238"/>
        <path id="Trazado_805796" data-name="Trazado 805796" d="M179.146,135.529a.839.839,0,0,1-.378-.089c-2.311-1.155-3.7-.408-3.761-.376a.853.853,0,0,1-1.154-.314.842.842,0,0,1,.291-1.149c.088-.052,2.192-1.275,5.383.319a.85.85,0,0,1-.382,1.609" transform="translate(22.994 17.616)" fill="#263238"/>
        <path id="Trazado_805797" data-name="Trazado 805797" d="M190.841,96.365c-15.312-6.578-26.081-.048-26.081-.048a16.8,16.8,0,0,0-2.961,2.073c-5.222,4.7-8.4,13.547-7.993,21s5.149,13.547,5.149,13.547a31.609,31.609,0,0,0,9.212-10.3,88.263,88.263,0,0,0,4.551-9.258c0,3.321.435,7.332,2.173,10.171,3.9,6.374,9.448,7.433,12.7,7.433a12.149,12.149,0,0,0,2.667-.262.56.56,0,0,0,.357-.286c4.371.926,8.718.845,9.388-.076,1.084-1.49,2.611-6.117,3.115-11.785.844-9.49-5.208-17.831-12.276-22.211m-14.986,26.6c-2.2-3.587-2.13-9.442-1.866-12.806.087-.242.137-.386.137-.386a23.083,23.083,0,0,0,9.212,17.747,16.392,16.392,0,0,0,5.016,2.339c-2.771.189-8.482-.335-12.5-6.895" transform="translate(20.351 12.365)" fill="#263238"/>
        <path id="Trazado_805798" data-name="Trazado 805798" d="M194.1,122.3a21.066,21.066,0,0,1-13.006-4.636c-8.75-6.766-7.938-13.579-7.9-13.867a.286.286,0,0,1,.318-.242.282.282,0,0,1,.242.318c-.009.067-.79,6.791,7.684,13.344,8.5,6.577,16.636,4.05,16.717,4.024a.283.283,0,0,1,.174.539,15.4,15.4,0,0,1-4.232.52" transform="translate(22.918 13.705)" fill="#fff"/>
        <path id="Trazado_805799" data-name="Trazado 805799" d="M192.267,112.521c-10.491,0-17.813-10.462-17.9-10.581a.283.283,0,0,1,.467-.322c.091.132,9.229,13.165,21.553,9.771a.283.283,0,0,1,.149.547,16.033,16.033,0,0,1-4.273.584" transform="translate(23.071 13.433)" fill="#fff"/>
        <path id="Trazado_805800" data-name="Trazado 805800" d="M136.985,204.556a56.522,56.522,0,0,0-10.016,4.215c-4.538,2.57-20.808,11.877-25.72,13.382s-7.648,1.257-10.031,3.738-9.93,10.336-10.891,13.743.544,3.044,1.926,2.12,5.3-5.861,8.762-6.2,4.829-.214,4.868,1.636-2.266,8.032-.433,7.5,2.658-3.455,3.81-6.545,1.021-7.595,1.624-8.738,18.443-4.483,24.1-5.584,15.283-4.611,18.14-6.951,4.829-9.19,4.829-9.19" transform="translate(10.591 27.073)" fill="#fb405f"/>
        <path id="Trazado_805801" data-name="Trazado 805801" d="M95.311,245.354a.963.963,0,0,1-.67-.259c-.711-.671-.375-2.333.232-4.987a16.236,16.236,0,0,0,.51-2.839c-.011-.573-.17-.778-.288-.882-.5-.442-1.883-.4-3.96-.2-2.322.226-5.013,2.842-6.794,4.572a15.163,15.163,0,0,1-1.708,1.534c-1.145.764-1.984.926-2.562.505-.848-.616-.533-2.149-.223-3.25,1-3.545,8.547-11.4,11.028-13.982,1.763-1.837,3.678-2.27,6.329-2.873,1.147-.26,2.446-.556,3.944-1.015,4.585-1.4,19.243-9.721,24.761-12.852l.846-.48a56.332,56.332,0,0,1,10.132-4.264.566.566,0,1,1,.326,1.084,56.335,56.335,0,0,0-9.9,4.166l-.845.479c-5.549,3.149-20.285,11.51-24.989,12.952-1.538.47-2.859.771-4.026,1.035-2.549.58-4.234.962-5.763,2.555-6.525,6.79-10.142,11.333-10.754,13.5-.484,1.71-.2,2.025-.2,2.028.055.024.438.021,1.268-.533a15.746,15.746,0,0,0,1.548-1.4c1.893-1.841,4.755-4.623,7.474-4.889,2.555-.248,4-.242,4.82.483a2.211,2.211,0,0,1,.668,1.705,15.843,15.843,0,0,1-.538,3.116A14.756,14.756,0,0,0,95.4,244.2c1.325-.465,2.129-2.686,2.979-5.033.137-.377.276-.762.421-1.149a24.752,24.752,0,0,0,1.056-5.607,10.889,10.889,0,0,1,.6-3.2c.439-.832,4.194-1.961,22.75-5.537l1.745-.337c5.467-1.062,15.124-4.567,17.89-6.834,2.687-2.2,4.625-8.841,4.644-8.909a.566.566,0,0,1,1.088.315c-.083.286-2.055,7.044-5.014,9.47s-12.75,5.973-18.392,7.07l-1.747.337c-5.164,1-20.878,4.024-22.016,5.028a14.888,14.888,0,0,0-.419,2.719,25.463,25.463,0,0,1-1.122,5.879c-.143.384-.281.765-.417,1.14-1.011,2.792-1.884,5.2-3.765,5.751a1.31,1.31,0,0,1-.363.054" transform="translate(10.525 27.007)" fill="#263238"/>
        <path id="Trazado_805802" data-name="Trazado 805802" d="M86.364,233.735s-6.932,4.621-6.066,7.8,6.931,4.332,10.4,2.6,6.064-2.887,6.641-7.22-.866-6.064-4.042-6.064-6.93,2.887-6.93,2.887" transform="translate(10.617 30.553)" fill="#263238"/>
        <path id="Trazado_805803" data-name="Trazado 805803" d="M86.942,245.564a10.521,10.521,0,0,1-4.215-.842,4.8,4.8,0,0,1-2.909-2.972c-.94-3.447,5.467-7.863,6.281-8.408.309-.236,4-2.994,7.261-2.994a4.578,4.578,0,0,1,3.661,1.353c.968,1.105,1.276,2.857.943,5.354-.6,4.484-3.249,5.806-6.6,7.479l-.345.172a9.287,9.287,0,0,1-4.072.858m6.418-14.084c-2.944,0-6.551,2.744-6.586,2.771a.316.316,0,0,1-.032.023c-1.832,1.223-6.454,4.9-5.833,7.177a3.824,3.824,0,0,0,2.281,2.236,9.286,9.286,0,0,0,7.317.006l.346-.172c3.293-1.642,5.469-2.727,5.988-6.616.283-2.124.057-3.624-.674-4.457a3.535,3.535,0,0,0-2.808-.967M86.43,233.8h0Z" transform="translate(10.551 30.486)" fill="#263238"/>
        <path id="Trazado_805804" data-name="Trazado 805804" d="M124.986,223.215a68.1,68.1,0,0,0,9.986-2.961c-2-6.945-6.21-9.888-9.806-11.108-6.153,3.276-19.517,11.051-23.919,12.4-4.912,1.5-7.648,1.258-10.03,3.739s-9.93,10.335-10.891,13.742.544,3.044,1.926,2.121,5.3-5.862,8.762-6.2,4.828-.214,4.868,1.636-2.267,8.032-.434,7.5,2.659-3.454,3.81-6.544,1.021-7.595,1.625-8.738,18.443-4.483,24.1-5.584" transform="translate(10.591 27.68)" fill="#fff"/>
        <path id="Trazado_805805" data-name="Trazado 805805" d="M95.311,244.747a.958.958,0,0,1-.67-.26c-.711-.671-.375-2.332.232-4.986a16.236,16.236,0,0,0,.51-2.839c-.011-.573-.17-.779-.288-.882-.5-.442-1.882-.4-3.959-.2-2.325.225-5.015,2.843-6.8,4.574a15.386,15.386,0,0,1-1.706,1.533c-1.144.763-1.984.926-2.562.505-.848-.616-.533-2.15-.223-3.25,1-3.545,8.547-11.4,11.028-13.982,1.763-1.837,3.678-2.271,6.329-2.873,1.147-.262,2.446-.556,3.944-1.016,3.215-.984,11.365-5.5,17.914-9.121,2.261-1.252,4.322-2.393,5.905-3.236a.571.571,0,0,1,.447-.036c3.468,1.177,8.048,4.126,10.169,11.489a.565.565,0,0,1-.345.686,68.409,68.409,0,0,1-10.077,2.988l-1.746.337c-5.165,1-20.879,4.023-22.016,5.028a14.737,14.737,0,0,0-.42,2.718,25.472,25.472,0,0,1-1.122,5.88c-.143.384-.281.765-.417,1.14-1.011,2.791-1.884,5.2-3.765,5.751a1.31,1.31,0,0,1-.363.054M93.41,234.3a3.538,3.538,0,0,1,2.437.631,2.209,2.209,0,0,1,.668,1.705,15.888,15.888,0,0,1-.537,3.115,14.73,14.73,0,0,0-.582,3.834c1.325-.464,2.129-2.685,2.979-5.032.137-.377.276-.762.421-1.15a24.668,24.668,0,0,0,1.056-5.606,10.881,10.881,0,0,1,.6-3.2c.439-.833,4.2-1.962,22.751-5.538l1.745-.337a66.1,66.1,0,0,0,9.4-2.75c-1.994-6.366-5.962-9.034-9.063-10.147-1.548.828-3.517,1.918-5.67,3.111-6.6,3.651-14.8,8.195-18.131,9.215-1.538.47-2.859.77-4.026,1.035-2.549.579-4.234.961-5.763,2.553-6.523,6.791-10.142,11.333-10.754,13.5-.484,1.711-.2,2.025-.2,2.028.055.025.438.023,1.268-.532a15.654,15.654,0,0,0,1.546-1.4c1.894-1.841,4.756-4.625,7.476-4.889.935-.091,1.722-.147,2.384-.147" transform="translate(10.525 27.614)" fill="#263238"/>
        <path id="Trazado_805806" data-name="Trazado 805806" d="M91.889,227.848s-5.913,3.061-7.173,4.545-2.251,6.984-.486,6.693,3.451-4.28,4.246-5.107,3.873-1.8,3.873-1.8" transform="translate(11.021 30.156)" fill="#fff"/>
        <path id="Trazado_805807" data-name="Trazado 805807" d="M84.164,239.73a1.2,1.2,0,0,1-1.067-.656c-.825-1.46.066-5.586,1.254-6.982,1.294-1.524,6.728-4.363,7.343-4.681a.567.567,0,0,1,.521,1.007c-1.617.837-6.027,3.261-7,4.407-.929,1.092-1.657,4.762-1.13,5.692.05.088.061.088.12.077.97-.16,2.182-2.191,2.907-3.406a9.811,9.811,0,0,1,1.023-1.535c.87-.9,3.783-1.84,4.112-1.944a.566.566,0,1,1,.341,1.079,12.847,12.847,0,0,0-3.635,1.65,10.244,10.244,0,0,0-.869,1.331c-.982,1.648-2.2,3.7-3.695,3.943a1.264,1.264,0,0,1-.223.019" transform="translate(10.955 30.089)" fill="#263238"/>
        <path id="Trazado_805808" data-name="Trazado 805808" d="M224.434,243.747c0,4.589-19.89,8.31-44.425,8.31s-44.423-3.721-44.423-8.31,19.889-8.309,44.423-8.309,44.425,3.72,44.425,8.309" transform="translate(17.945 31.16)" fill="#4be5f1" opacity="0.3"/>
        <path id="Trazado_805810" data-name="Trazado 805810" d="M218.307,244H140.679a1.3,1.3,0,1,1,0-2.609h77.627a1.3,1.3,0,1,1,0,2.609" transform="translate(18.446 31.948)" fill="#fff"/>
        <path id="Trazado_805811" data-name="Trazado 805811" d="M218.372,244.63H140.745a1.871,1.871,0,0,1,0-3.742h77.627a1.871,1.871,0,1,1,0,3.742m-77.627-2.61a.739.739,0,0,0,0,1.478h77.627a.739.739,0,1,0,0-1.478Z" transform="translate(18.38 31.881)" fill="#263238"/>
        <path id="Trazado_805812" data-name="Trazado 805812" d="M219.525,247.678h-78.95a1.169,1.169,0,0,1-1.166-1.073l-4.3-51.575a1.172,1.172,0,0,1,1.167-1.269h87.543a1.17,1.17,0,0,1,1.166,1.269l-4.3,51.575a1.171,1.171,0,0,1-1.167,1.073" transform="translate(17.881 25.644)" fill="#fff"/>
        <path id="Trazado_805813" data-name="Trazado 805813" d="M219.592,248.309H140.641a1.746,1.746,0,0,1-1.73-1.593l-4.3-51.574a1.738,1.738,0,0,1,1.731-1.882h87.543a1.738,1.738,0,0,1,1.731,1.881l-4.3,51.576a1.747,1.747,0,0,1-1.73,1.592m-83.247-53.917a.606.606,0,0,0-.6.656l4.3,51.574a.609.609,0,0,0,.6.555h78.951a.609.609,0,0,0,.6-.555l4.3-51.574a.606.606,0,0,0-.159-.461.6.6,0,0,0-.445-.195Z" transform="translate(17.815 25.578)" fill="#263238"/>
        <path id="Trazado_805814" data-name="Trazado 805814" d="M220.227,243.994l2.534-30.419c-14.678-.863-32.295,3.9-52.349,16.69-14.769,9.421-25.176,10.791-31.786,9.928l.317,3.8a1.172,1.172,0,0,0,1.167,1.075h78.949a1.172,1.172,0,0,0,1.167-1.075" transform="translate(18.347 28.253)" fill="#263238"/>
        <path id="Trazado_805815" data-name="Trazado 805815" d="M183.124,219.006c0,3.074-3.337,5.568-7.454,5.568s-7.455-2.493-7.455-5.568,3.338-5.568,7.455-5.568,7.454,2.493,7.454,5.568" transform="translate(22.263 28.248)" fill="#263238"/>
        <path id="Trazado_805816" data-name="Trazado 805816" d="M87.19,292.434a4.231,4.231,0,0,1-.5-.031c-10.351-1.217-14.646-21.252-14.939-26.812a36.377,36.377,0,0,0-.5-3.907c-.694-4.232-1.412-8.606,3.038-11.884a62.917,62.917,0,0,0,9.149-8.291.566.566,0,0,1,.856.742,64.079,64.079,0,0,1-9.334,8.46c-3.892,2.868-3.26,6.716-2.592,10.79a37.4,37.4,0,0,1,.512,4.03c.271,5.136,4.444,24.631,13.94,25.747,4.42.522,6.262-9.343,8.011-18.886,1.854-10.112,3.771-20.568,9.066-22.383,6.749-2.316,19.183-.989,31.209.3,6.311.673,12.269,1.308,17.215,1.406,5.111.1,8.528-.915,9.876-2.942a4.944,4.944,0,0,0,.28-4.348.566.566,0,0,1,1.034-.462,6.014,6.014,0,0,1-.363,5.427c-1.592,2.406-5.234,3.562-10.849,3.457-4.995-.1-10.977-.737-17.312-1.413-11.9-1.27-24.212-2.582-30.721-.351-4.668,1.6-6.608,12.182-8.321,21.517-1.868,10.191-3.637,19.836-8.754,19.838" transform="translate(9.361 31.938)" fill="#263238"/>
      </g>
    </g>
    <path id="Trazado_805817" data-name="Trazado 805817" d="M310.391,131.117v29.429l44.509,25.7V156.634Zm37.44,42.279L317.46,155.857V143.6l30.371,17.412Z" transform="translate(41.08 17.353)" fill="#263238"/>
    <path id="Trazado_805818" data-name="Trazado 805818" d="M318.092,155.643V144.689l29.24,16.762v11.077Zm-1.132.654,31.5,18.192V160.8l-31.5-18.061Zm-5.937,4.035V132.208L354.4,157.077v28.305Zm-1.132.653,45.643,26.359V156.421L309.89,130.255Z" transform="translate(41.014 17.239)" fill="#263238"/>
    <path id="Trazado_805819" data-name="Trazado 805819" d="M347.831,143.6v9.054l7.069,3.982V131.116l-44.509,25.519v29.614l22.461-12.971v-8.771L317.46,173.4V161.01l15.392-8.824V144l7.215,4.048Z" transform="translate(41.08 17.353)" fill="#fff"/>
    <path id="Trazado_805820" data-name="Trazado 805820" d="M311.022,157.076l21.329-12.227v7.122L316.959,160.8V174.49l15.392-8.889v7.464l-21.329,12.317Zm22.828-13.085,20.55-11.782v23.572l-5.937-3.345v-9.7l-8.333,4.776Zm-1.152-.647-.348-.195v.394L309.89,156.421v30.922l23.594-13.626V163.64l-15.392,8.888V161.451l15.392-8.823v-7.546l6.653,3.731,7.195-4.124V153.1l8.2,4.621V130.254Z" transform="translate(41.014 17.239)" fill="#263238"/>
    <path id="Trazado_805821" data-name="Trazado 805821" d="M345.188,157.813l-4.528-2.538-10.305,5.951,7.41,4.492,7.424-4.287Z" transform="translate(43.722 20.551)" fill="#fff"/>
    <path id="Trazado_805822" data-name="Trazado 805822" d="M337.888,166.452l-8.516-5.161,11.413-6.59,5.1,2.857v4.277Zm-6.294-5.137,6.306,3.822,6.851-3.955v-2.96L340.794,156Z" transform="translate(43.592 20.474)" fill="#263238"/>
    <rect id="Rect치ngulo_375490" data-name="Rect치ngulo 375490" width="63.093" height="17.087" transform="translate(282.746 89.924) rotate(-34.003)" fill="#263238"/>
    <rect id="Rect치ngulo_375491" data-name="Rect치ngulo 375491" width="15.331" height="20.209" transform="matrix(0.829, -0.559, 0.559, 0.829, 290.406, 57.009)" fill="#263238"/>
    <rect id="Rect치ngulo_375492" data-name="Rect치ngulo 375492" width="15.331" height="20.209" transform="translate(314.389 92.56) rotate(-34.004)" fill="#263238"/>
    <rect id="Rect치ngulo_375493" data-name="Rect치ngulo 375493" width="8.392" height="10.932" transform="translate(310.636 54.553) rotate(-34.005)" fill="#263238"/>
    <rect id="Rect치ngulo_375494" data-name="Rect치ngulo 375494" width="8.392" height="7.051" transform="translate(329.43 82.412) rotate(-34.001)" fill="#263238"/>
    <rect id="Rect치ngulo_375495" data-name="Rect치ngulo 375495" width="10.751" height="10.995" transform="matrix(0.829, -0.559, 0.559, 0.829, 283.969, 72.466)" fill="#263238"/>
    <rect id="Rect치ngulo_375496" data-name="Rect치ngulo 375496" width="10.751" height="6.988" transform="translate(302.798 100.378) rotate(-34.001)" fill="#263238"/>
    <rect id="Rect치ngulo_375497" data-name="Rect치ngulo 375497" width="4.92" height="4.89" transform="translate(296.459 103.273) rotate(-34.003)" fill="#263238"/>
    <rect id="Rect치ngulo_375498" data-name="Rect치ngulo 375498" width="3.975" height="3.95" transform="matrix(0.829, -0.559, 0.559, 0.829, 285.357, 62.869)" fill="#263238"/>
    <path id="Trazado_805823" data-name="Trazado 805823" d="M177.362.5,150.633,9.579l3.788,36.112,22.941,12.717Z" transform="translate(19.936 0.066)" fill="#fff"/>
    <g id="Grupo_1066684" data-name="Grupo 1066684">
      <g id="Grupo_1066683" data-name="Grupo 1066683" clip-path="url(#clip-path)">
        <path id="Trazado_805824" data-name="Trazado 805824" d="M177.428,59.041a.574.574,0,0,1-.274-.07L154.213,46.253a.567.567,0,0,1-.289-.437L150.136,9.7a.566.566,0,0,1,.38-.6L177.246.03a.568.568,0,0,1,.748.537V58.474a.567.567,0,0,1-.279.488.555.555,0,0,1-.288.078M155.019,45.4l21.843,12.109V1.358l-25.553,8.678Z" transform="translate(19.87 0)" fill="#263238"/>
        <path id="Trazado_805825" data-name="Trazado 805825" d="M174.319.5l26.729,9.078L197.26,45.691,174.319,58.408Z" transform="translate(23.071 0.066)" fill="#263238"/>
        <path id="Trazado_805826" data-name="Trazado 805826" d="M174.385,59.041a.565.565,0,0,1-.566-.566V.566a.566.566,0,0,1,.748-.536L201.3,9.109a.568.568,0,0,1,.38.6L197.89,45.816a.566.566,0,0,1-.289.436L174.659,58.969a.562.562,0,0,1-.274.071m.566-57.684V57.513L196.8,45.4,200.5,10.036Z" transform="translate(23.005 0)" fill="#263238"/>
        <path id="Trazado_805827" data-name="Trazado 805827" d="M187.436,43.663H193L176.241,6.739,159.483,43.663h5.562l3.84-8.46H183.6ZM171.248,30l4.993-11,4.993,11Z" transform="translate(21.107 0.892)" fill="#fff"/>
        <path id="Trazado_805828" data-name="Trazado 805828" d="M193.066,44.291H187.5a.566.566,0,0,1-.516-.332L183.3,35.831H169.316l-3.689,8.128a.565.565,0,0,1-.515.332h-5.563a.566.566,0,0,1-.515-.8L175.792,6.568a.589.589,0,0,1,1.03,0l16.759,36.924a.566.566,0,0,1-.515.8m-5.2-1.132h4.319L176.307,8.171l-15.88,34.987h4.32l3.689-8.127a.566.566,0,0,1,.515-.333h14.711a.566.566,0,0,1,.515.333ZM181.3,30.624h-9.985a.566.566,0,0,1-.515-.8l4.993-11a.589.589,0,0,1,1.03,0l4.993,11a.566.566,0,0,1-.515.8m-9.106-1.132h8.228l-4.114-9.063Z" transform="translate(21.041 0.829)" fill="#263238"/>
      </g>
    </g>
    <path id="Trazado_805829" data-name="Trazado 805829" d="M86.48,56.046,79.274,43.564H53.808l32.673,56.59,32.673-56.59H93.687Z" transform="translate(7.121 5.766)" fill="#fff"/>
    <g id="Grupo_1066686" data-name="Grupo 1066686">
      <g id="Grupo_1066685" data-name="Grupo 1066685" clip-path="url(#clip-path)">
        <path id="Trazado_805830" data-name="Trazado 805830" d="M86.547,100.788a.567.567,0,0,1-.49-.283L53.384,43.913a.566.566,0,0,1,.49-.849H79.341a.567.567,0,0,1,.49.283L86.547,54.98l6.716-11.633a.565.565,0,0,1,.49-.283H119.22a.566.566,0,0,1,.49.849L87.037,100.5a.567.567,0,0,1-.49.283M54.855,44.2,86.547,99.089,118.239,44.2H94.081L87.037,56.4a.588.588,0,0,1-.981,0L79.014,44.2Z" transform="translate(7.055 5.699)" fill="#263238"/>
        <path id="Trazado_805831" data-name="Trazado 805831" d="M84.947,56.046,77.74,43.564H65.4L84.947,77.427,104.5,43.564H92.153Z" transform="translate(8.655 5.766)" fill="#263238"/>
        <path id="Trazado_805832" data-name="Trazado 805832" d="M85.012,78.059a.567.567,0,0,1-.49-.283L64.972,43.913a.566.566,0,0,1,.49-.849H77.806a.565.565,0,0,1,.49.283L85.012,54.98l6.717-11.633a.565.565,0,0,1,.49-.283h12.344a.566.566,0,0,1,.49.849L85.5,77.776a.568.568,0,0,1-.491.283M66.443,44.2,85.012,76.361,103.583,44.2H92.546L85.5,56.4a.589.589,0,0,1-.982,0L77.48,44.2Z" transform="translate(8.589 5.699)" fill="#263238"/>
      </g>
    </g>
    <g id="Grupo_1066688" data-name="Grupo 1066688">
      <g id="Grupo_1066687" data-name="Grupo 1066687" clip-path="url(#clip-path)">
        <path id="Trazado_805833" data-name="Trazado 805833" d="M56.779,140.934c-1.143-.437-2.354-.838-3.624-1.2.279-1.29.5-2.548.649-3.762.883-7.035-.563-11.955-4.071-13.85s-8.413-.41-13.817,4.184c-.677.576-1.354,1.2-2.029,1.85q-1.023-.972-2.05-1.829c-5.452-4.533-10.375-5.966-13.862-4.032s-4.877,6.868-3.918,13.9c.164,1.206.4,2.455.686,3.737-1.259.371-2.461.781-3.593,1.227-6.6,2.6-10.221,6.23-10.2,10.216s3.677,7.58,10.3,10.118c1.143.437,2.354.837,3.624,1.2-.28,1.291-.5,2.548-.65,3.761-.882,7.038.564,11.956,4.071,13.852a6.832,6.832,0,0,0,3.3.8c3.029,0,6.646-1.7,10.517-4.986.677-.578,1.354-1.2,2.029-1.853.682.648,1.366,1.26,2.048,1.829,3.869,3.218,7.47,4.871,10.482,4.871a6.887,6.887,0,0,0,3.381-.838c3.485-1.935,4.877-6.87,3.918-13.9-.164-1.206-.4-2.455-.687-3.736,1.26-.371,2.462-.781,3.594-1.229,6.6-2.6,10.221-6.23,10.2-10.217s-3.677-7.578-10.3-10.115M46.429,124.607a3.638,3.638,0,0,1,1.745.4c2.168,1.172,3.056,5.118,2.375,10.556-.137,1.089-.333,2.217-.581,3.374a67.853,67.853,0,0,0-8.043-1.234,66.126,66.126,0,0,0-5.735-7.209c.617-.6,1.237-1.163,1.855-1.689,3.211-2.729,6.193-4.2,8.385-4.2m1.133,30.563c.674,1.72,1.243,3.385,1.713,4.977-1.545.353-3.192.657-4.929.907q.955-1.593,1.858-3.256.708-1.313,1.358-2.628m-4.246,1.067c-1.011,1.872-2.059,3.631-3.124,5.281q-2.933.245-6.126.265c-2.122.01-4.165-.061-6.119-.2-1.1-1.668-2.167-3.421-3.177-5.242-.935-1.686-1.795-3.382-2.577-5.066q1.124-2.5,2.522-5.088c.991-1.834,2.037-3.6,3.122-5.281,1.957-.163,4-.256,6.127-.266h.4c1.945,0,3.859.071,5.724.207,1.1,1.667,2.165,3.419,3.175,5.238.951,1.714,1.808,3.406,2.577,5.058-.764,1.694-1.6,3.4-2.522,5.1m-9.2,13.314c-1.275-1.391-2.536-2.914-3.764-4.551q1.644.066,3.321.067h.41c1.261-.007,2.509-.044,3.745-.105-1.235,1.685-2.48,3.217-3.712,4.591M21.9,157.931q.916,1.651,1.888,3.225c-1.737-.229-3.385-.516-4.93-.854.452-1.593,1-3.26,1.655-4.983q.666,1.308,1.387,2.612m-1.43-10.684c-.662-1.689-1.234-3.352-1.714-4.974,1.545-.352,3.192-.656,4.929-.9q-.955,1.59-1.858,3.254-.708,1.31-1.357,2.624M33.914,132.87c1.276,1.392,2.538,2.915,3.767,4.555q-1.848-.075-3.734-.069c-1.261.006-2.51.044-3.746.1,1.209-1.651,2.453-3.188,3.713-4.591m12.217,11.621q-.914-1.651-1.885-3.22c1.706.225,3.353.512,4.926.854-.461,1.622-1.013,3.285-1.654,4.976-.444-.871-.9-1.743-1.386-2.609M17.31,135.747c-.741-5.428.1-9.386,2.259-10.581a3.644,3.644,0,0,1,1.795-.421c2.187,0,5.161,1.435,8.376,4.108q.936.778,1.873,1.669a66.022,66.022,0,0,0-5.649,7.261,66.97,66.97,0,0,0-8.04,1.317c-.258-1.149-.465-2.27-.614-3.353M4.233,151.356c-.015-2.954,4.242-6.129,11.347-8.249A67.978,67.978,0,0,0,18.6,151.3a67.849,67.849,0,0,0-2.927,8.207c-7.136-2.051-11.427-5.191-11.441-8.147m15.623,26.055c-2.6-1.4-3.345-6.67-1.794-13.929a67.453,67.453,0,0,0,8.043,1.235,65.913,65.913,0,0,0,5.733,7.2c-3.958,3.834-7.631,5.9-10.222,5.9a3.646,3.646,0,0,1-1.761-.41m28.6-.156c-2.155,1.2-5.957-.182-10.171-3.686q-.936-.78-1.874-1.669a65.99,65.99,0,0,0,5.649-7.261,67.42,67.42,0,0,0,8.04-1.318c1.626,7.235.94,12.5-1.644,13.934m3.989-17.939a67.834,67.834,0,0,0-3.021-8.189,67.961,67.961,0,0,0,2.926-8.206c1.139.327,2.226.685,3.251,1.079,5.117,1.959,8.179,4.6,8.191,7.067.014,2.954-4.242,6.129-11.347,8.249" transform="translate(0.126 16.057)" fill="#263238"/>
        <path id="Trazado_805834" data-name="Trazado 805834" d="M37.06,148.165a6.187,6.187,0,1,1-6.187-6.187,6.187,6.187,0,0,1,6.187,6.187" transform="translate(3.267 18.791)" fill="#263238"/>
      </g>
    </g>
    <g id="Grupo_1066693" data-name="Grupo 1066693">
      <g id="Grupo_1066692" data-name="Grupo 1066692" clip-path="url(#clip-path)">
        <path id="Trazado_805835" data-name="Trazado 805835" d="M283.358,240.02c0,4.591-7.9,8.31-17.637,8.31s-17.639-3.72-17.639-8.31,7.9-8.31,17.639-8.31,17.637,3.721,17.637,8.31" transform="translate(32.833 30.667)" fill="#4be5f1" opacity="0.2"/>
        <path id="Trazado_805837" data-name="Trazado 805837" d="M251.963,224.01l2.07,16.552c0,2.6,5.376,4.7,12.007,4.7s12.006-2.106,12.006-4.7l2.07-16.552Z" transform="translate(33.347 29.648)" fill="#fff"/>
        <path id="Trazado_805838" data-name="Trazado 805838" d="M266.106,245.9c-7.05,0-12.572-2.315-12.572-5.271l-2.065-16.479a.566.566,0,0,1,.562-.638h28.154a.566.566,0,0,1,.562.638l-2.07,16.55c0,2.885-5.518,5.2-12.569,5.2m-13.435-21.255,1.991,15.914c0,2.028,4.7,4.209,11.445,4.209s11.441-2.181,11.441-4.139l1.994-15.984Z" transform="translate(33.281 29.581)" fill="#263238"/>
        <path id="Trazado_805839" data-name="Trazado 805839" d="M280.118,224.655c0,3.048-6.3,5.518-14.077,5.518s-14.076-2.47-14.076-5.518,6.3-5.516,14.076-5.516,14.077,2.47,14.077,5.516" transform="translate(33.347 29.003)" fill="#fff"/>
        <path id="Trazado_805840" data-name="Trazado 805840" d="M266.107,230.8c-8.211,0-14.644-2.671-14.644-6.083s6.433-6.083,14.644-6.083,14.644,2.671,14.644,6.083-6.433,6.083-14.644,6.083m0-11.034c-8.083,0-13.511,2.56-13.511,4.951s5.428,4.951,13.511,4.951,13.511-2.56,13.511-4.951-5.428-4.951-13.511-4.951" transform="translate(33.281 28.937)" fill="#263238"/>
        <path id="Trazado_805841" data-name="Trazado 805841" d="M277.8,224.5c0,2.333-5.374,4.223-12,4.223s-12.005-1.89-12.005-4.223,5.375-4.22,12.005-4.22,12,1.89,12,4.22" transform="translate(33.589 29.154)" fill="#263238"/>
        <path id="Trazado_805842" data-name="Trazado 805842" d="M265.864,229.358c-6.094,0-12.571-1.678-12.571-4.788s6.477-4.788,12.571-4.788,12.571,1.677,12.571,4.788-6.477,4.788-12.571,4.788m0-8.443c-6.741,0-11.439,1.926-11.439,3.655s4.7,3.655,11.439,3.655S277.3,226.3,277.3,224.571s-4.7-3.655-11.439-3.655" transform="translate(33.523 29.088)" fill="#263238"/>
        <path id="Trazado_805843" data-name="Trazado 805843" d="M264.531,227.353s-7.407-3.438-8.873-6.278-.323-9.038-.323-9.038a14.026,14.026,0,0,1,7.121,5.733c2.328,4.159,2.074,9.583,2.074,9.583" transform="translate(33.737 28.063)" fill="#4be5f1"/>
        <path id="Trazado_805844" data-name="Trazado 805844" d="M264.6,227.986a.57.57,0,0,1-.239-.053c-.31-.144-7.6-3.553-9.138-6.53s-.425-9.141-.377-9.4a.569.569,0,0,1,.269-.384.557.557,0,0,1,.465-.051,14.47,14.47,0,0,1,7.438,5.995c2.38,4.251,2.156,9.658,2.146,9.885a.566.566,0,0,1-.565.54m-8.747-15.1c-.239,1.653-.709,5.892.377,8,1,1.939,5.416,4.442,7.805,5.636a19.211,19.211,0,0,0-2-8.405,13.182,13.182,0,0,0-6.178-5.226" transform="translate(33.671 27.997)" fill="#263238"/>
        <path id="Trazado_805845" data-name="Trazado 805845" d="M263.367,227.517s.292-9.072,2.488-12.584,9.8-5.415,9.8-5.415-.732,6.732-3.513,10.975-8.779,7.024-8.779,7.024" transform="translate(34.856 27.73)" fill="#4be5f1"/>
        <path id="Trazado_805846" data-name="Trazado 805846" d="M263.433,228.149a.566.566,0,0,1-.566-.585c.012-.376.324-9.265,2.574-12.865,2.29-3.664,9.827-5.584,10.147-5.664a.567.567,0,0,1,.7.61c-.032.281-.779,6.916-3.6,11.224-2.835,4.33-8.763,7.111-9.015,7.228a.581.581,0,0,1-.238.052m11.612-17.785c-1.983.592-7.006,2.313-8.646,4.934-1.676,2.685-2.206,8.931-2.352,11.336,1.727-.926,5.647-3.267,7.691-6.385,2.1-3.209,3.011-7.972,3.306-9.884" transform="translate(34.79 27.663)" fill="#263238"/>
        <path id="Trazado_805847" data-name="Trazado 805847" d="M264.767,228.358s-4.243-4.976-4.243-10.681,4.535-10.1,4.535-10.1a22.631,22.631,0,0,1,3.8,9.218c.585,4.831-4.1,11.56-4.1,11.56" transform="translate(34.48 27.473)" fill="#4be5f1"/>
        <path id="Trazado_805848" data-name="Trazado 805848" d="M264.833,228.991a.566.566,0,0,1-.431-.2c-.178-.209-4.378-5.2-4.378-11.049,0-5.878,4.516-10.317,4.708-10.5a.567.567,0,0,1,.85.071,22.969,22.969,0,0,1,3.909,9.486c.606,4.986-4,11.669-4.194,11.951a.561.561,0,0,1-.437.242h-.027m.223-20.439c-1.124,1.277-3.9,4.87-3.9,9.19,0,4.3,2.558,8.24,3.637,9.706,1.119-1.774,4.024-6.8,3.575-10.515a21.539,21.539,0,0,0-3.312-8.382" transform="translate(34.414 27.407)" fill="#263238"/>
      </g>
    </g>
  </g>
</svg>
