<svg id="Grupo_1066798" data-name="Grupo 1066798" xmlns="http://www.w3.org/2000/svg" xmlns:xlink="http://www.w3.org/1999/xlink" width="315" height="308.324" viewBox="0 0 315 308.324">
  <defs>
    <clipPath id="clip-path">
      <rect id="Rectángulo_375612" data-name="Rectángulo 375612" width="315" height="308.324" fill="none"/>
    </clipPath>
    <clipPath id="clip-path-2">
      <rect id="Rectángulo_375614" data-name="Rectángulo 375614" width="315" height="308.324" fill="#4be5f1"/>
    </clipPath>
    <clipPath id="clip-path-3">
      <rect id="Rectángulo_375613" data-name="Rectángulo 375613" width="274.802" height="38.402" fill="#4be5f1"/>
    </clipPath>
    <clipPath id="clip-path-5">
      <rect id="Rectángulo_375615" data-name="Rectángulo 375615" width="244.363" height="134.251" fill="none"/>
    </clipPath>
    <clipPath id="clip-path-7">
      <rect id="Rectángulo_375617" data-name="Rectángulo 375617" width="93.836" height="122.688" fill="none"/>
    </clipPath>
    <clipPath id="clip-path-9">
      <rect id="Rectángulo_375636" data-name="Rectángulo 375636" width="25.783" height="20.702" fill="none"/>
    </clipPath>
    <clipPath id="clip-path-10">
      <rect id="Rectángulo_375637" data-name="Rectángulo 375637" width="47.531" height="79.241" fill="none"/>
    </clipPath>
    <clipPath id="clip-path-11">
      <rect id="Rectángulo_375638" data-name="Rectángulo 375638" width="22.114" height="51.275" fill="none"/>
    </clipPath>
    <clipPath id="clip-path-12">
      <rect id="Rectángulo_375639" data-name="Rectángulo 375639" width="34.688" height="14.358" fill="none"/>
    </clipPath>
    <clipPath id="clip-path-13">
      <rect id="Rectángulo_375640" data-name="Rectángulo 375640" width="7.272" height="10.176" fill="none"/>
    </clipPath>
  </defs>
  <g id="Grupo_1066799" data-name="Grupo 1066799">
    <g id="Grupo_1066764" data-name="Grupo 1066764">
      <g id="Grupo_1066763" data-name="Grupo 1066763" clip-path="url(#clip-path)">
        <path id="Trazado_806083" data-name="Trazado 806083" d="M89.379,290.832H86.214a.4.4,0,1,1,0-.792h3.165a.4.4,0,1,1,0,.792m-6.331,0H79.883a.4.4,0,1,1,0-.792h3.165a.4.4,0,1,1,0,.792m-6.331,0H73.552a.4.4,0,0,1,0-.792h3.165a.4.4,0,1,1,0,.792m-6.33,0H67.22a.4.4,0,1,1,0-.792h3.166a.4.4,0,0,1,0,.792m-6.331,0H60.889a.4.4,0,0,1,0-.792h3.166a.4.4,0,0,1,0,.792m-6.331,0H54.559a.4.4,0,1,1,0-.792h3.165a.4.4,0,1,1,0,.792m-6.331,0H48.227a.4.4,0,1,1,0-.792h3.165a.4.4,0,1,1,0,.792m-6.331,0H41.9a.4.4,0,1,1,0-.792h3.165a.4.4,0,1,1,0,.792m-6.331,0-3.174-.005a.4.4,0,0,1-.387-.4.409.409,0,0,1,.4-.387l3.157.005a.4.4,0,1,1,0,.792m53.79-.329a.4.4,0,0,1-.08-.783,15.263,15.263,0,0,0,2.936-.929.4.4,0,0,1,.314.727,16.077,16.077,0,0,1-3.088.976.4.4,0,0,1-.081.009m-60.09-.067a.382.382,0,0,1-.089-.011,16.144,16.144,0,0,1-3.068-1.038.4.4,0,0,1,.328-.72,15.351,15.351,0,0,0,2.917.988.4.4,0,0,1-.088.781m65.863-2.425a.4.4,0,0,1-.227-.72,15.453,15.453,0,0,0,2.338-2.007.4.4,0,0,1,.572.547,16.186,16.186,0,0,1-2.458,2.108.389.389,0,0,1-.226.072m-71.585-.181a.392.392,0,0,1-.232-.075,16.312,16.312,0,0,1-2.416-2.157.4.4,0,0,1,.584-.535,15.443,15.443,0,0,0,2.3,2.052.4.4,0,0,1-.233.716m75.923-4.371a.388.388,0,0,1-.209-.061.4.4,0,0,1-.125-.546,15.267,15.267,0,0,0,1.369-2.758.4.4,0,1,1,.74.278,16.072,16.072,0,0,1-1.439,2.9.4.4,0,0,1-.336.185m-80.17-.265a.4.4,0,0,1-.339-.192,16.032,16.032,0,0,1-1.381-2.929.4.4,0,1,1,.746-.264,15.24,15.24,0,0,0,1.314,2.786.4.4,0,0,1-.136.543.391.391,0,0,1-.2.057m82.381-5.619a.359.359,0,0,1-.062,0,.4.4,0,0,1-.329-.453,15.576,15.576,0,0,0,.189-2.416.4.4,0,1,1,.792,0,16.361,16.361,0,0,1-.2,2.54.4.4,0,0,1-.39.334m-84.474-.31a.4.4,0,0,1-.392-.341,16.238,16.238,0,0,1-.152-2.223v-.989a.4.4,0,0,1,.791,0v.989a15.461,15.461,0,0,0,.145,2.114.4.4,0,0,1-.338.446.478.478,0,0,1-.055,0m-.149-6.323a.4.4,0,0,1-.4-.4v-3.165a.4.4,0,1,1,.791,0v3.165a.4.4,0,0,1-.4.4m0-6.33a.4.4,0,0,1-.4-.4v-3.166a.4.4,0,1,1,.791,0v3.166a.4.4,0,0,1-.4.4m0-6.331a.4.4,0,0,1-.4-.4V254.72a.4.4,0,1,1,.791,0v3.165a.4.4,0,0,1-.4.4m0-6.332a.4.4,0,0,1-.4-.4v-3.166a.4.4,0,0,1,.791,0v3.166a.4.4,0,0,1-.4.4m0-6.33a.4.4,0,0,1-.4-.4v-3.166a.4.4,0,1,1,.791,0v3.166a.4.4,0,0,1-.4.4m0-6.331a.4.4,0,0,1-.4-.4v-3.165a.4.4,0,1,1,.791,0v3.165a.4.4,0,0,1-.4.4m0-6.331a.4.4,0,0,1-.4-.4V229.4a.4.4,0,1,1,.791,0v3.165a.4.4,0,0,1-.4.4m0-6.331a.4.4,0,0,1-.4-.4v-3.166a.4.4,0,1,1,.791,0v3.166a.4.4,0,0,1-.4.4m0-6.331a.4.4,0,0,1-.4-.4v-3.166a.4.4,0,0,1,.791,0V219.9a.4.4,0,0,1-.4.4m0-6.331a.4.4,0,0,1-.4-.4V210.4a.4.4,0,1,1,.791,0v3.165a.4.4,0,0,1-.4.4m0-6.33a.4.4,0,0,1-.4-.4v-3.166a.4.4,0,1,1,.791,0v3.166a.4.4,0,0,1-.4.4m0-6.331a.4.4,0,0,1-.4-.4V197.74a.4.4,0,1,1,.791,0v3.165a.4.4,0,0,1-.4.4m0-6.331a.4.4,0,0,1-.4-.4v-3.165a.4.4,0,1,1,.791,0v3.165a.4.4,0,0,1-.4.4m0-6.331h0a.4.4,0,0,1-.393-.4,16.217,16.217,0,0,1,.348-3.219.4.4,0,1,1,.774.163,15.455,15.455,0,0,0-.33,3.063.4.4,0,0,1-.4.392m1.3-6.15a.4.4,0,0,1-.362-.554,16.189,16.189,0,0,1,1.585-2.824.4.4,0,1,1,.648.454,15.418,15.418,0,0,0-1.507,2.685.4.4,0,0,1-.364.238m3.611-5.147a.4.4,0,0,1-.272-.683,16.244,16.244,0,0,1,2.561-1.982.4.4,0,0,1,.42.671,15.475,15.475,0,0,0-2.436,1.886.4.4,0,0,1-.273.108m5.334-3.33a.4.4,0,0,1-.138-.767,16.144,16.144,0,0,1,3.134-.817.4.4,0,1,1,.121.782,15.257,15.257,0,0,0-2.979.777.386.386,0,0,1-.138.025m9.377-.984H36.676a.4.4,0,0,1,0-.792h3.166a.4.4,0,1,1,0,.792" transform="translate(-5.602 -48.671)" fill="#263238"/>
        <path id="Trazado_806084" data-name="Trazado 806084" d="M132.346,48.965a.4.4,0,0,1-.4-.4V45.4a.4.4,0,1,1,.791,0v3.166a.4.4,0,0,1-.4.4m0-6.331a.4.4,0,0,1-.4-.4V39.072a.4.4,0,1,1,.791,0v3.165a.4.4,0,0,1-.4.4m0-6.331a.4.4,0,0,1-.4-.4V32.741a.4.4,0,1,1,.791,0v3.165a.4.4,0,0,1-.4.4m88.647-4.392a.4.4,0,0,1-.4-.4,9.25,9.25,0,0,0-.373-2.606.4.4,0,0,1,.76-.222,10.046,10.046,0,0,1,.4,2.829.4.4,0,0,1-.4.4m-88.454-1.925a.374.374,0,0,1-.079-.009.4.4,0,0,1-.309-.466,9.958,9.958,0,0,1,1.173-3.065.4.4,0,1,1,.682.4,9.152,9.152,0,0,0-1.08,2.822.4.4,0,0,1-.387.317m86.695-3.629a.394.394,0,0,1-.323-.167,9.252,9.252,0,0,0-2.122-2.152.4.4,0,1,1,.465-.64,10.033,10.033,0,0,1,2.3,2.334.4.4,0,0,1-.323.624m-83.553-1.735a.4.4,0,0,1-.259-.7,10.008,10.008,0,0,1,2.8-1.712.4.4,0,0,1,.3.733,9.22,9.22,0,0,0-2.576,1.578.4.4,0,0,1-.259.1M214.2,22.7a.4.4,0,0,1-.118-.018,9.231,9.231,0,0,0-2.729-.41h-.275a.4.4,0,1,1,0-.792h.275a10.026,10.026,0,0,1,2.964.446.4.4,0,0,1-.117.774m-72.764-.413a.4.4,0,0,1-.022-.791q.28-.015.562-.016h2.624a.4.4,0,1,1,0,.792h-2.624c-.174,0-.347.005-.52.014h-.022m66.476-.015h-3.165a.4.4,0,0,1,0-.792h3.165a.4.4,0,0,1,0,.792m-6.331,0h-3.165a.4.4,0,0,1,0-.792h3.165a.4.4,0,0,1,0,.792m-6.331,0H192.09a.4.4,0,0,1,0-.792h3.165a.4.4,0,0,1,0,.792m-6.331,0h-3.165a.4.4,0,0,1,0-.792h3.165a.4.4,0,0,1,0,.792m-6.33,0h-3.166a.4.4,0,1,1,0-.792h3.166a.4.4,0,0,1,0,.792m-6.331,0H173.1a.4.4,0,0,1,0-.792h3.166a.4.4,0,0,1,0,.792m-6.331,0h-3.166a.4.4,0,0,1,0-.792h3.166a.4.4,0,0,1,0,.792m-6.331,0h-3.166a.4.4,0,0,1,0-.792H163.6a.4.4,0,0,1,0,.792m-6.331,0H154.1a.4.4,0,0,1,0-.792h3.165a.4.4,0,0,1,0,.792m-6.331,0h-3.165a.4.4,0,1,1,0-.792h3.165a.4.4,0,0,1,0,.792" transform="translate(-37.287 -6.07)" fill="#263238"/>
      </g>
    </g>
    <g id="Grupo_1066769" data-name="Grupo 1066769">
      <g id="Grupo_1066768" data-name="Grupo 1066768" clip-path="url(#clip-path-2)">
        <path id="Trazado_806085" data-name="Trazado 806085" d="M302.818,395.444c0,10.6-61.516,19.2-137.4,19.2s-137.4-8.6-137.4-19.2,61.516-19.2,137.4-19.2,137.4,8.6,137.4,19.2" transform="translate(-7.917 -106.32)" fill="#4be5f1"/>
        <g id="Grupo_1066767" data-name="Grupo 1066767" transform="translate(20.099 269.923)" opacity="0.5">
          <g id="Grupo_1066766" data-name="Grupo 1066766">
            <g id="Grupo_1066765" data-name="Grupo 1066765" clip-path="url(#clip-path-3)">
              <path id="Trazado_806086" data-name="Trazado 806086" d="M302.818,395.444c0,10.6-61.516,19.2-137.4,19.2s-137.4-8.6-137.4-19.2,61.516-19.2,137.4-19.2,137.4,8.6,137.4,19.2" transform="translate(-28.016 -376.243)" fill="#4be5f1"/>
            </g>
          </g>
        </g>
      </g>
    </g>
    <g id="Grupo_1066774" data-name="Grupo 1066774">
      <g id="Grupo_1066773" data-name="Grupo 1066773" clip-path="url(#clip-path)">
        <path id="Trazado_806087" data-name="Trazado 806087" d="M298.042,84.858V214.036a15.925,15.925,0,0,1-15.922,15.923H54.921A15.925,15.925,0,0,1,39,214.036V84.858c0-.38.016-.752.047-1.123A15.921,15.921,0,0,1,54.921,68.928h227.2A15.919,15.919,0,0,1,298,83.735c.032.372.047.744.047,1.123" transform="translate(-11.02 -19.478)" fill="#fff"/>
        <path id="Trazado_806088" data-name="Trazado 806088" d="M281.964,230.2H54.765a16.338,16.338,0,0,1-16.319-16.318V84.7c0-.39.017-.768.049-1.157a16.351,16.351,0,0,1,16.27-15.17h227.2a16.352,16.352,0,0,1,16.27,15.175c.033.383.049.762.049,1.151V213.879A16.337,16.337,0,0,1,281.964,230.2M54.765,69.167a15.558,15.558,0,0,0-15.48,14.438c-.032.367-.047.728-.047,1.1V213.879a15.545,15.545,0,0,0,15.527,15.527h227.2a15.544,15.544,0,0,0,15.526-15.527V84.7c0-.369-.015-.73-.046-1.09a15.558,15.558,0,0,0-15.48-14.444Z" transform="translate(-10.864 -19.322)" fill="#263238"/>
        <path id="Trazado_806089" data-name="Trazado 806089" d="M279.235,232.136H64.72A14.922,14.922,0,0,1,49.8,217.213V97.885h244.36V217.213a14.922,14.922,0,0,1-14.922,14.922" transform="translate(-14.072 -27.661)" fill="#263238"/>
        <g id="Grupo_1066772" data-name="Grupo 1066772" transform="translate(35.726 70.224)" opacity="0.2">
          <g id="Grupo_1066771" data-name="Grupo 1066771">
            <g id="Grupo_1066770" data-name="Grupo 1066770" clip-path="url(#clip-path-5)">
              <path id="Trazado_806090" data-name="Trazado 806090" d="M294.161,97.884V217.217A14.841,14.841,0,0,1,279.4,232.135H64.554A14.841,14.841,0,0,1,49.8,217.217V97.884Z" transform="translate(-49.798 -97.884)" fill="#fff"/>
            </g>
          </g>
        </g>
        <path id="Trazado_806091" data-name="Trazado 806091" d="M298.014,83.734H39.065A15.919,15.919,0,0,1,54.94,68.927h227.2a15.921,15.921,0,0,1,15.876,14.807" transform="translate(-11.039 -19.478)" fill="#4be5f1"/>
        <path id="Trazado_806092" data-name="Trazado 806092" d="M298.27,83.975H38.473l.029-.423a16.351,16.351,0,0,1,16.27-15.175h227.2a16.35,16.35,0,0,1,16.27,15.175ZM39.327,83.183h258.09a15.561,15.561,0,0,0-15.446-14.015H54.772A15.561,15.561,0,0,0,39.327,83.183" transform="translate(-10.872 -19.322)" fill="#263238"/>
        <path id="Trazado_806093" data-name="Trazado 806093" d="M81.2,78.136a2.821,2.821,0,1,1-2.82-2.82,2.82,2.82,0,0,1,2.82,2.82" transform="translate(-21.351 -21.283)" fill="#263238"/>
        <path id="Trazado_806094" data-name="Trazado 806094" d="M97.819,78.136A2.821,2.821,0,1,1,95,75.316a2.82,2.82,0,0,1,2.82,2.82" transform="translate(-26.048 -21.283)" fill="#263238"/>
        <path id="Trazado_806095" data-name="Trazado 806095" d="M114.442,78.136a2.821,2.821,0,1,1-2.82-2.82,2.82,2.82,0,0,1,2.82,2.82" transform="translate(-30.745 -21.283)" fill="#263238"/>
        <path id="Trazado_806096" data-name="Trazado 806096" d="M279.077,232.382H64.564a15.335,15.335,0,0,1-15-12.23l-.032-.032-.008-.171a15.067,15.067,0,0,1-.277-2.889V97.339H294.4V217.06a15.339,15.339,0,0,1-15.322,15.322M50.32,219.879h0a14.541,14.541,0,0,0,14.244,11.71H279.077a14.546,14.546,0,0,0,14.53-14.53V98.13H50.043V217.06a14.45,14.45,0,0,0,.269,2.78Z" transform="translate(-13.918 -27.506)" fill="#263238"/>
        <path id="Trazado_806097" data-name="Trazado 806097" d="M378.939,120.717a15.2,15.2,0,0,0-3.316-1.369l-1.338-5.99h-5.7l-1.329,5.99a14.685,14.685,0,0,0-3.324,1.369l-5.145-3.292-4.027,4.028L358,126.6a14.634,14.634,0,0,0-1.368,3.324l-5.992,1.329v5.7l5.992,1.337A14.538,14.538,0,0,0,358,141.634l-3.292,5.175,4.028,4.028,5.176-3.292a14.75,14.75,0,0,0,3.324,1.377l1.33,5.983h5.7l1.338-5.983a15.187,15.187,0,0,0,3.315-1.377l.262.166V120.567Zm-7.486,20.774a7.36,7.36,0,1,1,7.359-7.36,7.356,7.356,0,0,1-7.359,7.36" transform="translate(-99.085 -32.033)" fill="#263238"/>
        <path id="Trazado_806098" data-name="Trazado 806098" d="M212.466,122.116V110.1l-12.631-2.8a32.644,32.644,0,0,0-2.888-7.012l1.527-2.405H138.859l1.472,2.342a31.092,31.092,0,0,0-2.881,7l-12.63,2.809v12.013l12.63,2.817a31.518,31.518,0,0,0,2.881,7.059l-6.941,10.913,8.5,8.491,10.905-6.94a32.134,32.134,0,0,0,7.011,2.9l2.8,12.614h12.013l2.825-12.614a32.346,32.346,0,0,0,6.988-2.9l10.913,6.94,8.491-8.491-6.893-10.913a32.92,32.92,0,0,0,2.888-7ZM168.7,131.628a15.519,15.519,0,1,1,15.519-15.519A15.519,15.519,0,0,1,168.7,131.628" transform="translate(-35.272 -27.66)" fill="#263238"/>
        <path id="Trazado_806099" data-name="Trazado 806099" d="M111.586,230.241l.507-9.528-9.876-2.786a26.751,26.751,0,0,0-2.026-5.666l5.967-8.381-6.394-7.1-8.943,5.057a26.476,26.476,0,0,0-5.444-2.6l-1.71-10.13-9.529-.507-2.753,9.908a24.9,24.9,0,0,0-5.667,2.01l-8.372-5.967-7.107,6.394L55.3,209.9a24.714,24.714,0,0,0-2.612,5.437l-2.888.475v12.907l2.1.594a24.963,24.963,0,0,0,2.026,5.682L49.8,240.759l.277,4.946v.032l.008.008,4.25,4.717L63.3,245.4a24.8,24.8,0,0,0,5.46,2.635l1.631,9.726v.009l.079.4,9.528.507.253-.91v-.009l2.5-8.99a25.548,25.548,0,0,0,5.7-2.01l8.356,5.96,7.107-6.386-5.049-8.959a24.677,24.677,0,0,0,2.58-5.429ZM86.278,215.356a12.339,12.339,0,1,0-.918,17.418,12.34,12.34,0,0,0,.918-17.418" transform="translate(-14.074 -53.295)" fill="#263238"/>
        <path id="Trazado_806100" data-name="Trazado 806100" d="M224.368,214.589a19.408,19.408,0,0,0,.578-4.513l6.85-3.6-1.893-6.95-7.732.362a19.228,19.228,0,0,0-2.778-3.59l2.291-7.4-6.244-3.577-5.224,5.7a20.269,20.269,0,0,0-4.5-.573l-3.616-6.856-6.94,1.889.366,7.742a19.682,19.682,0,0,0-3.6,2.776l-7.4-2.284-3.581,6.234,5.73,5.21a18.793,18.793,0,0,0-.565,4.5l-6.863,3.614,1.893,6.95,7.742-.367a18.421,18.421,0,0,0,2.768,3.594l-2.3,7.359,6.244,3.577,5.2-5.651a18.965,18.965,0,0,0,4.508.568l3.606,6.861,6.94-1.888-.3-6.614-.052-1.133a19.052,19.052,0,0,0,3.632-2.779l7.394,2.3,3.055-5.34.521-.9Zm-16.409,4.222a9.3,9.3,0,1,1,6.526-11.413,9.3,9.3,0,0,1-6.526,11.413" transform="translate(-50.654 -51.881)" fill="#263238"/>
        <path id="Trazado_806101" data-name="Trazado 806101" d="M325.444,225.678l1.583-9.537-9.655-3.886a25.6,25.6,0,0,0-1.385-5.951l6.948-7.74-5.627-7.866-9.584,4.067a25.459,25.459,0,0,0-5.175-3.213l-.562-10.4-9.544-1.575-3.91,9.615a26.678,26.678,0,0,0-5.927,1.393l-7.764-6.948-7.858,5.627,4.076,9.575a26.062,26.062,0,0,0-2.9,4.511c-.11.222-.222.443-.324.665l-10.391.578-1.583,9.528,1.567.633,8.088,3.261a25.126,25.126,0,0,0,1.385,5.927l-6.948,7.763,5.627,7.859,9.584-4.084a24.863,24.863,0,0,0,5.168,3.237l.538,10.352,9.536,1.575,3.9-9.545a25.106,25.106,0,0,0,5.943-1.392l7.748,6.956,7.866-5.635-4.076-9.584a24.981,24.981,0,0,0,3.269-5.2Zm-26.757-.428a12.49,12.49,0,1,1,2.88-17.426,12.49,12.49,0,0,1-2.88,17.426" transform="translate(-72.301 -50.746)" fill="#263238"/>
      </g>
    </g>
    <g id="Grupo_1066779" data-name="Grupo 1066779">
      <g id="Grupo_1066778" data-name="Grupo 1066778" clip-path="url(#clip-path)">
        <path id="Trazado_806102" data-name="Trazado 806102" d="M139.357,268.067H64.332a9.406,9.406,0,0,1-9.405-9.405V154.784a9.406,9.406,0,0,1,9.405-9.405h75.025a9.406,9.406,0,0,1,9.405,9.405V258.662a9.406,9.406,0,0,1-9.405,9.405" transform="translate(-15.521 -41.082)" fill="#4be5f1"/>
        <path id="Trazado_806103" data-name="Trazado 806103" d="M139.2,268.307H64.176a9.813,9.813,0,0,1-9.8-9.8V154.628a9.813,9.813,0,0,1,9.8-9.8H139.2a9.813,9.813,0,0,1,9.8,9.8V258.507a9.813,9.813,0,0,1-9.8,9.8M64.176,145.619a9.019,9.019,0,0,0-9.009,9.009V258.507a9.019,9.019,0,0,0,9.009,9.009H139.2a9.019,9.019,0,0,0,9.009-9.009V154.628a9.019,9.019,0,0,0-9.009-9.009Z" transform="translate(-15.366 -40.926)" fill="#263238"/>
        <g id="Grupo_1066777" data-name="Grupo 1066777" transform="translate(39.405 100.088)" opacity="0.2">
          <g id="Grupo_1066776" data-name="Grupo 1066776">
            <g id="Grupo_1066775" data-name="Grupo 1066775" clip-path="url(#clip-path-7)">
              <path id="Trazado_806104" data-name="Trazado 806104" d="M139.357,268.067H64.332a9.406,9.406,0,0,1-9.405-9.405V154.784a9.406,9.406,0,0,1,9.405-9.405h75.025a9.406,9.406,0,0,1,9.405,9.405V258.662a9.406,9.406,0,0,1-9.405,9.405" transform="translate(-54.927 -141.379)"/>
            </g>
          </g>
        </g>
        <path id="Trazado_806105" data-name="Trazado 806105" d="M160.939,167.7V271.579a9.406,9.406,0,0,1-9.41,9.41H76.507a9.4,9.4,0,0,1-9.4-9.41V167.7a9.4,9.4,0,0,1,9.4-9.4H151.53a9.4,9.4,0,0,1,9.41,9.4" transform="translate(-18.963 -44.733)" fill="#fff"/>
        <path id="Trazado_806106" data-name="Trazado 806106" d="M151.373,281.228H76.35a9.813,9.813,0,0,1-9.8-9.8V167.546a9.809,9.809,0,0,1,9.8-9.8h75.024a9.813,9.813,0,0,1,9.8,9.8V271.423a9.816,9.816,0,0,1-9.8,9.8M76.35,158.54a9.016,9.016,0,0,0-9.006,9.006V271.423a9.02,9.02,0,0,0,9.006,9.014h75.024a9.024,9.024,0,0,0,9.014-9.014V167.546a9.02,9.02,0,0,0-9.014-9.006Z" transform="translate(-18.807 -44.577)" fill="#263238"/>
        <path id="Trazado_806107" data-name="Trazado 806107" d="M160.939,167.7v5.564H67.105V167.7a9.4,9.4,0,0,1,9.4-9.4H151.53a9.4,9.4,0,0,1,9.41,9.4" transform="translate(-18.963 -44.733)" fill="#4be5f1"/>
        <path id="Trazado_806108" data-name="Trazado 806108" d="M161.178,173.506H66.552v-5.96a9.809,9.809,0,0,1,9.8-9.8h75.024a9.812,9.812,0,0,1,9.8,9.8Zm-93.834-.792h93.043v-5.168a9.02,9.02,0,0,0-9.014-9.006H76.35a9.016,9.016,0,0,0-9.006,9.006Z" transform="translate(-18.807 -44.577)" fill="#263238"/>
        <rect id="Rectángulo_375618" data-name="Rectángulo 375618" width="23.085" height="3.872" transform="translate(56.966 134.976)" fill="#451484"/>
        <rect id="Rectángulo_375619" data-name="Rectángulo 375619" width="23.085" height="3.872" transform="translate(56.966 169.691)" fill="#451484"/>
        <rect id="Rectángulo_375620" data-name="Rectángulo 375620" width="23.085" height="3.872" transform="translate(56.966 201.171)" fill="#451484"/>
        <rect id="Rectángulo_375621" data-name="Rectángulo 375621" width="65.566" height="2.84" transform="translate(56.966 144.562)" fill="#263238"/>
        <rect id="Rectángulo_375622" data-name="Rectángulo 375622" width="53.743" height="2.767" transform="translate(56.966 149.999)" fill="#263238"/>
        <rect id="Rectángulo_375623" data-name="Rectángulo 375623" width="60.781" height="2.768" transform="translate(56.966 155.342)" fill="#263238"/>
        <rect id="Rectángulo_375624" data-name="Rectángulo 375624" width="60.781" height="2.767" transform="translate(56.966 160.682)" fill="#263238"/>
        <rect id="Rectángulo_375625" data-name="Rectángulo 375625" width="65.566" height="2.84" transform="translate(56.966 176.042)" fill="#263238"/>
        <rect id="Rectángulo_375626" data-name="Rectángulo 375626" width="53.743" height="2.767" transform="translate(56.966 181.479)" fill="#263238"/>
        <rect id="Rectángulo_375627" data-name="Rectángulo 375627" width="60.781" height="2.768" transform="translate(56.966 186.822)" fill="#263238"/>
        <rect id="Rectángulo_375628" data-name="Rectángulo 375628" width="65.566" height="2.84" transform="translate(56.966 210.612)" fill="#263238"/>
        <rect id="Rectángulo_375629" data-name="Rectángulo 375629" width="53.743" height="2.768" transform="translate(56.966 216.048)" fill="#263238"/>
        <rect id="Rectángulo_375630" data-name="Rectángulo 375630" width="60.781" height="2.768" transform="translate(56.966 221.392)" fill="#263238"/>
        <path id="Trazado_806109" data-name="Trazado 806109" d="M298.38,53.483V95.466a11.21,11.21,0,0,1-11.214,11.214h-96.7a11.215,11.215,0,0,1-11.215-11.214V53.483a11.222,11.222,0,0,1,11.215-11.222h96.7A11.217,11.217,0,0,1,298.38,53.483" transform="translate(-50.654 -11.942)" fill="#fff"/>
        <path id="Trazado_806110" data-name="Trazado 806110" d="M287.01,106.919h-96.7A11.623,11.623,0,0,1,178.7,95.31V53.327a11.627,11.627,0,0,1,11.61-11.618h96.7a11.627,11.627,0,0,1,11.61,11.618V95.31a11.623,11.623,0,0,1-11.61,11.609M190.311,42.5a10.834,10.834,0,0,0-10.819,10.826V95.31a10.83,10.83,0,0,0,10.819,10.818h96.7A10.83,10.83,0,0,0,297.828,95.31V53.327A10.834,10.834,0,0,0,287.01,42.5Z" transform="translate(-50.498 -11.786)" fill="#222221"/>
        <path id="Trazado_806111" data-name="Trazado 806111" d="M298.38,53.483v.958H179.252v-.958a11.222,11.222,0,0,1,11.215-11.222h96.7A11.217,11.217,0,0,1,298.38,53.483" transform="translate(-50.654 -11.942)" fill="#4be5f1"/>
        <path id="Trazado_806112" data-name="Trazado 806112" d="M298.619,54.681H178.7V53.327a11.628,11.628,0,0,1,11.611-11.618h96.7a11.627,11.627,0,0,1,11.609,11.618Zm-119.127-.792H297.828v-.562A10.834,10.834,0,0,0,287.01,42.5h-96.7a10.834,10.834,0,0,0-10.819,10.826Z" transform="translate(-50.498 -11.786)" fill="#263238"/>
        <path id="Trazado_806113" data-name="Trazado 806113" d="M202.491,52.39a1.718,1.718,0,1,1,0-2.429,1.718,1.718,0,0,1,0,2.429" transform="translate(-56.392 -13.976)" fill="#263238"/>
        <path id="Trazado_806114" data-name="Trazado 806114" d="M213.611,52.39a1.718,1.718,0,1,1,0-2.429,1.718,1.718,0,0,1,0,2.429" transform="translate(-59.535 -13.976)" fill="#263238"/>
        <path id="Trazado_806115" data-name="Trazado 806115" d="M224.732,52.39a1.718,1.718,0,1,1,0-2.429,1.718,1.718,0,0,1,0,2.429" transform="translate(-62.677 -13.976)" fill="#263238"/>
        <path id="Trazado_806116" data-name="Trazado 806116" d="M228.625,103.9H225.46a.4.4,0,1,1,0-.792h3.165a.4.4,0,1,1,0,.792m-6.331,0h-3.165a.4.4,0,1,1,0-.792h3.165a.4.4,0,0,1,0,.792m-6.33,0H212.8a.4.4,0,0,1,0-.792h3.166a.4.4,0,0,1,0,.792m-6.332,0h-3.165a.4.4,0,0,1,0-.792h3.165a.4.4,0,1,1,0,.792m-6.33,0h-3.166a.4.4,0,1,1,0-.792H203.3a.4.4,0,1,1,0,.792m-6.331,0H193.8a.4.4,0,0,1,0-.792h3.166a.4.4,0,0,1,0,.792m-6.331,0h-.953a.4.4,0,0,1-.4-.4v-2.212a.4.4,0,1,1,.791,0v1.816h.558a.4.4,0,0,1,0,.792m37.986-2.751a.4.4,0,0,1-.4-.4V97.587a.4.4,0,0,1,.792,0v3.166a.4.4,0,0,1-.4.4m-38.94-2.627a.4.4,0,0,1-.4-.4V94.96a.4.4,0,1,1,.791,0v3.166a.4.4,0,0,1-.4.4m38.94-3.7a.4.4,0,0,1-.4-.4V91.256a.4.4,0,0,1,.792,0v3.166a.4.4,0,0,1-.4.4m-38.94-2.626a.4.4,0,0,1-.4-.4V88.629a.4.4,0,0,1,.791,0v3.166a.4.4,0,0,1-.4.4m38.94-3.7a.4.4,0,0,1-.4-.4V84.925a.4.4,0,1,1,.792,0V88.09a.4.4,0,0,1-.4.4m-38.94-2.627a.4.4,0,0,1-.4-.4V82.3a.4.4,0,1,1,.791,0v3.165a.4.4,0,0,1-.4.4m38.94-3.7a.4.4,0,0,1-.4-.4V78.594a.4.4,0,1,1,.792,0v3.165a.4.4,0,0,1-.4.4m-38.94-2.627a.4.4,0,0,1-.4-.4V75.967a.4.4,0,1,1,.791,0v3.165a.4.4,0,0,1-.4.4m38.94-3.7a.4.4,0,0,1-.4-.4V72.263a.4.4,0,1,1,.792,0v3.165a.4.4,0,0,1-.4.4M189.685,73.2a.4.4,0,0,1-.4-.4V69.843a.4.4,0,0,1,.4-.4h.207a.4.4,0,0,1,.188.745V72.8a.4.4,0,0,1-.4.4m38.194-2.958h-3.165a.4.4,0,1,1,0-.792h3.165a.4.4,0,1,1,0,.792m-6.331,0h-3.165a.4.4,0,1,1,0-.792h3.165a.4.4,0,0,1,0,.792m-6.33,0h-3.166a.4.4,0,0,1,0-.792h3.166a.4.4,0,0,1,0,.792m-6.332,0H205.72a.4.4,0,0,1,0-.792h3.165a.4.4,0,1,1,0,.792m-6.33,0h-3.165a.4.4,0,1,1,0-.792h3.165a.4.4,0,0,1,0,.792m-6.331,0h-3.166a.4.4,0,0,1,0-.792h3.166a.4.4,0,1,1,0,.792" transform="translate(-53.49 -19.625)" fill="#263238"/>
        <rect id="Rectángulo_375631" data-name="Rectángulo 375631" width="44.815" height="2.364" transform="translate(181.143 50.218)" fill="#263238"/>
        <rect id="Rectángulo_375632" data-name="Rectángulo 375632" width="34.376" height="2.364" transform="translate(181.143 55.12)" fill="#263238"/>
        <rect id="Rectángulo_375633" data-name="Rectángulo 375633" width="51.19" height="2.392" transform="translate(181.142 59.995)" fill="#263238"/>
        <rect id="Rectángulo_375634" data-name="Rectángulo 375634" width="43.589" height="2.392" transform="translate(181.143 64.756)" fill="#263238"/>
      </g>
    </g>
    <g id="Grupo_1066796" data-name="Grupo 1066796">
      <g id="Grupo_1066795" data-name="Grupo 1066795" clip-path="url(#clip-path)">
        <path id="Trazado_806117" data-name="Trazado 806117" d="M247.043,394.888s-20.806,5.967-23.71,7c-2.644.934-9.806,3.443-15.179,2.667a11.752,11.752,0,0,1-1.535-.332c-5.444-1.623-7.89-3.134-8.6-6.561s1.994-5.943,4.607-7.558,16.777-3.3,16.777-3.3l3.419,1.005h.008Z" transform="translate(-55.923 -109.304)" fill="#4be5f1"/>
        <path id="Trazado_806118" data-name="Trazado 806118" d="M208.154,404.551a11.751,11.751,0,0,1-1.535-.332c-5.444-1.623-7.89-3.134-8.6-6.561s1.994-5.943,4.606-7.558,16.777-3.3,16.777-3.3l3.419,1.005c-3.095,1.425-14.633,2.216-17.15,3.665s-3.735,4.178-2.247,7.866c.791,1.963,2.912,3.863,4.732,5.216" transform="translate(-55.923 -109.304)" fill="#fff"/>
        <path id="Trazado_806119" data-name="Trazado 806119" d="M210.567,405.127c-4.552,0-8.877-1.093-11.124-3.944-2.288-2.9-2.137-5.339-1.608-6.871a7.8,7.8,0,0,1,5.55-4.721c4.32-1.047,12.869-2.649,17.522-2a.4.4,0,1,1-.109.783c-4.532-.628-12.962.952-17.227,1.987a6.992,6.992,0,0,0-4.989,4.211c-.666,1.929-.154,4.046,1.481,6.122,3.893,4.942,15.3,4.2,21.764,1.5,6.15-2.572,21.718-6.617,21.874-6.658a.4.4,0,0,1,.2.766c-.156.04-15.67,4.071-21.768,6.622a31.631,31.631,0,0,1-11.568,2.205" transform="translate(-55.812 -109.485)" fill="#263238"/>
        <path id="Trazado_806120" data-name="Trazado 806120" d="M210.173,404.9a.4.4,0,0,1-.19-.049c-.082-.045-8.234-4.606-5.483-10.973,1.286-2.974,5.952-3.7,10.464-4.406a30.268,30.268,0,0,0,7.536-1.792.4.4,0,1,1,.336.716,30.721,30.721,0,0,1-7.751,1.858c-4.3.671-8.747,1.364-9.859,3.937-2.466,5.706,5.061,9.923,5.137,9.966a.4.4,0,0,1-.191.743" transform="translate(-57.628 -109.542)" fill="#263238"/>
        <path id="Trazado_806121" data-name="Trazado 806121" d="M337.645,405.358a6.6,6.6,0,0,1-3.118,5.437,12.2,12.2,0,0,1-6.394,1.321c-7.3-.095-21.012-5.31-21.012-5.31l-12.844-7.1,6.679-10.573,1.828-2.9,4.725,1.06s3.909,2.216,7.843,3.981,13.477,2.136,16.841,4.859,5.816,5.674,5.452,9.22" transform="translate(-83.158 -109.145)" fill="#4be5f1"/>
        <path id="Trazado_806122" data-name="Trazado 806122" d="M340.276,405.358a6.6,6.6,0,0,1-3.118,5.437,9.618,9.618,0,0,0-.364-6.41c-1.424-3.221-6.1-6.062-12.243-6.537s-10.842-3.347-13.3-4.629c-1.923-1-5.975-3.173-7.661-4.084l1.828-2.9,4.725,1.06s3.909,2.216,7.843,3.981,13.477,2.136,16.841,4.859,5.816,5.674,5.452,9.22" transform="translate(-85.789 -109.145)" fill="#fff"/>
        <path id="Trazado_806123" data-name="Trazado 806123" d="M329.779,414.036a18.535,18.535,0,0,1-2.2-.15,81.08,81.08,0,0,1-30.213-10.319.4.4,0,0,1,.394-.687,80.27,80.27,0,0,0,29.913,10.22c2.149.26,4.807.347,6.277-1.306a4.479,4.479,0,0,0,.981-3.373c-.288-3.347-3.215-5.753-5.858-6.889a31.354,31.354,0,0,0-6.689-1.753c-.943-.174-1.917-.354-2.87-.567a38.424,38.424,0,0,1-9.354-3.422c-.5-.261-1-.534-1.493-.807a20.771,20.771,0,0,0-5.536-2.381c-2.232-.472-5.236.005-6.559,2.168a.4.4,0,1,1-.676-.413c1.532-2.5,4.821-3.073,7.4-2.53a21.385,21.385,0,0,1,5.753,2.463c.492.27.984.54,1.478.8a37.615,37.615,0,0,0,9.162,3.352c.936.21,1.9.389,2.839.561a31.875,31.875,0,0,1,6.857,1.8c2.854,1.226,6.016,3.853,6.334,7.548a5.274,5.274,0,0,1-1.177,3.967,6.118,6.118,0,0,1-4.764,1.715" transform="translate(-83.599 -110.671)" fill="#263238"/>
        <path id="Trazado_806124" data-name="Trazado 806124" d="M335.993,412.084a.4.4,0,0,1-.181-.748,8.177,8.177,0,0,0,4.487-5.777c.406-2.71-1.026-5.761-3.648-7.771a20.859,20.859,0,0,0-8.526-3.375c-.7-.146-1.4-.28-2.106-.415a40.131,40.131,0,0,1-7.11-1.817c-1.211-.473-2.431-1.075-3.61-1.658-3.325-1.642-6.47-3.194-9.753-2.32a.4.4,0,0,1-.2-.766c3.576-.948,7,.743,10.307,2.376,1.164.575,2.367,1.169,3.548,1.63a39.555,39.555,0,0,0,6.97,1.778c.707.135,1.414.27,2.118.417a21.56,21.56,0,0,1,8.847,3.523c2.847,2.182,4.4,5.525,3.949,8.516a8.976,8.976,0,0,1-4.909,6.362.392.392,0,0,1-.181.044" transform="translate(-86.202 -109.407)" fill="#263238"/>
        <path id="Trazado_806125" data-name="Trazado 806125" d="M287.817,245.964l-21.731-8.27-.269-.1s.079-.578.142-1.416c.135-1.733.206-4.558-.609-5.516-1.211-1.417-4.645-.23-7.993-1.765s-9.544,1.211-9.544,1.211-4.472-.823-6.442,2.405a17.513,17.513,0,0,0-.657,6.482s-.142.055-.411.15c-2.588.966-16.675,6.268-19.659,8.4-3.292,2.335-6.932,26.274-8.1,33.3s-3.253,13.366-2.192,15.788,16.192,14.071,24.9,17.078,39.593,2.129,39.593,2.129.506-.134,1.4-.419c5.223-1.678,23.757-8.587,33.586-24.881,0,0-9.52-31.228-22.008-44.571M229.1,286.23c-1.6,1.132-.744,5.524-.744,5.524l-2.723-2.4,6.83-16.793,2.912,12.892s-4.677-.348-6.275.776M283.741,296.9c-.752.387,2.161-7.684.776-9.512s-5.532-1.654-5.532-1.654l.357-2.208c.047-.245,2.461-12.622,2.461-12.622l.816-.974s8.452,14.49,9.963,19.595c0,0-9.212,7.376-8.84,7.376" transform="translate(-59.359 -64.55)" fill="#4be5f1"/>
        <path id="Trazado_806126" data-name="Trazado 806126" d="M256.411,179.863,245.2,191.771s-1.547,1.367-.933,4.821,2.046,6.422,3.128,6.653a15.454,15.454,0,0,0,2.6.232s2.4,5.208,4.106,7.256c0,0,.593,8.039.277,10.272,0,0,4.03,3.52,7.825,3.967s9.66-5.368,9.66-5.368l1.453-7.119s3.441-5.223,3.675-6.614,1.808-1.034,2.581-1.72a13.089,13.089,0,0,0,2.857-6.652c.3-2.9.316-6.228-3.05-5.25-2.918-.784-1.092-6.952-1.092-6.952l-5.126-4.523Z" transform="translate(-68.984 -50.826)" fill="#fff"/>
        <g id="Grupo_1066782" data-name="Grupo 1066782" transform="translate(180.943 163.878)" opacity="0.5">
          <g id="Grupo_1066781" data-name="Grupo 1066781">
            <g id="Grupo_1066780" data-name="Grupo 1066780" clip-path="url(#clip-path-9)">
              <path id="Trazado_806127" data-name="Trazado 806127" d="M278,237.695a11.437,11.437,0,0,1-.577,1.3c-1.852,3.49-9.916,10.138-9.916,10.138l-2.438-7.495-1.337,7.495c-2.691-1.172-10.9-8.286-10.9-8.286s-.277-.664-.617-1.7c.269-.1.411-.151.411-.151a17.51,17.51,0,0,1,.657-6.481c1.971-3.229,6.442-2.406,6.442-2.406s6.2-2.746,9.544-1.211,6.782.349,7.993,1.765.467,6.933.467,6.933Z" transform="translate(-252.215 -228.428)" fill="#fff"/>
            </g>
          </g>
        </g>
        <g id="Grupo_1066785" data-name="Grupo 1066785" transform="translate(202.935 171.625)" opacity="0.2">
          <g id="Grupo_1066784" data-name="Grupo 1066784">
            <g id="Grupo_1066783" data-name="Grupo 1066783" clip-path="url(#clip-path-10)">
              <path id="Trazado_806128" data-name="Trazado 806128" d="M308.393,249.016l-21.731-8.27-.269-.1s.079-.578.142-1.416l-.451,2.817-3.213,4.368a87.981,87.981,0,0,1,10.027,4.419,8.81,8.81,0,0,1,4.607,8.785L293.5,293.872l-1.639,19.452,4.954,5.145c5.223-1.678,23.757-8.587,33.586-24.881,0,0-9.52-31.228-22.008-44.571m-4.076,50.934c-.752.387,2.161-7.684.776-9.512s-5.532-1.654-5.532-1.654l.357-2.208c.047-.245,2.461-12.622,2.461-12.622l.816-.974s8.452,14.49,9.963,19.595c0,0-9.212,7.376-8.84,7.376" transform="translate(-282.87 -239.227)"/>
            </g>
          </g>
        </g>
        <g id="Grupo_1066788" data-name="Grupo 1066788" transform="translate(155.379 185.782)" opacity="0.2">
          <g id="Grupo_1066787" data-name="Grupo 1066787">
            <g id="Grupo_1066786" data-name="Grupo 1066786" clip-path="url(#clip-path-11)">
              <path id="Trazado_806129" data-name="Trazado 806129" d="M238.695,296.014l-3.379-11.293s-6.059-20.664-10.213-25.761l1.092,14.533s-3.565,17.361-6.865,22.521-4.012,6.442,0,6.442,13.771,7.78,13.771,7.78l-.752-6.49Zm-8.491,4.368-2.723-2.4,6.83-16.793,2.913,12.891s-4.678-.348-6.276.776-.744,5.524-.744,5.524" transform="translate(-216.581 -258.96)"/>
            </g>
          </g>
        </g>
        <path id="Trazado_806130" data-name="Trazado 806130" d="M257.868,232a.41.41,0,0,1-.087-.01.4.4,0,0,1-.3-.473c.6-2.687,0-8.683-.008-8.743a.4.4,0,0,1,.353-.435.4.4,0,0,1,.435.353c.026.252.623,6.186-.008,9a.4.4,0,0,1-.385.309" transform="translate(-72.757 -62.83)" fill="#263238"/>
        <path id="Trazado_806131" data-name="Trazado 806131" d="M283.49,232.07a.4.4,0,0,1-.4-.391,26.214,26.214,0,0,1,.689-5.919.4.4,0,0,1,.768.192,25.858,25.858,0,0,0-.665,5.716.4.4,0,0,1-.391.4Z" transform="translate(-79.998 -63.712)" fill="#263238"/>
        <path id="Trazado_806132" data-name="Trazado 806132" d="M265.307,220.111a6.467,6.467,0,0,1-4.866-1.867,74.951,74.951,0,0,1-6.72-8.431l-.5-.683c-2.887-3.947-2.275-12.287-2.248-12.64a.4.4,0,0,1,.425-.364.4.4,0,0,1,.364.425c-.006.083-.616,8.4,2.1,12.111l.5.682a74.683,74.683,0,0,0,6.64,8.34c1.989,1.99,4.691,1.886,8.137,1.122,3.139-.7,9.7-8.93,9.608-12.925-.082-3.53.12-7.125.3-10.3l.08-1.448c.179-3.307-3.374-7.811-3.41-7.856a.4.4,0,1,1,.619-.493c.154.194,3.776,4.788,3.581,8.392l-.08,1.448c-.177,3.158-.378,6.737-.3,10.235.1,4.351-6.8,12.952-10.229,13.715a18.828,18.828,0,0,1-4,.532" transform="translate(-70.901 -52.459)" fill="#263238"/>
        <path id="Trazado_806133" data-name="Trazado 806133" d="M272.914,215.8a.4.4,0,0,1-.26-.694,4.3,4.3,0,0,1,.882-.552c.167-.085.334-.171.491-.272.3-.189.624-.529.578-.868-.037-.278-.3-.5-.6-.765-.126-.109-.253-.219-.365-.334a4.757,4.757,0,0,1-1.059-3.284,19.531,19.531,0,0,1,.293-3.93.4.4,0,0,1,.779.138,18.79,18.79,0,0,0-.28,3.771,4.065,4.065,0,0,0,.831,2.749c.1.1.209.2.319.291a2.092,2.092,0,0,1,.867,1.257,1.745,1.745,0,0,1-.937,1.641c-.178.114-.367.212-.555.309a3.616,3.616,0,0,0-.725.445.393.393,0,0,1-.26.1" transform="translate(-77.009 -57.865)" fill="#263238"/>
        <path id="Trazado_806134" data-name="Trazado 806134" d="M269.358,223.772a.36.36,0,0,1-.062-.005c-3.923-.612-4.419-3.527-4.438-3.65a.4.4,0,0,1,.781-.123c.016.1.446,2.472,3.779,2.992a.4.4,0,0,1-.06.787" transform="translate(-74.843 -62.072)" fill="#263238"/>
        <path id="Trazado_806135" data-name="Trazado 806135" d="M265.334,207.675c0,.793-.343,1.437-.766,1.437s-.766-.644-.766-1.437.343-1.437.766-1.437.766.644.766,1.437" transform="translate(-74.546 -58.28)" fill="#263238"/>
        <path id="Trazado_806136" data-name="Trazado 806136" d="M280.643,208.156c0,.793-.343,1.437-.766,1.437s-.766-.644-.766-1.437.343-1.437.766-1.437.766.644.766,1.437" transform="translate(-78.872 -58.416)" fill="#263238"/>
        <path id="Trazado_806137" data-name="Trazado 806137" d="M284.44,204.185a.789.789,0,0,1-.631-.314,3.458,3.458,0,0,0-2.447-1.563,4.453,4.453,0,0,0-2.957,1.235.791.791,0,0,1-1.118-1.121,6,6,0,0,1,4.175-1.695,4.949,4.949,0,0,1,3.609,2.187.791.791,0,0,1-.63,1.269" transform="translate(-78.292 -56.72)" fill="#263238"/>
        <path id="Trazado_806138" data-name="Trazado 806138" d="M259.181,204.005a.792.792,0,0,1-.46-1.436c3.281-2.333,5.941-.943,6.887.118a.792.792,0,0,1-1.178,1.057c-.19-.207-1.922-1.927-4.791.114a.791.791,0,0,1-.458.146" transform="translate(-73.017 -56.883)" fill="#263238"/>
        <path id="Trazado_806139" data-name="Trazado 806139" d="M258.3,226.239s2.187,6.029,7.072,7.739,11.372-7.165,11.372-7.165l-.339-1.154s-4.25,5.522-8.978,4.58-9.4-7.347-9.4-7.347Z" transform="translate(-72.913 -62.986)" fill="#263238"/>
        <path id="Trazado_806140" data-name="Trazado 806140" d="M248.458,208.21a3.188,3.188,0,0,1-1.388-.288,2.4,2.4,0,0,1-1.243-1.453c-.1-.285-.225-.63-.369-1.018-1.068-2.889-2.857-7.725-.621-9.643a2.068,2.068,0,0,1,1.895-.538c1.731.422,2.873,3.2,2.92,3.319a.4.4,0,0,1-.734.3c-.284-.7-1.264-2.577-2.375-2.847a1.3,1.3,0,0,0-1.19.371c-1.819,1.559-.085,6.248.847,8.767.147.4.276.747.375,1.037a1.617,1.617,0,0,0,.839,1,3.5,3.5,0,0,0,2.341,0,.4.4,0,0,1,.263.748,5.193,5.193,0,0,1-1.562.254" transform="translate(-68.884 -55.164)" fill="#263238"/>
        <path id="Trazado_806141" data-name="Trazado 806141" d="M290.8,209.576a3.9,3.9,0,0,1-.771-.072.4.4,0,0,1,.155-.776c.1.02,2.377.445,3.03-1.464.1-.291.23-.642.376-1.039.932-2.519,2.665-7.206.847-8.765a1.311,1.311,0,0,0-1.191-.371c-1.111.27-2.09,2.147-2.373,2.848a.4.4,0,0,1-.735-.3c.048-.119,1.189-2.9,2.92-3.32a2.06,2.06,0,0,1,1.894.538c2.236,1.917.448,6.752-.619,9.641-.144.389-.272.733-.369,1.019a3.134,3.134,0,0,1-3.162,2.058" transform="translate(-81.866 -55.461)" fill="#263238"/>
        <path id="Trazado_806142" data-name="Trazado 806142" d="M248.191,196.163a4.036,4.036,0,0,0,2.555-1.51,6.354,6.354,0,0,0,.743-2.289,27.579,27.579,0,0,0,.4-4.616,6.214,6.214,0,0,1,.163-1.8,4.61,4.61,0,0,1,.974-1.6c1.016-1.191,2.24-2.2,3.206-3.429a5.722,5.722,0,0,0,1.415-4.335,19.7,19.7,0,0,0,16.122,4.17c5.125-1.005,10.044-5.5,9.446-11.155a4.574,4.574,0,0,0-3.611-3.935c-2.533-.63-4.81.72-7.1,1.585-4.185,1.578-8.279-1.131-12.507-1.586-3.615-.389-8.053.06-9.936,3.654,0,0-6.494.763-9.339,6.1s2.563,12.718,2.563,12.718,2.177-2.635,4.973,2.7Z" transform="translate(-67.791 -46.768)" fill="#263238"/>
        <path id="Trazado_806143" data-name="Trazado 806143" d="M286.365,183.4s-1.679,8.752,2.7,12.989c0,0,.958-2.63,1.931-3.272a10.148,10.148,0,0,0-.768-9.717c-3.207-5.093-3.867,0-3.867,0" transform="translate(-80.833 -51.186)" fill="#263238"/>
        <g id="Grupo_1066791" data-name="Grupo 1066791" transform="translate(179.267 121.857)" opacity="0.2">
          <g id="Grupo_1066790" data-name="Grupo 1066790">
            <g id="Grupo_1066789" data-name="Grupo 1066789" clip-path="url(#clip-path-12)">
              <path id="Trazado_806144" data-name="Trazado 806144" d="M250.275,184.214h-.027a.4.4,0,0,1-.368-.422,10.165,10.165,0,0,1,3.713-6.853,10.425,10.425,0,0,1,7.53-2.669,51.523,51.523,0,0,1,5.47.884c4.256.845,8.277,1.644,12.43-.047a7.826,7.826,0,0,0,4.768-4.956.4.4,0,1,1,.763.205,8.612,8.612,0,0,1-5.233,5.483c-4.373,1.782-8.7.922-12.883.091a50.819,50.819,0,0,0-5.386-.872,9.761,9.761,0,0,0-6.945,2.483,9.376,9.376,0,0,0-3.438,6.305.4.4,0,0,1-.394.369" transform="translate(-249.879 -169.856)" fill="#fff"/>
            </g>
          </g>
        </g>
        <g id="Grupo_1066794" data-name="Grupo 1066794" transform="translate(175.488 124.692)" opacity="0.2">
          <g id="Grupo_1066793" data-name="Grupo 1066793">
            <g id="Grupo_1066792" data-name="Grupo 1066792" clip-path="url(#clip-path-13)">
              <path id="Trazado_806145" data-name="Trazado 806145" d="M245.008,183.983H245a.4.4,0,0,1-.387-.4,11.057,11.057,0,0,1,6.727-9.743.4.4,0,0,1,.3.734A10.241,10.241,0,0,0,245.4,183.6a.4.4,0,0,1-.4.387" transform="translate(-244.612 -173.807)" fill="#fff"/>
            </g>
          </g>
        </g>
        <path id="Trazado_806146" data-name="Trazado 806146" d="M265.385,240.563a.393.393,0,0,1-.14-.026,27.835,27.835,0,0,1-9.627-6.585.4.4,0,0,1,.585-.532,27.643,27.643,0,0,0,9.2,6.329c.968-.306,7.334-2.456,10.655-7a.4.4,0,1,1,.639.466c-3.743,5.128-10.9,7.248-11.2,7.336a.4.4,0,0,1-.11.016" transform="translate(-72.205 -65.724)" fill="#263238"/>
        <path id="Trazado_806147" data-name="Trazado 806147" d="M259.991,212.387a6.841,6.841,0,1,1,6.84-6.841,6.848,6.848,0,0,1-6.84,6.841m0-12.889a6.049,6.049,0,1,0,6.049,6.049,6.056,6.056,0,0,0-6.049-6.049" transform="translate(-71.536 -56.151)" fill="#263238"/>
        <path id="Trazado_806148" data-name="Trazado 806148" d="M280.06,212.387a6.841,6.841,0,1,1,6.841-6.841,6.848,6.848,0,0,1-6.841,6.841m0-12.889a6.049,6.049,0,1,0,6.049,6.049,6.056,6.056,0,0,0-6.049-6.049" transform="translate(-77.208 -56.151)" fill="#263238"/>
        <path id="Trazado_806149" data-name="Trazado 806149" d="M267.511,250.028a.411.411,0,0,1-.133-.023.4.4,0,0,1-.248-.268L265.3,243.1l-1.173,6.6a.4.4,0,0,1-.564.286c-5.014-2.458-10.763-8.119-11.006-8.359a.4.4,0,0,1-.115-.238c-.029-.263-.689-6.473.5-8.567a5.428,5.428,0,0,1,3.366-2.6.4.4,0,0,1,.158.776,4.71,4.71,0,0,0-2.836,2.213c-.861,1.514-.6,6.12-.418,7.95.769.745,5.792,5.539,10.227,7.874l1.386-7.792a.394.394,0,0,1,.371-.326.387.387,0,0,1,.4.29l2.144,7.765c1.679-1.248,7.488-5.749,9.3-9.587.194-1.527.554-5.572.017-6.933a2.1,2.1,0,0,0-1.93-1.446.38.38,0,0,1-.415-.374.4.4,0,0,1,.375-.415,2.847,2.847,0,0,1,2.705,1.946c.731,1.851.054,7.16.024,7.386a.383.383,0,0,1-.033.115c-2.169,4.683-9.724,10.063-10.045,10.289a.394.394,0,0,1-.228.073" transform="translate(-71.277 -65.056)" fill="#263238"/>
        <path id="Trazado_806150" data-name="Trazado 806150" d="M242.9,299.994a.4.4,0,0,1-.391-.338c-.022-.154-2.324-15.432-5.327-21.6a.4.4,0,0,1,.712-.346c3.055,6.275,5.3,21.195,5.4,21.827a.4.4,0,0,1-.334.45.406.406,0,0,1-.059,0" transform="translate(-67.011 -78.414)" fill="#263238"/>
        <path id="Trazado_806151" data-name="Trazado 806151" d="M233.066,267.17a.4.4,0,0,1-.357-.225,62.445,62.445,0,0,0-4.729-7.912.4.4,0,0,1,.645-.459,63.327,63.327,0,0,1,4.8,8.031.4.4,0,0,1-.187.527.4.4,0,0,1-.17.039" transform="translate(-64.403 -73.022)" fill="#263238"/>
        <path id="Trazado_806152" data-name="Trazado 806152" d="M312.609,272.282a.381.381,0,0,1-.1-.014.394.394,0,0,1-.281-.483,44.329,44.329,0,0,1,2.558-7.6.4.4,0,1,1,.71.347,43.738,43.738,0,0,0-2.5,7.455.4.4,0,0,1-.382.295" transform="translate(-88.227 -74.592)" fill="#263238"/>
        <path id="Trazado_806153" data-name="Trazado 806153" d="M305.978,300.95a.377.377,0,0,1-.062,0,.4.4,0,0,1-.329-.453c.017-.105,1.685-10.684,3.642-19.311a.4.4,0,0,1,.474-.3.4.4,0,0,1,.3.473c-1.951,8.6-3.615,19.154-3.632,19.259a.4.4,0,0,1-.39.334" transform="translate(-86.352 -79.371)" fill="#263238"/>
        <path id="Trazado_806154" data-name="Trazado 806154" d="M309.9,286.139a.4.4,0,0,1-.316-.633,12.516,12.516,0,0,1,6.625-4.53.4.4,0,1,1,.213.762,11.726,11.726,0,0,0-6.206,4.243.394.394,0,0,1-.316.159" transform="translate(-87.462 -79.395)" fill="#263238"/>
        <path id="Trazado_806155" data-name="Trazado 806155" d="M301.355,317.559a.4.4,0,0,1-.108-.776c18.478-5.24,28.867-21.119,29.949-22.845-10.76-32.622-20.931-43.321-21.782-44.175-8.542-3.007-21.8-8.3-21.934-8.351a.4.4,0,0,1,.293-.735c.134.053,13.464,5.372,21.987,8.369a.386.386,0,0,1,.14.085c.108.1,10.821,10.451,22.106,44.734a.4.4,0,0,1-.036.326c-.105.176-10.744,17.748-30.507,23.352a.4.4,0,0,1-.108.015" transform="translate(-81.167 -68.004)" fill="#263238"/>
        <path id="Trazado_806156" data-name="Trazado 806156" d="M311.565,320.984a.4.4,0,0,1-.254-.7l9.587-8c.229-.174,5.343-3.983,10.776-1.266a.4.4,0,1,1-.354.707c-4.986-2.493-9.881,1.141-9.93,1.178l-9.571,7.993a.4.4,0,0,1-.254.092" transform="translate(-87.932 -87.612)" fill="#263238"/>
        <path id="Trazado_806157" data-name="Trazado 806157" d="M321.006,306.109a.4.4,0,0,1-.383-.3c-1.988-7.753-9.824-19.352-9.9-19.468a.4.4,0,0,1,.654-.444c.08.117,7.993,11.829,10.014,19.716a.4.4,0,0,1-.285.481.39.39,0,0,1-.1.013" transform="translate(-87.785 -80.742)" fill="#263238"/>
        <path id="Trazado_806158" data-name="Trazado 806158" d="M230.93,316.471a.4.4,0,0,1-.273-.109l-2.712-2.587a13.118,13.118,0,0,0-8.48,2.387.4.4,0,1,1-.441-.657,13.445,13.445,0,0,1,9.169-2.494.393.393,0,0,1,.205.1l2.805,2.675a.4.4,0,0,1-.273.682" transform="translate(-61.843 -88.429)" fill="#263238"/>
        <path id="Trazado_806159" data-name="Trazado 806159" d="M231.623,306.99a.4.4,0,0,1-.378-.511c.034-.115,3.536-11.558,6.957-17.439a.4.4,0,0,1,.684.4c-3.375,5.8-6.85,17.157-6.885,17.27a.4.4,0,0,1-.378.281" transform="translate(-65.341 -81.623)" fill="#263238"/>
        <path id="Trazado_806160" data-name="Trazado 806160" d="M232.519,317.122a.4.4,0,0,1-.185-.046c-5.878-3.106-22.615-13.023-22.425-17.685.166-4.057,7.241-44.994,9.344-47.337,1.928-2.149,20.487-9.129,21.276-9.425a.4.4,0,0,1,.278.741c-5.325,2-19.471,7.548-20.966,9.212-1.768,1.97-8.966,42.554-9.141,46.841-.146,3.556,13.044,12.218,22,16.953a.4.4,0,0,1-.185.745" transform="translate(-59.317 -68.556)" fill="#263238"/>
        <path id="Trazado_806161" data-name="Trazado 806161" d="M339.37,225.365H317.451a4.685,4.685,0,0,1-4.685-4.686V207.82a4.685,4.685,0,0,1,4.685-4.685H339.37a4.685,4.685,0,0,1,4.685,4.685v12.858a4.686,4.686,0,0,1-4.685,4.686" transform="translate(-88.383 -57.403)" fill="#fff"/>
        <path id="Trazado_806162" data-name="Trazado 806162" d="M339.214,225.6H317.3a5.088,5.088,0,0,1-5.082-5.082V207.664a5.088,5.088,0,0,1,5.082-5.081h21.918a5.088,5.088,0,0,1,5.082,5.081v12.858a5.088,5.088,0,0,1-5.082,5.082M317.3,203.375a4.294,4.294,0,0,0-4.29,4.289v12.858a4.3,4.3,0,0,0,4.29,4.291h21.918a4.3,4.3,0,0,0,4.29-4.291V207.664a4.294,4.294,0,0,0-4.29-4.289Z" transform="translate(-88.227 -57.247)" fill="#263238"/>
        <path id="Trazado_806163" data-name="Trazado 806163" d="M323.878,221.423a.4.4,0,0,1-.263-.1l-5.583-4.952a.4.4,0,0,1,.052-.631l6.017-3.777a.4.4,0,0,1,.42.67l-5.569,3.5,5.188,4.6a.4.4,0,0,1-.263.692" transform="translate(-89.833 -59.88)" fill="#263238"/>
        <path id="Trazado_806164" data-name="Trazado 806164" d="M341.635,221.936a.4.4,0,0,1-.256-.7l5-4.265-5.8-3.8a.4.4,0,0,1,.435-.661l6.242,4.092a.4.4,0,0,1,.039.632l-5.408,4.608a.394.394,0,0,1-.256.095" transform="translate(-96.193 -60.033)" fill="#263238"/>
        <path id="Trazado_806165" data-name="Trazado 806165" d="M330.759,223.83a.414.414,0,0,1-.121-.019.4.4,0,0,1-.256-.5l4.441-13.927a.4.4,0,0,1,.754.241l-4.442,13.927a.4.4,0,0,1-.377.275" transform="translate(-93.356 -59.092)" fill="#263238"/>
        <path id="Trazado_806166" data-name="Trazado 806166" d="M271.837,261.667a1.265,1.265,0,1,1-1.265-1.265,1.264,1.264,0,0,1,1.265,1.265" transform="translate(-76.102 -73.585)" fill="#263238"/>
        <path id="Trazado_806167" data-name="Trazado 806167" d="M286.211,355.576H242.436a1.026,1.026,0,0,1,0-2.053h43.775a1.026,1.026,0,0,1,0,2.053" transform="translate(-68.219 -99.9)" fill="#263238"/>
        <path id="Trazado_806168" data-name="Trazado 806168" d="M285.873,339.4l5.866-27.548a2.932,2.932,0,0,0-2.868-3.542H237.727a2.932,2.932,0,0,0-2.876,3.5l5.259,26.631a2.93,2.93,0,0,0,2.809,2.362l40.02.917a2.931,2.931,0,0,0,2.934-2.32" transform="translate(-66.349 -87.122)" fill="#fff"/>
        <path id="Trazado_806169" data-name="Trazado 806169" d="M282.852,341.957h-.077l-40.02-.916a3.307,3.307,0,0,1-3.187-2.682l-5.259-26.632a3.328,3.328,0,0,1,3.264-3.972h51.145a3.328,3.328,0,0,1,3.254,4.021l-5.866,27.548a3.329,3.329,0,0,1-3.253,2.634m-45.28-33.411a2.536,2.536,0,0,0-2.488,3.027l5.259,26.631a2.52,2.52,0,0,0,2.43,2.043l40.02.917h.058a2.539,2.539,0,0,0,2.481-2.007l5.866-27.549a2.536,2.536,0,0,0-2.481-3.063Zm48.146,30.695h0Z" transform="translate(-66.194 -86.966)" fill="#263238"/>
        <path id="Trazado_806170" data-name="Trazado 806170" d="M276.76,328.827a4.083,4.083,0,1,1-4.083-4.083,4.084,4.084,0,0,1,4.083,4.083" transform="translate(-75.9 -91.767)" fill="#263238"/>
        <path id="Trazado_806171" data-name="Trazado 806171" d="M297.085,312.189h-6.077a.4.4,0,0,1,0-.792h6.077a.4.4,0,0,1,0,.792" transform="translate(-82.122 -87.996)" fill="#263238"/>
        <path id="Trazado_806172" data-name="Trazado 806172" d="M273.624,312.189H250.558a.4.4,0,1,1,0-.792h23.066a.4.4,0,1,1,0,.792" transform="translate(-70.692 -87.996)" fill="#263238"/>
        <path id="Trazado_806173" data-name="Trazado 806173" d="M276.826,377.812l-4.664,12.238s-11.888-3-27.123-6.119c-15.93-3.264-32.567-7.491-41.2-22.631a8.575,8.575,0,0,1-1.26-6.094c1.245-5.23,8.049-6.649,12.533-7.173a83.2,83.2,0,0,1,8.487-.477c1.444-.02,6.207-.777,7.36.071a33.685,33.685,0,0,0,5.536,3.28c2.547,1.081,39.721-.971,39.721-.971a13.268,13.268,0,0,0,1.169-4.463c5.843-2.97,19.375-5.486,25.092-4.374,8.991,1.748,14.236,6.993,13.237,12.487s-20.841,20.23-38.892,24.226" transform="translate(-57.201 -96.313)" fill="#263238"/>
        <path id="Trazado_806174" data-name="Trazado 806174" d="M286.33,384.179a.387.387,0,0,1-.1-.014c-.113-.03-11.479-3.086-20.668-9.3-1.489-1.007-2.939-2.047-4.339-3.053-7.239-5.2-14.071-10.111-24.728-8.87a.4.4,0,0,1-.091-.786c10.955-1.275,17.915,3.721,25.28,9.012,1.4,1,2.841,2.04,4.32,3.04,9.077,6.132,20.316,9.156,20.43,9.186a.4.4,0,0,1-.1.778" transform="translate(-66.704 -102.284)" fill="#fff"/>
        <path id="Trazado_806175" data-name="Trazado 806175" d="M274.372,370.006a.4.4,0,0,1-.109-.776c5.046-1.452,8.891-4.475,12.961-7.675q.85-.668,1.71-1.339a101.682,101.682,0,0,1,15.913-10.455.4.4,0,1,1,.358.707,100.7,100.7,0,0,0-15.786,10.375c-.574.443-1.141.89-1.706,1.334-4.132,3.249-8.036,6.318-13.232,7.814a.408.408,0,0,1-.109.015" transform="translate(-77.421 -98.825)" fill="#fff"/>
        <path id="Trazado_806176" data-name="Trazado 806176" d="M273.224,209.9h-1.712a.4.4,0,0,1,0-.792h1.712a.4.4,0,0,1,0,.792" transform="translate(-76.613 -59.091)" fill="#263238"/>
      </g>
    </g>
  </g>
</svg>
