<svg xmlns="http://www.w3.org/2000/svg" width="1030" height="574" viewBox="0 0 1030 574">
  <g id="Grupo_1067035" data-name="Grupo 1067035" transform="translate(-285.333 -490)">
    <circle id="Elipse_4772" data-name="Elipse 4772" cx="71" cy="71" r="71" transform="translate(285.333 500)" fill="#4be5f1"/>
    <circle id="Elipse_4773" data-name="Elipse 4773" cx="71" cy="71" r="71" transform="translate(1173.333 490)" fill="#451484"/>
    <rect id="Rectángulo_375789" data-name="Rectángulo 375789" width="186" height="95" rx="10" transform="translate(475.333 513)" fill="#4be5f1" opacity="0.5"/>
    <rect id="Rectángulo_375792" data-name="Rectángulo 375792" width="112" height="60" rx="10" transform="translate(549.333 688)" fill="#4be5f1" opacity="0.2"/>
    <rect id="Rectángulo_375796" data-name="Rectángulo 375796" width="146.917" height="60" rx="10" transform="translate(748.333 688)" fill="#fb405f" opacity="0.3"/>
    <rect id="Rectángulo_375799" data-name="Rectángulo 375799" width="132" height="60" rx="10" transform="translate(993.333 688)" fill="#ffda47" opacity="0.3"/>
    <rect id="Rectángulo_375793" data-name="Rectángulo 375793" width="112" height="60" rx="10" transform="translate(549.333 778)" fill="#4be5f1" opacity="0.2"/>
    <rect id="Rectángulo_375797" data-name="Rectángulo 375797" width="146.917" height="60" rx="10" transform="translate(748.333 778)" fill="#fb405f" opacity="0.3"/>
    <rect id="Rectángulo_375800" data-name="Rectángulo 375800" width="132" height="60" rx="10" transform="translate(993.333 778)" fill="#ffda47" opacity="0.3"/>
    <rect id="Rectángulo_375794" data-name="Rectángulo 375794" width="112" height="60" rx="10" transform="translate(549.333 868)" fill="#4be5f1" opacity="0.2"/>
    <rect id="Rectángulo_375795" data-name="Rectángulo 375795" width="146.917" height="60" rx="10" transform="translate(748.333 868)" fill="#fb405f" opacity="0.3"/>
    <rect id="Rectángulo_375798" data-name="Rectángulo 375798" width="146.917" height="106" rx="10" transform="translate(748.333 958)" fill="#fb405f" opacity="0.3"/>
    <rect id="Rectángulo_375790" data-name="Rectángulo 375790" width="190" height="95" rx="10" transform="translate(705.333 513)" fill="#fb405f" opacity="0.5"/>
    <rect id="Rectángulo_375791" data-name="Rectángulo 375791" width="190" height="95" rx="10" transform="translate(935.333 513)" fill="#ffda47" opacity="0.5"/>
    <path id="Trazado_806962" data-name="Trazado 806962" d="M7.144,17V4.2h4.122a6.064,6.064,0,0,1,3.05.769A5.406,5.406,0,0,1,16.43,7.143a6.554,6.554,0,0,1,.769,3.142v.589a6.592,6.592,0,0,1-.743,3.151,5.429,5.429,0,0,1-2.092,2.18,5.93,5.93,0,0,1-3.01.8ZM10.229,6.585v8.042H11.3a2.4,2.4,0,0,0,2.039-.945,4.63,4.63,0,0,0,.712-2.808V10.32a4.592,4.592,0,0,0-.712-2.795,2.442,2.442,0,0,0-2.074-.94ZM23.246,17.176A4.889,4.889,0,0,1,19.7,15.871a4.507,4.507,0,0,1-1.354-3.4v-.246a5.84,5.84,0,0,1,.541-2.575,3.955,3.955,0,0,1,1.578-1.727,4.763,4.763,0,0,1,2.461-.611,4.117,4.117,0,0,1,3.164,1.244,4.887,4.887,0,0,1,1.16,3.467v1.151H21.365a2.135,2.135,0,0,0,.694,1.257,2.066,2.066,0,0,0,1.389.457,2.662,2.662,0,0,0,2.2-.984L27,15.506a3.784,3.784,0,0,1-1.569,1.217A5.3,5.3,0,0,1,23.246,17.176ZM22.912,9.6q-1.3,0-1.547,1.723h2.988v-.229a1.467,1.467,0,0,0-.36-1.1A1.434,1.434,0,0,0,22.912,9.6Zm10.512,4.729a.684.684,0,0,0-.4-.606,6.016,6.016,0,0,0-1.5-.475A6.853,6.853,0,0,1,29.7,12.6a3.062,3.062,0,0,1-1.1-.971,2.319,2.319,0,0,1-.378-1.31A2.628,2.628,0,0,1,29.3,8.163a4.453,4.453,0,0,1,2.83-.848,4.934,4.934,0,0,1,3.023.853A2.666,2.666,0,0,1,36.3,10.408H33.327q0-1.143-1.2-1.143a1.194,1.194,0,0,0-.782.259.8.8,0,0,0-.316.646.737.737,0,0,0,.387.642,3.654,3.654,0,0,0,1.235.4,10.671,10.671,0,0,1,1.49.378A2.706,2.706,0,0,1,36.28,14.24a2.491,2.491,0,0,1-1.156,2.118,5.068,5.068,0,0,1-2.993.817,5.172,5.172,0,0,1-2.18-.439,3.645,3.645,0,0,1-1.494-1.2,2.707,2.707,0,0,1-.536-1.591H30.69a1.145,1.145,0,0,0,.439.962,1.808,1.808,0,0,0,1.081.3,1.422,1.422,0,0,0,.91-.246A.787.787,0,0,0,33.423,14.328ZM43.021,17a3.344,3.344,0,0,1-.281-.853,2.754,2.754,0,0,1-2.285,1.028,3.374,3.374,0,0,1-2.285-.813,2.588,2.588,0,0,1-.94-2.043,2.66,2.66,0,0,1,1.143-2.338,5.821,5.821,0,0,1,3.322-.791h.914v-.5q0-1.316-1.134-1.316a.927.927,0,0,0-1.055,1.042H37.458a2.655,2.655,0,0,1,1.173-2.239,4.931,4.931,0,0,1,2.993-.86A4.323,4.323,0,0,1,44.5,8.2a3.086,3.086,0,0,1,1.081,2.435v4.21a4.311,4.311,0,0,0,.4,2V17Zm-1.854-1.934a1.652,1.652,0,0,0,.918-.237,1.487,1.487,0,0,0,.523-.536V12.772h-.861q-1.547,0-1.547,1.389a.848.848,0,0,0,.272.655A.986.986,0,0,0,41.167,15.066Zm11.8-4.9-.976-.07a1.752,1.752,0,0,0-1.793.879V17H47.24V7.49h2.777l.1,1.222a2.294,2.294,0,0,1,2.083-1.4,2.888,2.888,0,0,1,.826.105Zm6.82,0-.976-.07a1.752,1.752,0,0,0-1.793.879V17H54.06V7.49h2.777l.1,1.222a2.294,2.294,0,0,1,2.083-1.4,2.888,2.888,0,0,1,.826.105Zm.378,1.986a5.613,5.613,0,0,1,.554-2.536,3.96,3.96,0,0,1,1.591-1.709,4.791,4.791,0,0,1,2.435-.6,4.373,4.373,0,0,1,3.366,1.323,5.076,5.076,0,0,1,1.23,3.6v.105a4.925,4.925,0,0,1-1.235,3.529,4.384,4.384,0,0,1-3.344,1.305A4.434,4.434,0,0,1,61.5,15.958a4.761,4.761,0,0,1-1.327-3.3Zm2.962.185a3.538,3.538,0,0,0,.413,1.934,1.376,1.376,0,0,0,1.222.615q1.582,0,1.617-2.435v-.3q0-2.558-1.635-2.558-1.485,0-1.608,2.206ZM73.774,17H70.8V3.5h2.971Zm4.948,0H75.751V3.5h2.971Zm1.45-4.843a5.613,5.613,0,0,1,.554-2.536,3.96,3.96,0,0,1,1.591-1.709,4.791,4.791,0,0,1,2.435-.6,4.373,4.373,0,0,1,3.366,1.323,5.076,5.076,0,0,1,1.23,3.6v.105a4.925,4.925,0,0,1-1.235,3.529,4.384,4.384,0,0,1-3.344,1.305,4.434,4.434,0,0,1-3.261-1.217,4.761,4.761,0,0,1-1.327-3.3Zm2.962.185a3.538,3.538,0,0,0,.413,1.934,1.376,1.376,0,0,0,1.222.615q1.582,0,1.617-2.435v-.3q0-2.558-1.635-2.558-1.485,0-1.608,2.206ZM40.362,38.089l1.907-5.6H45.1L41.276,42H38.842L38.3,36.393,35.792,42H33.34l-.527-9.51h2.716l-.088,5.66,2.435-5.66h2.013Zm8.877,4.087a4.421,4.421,0,0,1-2.272-.6,3.793,3.793,0,0,1-1.507-1.652,4.44,4.44,0,0,1-.4-2.333l.026-.246a5.829,5.829,0,0,1,1.63-3.713,4.51,4.51,0,0,1,3.415-1.314,3.678,3.678,0,0,1,2.092.621A3.468,3.468,0,0,1,53.493,34.6a5.1,5.1,0,0,1,.264,2.381l-.167,1.206H47.93a1.854,1.854,0,0,0,.422,1.213,1.549,1.549,0,0,0,1.178.492,2.993,2.993,0,0,0,2.259-.967L53,40.528a3.578,3.578,0,0,1-1.5,1.2,5.263,5.263,0,0,1-2.1.451Zm.7-7.576a1.487,1.487,0,0,0-1.068.385,3.229,3.229,0,0,0-.787,1.347h2.892l.053-.254a1.929,1.929,0,0,0,.018-.577A1.017,1.017,0,0,0,49.942,34.6ZM63.5,37.263A6.891,6.891,0,0,1,62.133,40.9a3.409,3.409,0,0,1-2.865,1.283,2.522,2.522,0,0,1-2.162-1.178l-.36.993H54.126l2.347-13.5h2.892l-.94,4.772a2.87,2.87,0,0,1,2.136-.958,2.679,2.679,0,0,1,2.18,1,4.351,4.351,0,0,1,.826,2.667,9.674,9.674,0,0,1-.044,1.1Zm-2.874-.171a9.1,9.1,0,0,0,.079-1.018q0-1.413-1.011-1.474a1.732,1.732,0,0,0-1.5.763L57.5,39.154a1.163,1.163,0,0,0,1.2.746q1.415.044,1.784-1.843l.123-.781Z" transform="translate(308.333 548)" fill="#12263f"/>
    <path id="Trazado_806963" data-name="Trazado 806963" d="M36.862,11.9H31.887V17H28.8V4.2h8.561V6.585H31.887V9.529h4.975Zm7.119,4.069a3.054,3.054,0,0,1-2.54,1.2,3,3,0,0,1-2.369-.91,3.826,3.826,0,0,1-.8-2.615V7.49H41.23v6.179a1.065,1.065,0,0,0,1.187,1.222,1.548,1.548,0,0,0,1.45-.729V7.49h2.979V17H44.069ZM51.188,7.49l.1,1.116A3.225,3.225,0,0,1,54,7.314,2.713,2.713,0,0,1,56.22,8.2a4.226,4.226,0,0,1,.76,2.672V17H54.009V11a1.6,1.6,0,0,0-.29-1.059A1.342,1.342,0,0,0,52.665,9.6a1.413,1.413,0,0,0-1.292.686V17H48.411V7.49Zm7.058,4.685a5.809,5.809,0,0,1,.976-3.56,3.211,3.211,0,0,1,2.725-1.3,2.731,2.731,0,0,1,2.145,1V3.5h2.971V17H64.4l-.149-1.02a2.8,2.8,0,0,1-2.32,1.2,3.205,3.205,0,0,1-2.689-1.3A5.993,5.993,0,0,1,58.246,12.175Zm2.962.185q0,2.531,1.477,2.531a1.458,1.458,0,0,0,1.406-.826V10.443A1.419,1.419,0,0,0,62.7,9.6q-1.371,0-1.485,2.215ZM74.1,17a3.344,3.344,0,0,1-.281-.853,2.754,2.754,0,0,1-2.285,1.028,3.374,3.374,0,0,1-2.285-.813,2.588,2.588,0,0,1-.94-2.043,2.66,2.66,0,0,1,1.143-2.338,5.821,5.821,0,0,1,3.322-.791h.914v-.5q0-1.316-1.134-1.316A.927.927,0,0,0,71.5,10.413H68.538a2.655,2.655,0,0,1,1.173-2.239,4.931,4.931,0,0,1,2.993-.86,4.323,4.323,0,0,1,2.874.888,3.086,3.086,0,0,1,1.081,2.435v4.21a4.311,4.311,0,0,0,.4,2V17Zm-1.854-1.934a1.652,1.652,0,0,0,.918-.237,1.487,1.487,0,0,0,.523-.536V12.772h-.861q-1.547,0-1.547,1.389a.848.848,0,0,0,.272.655A.986.986,0,0,0,72.247,15.066ZM81.1,7.49l.1,1.116A3.27,3.27,0,0,1,83.91,7.314a2.407,2.407,0,0,1,2.435,1.433,3.165,3.165,0,0,1,2.795-1.433q2.892,0,2.971,3.5V17H89.139V11a1.813,1.813,0,0,0-.246-1.063A1.048,1.048,0,0,0,88,9.6a1.4,1.4,0,0,0-1.31.782l.009.123V17H83.725V11.015a1.906,1.906,0,0,0-.237-1.081,1.045,1.045,0,0,0-.905-.334,1.42,1.42,0,0,0-1.3.782V17H78.32V7.49ZM98.4,17.176a4.889,4.889,0,0,1-3.542-1.305,4.507,4.507,0,0,1-1.354-3.4v-.246a5.84,5.84,0,0,1,.541-2.575,3.955,3.955,0,0,1,1.578-1.727,4.763,4.763,0,0,1,2.461-.611,4.117,4.117,0,0,1,3.164,1.244,4.887,4.887,0,0,1,1.16,3.467v1.151H96.522a2.135,2.135,0,0,0,.694,1.257,2.066,2.066,0,0,0,1.389.457,2.662,2.662,0,0,0,2.2-.984l1.354,1.6a3.784,3.784,0,0,1-1.569,1.217A5.3,5.3,0,0,1,98.4,17.176ZM98.069,9.6q-1.3,0-1.547,1.723H99.51v-.229a1.467,1.467,0,0,0-.36-1.1A1.434,1.434,0,0,0,98.069,9.6Zm8.253-2.109.1,1.116a3.225,3.225,0,0,1,2.716-1.292,2.713,2.713,0,0,1,2.219.888,4.226,4.226,0,0,1,.76,2.672V17h-2.971V11a1.6,1.6,0,0,0-.29-1.059A1.342,1.342,0,0,0,107.8,9.6a1.413,1.413,0,0,0-1.292.686V17h-2.962V7.49ZM117.2,5.126V7.49h1.564V9.547H117.2V13.9a1.111,1.111,0,0,0,.193.747,1.037,1.037,0,0,0,.765.211,4.345,4.345,0,0,0,.738-.053v2.118a5.466,5.466,0,0,1-1.67.255,3.1,3.1,0,0,1-2.259-.721,2.954,2.954,0,0,1-.729-2.188V9.547h-1.213V7.49h1.213V5.126Zm2.092,7.031a5.613,5.613,0,0,1,.554-2.536,3.96,3.96,0,0,1,1.591-1.709,4.791,4.791,0,0,1,2.435-.6,4.373,4.373,0,0,1,3.366,1.323,5.076,5.076,0,0,1,1.23,3.6v.105a4.925,4.925,0,0,1-1.235,3.529,4.384,4.384,0,0,1-3.344,1.305,4.434,4.434,0,0,1-3.261-1.217,4.761,4.761,0,0,1-1.327-3.3Zm2.962.185a3.538,3.538,0,0,0,.413,1.934,1.376,1.376,0,0,0,1.222.615q1.582,0,1.617-2.435v-.3q0-2.558-1.635-2.558-1.485,0-1.608,2.206Zm12.5,1.986a.684.684,0,0,0-.4-.606,6.016,6.016,0,0,0-1.5-.475,6.853,6.853,0,0,1-1.828-.646,3.062,3.062,0,0,1-1.1-.971,2.319,2.319,0,0,1-.378-1.31,2.628,2.628,0,0,1,1.081-2.158,4.453,4.453,0,0,1,2.83-.848,4.934,4.934,0,0,1,3.023.853,2.666,2.666,0,0,1,1.143,2.241h-2.971q0-1.143-1.2-1.143a1.194,1.194,0,0,0-.782.259.8.8,0,0,0-.316.646.737.737,0,0,0,.387.642,3.654,3.654,0,0,0,1.235.4,10.671,10.671,0,0,1,1.49.378,2.706,2.706,0,0,1,2.145,2.646,2.491,2.491,0,0,1-1.156,2.118,5.068,5.068,0,0,1-2.993.817,5.172,5.172,0,0,1-2.18-.439,3.645,3.645,0,0,1-1.494-1.2,2.707,2.707,0,0,1-.536-1.591h2.769a1.145,1.145,0,0,0,.439.962,1.808,1.808,0,0,0,1.081.3,1.422,1.422,0,0,0,.91-.246A.787.787,0,0,0,134.754,14.328Z" transform="translate(485.333 550)" fill="#12263f"/>
    <path id="Trazado_806971" data-name="Trazado 806971" d="M24.024,17H20.957V11.656H16.413V17H13.328V4.2h3.085v5.08h4.544V4.2h3.067ZM29.289,5.126V7.49h1.564V9.547H29.289V13.9a1.111,1.111,0,0,0,.193.747,1.037,1.037,0,0,0,.765.211,4.345,4.345,0,0,0,.738-.053v2.118a5.466,5.466,0,0,1-1.67.255,3.1,3.1,0,0,1-2.259-.721,2.954,2.954,0,0,1-.729-2.188V9.547H25.114V7.49h1.213V5.126ZM34.817,7.49l.1,1.116a3.27,3.27,0,0,1,2.716-1.292,2.407,2.407,0,0,1,2.435,1.433,3.165,3.165,0,0,1,2.795-1.433q2.892,0,2.971,3.5V17H42.859V11a1.813,1.813,0,0,0-.246-1.063,1.048,1.048,0,0,0-.9-.334,1.4,1.4,0,0,0-1.31.782l.009.123V17H37.445V11.015a1.906,1.906,0,0,0-.237-1.081A1.045,1.045,0,0,0,36.3,9.6a1.42,1.42,0,0,0-1.3.782V17H32.04V7.49ZM50.646,17H47.675V3.5h2.971Z" transform="translate(573.333 707)" fill="#12263f"/>
    <path id="Trazado_806969" data-name="Trazado 806969" d="M11.406,13.6a1.268,1.268,0,0,0-.479-1.055,5.954,5.954,0,0,0-1.683-.782,16.147,16.147,0,0,1-1.969-.782Q4.788,9.758,4.788,7.622a3.011,3.011,0,0,1,.62-1.876A4.008,4.008,0,0,1,7.161,4.48a6.823,6.823,0,0,1,2.549-.453,5.969,5.969,0,0,1,2.474.492,3.917,3.917,0,0,1,1.7,1.4A3.661,3.661,0,0,1,14.491,8H11.415a1.547,1.547,0,0,0-.479-1.213,1.867,1.867,0,0,0-1.3-.431,2.106,2.106,0,0,0-1.305.365,1.074,1.074,0,0,0,.048,1.819,6.65,6.65,0,0,0,1.854.826,11.36,11.36,0,0,1,2.18.918,3.663,3.663,0,0,1,2.074,3.3,3.125,3.125,0,0,1-1.266,2.637,5.629,5.629,0,0,1-3.472.958,6.888,6.888,0,0,1-2.817-.558,4.247,4.247,0,0,1-1.9-1.529A3.985,3.985,0,0,1,4.4,12.852H7.495a1.963,1.963,0,0,0,.532,1.516,2.513,2.513,0,0,0,1.727.488,1.985,1.985,0,0,0,1.208-.33A1.088,1.088,0,0,0,11.406,13.6Zm9.132,3.577A4.889,4.889,0,0,1,17,15.871a4.507,4.507,0,0,1-1.354-3.4v-.246a5.84,5.84,0,0,1,.541-2.575A3.955,3.955,0,0,1,17.76,7.925a4.763,4.763,0,0,1,2.461-.611,4.117,4.117,0,0,1,3.164,1.244,4.887,4.887,0,0,1,1.16,3.467v1.151H18.657a2.135,2.135,0,0,0,.694,1.257,2.066,2.066,0,0,0,1.389.457,2.662,2.662,0,0,0,2.2-.984l1.354,1.6a3.784,3.784,0,0,1-1.569,1.217A5.3,5.3,0,0,1,20.538,17.176ZM20.2,9.6q-1.3,0-1.547,1.723h2.988v-.229a1.467,1.467,0,0,0-.36-1.1A1.434,1.434,0,0,0,20.2,9.6Zm9.554,5.291a1.317,1.317,0,0,0,.967-.338,1.241,1.241,0,0,0,.334-.945h2.777a3.288,3.288,0,0,1-1.121,2.566,4.168,4.168,0,0,1-2.887,1,4.22,4.22,0,0,1-3.27-1.3,5.125,5.125,0,0,1-1.2-3.6v-.123A5.792,5.792,0,0,1,25.895,9.6a3.872,3.872,0,0,1,1.534-1.7A4.573,4.573,0,0,1,29.8,7.314a4.116,4.116,0,0,1,2.944,1.028,3.647,3.647,0,0,1,1.09,2.786H31.058A1.626,1.626,0,0,0,30.7,10a1.244,1.244,0,0,0-.967-.4q-1.151,0-1.345,1.468a10.357,10.357,0,0,0-.062,1.283,4.068,4.068,0,0,0,.343,1.986A1.187,1.187,0,0,0,29.757,14.891Zm11,1.081a3.054,3.054,0,0,1-2.54,1.2,3,3,0,0,1-2.369-.91,3.826,3.826,0,0,1-.8-2.615V7.49H38v6.179a1.065,1.065,0,0,0,1.187,1.222,1.548,1.548,0,0,0,1.45-.729V7.49h2.979V17H40.84Zm9.088,1.2A4.889,4.889,0,0,1,46.3,15.871a4.507,4.507,0,0,1-1.354-3.4v-.246a5.84,5.84,0,0,1,.541-2.575,3.955,3.955,0,0,1,1.578-1.727,4.763,4.763,0,0,1,2.461-.611,4.117,4.117,0,0,1,3.164,1.244,4.887,4.887,0,0,1,1.16,3.467v1.151H47.959a2.135,2.135,0,0,0,.694,1.257,2.066,2.066,0,0,0,1.389.457,2.662,2.662,0,0,0,2.2-.984l1.354,1.6a3.784,3.784,0,0,1-1.569,1.217A5.3,5.3,0,0,1,49.84,17.176ZM49.506,9.6q-1.3,0-1.547,1.723h2.988v-.229a1.467,1.467,0,0,0-.36-1.1A1.434,1.434,0,0,0,49.506,9.6ZM57.759,7.49l.1,1.116a3.225,3.225,0,0,1,2.716-1.292,2.713,2.713,0,0,1,2.219.888,4.226,4.226,0,0,1,.76,2.672V17H60.581V11a1.6,1.6,0,0,0-.29-1.059A1.342,1.342,0,0,0,59.236,9.6a1.413,1.413,0,0,0-1.292.686V17H54.982V7.49Zm11.452,7.4a1.317,1.317,0,0,0,.967-.338,1.241,1.241,0,0,0,.334-.945H73.29a3.288,3.288,0,0,1-1.121,2.566,4.168,4.168,0,0,1-2.887,1,4.22,4.22,0,0,1-3.27-1.3,5.125,5.125,0,0,1-1.2-3.6v-.123A5.792,5.792,0,0,1,65.349,9.6a3.872,3.872,0,0,1,1.534-1.7,4.573,4.573,0,0,1,2.373-.593A4.116,4.116,0,0,1,72.2,8.343a3.647,3.647,0,0,1,1.09,2.786H70.512A1.626,1.626,0,0,0,70.152,10a1.244,1.244,0,0,0-.967-.4q-1.151,0-1.345,1.468a10.357,10.357,0,0,0-.062,1.283,4.068,4.068,0,0,0,.343,1.986A1.187,1.187,0,0,0,69.211,14.891ZM77.667,17H74.7V7.49h2.971ZM74.52,5.029a1.334,1.334,0,0,1,.457-1.043,1.934,1.934,0,0,1,2.373,0,1.334,1.334,0,0,1,.457,1.043,1.334,1.334,0,0,1-.457,1.043,1.934,1.934,0,0,1-2.373,0A1.334,1.334,0,0,1,74.52,5.029ZM84.847,17a3.344,3.344,0,0,1-.281-.853,2.754,2.754,0,0,1-2.285,1.028A3.374,3.374,0,0,1,80,16.363a2.588,2.588,0,0,1-.94-2.043A2.66,2.66,0,0,1,80.2,11.981a5.821,5.821,0,0,1,3.322-.791h.914v-.5q0-1.316-1.134-1.316a.927.927,0,0,0-1.055,1.042H79.284a2.655,2.655,0,0,1,1.173-2.239,4.931,4.931,0,0,1,2.993-.86,4.323,4.323,0,0,1,2.874.888A3.086,3.086,0,0,1,87.4,10.637v4.21a4.311,4.311,0,0,0,.4,2V17Zm-1.854-1.934a1.652,1.652,0,0,0,.918-.237,1.487,1.487,0,0,0,.523-.536V12.772h-.861q-1.547,0-1.547,1.389a.848.848,0,0,0,.272.655A.986.986,0,0,0,82.993,15.066ZM92.168,17H89.2V3.5h2.971Z" transform="translate(773.333 707)" fill="#12263f"/>
    <path id="Trazado_806967" data-name="Trazado 806967" d="M24.84,13.9H20.015L19.127,19H16.121L18.336,6.2h8.323l-.413,2.382H20.938l-.51,2.944h4.825Zm6.144-4.588a3.994,3.994,0,0,1,2.206.637,3.59,3.59,0,0,1,1.367,1.727,5.33,5.33,0,0,1,.312,2.461l-.018.193a5.636,5.636,0,0,1-1.626,3.533,4.575,4.575,0,0,1-3.41,1.31,3.977,3.977,0,0,1-2.188-.628,3.612,3.612,0,0,1-1.367-1.709,5.179,5.179,0,0,1-.321-2.443,5.863,5.863,0,0,1,1.6-3.727A4.547,4.547,0,0,1,30.983,9.314ZM28.83,14.4l-.026.518q-.123,1.957,1.2,1.992,1.705.053,1.978-2.764l.035-.8a2.155,2.155,0,0,0-.294-1.259A1.073,1.073,0,0,0,30.8,11.6a1.512,1.512,0,0,0-1.314.654A4.278,4.278,0,0,0,28.83,14.4ZM39.623,9.481l-.2,1.143a3.38,3.38,0,0,1,2.751-1.318,2.27,2.27,0,0,1,1.964.98,4.1,4.1,0,0,1,.47,2.729L43.6,19H40.7l1.011-6.01a3.108,3.108,0,0,0,.018-.563q-.062-.836-.984-.836a1.807,1.807,0,0,0-1.4.678L38.164,19H35.272l1.652-9.51ZM50.688,7.126,50.275,9.49H51.8l-.36,2.057H49.915l-.738,4.368a1.164,1.164,0,0,0,.057.677q.119.229.593.246a6.873,6.873,0,0,0,.756-.044l-.211,2.145a4.673,4.673,0,0,1-1.556.22,2.563,2.563,0,0,1-2.013-.791,2.7,2.7,0,0,1-.545-2.1l.773-4.72H45.854l.352-2.057h1.178L47.8,7.126Zm5.388,12.05a4.421,4.421,0,0,1-2.272-.6A3.793,3.793,0,0,1,52.3,16.921a4.44,4.44,0,0,1-.4-2.333l.026-.246a5.829,5.829,0,0,1,1.63-3.713,4.51,4.51,0,0,1,3.415-1.314,3.678,3.678,0,0,1,2.092.621A3.468,3.468,0,0,1,60.33,11.6a5.1,5.1,0,0,1,.264,2.381l-.167,1.206h-5.66a1.854,1.854,0,0,0,.422,1.213,1.549,1.549,0,0,0,1.178.492,2.993,2.993,0,0,0,2.259-.967l1.213,1.6a3.578,3.578,0,0,1-1.5,1.2,5.263,5.263,0,0,1-2.1.451Zm.7-7.576a1.487,1.487,0,0,0-1.068.385,3.229,3.229,0,0,0-.787,1.347h2.892l.053-.254a1.929,1.929,0,0,0,.018-.577A1.017,1.017,0,0,0,56.779,11.6Zm8.455-2.118-.2,1.143a3.38,3.38,0,0,1,2.751-1.318,2.27,2.27,0,0,1,1.964.98,4.1,4.1,0,0,1,.47,2.729l-1,5.985h-2.9l1.011-6.01a3.108,3.108,0,0,0,.018-.563q-.062-.836-.984-.836a1.807,1.807,0,0,0-1.4.678L63.775,19H60.884l1.652-9.51Zm6.117,4.746a6.917,6.917,0,0,1,1.371-3.6,3.4,3.4,0,0,1,2.865-1.31,2.592,2.592,0,0,1,2.013,1.02L78.523,5.5h2.9L79.086,19H76.511l.123-1.028a2.968,2.968,0,0,1-2.364,1.213,2.62,2.62,0,0,1-2.149-1.015,4.476,4.476,0,0,1-.831-2.676,8.231,8.231,0,0,1,.035-1.081Zm2.883.2a6.9,6.9,0,0,0-.062.984q0,1.459.984,1.485a1.844,1.844,0,0,0,1.521-.817l.65-3.647a1.171,1.171,0,0,0-1.16-.835,1.478,1.478,0,0,0-1.305.7A4.507,4.507,0,0,0,74.234,14.43Z" transform="translate(1008.333 707)" fill="#12263f"/>
    <path id="Trazado_806968" data-name="Trazado 806968" d="M14.056,19,16.271,6.2l4.069.009a5.932,5.932,0,0,1,3.595.914,2.766,2.766,0,0,1,1.081,2.54A3.176,3.176,0,0,1,22.8,12.531a2.17,2.17,0,0,1,1.165.954,2.786,2.786,0,0,1,.356,1.657A3.679,3.679,0,0,1,22.858,18a6,6,0,0,1-3.669,1Zm3.955-5.44-.536,3.059,1.8.009a2.3,2.3,0,0,0,1.406-.416,1.636,1.636,0,0,0,.668-1.109q.246-1.464-1.125-1.534Zm.343-2.021,1.415.009q1.96-.044,2.2-1.507.211-1.446-1.494-1.455l-1.6-.009ZM30.632,19a2.578,2.578,0,0,1-.123-.861,2.933,2.933,0,0,1-2.329,1.037,2.866,2.866,0,0,1-2.057-.826,2.483,2.483,0,0,1-.765-1.96,2.79,2.79,0,0,1,1.292-2.377,6.091,6.091,0,0,1,3.41-.831l.967.018.105-.536.035-.466a.755.755,0,0,0-.8-.826A1.111,1.111,0,0,0,29.2,12.417l-2.9.009a2.754,2.754,0,0,1,.624-1.666A3.7,3.7,0,0,1,28.5,9.67a5.512,5.512,0,0,1,2.123-.356,4.251,4.251,0,0,1,1.894.453,2.82,2.82,0,0,1,1.217,1.187,3.031,3.031,0,0,1,.308,1.753l-.712,4.474-.044.545a2.4,2.4,0,0,0,.167,1.107L33.444,19Zm-1.652-1.916a1.865,1.865,0,0,0,1.556-.782l.29-1.529-.747-.009a1.969,1.969,0,0,0-1.2.409,1.55,1.55,0,0,0-.589,1.068.778.778,0,0,0,.136.593A.7.7,0,0,0,28.979,17.084Zm10.046-.193A1.244,1.244,0,0,0,40,16.546a1.717,1.717,0,0,0,.448-.938l2.707-.009a3.559,3.559,0,0,1-.62,1.872,3.745,3.745,0,0,1-1.529,1.279,4.521,4.521,0,0,1-2.061.426,3.57,3.57,0,0,1-2.927-1.367,4.726,4.726,0,0,1-.835-3.441l.026-.211A6.371,6.371,0,0,1,36.02,11.6a4.626,4.626,0,0,1,1.709-1.718A4.433,4.433,0,0,1,40.1,9.314a3.536,3.536,0,0,1,2.624,1.059,3.755,3.755,0,0,1,.927,2.764l-2.707-.009q.044-1.5-1.081-1.529-1.529-.053-1.758,2.567l-.079.893-.009.333Q38.015,16.864,39.025,16.891Zm9.167-1.4-1.055.914L46.689,19H43.8L46.145,5.491h2.892L47.7,12.7l.352-.422L50.68,9.49h3.665L50.3,13.533,52.754,19H49.581Zm9.949,3.683a4.421,4.421,0,0,1-2.272-.6,3.793,3.793,0,0,1-1.507-1.652,4.44,4.44,0,0,1-.4-2.333l.026-.246a5.829,5.829,0,0,1,1.63-3.713,4.51,4.51,0,0,1,3.415-1.314,3.678,3.678,0,0,1,2.092.621A3.468,3.468,0,0,1,62.4,11.6a5.1,5.1,0,0,1,.264,2.381l-.167,1.206h-5.66a1.854,1.854,0,0,0,.422,1.213,1.549,1.549,0,0,0,1.178.492,2.993,2.993,0,0,0,2.259-.967l1.213,1.6a3.578,3.578,0,0,1-1.5,1.2,5.263,5.263,0,0,1-2.1.451Zm.7-7.576a1.487,1.487,0,0,0-1.068.385,3.229,3.229,0,0,0-.787,1.347h2.892l.053-.254a1.929,1.929,0,0,0,.018-.577A1.017,1.017,0,0,0,58.845,11.6ZM67.3,9.481l-.2,1.143a3.38,3.38,0,0,1,2.751-1.318,2.27,2.27,0,0,1,1.964.98,4.1,4.1,0,0,1,.47,2.729l-1,5.985h-2.9l1.011-6.01a3.108,3.108,0,0,0,.018-.563q-.062-.836-.984-.836a1.807,1.807,0,0,0-1.4.678L65.841,19H62.949L64.6,9.49Zm6.117,4.746a6.917,6.917,0,0,1,1.371-3.6,3.4,3.4,0,0,1,2.865-1.31,2.592,2.592,0,0,1,2.013,1.02L80.589,5.5h2.9L81.151,19H78.576l.123-1.028a2.968,2.968,0,0,1-2.364,1.213,2.62,2.62,0,0,1-2.149-1.015,4.476,4.476,0,0,1-.831-2.676,8.231,8.231,0,0,1,.035-1.081Zm2.883.2a6.9,6.9,0,0,0-.062.984q0,1.459.984,1.485a1.844,1.844,0,0,0,1.521-.817l.65-3.647a1.171,1.171,0,0,0-1.16-.835,1.478,1.478,0,0,0-1.305.7A4.507,4.507,0,0,0,76.3,14.43Z" transform="translate(1008.333 797)" fill="#12263f"/>
    <path id="Trazado_806970" data-name="Trazado 806970" d="M12.517,12.667a4.673,4.673,0,0,1-.721,2.36,4.35,4.35,0,0,1-1.85,1.586,6.3,6.3,0,0,1-2.72.563,5.025,5.025,0,0,1-3.973-1.644A6.786,6.786,0,0,1,1.8,10.892v-.633a7.746,7.746,0,0,1,.655-3.292,4.961,4.961,0,0,1,1.885-2.18,5.26,5.26,0,0,1,2.848-.769,5.516,5.516,0,0,1,3.744,1.226,4.844,4.844,0,0,1,1.608,3.379H9.467a2.292,2.292,0,0,0-.589-1.679,2.422,2.422,0,0,0-1.687-.51A1.843,1.843,0,0,0,5.5,7.3a5.536,5.536,0,0,0-.562,2.751v.905a6.125,6.125,0,0,0,.514,2.927,1.882,1.882,0,0,0,1.771.879,2.369,2.369,0,0,0,1.626-.5,2.126,2.126,0,0,0,.6-1.591Zm.949-.51a5.613,5.613,0,0,1,.554-2.536,3.96,3.96,0,0,1,1.591-1.709,4.791,4.791,0,0,1,2.435-.6,4.373,4.373,0,0,1,3.366,1.323,5.076,5.076,0,0,1,1.23,3.6v.105a4.925,4.925,0,0,1-1.235,3.529,4.384,4.384,0,0,1-3.344,1.305A4.434,4.434,0,0,1,14.8,15.958a4.761,4.761,0,0,1-1.327-3.3Zm2.962.185a3.538,3.538,0,0,0,.413,1.934,1.376,1.376,0,0,0,1.222.615q1.582,0,1.617-2.435v-.3q0-2.558-1.635-2.558-1.485,0-1.608,2.206ZM26.667,7.49l.1,1.116A3.225,3.225,0,0,1,29.48,7.314,2.713,2.713,0,0,1,31.7,8.2a4.226,4.226,0,0,1,.76,2.672V17H29.489V11a1.6,1.6,0,0,0-.29-1.059A1.342,1.342,0,0,0,28.144,9.6a1.413,1.413,0,0,0-1.292.686V17H23.89V7.49Zm7.058,4.685a5.809,5.809,0,0,1,.976-3.56,3.211,3.211,0,0,1,2.725-1.3,2.731,2.731,0,0,1,2.145,1V3.5h2.971V17H39.877l-.149-1.02a2.8,2.8,0,0,1-2.32,1.2,3.205,3.205,0,0,1-2.689-1.3A5.993,5.993,0,0,1,33.725,12.175Zm2.962.185q0,2.531,1.477,2.531a1.458,1.458,0,0,0,1.406-.826V10.443A1.419,1.419,0,0,0,38.181,9.6q-1.371,0-1.485,2.215ZM47.348,17H44.377V7.49h2.971ZM44.2,5.029a1.334,1.334,0,0,1,.457-1.043,1.934,1.934,0,0,1,2.373,0,1.334,1.334,0,0,1,.457,1.043,1.334,1.334,0,0,1-.457,1.043,1.934,1.934,0,0,1-2.373,0A1.334,1.334,0,0,1,44.2,5.029Zm8.991,9.861a1.317,1.317,0,0,0,.967-.338,1.241,1.241,0,0,0,.334-.945h2.777a3.288,3.288,0,0,1-1.121,2.566,4.168,4.168,0,0,1-2.887,1,4.22,4.22,0,0,1-3.27-1.3,5.125,5.125,0,0,1-1.2-3.6v-.123A5.792,5.792,0,0,1,49.33,9.6a3.872,3.872,0,0,1,1.534-1.7,4.573,4.573,0,0,1,2.373-.593,4.116,4.116,0,0,1,2.944,1.028,3.647,3.647,0,0,1,1.09,2.786H54.494A1.626,1.626,0,0,0,54.133,10a1.244,1.244,0,0,0-.967-.4q-1.151,0-1.345,1.468a10.357,10.357,0,0,0-.062,1.283,4.068,4.068,0,0,0,.343,1.986A1.187,1.187,0,0,0,53.193,14.891ZM61.648,17H58.677V7.49h2.971ZM58.5,5.029a1.334,1.334,0,0,1,.457-1.043,1.934,1.934,0,0,1,2.373,0,1.334,1.334,0,0,1,.457,1.043,1.334,1.334,0,0,1-.457,1.043,1.934,1.934,0,0,1-2.373,0A1.334,1.334,0,0,1,58.5,5.029Zm4.6,7.128a5.613,5.613,0,0,1,.554-2.536,3.96,3.96,0,0,1,1.591-1.709,4.791,4.791,0,0,1,2.435-.6,4.373,4.373,0,0,1,3.366,1.323,5.076,5.076,0,0,1,1.23,3.6v.105a4.925,4.925,0,0,1-1.235,3.529,4.384,4.384,0,0,1-3.344,1.305,4.434,4.434,0,0,1-3.261-1.217,4.761,4.761,0,0,1-1.327-3.3Zm2.962.185a3.538,3.538,0,0,0,.413,1.934,1.376,1.376,0,0,0,1.222.615q1.582,0,1.617-2.435v-.3q0-2.558-1.635-2.558-1.485,0-1.608,2.206ZM76.3,7.49l.1,1.116a3.225,3.225,0,0,1,2.716-1.292,2.713,2.713,0,0,1,2.219.888,4.226,4.226,0,0,1,.76,2.672V17H79.121V11a1.6,1.6,0,0,0-.29-1.059A1.342,1.342,0,0,0,77.776,9.6a1.413,1.413,0,0,0-1.292.686V17H73.522V7.49ZM89.087,17a3.344,3.344,0,0,1-.281-.853,2.754,2.754,0,0,1-2.285,1.028,3.374,3.374,0,0,1-2.285-.813,2.588,2.588,0,0,1-.94-2.043,2.66,2.66,0,0,1,1.143-2.338,5.821,5.821,0,0,1,3.322-.791h.914v-.5q0-1.316-1.134-1.316a.927.927,0,0,0-1.055,1.042H83.524A2.655,2.655,0,0,1,84.7,8.175a4.931,4.931,0,0,1,2.993-.86,4.323,4.323,0,0,1,2.874.888,3.086,3.086,0,0,1,1.081,2.435v4.21a4.311,4.311,0,0,0,.4,2V17Zm-1.854-1.934a1.652,1.652,0,0,0,.918-.237,1.487,1.487,0,0,0,.523-.536V12.772h-.861q-1.547,0-1.547,1.389a.848.848,0,0,0,.272.655A.986.986,0,0,0,87.233,15.066ZM96,7.49l.1,1.116a3.225,3.225,0,0,1,2.716-1.292,2.713,2.713,0,0,1,2.219.888,4.226,4.226,0,0,1,.76,2.672V17H98.826V11a1.6,1.6,0,0,0-.29-1.059A1.342,1.342,0,0,0,97.481,9.6a1.413,1.413,0,0,0-1.292.686V17H93.227V7.49Zm10.881-2.364V7.49h1.564V9.547h-1.564V13.9a1.111,1.111,0,0,0,.193.747,1.037,1.037,0,0,0,.765.211,4.345,4.345,0,0,0,.738-.053v2.118a5.466,5.466,0,0,1-1.67.255,3.1,3.1,0,0,1-2.259-.721,2.954,2.954,0,0,1-.729-2.188V9.547H102.71V7.49h1.213V5.126Zm7.33,12.05a4.889,4.889,0,0,1-3.542-1.305,4.507,4.507,0,0,1-1.354-3.4v-.246a5.84,5.84,0,0,1,.541-2.575,3.955,3.955,0,0,1,1.578-1.727,4.763,4.763,0,0,1,2.461-.611,4.117,4.117,0,0,1,3.164,1.244,4.887,4.887,0,0,1,1.16,3.467v1.151h-5.889a2.135,2.135,0,0,0,.694,1.257,2.066,2.066,0,0,0,1.389.457,2.662,2.662,0,0,0,2.2-.984l1.354,1.6a3.784,3.784,0,0,1-1.569,1.217A5.3,5.3,0,0,1,114.215,17.176ZM113.881,9.6q-1.3,0-1.547,1.723h2.988v-.229a1.467,1.467,0,0,0-.36-1.1A1.434,1.434,0,0,0,113.881,9.6Zm10.512,4.729a.684.684,0,0,0-.4-.606,6.016,6.016,0,0,0-1.5-.475,6.853,6.853,0,0,1-1.828-.646,3.062,3.062,0,0,1-1.1-.971,2.319,2.319,0,0,1-.378-1.31,2.628,2.628,0,0,1,1.081-2.158,4.453,4.453,0,0,1,2.83-.848,4.934,4.934,0,0,1,3.023.853,2.666,2.666,0,0,1,1.143,2.241H124.3q0-1.143-1.2-1.143a1.194,1.194,0,0,0-.782.259.8.8,0,0,0-.316.646.737.737,0,0,0,.387.642,3.654,3.654,0,0,0,1.235.4,10.671,10.671,0,0,1,1.49.378,2.706,2.706,0,0,1,2.145,2.646,2.491,2.491,0,0,1-1.156,2.118,5.068,5.068,0,0,1-2.993.817,5.172,5.172,0,0,1-2.18-.439,3.645,3.645,0,0,1-1.494-1.2,2.707,2.707,0,0,1-.536-1.591h2.769a1.145,1.145,0,0,0,.439.962,1.808,1.808,0,0,0,1.081.3,1.422,1.422,0,0,0,.91-.246A.787.787,0,0,0,124.393,14.328Z" transform="translate(757.333 797)" fill="#12263f"/>
    <path id="Trazado_806974" data-name="Trazado 806974" d="M15.761,11.9H10.786V17H7.7V4.2h8.561V6.585H10.786V9.529h4.975Zm7.119,4.069a3.054,3.054,0,0,1-2.54,1.2,3,3,0,0,1-2.369-.91,3.826,3.826,0,0,1-.8-2.615V7.49h2.962v6.179a1.065,1.065,0,0,0,1.187,1.222,1.548,1.548,0,0,0,1.45-.729V7.49h2.979V17H22.968ZM30.087,7.49l.1,1.116A3.225,3.225,0,0,1,32.9,7.314a2.713,2.713,0,0,1,2.219.888,4.226,4.226,0,0,1,.76,2.672V17H32.908V11a1.6,1.6,0,0,0-.29-1.059A1.342,1.342,0,0,0,31.563,9.6a1.413,1.413,0,0,0-1.292.686V17H27.31V7.49Zm11.452,7.4a1.317,1.317,0,0,0,.967-.338,1.241,1.241,0,0,0,.334-.945h2.777A3.288,3.288,0,0,1,44.5,16.174a4.168,4.168,0,0,1-2.887,1,4.22,4.22,0,0,1-3.27-1.3,5.125,5.125,0,0,1-1.2-3.6v-.123A5.792,5.792,0,0,1,37.676,9.6a3.872,3.872,0,0,1,1.534-1.7,4.573,4.573,0,0,1,2.373-.593,4.116,4.116,0,0,1,2.944,1.028,3.647,3.647,0,0,1,1.09,2.786H42.84A1.626,1.626,0,0,0,42.479,10a1.244,1.244,0,0,0-.967-.4q-1.151,0-1.345,1.468a10.357,10.357,0,0,0-.062,1.283,4.068,4.068,0,0,0,.343,1.986A1.187,1.187,0,0,0,41.539,14.891ZM49.994,17H47.023V7.49h2.971ZM46.848,5.029A1.334,1.334,0,0,1,47.3,3.986a1.934,1.934,0,0,1,2.373,0,1.334,1.334,0,0,1,.457,1.043,1.334,1.334,0,0,1-.457,1.043,1.934,1.934,0,0,1-2.373,0A1.334,1.334,0,0,1,46.848,5.029Zm4.6,7.128A5.613,5.613,0,0,1,52,9.622a3.96,3.96,0,0,1,1.591-1.709,4.791,4.791,0,0,1,2.435-.6A4.373,4.373,0,0,1,59.39,8.637a5.076,5.076,0,0,1,1.23,3.6v.105a4.925,4.925,0,0,1-1.235,3.529,4.384,4.384,0,0,1-3.344,1.305,4.434,4.434,0,0,1-3.261-1.217,4.761,4.761,0,0,1-1.327-3.3Zm2.962.185a3.538,3.538,0,0,0,.413,1.934,1.376,1.376,0,0,0,1.222.615q1.582,0,1.617-2.435v-.3q0-2.558-1.635-2.558-1.485,0-1.608,2.206ZM64.646,7.49l.1,1.116a3.225,3.225,0,0,1,2.716-1.292,2.713,2.713,0,0,1,2.219.888,4.226,4.226,0,0,1,.76,2.672V17H67.467V11a1.6,1.6,0,0,0-.29-1.059A1.342,1.342,0,0,0,66.122,9.6a1.413,1.413,0,0,0-1.292.686V17H61.868V7.49Zm12.032,9.686a4.889,4.889,0,0,1-3.542-1.305,4.507,4.507,0,0,1-1.354-3.4v-.246a5.84,5.84,0,0,1,.541-2.575A3.955,3.955,0,0,1,73.9,7.925a4.763,4.763,0,0,1,2.461-.611,4.117,4.117,0,0,1,3.164,1.244,4.887,4.887,0,0,1,1.16,3.467v1.151H74.8a2.135,2.135,0,0,0,.694,1.257,2.066,2.066,0,0,0,1.389.457,2.662,2.662,0,0,0,2.2-.984l1.354,1.6a3.784,3.784,0,0,1-1.569,1.217A5.3,5.3,0,0,1,76.678,17.176ZM76.344,9.6q-1.3,0-1.547,1.723h2.988v-.229a1.467,1.467,0,0,0-.36-1.1A1.434,1.434,0,0,0,76.344,9.6Zm10.512,4.729a.684.684,0,0,0-.4-.606,6.016,6.016,0,0,0-1.5-.475,6.853,6.853,0,0,1-1.828-.646,3.062,3.062,0,0,1-1.1-.971,2.319,2.319,0,0,1-.378-1.31,2.628,2.628,0,0,1,1.081-2.158,4.453,4.453,0,0,1,2.83-.848,4.934,4.934,0,0,1,3.023.853,2.666,2.666,0,0,1,1.143,2.241H86.759q0-1.143-1.2-1.143a1.194,1.194,0,0,0-.782.259.8.8,0,0,0-.316.646.737.737,0,0,0,.387.642,3.654,3.654,0,0,0,1.235.4,10.671,10.671,0,0,1,1.49.378,2.706,2.706,0,0,1,2.145,2.646,2.491,2.491,0,0,1-1.156,2.118,5.068,5.068,0,0,1-2.993.817,5.172,5.172,0,0,1-2.18-.439,3.645,3.645,0,0,1-1.494-1.2,2.707,2.707,0,0,1-.536-1.591h2.769a1.145,1.145,0,0,0,.439.962,1.808,1.808,0,0,0,1.081.3,1.422,1.422,0,0,0,.91-.246A.787.787,0,0,0,86.855,14.328ZM13.99,37.852l1.582-5.361h3.173l-3.876,11.1L14.7,44a2.944,2.944,0,0,1-2.918,1.846,4.642,4.642,0,0,1-1.222-.175v-2.11h.387a2.026,2.026,0,0,0,.954-.18,1.094,1.094,0,0,0,.488-.647l.237-.633-3.3-9.605h3.164Zm18.835-.527a5.8,5.8,0,0,1-.967,3.595,3.238,3.238,0,0,1-2.725,1.257A2.81,2.81,0,0,1,26.8,41.024L26.672,42H24.018V28.5H26.98v4.755a2.711,2.711,0,0,1,2.136-.94,3.239,3.239,0,0,1,2.742,1.274,5.826,5.826,0,0,1,.967,3.586Zm-2.971-.189a3.866,3.866,0,0,0-.365-1.952,1.229,1.229,0,0,0-1.121-.584,1.418,1.418,0,0,0-1.389.763v3.773a1.426,1.426,0,0,0,1.406.755,1.258,1.258,0,0,0,1.327-1.018A7.309,7.309,0,0,0,29.854,37.135ZM37.254,42H34.284V28.5h2.971Zm1.45-4.843a5.613,5.613,0,0,1,.554-2.536,3.96,3.96,0,0,1,1.591-1.709,4.791,4.791,0,0,1,2.435-.6,4.373,4.373,0,0,1,3.366,1.323,5.076,5.076,0,0,1,1.23,3.6v.105a4.925,4.925,0,0,1-1.235,3.529A4.384,4.384,0,0,1,43.3,42.176a4.434,4.434,0,0,1-3.261-1.217,4.761,4.761,0,0,1-1.327-3.3Zm2.962.185a3.538,3.538,0,0,0,.413,1.934,1.376,1.376,0,0,0,1.222.615q1.582,0,1.617-2.435v-.3q0-2.558-1.635-2.558-1.485,0-1.608,2.206Zm7.146-.193A5.709,5.709,0,0,1,49.8,33.6a3.233,3.233,0,0,1,2.716-1.283,2.761,2.761,0,0,1,2.338,1.2l.211-1.02h2.566V45.656H54.657V41.209a2.757,2.757,0,0,1-2.162.967,3.2,3.2,0,0,1-2.685-1.305A6.027,6.027,0,0,1,48.812,37.148Zm2.962.185q0,2.558,1.477,2.558a1.43,1.43,0,0,0,1.406-.773V35.355a1.4,1.4,0,0,0-1.389-.756q-1.38,0-1.485,2.206Zm13.192,3.639a3.054,3.054,0,0,1-2.54,1.2,3,3,0,0,1-2.369-.91,3.826,3.826,0,0,1-.8-2.615V32.49h2.962v6.179A1.065,1.065,0,0,0,63.4,39.891a1.548,1.548,0,0,0,1.45-.729V32.49h2.979V42H65.054Zm9.088,1.2a4.889,4.889,0,0,1-3.542-1.305,4.507,4.507,0,0,1-1.354-3.4v-.246a5.84,5.84,0,0,1,.541-2.575,3.955,3.955,0,0,1,1.578-1.727,4.763,4.763,0,0,1,2.461-.611A4.117,4.117,0,0,1,76.9,33.558a4.887,4.887,0,0,1,1.16,3.467v1.151H72.173a2.135,2.135,0,0,0,.694,1.257,2.066,2.066,0,0,0,1.389.457,2.662,2.662,0,0,0,2.2-.984l1.354,1.6a3.784,3.784,0,0,1-1.569,1.217A5.3,5.3,0,0,1,74.054,42.176ZM73.72,34.6q-1.3,0-1.547,1.723h2.988v-.229a1.467,1.467,0,0,0-.36-1.1A1.434,1.434,0,0,0,73.72,34.6Zm10.512,4.729a.684.684,0,0,0-.4-.606,6.016,6.016,0,0,0-1.5-.475,6.853,6.853,0,0,1-1.828-.646,3.062,3.062,0,0,1-1.1-.971,2.319,2.319,0,0,1-.378-1.31,2.628,2.628,0,0,1,1.081-2.158,4.453,4.453,0,0,1,2.83-.848,4.934,4.934,0,0,1,3.023.853,2.666,2.666,0,0,1,1.143,2.241H84.135q0-1.143-1.2-1.143a1.194,1.194,0,0,0-.782.259.8.8,0,0,0-.316.646.737.737,0,0,0,.387.642,3.654,3.654,0,0,0,1.235.4,10.671,10.671,0,0,1,1.49.378,2.706,2.706,0,0,1,2.145,2.646,2.491,2.491,0,0,1-1.156,2.118,5.068,5.068,0,0,1-2.993.817,5.172,5.172,0,0,1-2.18-.439,3.645,3.645,0,0,1-1.494-1.2,2.707,2.707,0,0,1-.536-1.591H81.5a1.145,1.145,0,0,0,.439.962,1.808,1.808,0,0,0,1.081.3,1.422,1.422,0,0,0,.91-.246A.787.787,0,0,0,84.232,39.328Z" transform="translate(773.333 875)" fill="#12263f"/>
    <path id="Trazado_806975" data-name="Trazado 806975" d="M8.348,12.658V17H5.263V4.2H10.37a5.948,5.948,0,0,1,2.6.541,4.074,4.074,0,0,1,1.749,1.538,4.2,4.2,0,0,1,.62,2.263A3.7,3.7,0,0,1,14,11.538a5.561,5.561,0,0,1-3.678,1.121Zm0-2.382H10.37a1.906,1.906,0,0,0,1.367-.448,1.665,1.665,0,0,0,.47-1.266,2.059,2.059,0,0,0-.483-1.433A1.712,1.712,0,0,0,10.4,6.585H8.348ZM22.6,10.171l-.976-.07a1.752,1.752,0,0,0-1.793.879V17H16.865V7.49h2.777l.1,1.222a2.294,2.294,0,0,1,2.083-1.4,2.888,2.888,0,0,1,.826.105Zm.378,1.986a5.613,5.613,0,0,1,.554-2.536,3.96,3.96,0,0,1,1.591-1.709,4.791,4.791,0,0,1,2.435-.6,4.373,4.373,0,0,1,3.366,1.323,5.076,5.076,0,0,1,1.23,3.6v.105a4.925,4.925,0,0,1-1.235,3.529,4.384,4.384,0,0,1-3.344,1.305,4.434,4.434,0,0,1-3.261-1.217,4.761,4.761,0,0,1-1.327-3.3Zm2.962.185a3.538,3.538,0,0,0,.413,1.934,1.376,1.376,0,0,0,1.222.615q1.582,0,1.617-2.435v-.3q0-2.558-1.635-2.558-1.485,0-1.608,2.206Zm7.172-.167a6.421,6.421,0,0,1,.475-2.549,3.821,3.821,0,0,1,1.362-1.709,3.591,3.591,0,0,1,2.065-.6,2.855,2.855,0,0,1,2.32,1l.105-.826h2.689V16.64a4.009,4.009,0,0,1-.584,2.184,3.75,3.75,0,0,1-1.692,1.424,6.219,6.219,0,0,1-2.566.5,5.365,5.365,0,0,1-2.026-.4,3.657,3.657,0,0,1-1.5-1.028L35,17.58a2.716,2.716,0,0,0,2.18.976,1.764,1.764,0,0,0,1.969-2.021v-.3a2.781,2.781,0,0,1-2.153.94,3.437,3.437,0,0,1-2.812-1.332,5.517,5.517,0,0,1-1.072-3.564Zm2.971.185a3.383,3.383,0,0,0,.439,1.85,1.387,1.387,0,0,0,1.23.681,1.573,1.573,0,0,0,1.4-.642v-4a1.534,1.534,0,0,0-1.38-.65,1.4,1.4,0,0,0-1.239.708A3.858,3.858,0,0,0,36.078,12.359ZM49.56,10.171l-.976-.07a1.752,1.752,0,0,0-1.793.879V17H43.83V7.49h2.777l.1,1.222a2.294,2.294,0,0,1,2.083-1.4,2.888,2.888,0,0,1,.826.105ZM55.721,17a3.344,3.344,0,0,1-.281-.853,2.754,2.754,0,0,1-2.285,1.028,3.374,3.374,0,0,1-2.285-.813,2.588,2.588,0,0,1-.94-2.043,2.66,2.66,0,0,1,1.143-2.338,5.821,5.821,0,0,1,3.322-.791h.914v-.5q0-1.316-1.134-1.316a.927.927,0,0,0-1.055,1.042H50.158a2.655,2.655,0,0,1,1.173-2.239,4.931,4.931,0,0,1,2.993-.86A4.323,4.323,0,0,1,57.2,8.2a3.086,3.086,0,0,1,1.081,2.435v4.21a4.311,4.311,0,0,0,.4,2V17Zm-1.854-1.934a1.652,1.652,0,0,0,.918-.237,1.487,1.487,0,0,0,.523-.536V12.772h-.861q-1.547,0-1.547,1.389a.848.848,0,0,0,.272.655A.986.986,0,0,0,53.867,15.066ZM62.717,7.49l.1,1.116A3.27,3.27,0,0,1,65.53,7.314a2.407,2.407,0,0,1,2.435,1.433,3.165,3.165,0,0,1,2.795-1.433q2.892,0,2.971,3.5V17H70.759V11a1.813,1.813,0,0,0-.246-1.063,1.048,1.048,0,0,0-.9-.334,1.4,1.4,0,0,0-1.31.782l.009.123V17H65.345V11.015a1.906,1.906,0,0,0-.237-1.081A1.045,1.045,0,0,0,64.2,9.6a1.42,1.42,0,0,0-1.3.782V17H59.94V7.49ZM80.779,17a3.344,3.344,0,0,1-.281-.853,2.754,2.754,0,0,1-2.285,1.028,3.374,3.374,0,0,1-2.285-.813,2.588,2.588,0,0,1-.94-2.043,2.66,2.66,0,0,1,1.143-2.338,5.821,5.821,0,0,1,3.322-.791h.914v-.5q0-1.316-1.134-1.316a.927.927,0,0,0-1.055,1.042H75.215a2.655,2.655,0,0,1,1.173-2.239,4.931,4.931,0,0,1,2.993-.86,4.323,4.323,0,0,1,2.874.888,3.086,3.086,0,0,1,1.081,2.435v4.21a4.311,4.311,0,0,0,.4,2V17Zm-1.854-1.934a1.652,1.652,0,0,0,.918-.237,1.487,1.487,0,0,0,.523-.536V12.772H79.5q-1.547,0-1.547,1.389a.848.848,0,0,0,.272.655A.986.986,0,0,0,78.924,15.066ZM89,14.891a1.317,1.317,0,0,0,.967-.338,1.241,1.241,0,0,0,.334-.945h2.777a3.288,3.288,0,0,1-1.121,2.566,4.168,4.168,0,0,1-2.887,1,4.22,4.22,0,0,1-3.27-1.3,5.125,5.125,0,0,1-1.2-3.6v-.123A5.792,5.792,0,0,1,85.134,9.6a3.872,3.872,0,0,1,1.534-1.7,4.573,4.573,0,0,1,2.373-.593,4.116,4.116,0,0,1,2.944,1.028,3.647,3.647,0,0,1,1.09,2.786H90.3A1.626,1.626,0,0,0,89.937,10a1.244,1.244,0,0,0-.967-.4q-1.151,0-1.345,1.468a10.357,10.357,0,0,0-.062,1.283,4.068,4.068,0,0,0,.343,1.986A1.187,1.187,0,0,0,89,14.891ZM97.452,17H94.481V7.49h2.971ZM94.305,5.029a1.334,1.334,0,0,1,.457-1.043,1.934,1.934,0,0,1,2.373,0,1.334,1.334,0,0,1,.457,1.043,1.334,1.334,0,0,1-.457,1.043,1.934,1.934,0,0,1-2.373,0A1.334,1.334,0,0,1,94.305,5.029Zm4.6,7.128a5.613,5.613,0,0,1,.554-2.536,3.96,3.96,0,0,1,1.591-1.709,4.791,4.791,0,0,1,2.435-.6,4.373,4.373,0,0,1,3.366,1.323,5.076,5.076,0,0,1,1.23,3.6v.105a4.925,4.925,0,0,1-1.235,3.529,4.384,4.384,0,0,1-3.344,1.305,4.434,4.434,0,0,1-3.261-1.217,4.761,4.761,0,0,1-1.327-3.3Zm2.962.185a3.538,3.538,0,0,0,.413,1.934,1.376,1.376,0,0,0,1.222.615q1.582,0,1.617-2.435v-.3q0-2.558-1.635-2.558-1.485,0-1.608,2.206ZM103.885,3.5h3.129l-2.443,2.76-2.417,0ZM112.1,7.49l.1,1.116a3.225,3.225,0,0,1,2.716-1.292,2.713,2.713,0,0,1,2.219.888,4.226,4.226,0,0,1,.76,2.672V17h-2.971V11a1.6,1.6,0,0,0-.29-1.059A1.342,1.342,0,0,0,113.58,9.6a1.413,1.413,0,0,0-1.292.686V17h-2.962V7.49ZM16.32,37.157a5.613,5.613,0,0,1,.554-2.536,3.96,3.96,0,0,1,1.591-1.709,4.791,4.791,0,0,1,2.435-.6,4.373,4.373,0,0,1,3.366,1.323,5.076,5.076,0,0,1,1.23,3.6v.105a4.925,4.925,0,0,1-1.235,3.529,4.384,4.384,0,0,1-3.344,1.305,4.434,4.434,0,0,1-3.261-1.217,4.761,4.761,0,0,1-1.327-3.3Zm2.962.185a3.538,3.538,0,0,0,.413,1.934,1.376,1.376,0,0,0,1.222.615q1.582,0,1.617-2.435v-.3q0-2.558-1.635-2.558-1.485,0-1.608,2.206Zm13.271-2.171-.976-.07a1.752,1.752,0,0,0-1.793.879V42H26.823V32.49H29.6l.1,1.222a2.294,2.294,0,0,1,2.083-1.4,2.888,2.888,0,0,1,.826.105ZM36.746,42H33.775V32.49h2.971ZM33.6,30.029a1.334,1.334,0,0,1,.457-1.043,1.934,1.934,0,0,1,2.373,0,1.42,1.42,0,0,1,0,2.087,1.934,1.934,0,0,1-2.373,0A1.334,1.334,0,0,1,33.6,30.029ZM43.17,42.176a4.889,4.889,0,0,1-3.542-1.305,4.507,4.507,0,0,1-1.354-3.4v-.246a5.84,5.84,0,0,1,.541-2.575,3.955,3.955,0,0,1,1.578-1.727,4.763,4.763,0,0,1,2.461-.611,4.117,4.117,0,0,1,3.164,1.244,4.887,4.887,0,0,1,1.16,3.467v1.151H41.29a2.135,2.135,0,0,0,.694,1.257,2.066,2.066,0,0,0,1.389.457,2.662,2.662,0,0,0,2.2-.984l1.354,1.6a3.784,3.784,0,0,1-1.569,1.217A5.3,5.3,0,0,1,43.17,42.176ZM42.836,34.6q-1.3,0-1.547,1.723h2.988v-.229a1.467,1.467,0,0,0-.36-1.1A1.434,1.434,0,0,0,42.836,34.6Zm8.253-2.109.1,1.116A3.225,3.225,0,0,1,53.9,32.314a2.713,2.713,0,0,1,2.219.888,4.226,4.226,0,0,1,.76,2.672V42H53.911V36a1.6,1.6,0,0,0-.29-1.059,1.342,1.342,0,0,0-1.055-.338,1.413,1.413,0,0,0-1.292.686V42H48.312V32.49ZM61.97,30.126V32.49h1.564v2.057H61.97V38.9a1.111,1.111,0,0,0,.193.747,1.037,1.037,0,0,0,.765.211,4.345,4.345,0,0,0,.738-.053v2.118a5.466,5.466,0,0,1-1.67.255,3.1,3.1,0,0,1-2.259-.721,2.954,2.954,0,0,1-.729-2.188v-4.72H57.8V32.49h1.213V30.126ZM70.056,42a3.344,3.344,0,0,1-.281-.853,2.754,2.754,0,0,1-2.285,1.028,3.374,3.374,0,0,1-2.285-.813,2.588,2.588,0,0,1-.94-2.043,2.66,2.66,0,0,1,1.143-2.338,5.821,5.821,0,0,1,3.322-.791h.914v-.5q0-1.316-1.134-1.316a.927.927,0,0,0-1.055,1.042H64.493a2.655,2.655,0,0,1,1.173-2.239,4.931,4.931,0,0,1,2.993-.86,4.323,4.323,0,0,1,2.874.888,3.086,3.086,0,0,1,1.081,2.435v4.21a4.311,4.311,0,0,0,.4,2V42ZM68.2,40.066a1.652,1.652,0,0,0,.918-.237,1.487,1.487,0,0,0,.523-.536V37.772h-.861q-1.547,0-1.547,1.389a.848.848,0,0,0,.272.655A.986.986,0,0,0,68.2,40.066Zm5.678-2.892a5.809,5.809,0,0,1,.976-3.56,3.211,3.211,0,0,1,2.725-1.3,2.731,2.731,0,0,1,2.145,1V28.5h2.971V42H80.032l-.149-1.02a2.8,2.8,0,0,1-2.32,1.2,3.205,3.205,0,0,1-2.689-1.3A5.993,5.993,0,0,1,73.879,37.175Zm2.962.185q0,2.531,1.477,2.531a1.458,1.458,0,0,0,1.406-.826V35.443a1.419,1.419,0,0,0-1.389-.844q-1.371,0-1.485,2.215ZM89.735,42a3.344,3.344,0,0,1-.281-.853,2.754,2.754,0,0,1-2.285,1.028,3.374,3.374,0,0,1-2.285-.813,2.588,2.588,0,0,1-.94-2.043,2.66,2.66,0,0,1,1.143-2.338,5.821,5.821,0,0,1,3.322-.791h.914v-.5q0-1.316-1.134-1.316a.927.927,0,0,0-1.055,1.042H84.171a2.655,2.655,0,0,1,1.173-2.239,4.931,4.931,0,0,1,2.993-.86,4.323,4.323,0,0,1,2.874.888,3.086,3.086,0,0,1,1.081,2.435v4.21a4.311,4.311,0,0,0,.4,2V42ZM87.88,40.066a1.652,1.652,0,0,0,.918-.237,1.487,1.487,0,0,0,.523-.536V37.772H88.46q-1.547,0-1.547,1.389a.848.848,0,0,0,.272.655A.986.986,0,0,0,87.88,40.066ZM103.771,42a3.344,3.344,0,0,1-.281-.853,2.754,2.754,0,0,1-2.285,1.028,3.374,3.374,0,0,1-2.285-.813,2.588,2.588,0,0,1-.94-2.043,2.66,2.66,0,0,1,1.143-2.338,5.821,5.821,0,0,1,3.322-.791h.914v-.5q0-1.316-1.134-1.316a.927.927,0,0,0-1.055,1.042H98.208a2.655,2.655,0,0,1,1.173-2.239,4.931,4.931,0,0,1,2.993-.86,4.323,4.323,0,0,1,2.874.888,3.086,3.086,0,0,1,1.081,2.435v4.21a4.311,4.311,0,0,0,.4,2V42Zm-1.854-1.934a1.652,1.652,0,0,0,.918-.237,1.487,1.487,0,0,0,.523-.536V37.772H102.5q-1.547,0-1.547,1.389a.848.848,0,0,0,.272.655A.986.986,0,0,0,101.917,40.066ZM31.885,62.157a5.613,5.613,0,0,1,.554-2.536,3.96,3.96,0,0,1,1.591-1.709,4.791,4.791,0,0,1,2.435-.6,4.373,4.373,0,0,1,3.366,1.323,5.076,5.076,0,0,1,1.23,3.6v.105a4.925,4.925,0,0,1-1.235,3.529,4.384,4.384,0,0,1-3.344,1.305,4.434,4.434,0,0,1-3.261-1.217,4.761,4.761,0,0,1-1.327-3.3Zm2.962.185a3.538,3.538,0,0,0,.413,1.934,1.376,1.376,0,0,0,1.222.615q1.582,0,1.617-2.435v-.3q0-2.558-1.635-2.558-1.485,0-1.608,2.206Zm16.348-.018a5.8,5.8,0,0,1-.967,3.595A3.238,3.238,0,0,1,47.5,67.176a2.81,2.81,0,0,1-2.338-1.151L45.042,67H42.388V53.5H45.35v4.755a2.711,2.711,0,0,1,2.136-.94,3.239,3.239,0,0,1,2.742,1.274,5.826,5.826,0,0,1,.967,3.586Zm-2.971-.189a3.866,3.866,0,0,0-.365-1.952,1.229,1.229,0,0,0-1.121-.584,1.418,1.418,0,0,0-1.389.763v3.773a1.426,1.426,0,0,0,1.406.755,1.258,1.258,0,0,0,1.327-1.018A7.309,7.309,0,0,0,48.224,62.135Zm7.462-4.645v9.835a3.452,3.452,0,0,1-.967,2.6,3.714,3.714,0,0,1-2.672.914,6.308,6.308,0,0,1-1.4-.149V68.45a5.667,5.667,0,0,0,.835.079,1.084,1.084,0,0,0,1.23-1.222V57.49ZM52.5,55.029a1.334,1.334,0,0,1,.457-1.043,1.934,1.934,0,0,1,2.373,0,1.42,1.42,0,0,1,0,2.087,1.934,1.934,0,0,1-2.373,0A1.334,1.334,0,0,1,52.5,55.029Zm9.466,12.146a4.889,4.889,0,0,1-3.542-1.305,4.507,4.507,0,0,1-1.354-3.4v-.246a5.84,5.84,0,0,1,.541-2.575,3.955,3.955,0,0,1,1.578-1.727,4.763,4.763,0,0,1,2.461-.611,4.117,4.117,0,0,1,3.164,1.244,4.887,4.887,0,0,1,1.16,3.467v1.151H60.081a2.135,2.135,0,0,0,.694,1.257,2.066,2.066,0,0,0,1.389.457,2.662,2.662,0,0,0,2.2-.984l1.354,1.6a3.784,3.784,0,0,1-1.569,1.217A5.3,5.3,0,0,1,61.961,67.176ZM61.627,59.6q-1.3,0-1.547,1.723h2.988v-.229a1.467,1.467,0,0,0-.36-1.1A1.434,1.434,0,0,0,61.627,59.6Zm8.982-4.474V57.49h1.564v2.057H70.61V63.9a1.111,1.111,0,0,0,.193.747,1.037,1.037,0,0,0,.765.211,4.345,4.345,0,0,0,.738-.053v2.118a5.466,5.466,0,0,1-1.67.255,3.1,3.1,0,0,1-2.259-.721,2.954,2.954,0,0,1-.729-2.188v-4.72H66.435V57.49h1.213V55.126ZM72.7,62.157a5.613,5.613,0,0,1,.554-2.536,3.96,3.96,0,0,1,1.591-1.709,4.791,4.791,0,0,1,2.435-.6,4.373,4.373,0,0,1,3.366,1.323,5.076,5.076,0,0,1,1.23,3.6v.105a4.925,4.925,0,0,1-1.235,3.529A4.384,4.384,0,0,1,77.3,67.176a4.434,4.434,0,0,1-3.261-1.217,4.761,4.761,0,0,1-1.327-3.3Zm2.962.185a3.538,3.538,0,0,0,.413,1.934,1.376,1.376,0,0,0,1.222.615q1.582,0,1.617-2.435v-.3q0-2.558-1.635-2.558-1.485,0-1.608,2.206Zm12.5,1.986a.684.684,0,0,0-.4-.606,6.016,6.016,0,0,0-1.5-.475,6.853,6.853,0,0,1-1.828-.646,3.062,3.062,0,0,1-1.1-.971,2.319,2.319,0,0,1-.378-1.31,2.628,2.628,0,0,1,1.081-2.158,4.453,4.453,0,0,1,2.83-.848,4.934,4.934,0,0,1,3.023.853,2.666,2.666,0,0,1,1.143,2.241H88.065q0-1.143-1.2-1.143a1.194,1.194,0,0,0-.782.259.8.8,0,0,0-.316.646.737.737,0,0,0,.387.642,3.654,3.654,0,0,0,1.235.4,10.671,10.671,0,0,1,1.49.378,2.706,2.706,0,0,1,2.145,2.646,2.491,2.491,0,0,1-1.156,2.118,5.068,5.068,0,0,1-2.993.817,5.172,5.172,0,0,1-2.18-.439,3.645,3.645,0,0,1-1.494-1.2,2.707,2.707,0,0,1-.536-1.591h2.769a1.145,1.145,0,0,0,.439.962,1.808,1.808,0,0,0,1.081.3,1.422,1.422,0,0,0,.91-.246A.787.787,0,0,0,88.162,64.328Z" transform="translate(760.333 975)" fill="#12263f"/>
    <path id="Trazado_806972" data-name="Trazado 806972" d="M28.194,12.667a4.673,4.673,0,0,1-.721,2.36,4.35,4.35,0,0,1-1.85,1.586,6.3,6.3,0,0,1-2.72.563,5.025,5.025,0,0,1-3.973-1.644,6.786,6.786,0,0,1-1.45-4.641v-.633a7.746,7.746,0,0,1,.655-3.292,4.961,4.961,0,0,1,1.885-2.18,5.26,5.26,0,0,1,2.848-.769,5.516,5.516,0,0,1,3.744,1.226,4.844,4.844,0,0,1,1.608,3.379H25.145a2.292,2.292,0,0,0-.589-1.679,2.422,2.422,0,0,0-1.687-.51,1.843,1.843,0,0,0-1.687.861,5.536,5.536,0,0,0-.562,2.751v.905a6.126,6.126,0,0,0,.514,2.927,1.882,1.882,0,0,0,1.771.879,2.369,2.369,0,0,0,1.626-.5,2.126,2.126,0,0,0,.6-1.591Zm6.3,1.661a.684.684,0,0,0-.4-.606,6.016,6.016,0,0,0-1.5-.475A6.853,6.853,0,0,1,30.77,12.6a3.062,3.062,0,0,1-1.1-.971,2.319,2.319,0,0,1-.378-1.31,2.628,2.628,0,0,1,1.081-2.158,4.453,4.453,0,0,1,2.83-.848,4.934,4.934,0,0,1,3.023.853,2.666,2.666,0,0,1,1.143,2.241H34.4q0-1.143-1.2-1.143a1.194,1.194,0,0,0-.782.259.8.8,0,0,0-.316.646.737.737,0,0,0,.387.642,3.654,3.654,0,0,0,1.235.4,10.671,10.671,0,0,1,1.49.378,2.706,2.706,0,0,1,2.145,2.646A2.491,2.491,0,0,1,36.2,16.358a5.068,5.068,0,0,1-2.993.817,5.172,5.172,0,0,1-2.18-.439,3.645,3.645,0,0,1-1.494-1.2,2.707,2.707,0,0,1-.536-1.591h2.769a1.145,1.145,0,0,0,.439.962,1.808,1.808,0,0,0,1.081.3,1.422,1.422,0,0,0,.91-.246A.787.787,0,0,0,34.5,14.328Zm9.22,0a.684.684,0,0,0-.4-.606,6.016,6.016,0,0,0-1.5-.475,6.853,6.853,0,0,1-1.828-.646,3.062,3.062,0,0,1-1.1-.971,2.319,2.319,0,0,1-.378-1.31,2.628,2.628,0,0,1,1.081-2.158,4.453,4.453,0,0,1,2.83-.848,4.934,4.934,0,0,1,3.023.853,2.666,2.666,0,0,1,1.143,2.241H43.619q0-1.143-1.2-1.143a1.194,1.194,0,0,0-.782.259.8.8,0,0,0-.316.646.737.737,0,0,0,.387.642,3.654,3.654,0,0,0,1.235.4,10.671,10.671,0,0,1,1.49.378,2.706,2.706,0,0,1,2.145,2.646,2.491,2.491,0,0,1-1.156,2.118,5.068,5.068,0,0,1-2.993.817,5.172,5.172,0,0,1-2.18-.439,3.645,3.645,0,0,1-1.494-1.2,2.707,2.707,0,0,1-.536-1.591h2.769a1.145,1.145,0,0,0,.439.962,1.808,1.808,0,0,0,1.081.3,1.422,1.422,0,0,0,.91-.246A.787.787,0,0,0,43.716,14.328Z" transform="translate(573.333 797)" fill="#12263f"/>
    <path id="Trazado_806973" data-name="Trazado 806973" d="M28.4,4.2h3.076v8.78a4.2,4.2,0,0,1-.567,2.18,3.87,3.87,0,0,1-1.582,1.485,4.835,4.835,0,0,1-2.263.527,4.661,4.661,0,0,1-3.252-1.055,3.833,3.833,0,0,1-1.16-2.988h3.094a2.113,2.113,0,0,0,.3,1.274,1.2,1.2,0,0,0,1.015.4,1.148,1.148,0,0,0,.989-.479,2.251,2.251,0,0,0,.347-1.34Zm9.861,10.125a.684.684,0,0,0-.4-.606,6.016,6.016,0,0,0-1.5-.475,6.853,6.853,0,0,1-1.828-.646,3.062,3.062,0,0,1-1.1-.971,2.319,2.319,0,0,1-.378-1.31,2.628,2.628,0,0,1,1.081-2.158,4.453,4.453,0,0,1,2.83-.848,4.934,4.934,0,0,1,3.023.853,2.666,2.666,0,0,1,1.143,2.241H38.161q0-1.143-1.2-1.143a1.194,1.194,0,0,0-.782.259.8.8,0,0,0-.316.646.737.737,0,0,0,.387.642,3.654,3.654,0,0,0,1.235.4,10.671,10.671,0,0,1,1.49.378,2.706,2.706,0,0,1,2.145,2.646,2.491,2.491,0,0,1-1.156,2.118,5.068,5.068,0,0,1-2.993.817,5.172,5.172,0,0,1-2.18-.439,3.645,3.645,0,0,1-1.494-1.2,2.707,2.707,0,0,1-.536-1.591h2.769a1.145,1.145,0,0,0,.439.962,1.808,1.808,0,0,0,1.081.3,1.422,1.422,0,0,0,.91-.246A.787.787,0,0,0,38.258,14.328Z" transform="translate(573.333 887)" fill="#12263f"/>
    <path id="Trazado_806964" data-name="Trazado 806964" d="M31.654,12.658V17H28.569V4.2h5.106a5.948,5.948,0,0,1,2.6.541,4.074,4.074,0,0,1,1.749,1.538,4.2,4.2,0,0,1,.62,2.263,3.7,3.7,0,0,1-1.34,2.993,5.561,5.561,0,0,1-3.678,1.121Zm0-2.382h2.021a1.906,1.906,0,0,0,1.367-.448,1.665,1.665,0,0,0,.47-1.266,2.059,2.059,0,0,0-.483-1.433,1.712,1.712,0,0,0-1.318-.545H31.654ZM45.409,17a3.344,3.344,0,0,1-.281-.853,2.754,2.754,0,0,1-2.285,1.028,3.374,3.374,0,0,1-2.285-.813,2.588,2.588,0,0,1-.94-2.043,2.66,2.66,0,0,1,1.143-2.338,5.821,5.821,0,0,1,3.322-.791H45v-.5q0-1.316-1.134-1.316a.927.927,0,0,0-1.055,1.042H39.846a2.655,2.655,0,0,1,1.173-2.239,4.931,4.931,0,0,1,2.993-.86,4.323,4.323,0,0,1,2.874.888,3.086,3.086,0,0,1,1.081,2.435v4.21a4.311,4.311,0,0,0,.4,2V17Zm-1.854-1.934a1.652,1.652,0,0,0,.918-.237A1.487,1.487,0,0,0,45,14.293V12.772h-.861q-1.547,0-1.547,1.389a.848.848,0,0,0,.272.655A.986.986,0,0,0,43.555,15.066Zm11.8-4.9-.976-.07a1.752,1.752,0,0,0-1.793.879V17H49.628V7.49h2.777l.1,1.222a2.294,2.294,0,0,1,2.083-1.4,2.888,2.888,0,0,1,.826.105ZM61.52,17a3.344,3.344,0,0,1-.281-.853,2.754,2.754,0,0,1-2.285,1.028,3.374,3.374,0,0,1-2.285-.813,2.588,2.588,0,0,1-.94-2.043,2.66,2.66,0,0,1,1.143-2.338,5.821,5.821,0,0,1,3.322-.791h.914v-.5q0-1.316-1.134-1.316a.927.927,0,0,0-1.055,1.042H55.956a2.655,2.655,0,0,1,1.173-2.239,4.931,4.931,0,0,1,2.993-.86A4.323,4.323,0,0,1,63,8.2a3.086,3.086,0,0,1,1.081,2.435v4.21a4.311,4.311,0,0,0,.4,2V17Zm-1.854-1.934a1.652,1.652,0,0,0,.918-.237,1.487,1.487,0,0,0,.523-.536V12.772h-.861q-1.547,0-1.547,1.389a.848.848,0,0,0,.272.655A.986.986,0,0,0,59.665,15.066Zm5.678-2.892a5.809,5.809,0,0,1,.976-3.56,3.211,3.211,0,0,1,2.725-1.3,2.731,2.731,0,0,1,2.145,1V3.5h2.971V17H71.5l-.149-1.02a2.8,2.8,0,0,1-2.32,1.2,3.205,3.205,0,0,1-2.689-1.3A5.993,5.993,0,0,1,65.343,12.175Zm2.962.185q0,2.531,1.477,2.531a1.458,1.458,0,0,0,1.406-.826V10.443A1.419,1.419,0,0,0,69.8,9.6q-1.371,0-1.485,2.215ZM78.966,17H76V7.49h2.971ZM75.819,5.029a1.334,1.334,0,0,1,.457-1.043,1.934,1.934,0,0,1,2.373,0,1.334,1.334,0,0,1,.457,1.043,1.334,1.334,0,0,1-.457,1.043,1.934,1.934,0,0,1-2.373,0A1.334,1.334,0,0,1,75.819,5.029Zm4.623,7.146a6.421,6.421,0,0,1,.475-2.549,3.821,3.821,0,0,1,1.362-1.709,3.591,3.591,0,0,1,2.065-.6,2.855,2.855,0,0,1,2.32,1l.105-.826H89.46V16.64a4.009,4.009,0,0,1-.584,2.184,3.75,3.75,0,0,1-1.692,1.424,6.219,6.219,0,0,1-2.566.5,5.365,5.365,0,0,1-2.026-.4,3.657,3.657,0,0,1-1.5-1.028l1.239-1.74a2.716,2.716,0,0,0,2.18.976,1.764,1.764,0,0,0,1.969-2.021v-.3a2.781,2.781,0,0,1-2.153.94,3.437,3.437,0,0,1-2.812-1.332,5.517,5.517,0,0,1-1.072-3.564Zm2.971.185a3.383,3.383,0,0,0,.439,1.85,1.387,1.387,0,0,0,1.23.681,1.573,1.573,0,0,0,1.4-.642v-4A1.534,1.534,0,0,0,85.1,9.6a1.4,1.4,0,0,0-1.239.708A3.858,3.858,0,0,0,83.413,12.359ZM93.942,7.49l.1,1.116a3.27,3.27,0,0,1,2.716-1.292,2.407,2.407,0,0,1,2.435,1.433,3.165,3.165,0,0,1,2.795-1.433q2.892,0,2.971,3.5V17h-2.971V11a1.813,1.813,0,0,0-.246-1.063,1.048,1.048,0,0,0-.9-.334,1.4,1.4,0,0,0-1.31.782l.009.123V17H96.57V11.015a1.906,1.906,0,0,0-.237-1.081,1.045,1.045,0,0,0-.905-.334,1.42,1.42,0,0,0-1.3.782V17H91.165V7.49ZM112,17a3.344,3.344,0,0,1-.281-.853,2.754,2.754,0,0,1-2.285,1.028,3.374,3.374,0,0,1-2.285-.813,2.588,2.588,0,0,1-.94-2.043,2.66,2.66,0,0,1,1.143-2.338,5.821,5.821,0,0,1,3.322-.791h.914v-.5q0-1.316-1.134-1.316a.927.927,0,0,0-1.055,1.042H106.44a2.655,2.655,0,0,1,1.173-2.239,4.931,4.931,0,0,1,2.993-.86,4.323,4.323,0,0,1,2.874.888,3.086,3.086,0,0,1,1.081,2.435v4.21a4.311,4.311,0,0,0,.4,2V17Zm-1.854-1.934a1.652,1.652,0,0,0,.918-.237,1.487,1.487,0,0,0,.523-.536V12.772h-.861q-1.547,0-1.547,1.389a.848.848,0,0,0,.272.655A.986.986,0,0,0,110.149,15.066Zm11.03-.738a.684.684,0,0,0-.4-.606,6.016,6.016,0,0,0-1.5-.475,6.853,6.853,0,0,1-1.828-.646,3.062,3.062,0,0,1-1.1-.971,2.319,2.319,0,0,1-.378-1.31,2.628,2.628,0,0,1,1.081-2.158,4.453,4.453,0,0,1,2.83-.848,4.934,4.934,0,0,1,3.023.853,2.666,2.666,0,0,1,1.143,2.241h-2.971q0-1.143-1.2-1.143a1.194,1.194,0,0,0-.782.259.8.8,0,0,0-.316.646.737.737,0,0,0,.387.642,3.654,3.654,0,0,0,1.235.4,10.671,10.671,0,0,1,1.49.378,2.706,2.706,0,0,1,2.145,2.646,2.491,2.491,0,0,1-1.156,2.118,5.068,5.068,0,0,1-2.993.817,5.172,5.172,0,0,1-2.18-.439,3.645,3.645,0,0,1-1.494-1.2,2.707,2.707,0,0,1-.536-1.591h2.769a1.145,1.145,0,0,0,.439.962,1.808,1.808,0,0,0,1.081.3,1.422,1.422,0,0,0,.91-.246A.787.787,0,0,0,121.18,14.328ZM133.7,12.852l1.582-5.361h3.173l-3.876,11.1-.167.4a2.944,2.944,0,0,1-2.918,1.846,4.642,4.642,0,0,1-1.222-.175v-2.11h.387a2.026,2.026,0,0,0,.954-.18,1.094,1.094,0,0,0,.488-.647l.237-.633-3.3-9.605H132.2ZM29.637,39.176A4.889,4.889,0,0,1,26.1,37.871a4.507,4.507,0,0,1-1.354-3.4v-.246a5.84,5.84,0,0,1,.541-2.575,3.955,3.955,0,0,1,1.578-1.727,4.763,4.763,0,0,1,2.461-.611,4.117,4.117,0,0,1,3.164,1.244,4.887,4.887,0,0,1,1.16,3.467v1.151H27.756a2.135,2.135,0,0,0,.694,1.257,2.066,2.066,0,0,0,1.389.457,2.662,2.662,0,0,0,2.2-.984l1.354,1.6a3.784,3.784,0,0,1-1.569,1.217A5.3,5.3,0,0,1,29.637,39.176ZM29.3,31.6q-1.3,0-1.547,1.723h2.988v-.229a1.467,1.467,0,0,0-.36-1.1A1.434,1.434,0,0,0,29.3,31.6Zm10.512,4.729a.684.684,0,0,0-.4-.606,6.016,6.016,0,0,0-1.5-.475,6.853,6.853,0,0,1-1.828-.646,3.062,3.062,0,0,1-1.1-.971,2.319,2.319,0,0,1-.378-1.31,2.628,2.628,0,0,1,1.081-2.158,4.453,4.453,0,0,1,2.83-.848,4.934,4.934,0,0,1,3.023.853,2.666,2.666,0,0,1,1.143,2.241H39.718q0-1.143-1.2-1.143a1.194,1.194,0,0,0-.782.259.8.8,0,0,0-.316.646.737.737,0,0,0,.387.642,3.654,3.654,0,0,0,1.235.4,10.671,10.671,0,0,1,1.49.378,2.706,2.706,0,0,1,2.145,2.646,2.491,2.491,0,0,1-1.156,2.118,5.068,5.068,0,0,1-2.993.817,5.172,5.172,0,0,1-2.18-.439,3.645,3.645,0,0,1-1.494-1.2,2.707,2.707,0,0,1-.536-1.591h2.769a1.145,1.145,0,0,0,.439.962,1.808,1.808,0,0,0,1.081.3,1.422,1.422,0,0,0,.91-.246A.787.787,0,0,0,39.815,36.328Zm7.69-9.2V29.49H49.07v2.057H47.505V35.9a1.111,1.111,0,0,0,.193.747,1.037,1.037,0,0,0,.765.211A4.345,4.345,0,0,0,49.2,36.8v2.118a5.466,5.466,0,0,1-1.67.255,3.1,3.1,0,0,1-2.259-.721,2.954,2.954,0,0,1-.729-2.188v-4.72H43.331V29.49h1.213V27.126Zm8.481,5.045-.976-.07a1.752,1.752,0,0,0-1.793.879V39H50.256V29.49h2.777l.1,1.222a2.294,2.294,0,0,1,2.083-1.4,2.888,2.888,0,0,1,.826.105Zm6.732,5.8a3.054,3.054,0,0,1-2.54,1.2,3,3,0,0,1-2.369-.91,3.826,3.826,0,0,1-.8-2.615V29.49h2.962v6.179a1.065,1.065,0,0,0,1.187,1.222,1.548,1.548,0,0,0,1.45-.729V29.49h2.979V39H62.807Zm8.508-1.081a1.317,1.317,0,0,0,.967-.338,1.241,1.241,0,0,0,.334-.945h2.777a3.288,3.288,0,0,1-1.121,2.566,4.168,4.168,0,0,1-2.887,1,4.22,4.22,0,0,1-3.27-1.3,5.125,5.125,0,0,1-1.2-3.6v-.123a5.792,5.792,0,0,1,.532-2.544,3.872,3.872,0,0,1,1.534-1.7,4.573,4.573,0,0,1,2.373-.593,4.116,4.116,0,0,1,2.944,1.028,3.647,3.647,0,0,1,1.09,2.786H72.528A1.626,1.626,0,0,0,72.167,32a1.244,1.244,0,0,0-.967-.4q-1.151,0-1.345,1.468a10.357,10.357,0,0,0-.062,1.283,4.068,4.068,0,0,0,.343,1.986A1.187,1.187,0,0,0,71.227,36.891Zm8.78-9.765V29.49h1.564v2.057H80.007V35.9a1.111,1.111,0,0,0,.193.747,1.037,1.037,0,0,0,.765.211A4.345,4.345,0,0,0,81.7,36.8v2.118a5.466,5.466,0,0,1-1.67.255,3.1,3.1,0,0,1-2.259-.721,2.954,2.954,0,0,1-.729-2.188v-4.72H75.833V29.49h1.213V27.126ZM88.4,37.972a3.054,3.054,0,0,1-2.54,1.2,3,3,0,0,1-2.369-.91,3.826,3.826,0,0,1-.8-2.615V29.49H85.65v6.179a1.065,1.065,0,0,0,1.187,1.222,1.548,1.548,0,0,0,1.45-.729V29.49h2.979V39H88.489Zm10.239-5.8-.976-.07a1.752,1.752,0,0,0-1.793.879V39H92.91V29.49h2.777l.1,1.222a2.294,2.294,0,0,1,2.083-1.4,2.888,2.888,0,0,1,.826.105ZM104.8,39a3.344,3.344,0,0,1-.281-.853,2.754,2.754,0,0,1-2.285,1.028,3.374,3.374,0,0,1-2.285-.813,2.588,2.588,0,0,1-.94-2.043,2.66,2.66,0,0,1,1.143-2.338,5.821,5.821,0,0,1,3.322-.791h.914v-.5q0-1.316-1.134-1.316a.927.927,0,0,0-1.055,1.042H99.238a2.655,2.655,0,0,1,1.173-2.239,4.931,4.931,0,0,1,2.993-.86,4.323,4.323,0,0,1,2.874.888,3.086,3.086,0,0,1,1.081,2.435v4.21a4.311,4.311,0,0,0,.4,2V39Zm-1.854-1.934a1.652,1.652,0,0,0,.918-.237,1.487,1.487,0,0,0,.523-.536V34.772h-.861q-1.547,0-1.547,1.389a.848.848,0,0,0,.272.655A.986.986,0,0,0,102.947,37.066Zm11.03-.738a.684.684,0,0,0-.4-.606,6.016,6.016,0,0,0-1.5-.475,6.853,6.853,0,0,1-1.828-.646,3.062,3.062,0,0,1-1.1-.971,2.319,2.319,0,0,1-.378-1.31,2.628,2.628,0,0,1,1.081-2.158,4.453,4.453,0,0,1,2.83-.848,4.934,4.934,0,0,1,3.023.853,2.666,2.666,0,0,1,1.143,2.241H113.88q0-1.143-1.2-1.143a1.194,1.194,0,0,0-.782.259.8.8,0,0,0-.316.646.737.737,0,0,0,.387.642,3.654,3.654,0,0,0,1.235.4,10.671,10.671,0,0,1,1.49.378,2.706,2.706,0,0,1,2.145,2.646,2.491,2.491,0,0,1-1.156,2.118,5.068,5.068,0,0,1-2.993.817,5.172,5.172,0,0,1-2.18-.439,3.645,3.645,0,0,1-1.494-1.2,2.707,2.707,0,0,1-.536-1.591h2.769a1.145,1.145,0,0,0,.439.962,1.808,1.808,0,0,0,1.081.3,1.422,1.422,0,0,0,.91-.246A.787.787,0,0,0,113.977,36.328Zm8.35-2.153a5.809,5.809,0,0,1,.976-3.56,3.211,3.211,0,0,1,2.725-1.3,2.731,2.731,0,0,1,2.145,1V25.5h2.971V39h-2.663l-.149-1.02a2.8,2.8,0,0,1-2.32,1.2,3.205,3.205,0,0,1-2.689-1.3A5.993,5.993,0,0,1,122.327,34.175Zm2.962.185q0,2.531,1.477,2.531a1.458,1.458,0,0,0,1.406-.826V32.443a1.419,1.419,0,0,0-1.389-.844q-1.371,0-1.485,2.215Zm12.138,4.816a4.889,4.889,0,0,1-3.542-1.305,4.507,4.507,0,0,1-1.354-3.4v-.246a5.84,5.84,0,0,1,.541-2.575,3.955,3.955,0,0,1,1.578-1.727,4.763,4.763,0,0,1,2.461-.611,4.117,4.117,0,0,1,3.164,1.244,4.887,4.887,0,0,1,1.16,3.467v1.151h-5.889a2.135,2.135,0,0,0,.694,1.257,2.066,2.066,0,0,0,1.389.457,2.662,2.662,0,0,0,2.2-.984l1.354,1.6a3.784,3.784,0,0,1-1.569,1.217A5.3,5.3,0,0,1,137.426,39.176Zm-.334-7.576q-1.3,0-1.547,1.723h2.988v-.229a1.467,1.467,0,0,0-.36-1.1A1.434,1.434,0,0,0,137.092,31.6ZM59.177,58.891a1.317,1.317,0,0,0,.967-.338,1.241,1.241,0,0,0,.334-.945h2.777a3.288,3.288,0,0,1-1.121,2.566,4.168,4.168,0,0,1-2.887,1,4.22,4.22,0,0,1-3.27-1.3,5.125,5.125,0,0,1-1.2-3.6v-.123a5.792,5.792,0,0,1,.532-2.544,3.872,3.872,0,0,1,1.534-1.7,4.573,4.573,0,0,1,2.373-.593,4.116,4.116,0,0,1,2.944,1.028,3.647,3.647,0,0,1,1.09,2.786H60.478A1.626,1.626,0,0,0,60.118,54a1.244,1.244,0,0,0-.967-.4q-1.151,0-1.345,1.468a10.357,10.357,0,0,0-.062,1.283,4.068,4.068,0,0,0,.343,1.986A1.187,1.187,0,0,0,59.177,58.891Zm4.957-2.733a5.613,5.613,0,0,1,.554-2.536,3.96,3.96,0,0,1,1.591-1.709,4.791,4.791,0,0,1,2.435-.6,4.373,4.373,0,0,1,3.366,1.323,5.076,5.076,0,0,1,1.23,3.6v.105a4.925,4.925,0,0,1-1.235,3.529,4.384,4.384,0,0,1-3.344,1.305,4.434,4.434,0,0,1-3.261-1.217,4.761,4.761,0,0,1-1.327-3.3Zm2.962.185a3.538,3.538,0,0,0,.413,1.934,1.376,1.376,0,0,0,1.222.615q1.582,0,1.617-2.435v-.3q0-2.558-1.635-2.558-1.485,0-1.608,2.206ZM77.335,51.49l.1,1.116a3.225,3.225,0,0,1,2.716-1.292,2.713,2.713,0,0,1,2.219.888,4.226,4.226,0,0,1,.76,2.672V61H80.157V55a1.6,1.6,0,0,0-.29-1.059,1.342,1.342,0,0,0-1.055-.338,1.413,1.413,0,0,0-1.292.686V61H74.558V51.49Zm10.881-2.364V51.49h1.564v2.057H88.216V57.9a1.111,1.111,0,0,0,.193.747,1.037,1.037,0,0,0,.765.211,4.345,4.345,0,0,0,.738-.053v2.118a5.466,5.466,0,0,1-1.67.255,3.1,3.1,0,0,1-2.259-.721,2.954,2.954,0,0,1-.729-2.188v-4.72H84.042V51.49h1.213V49.126ZM96.7,54.171l-.976-.07a1.752,1.752,0,0,0-1.793.879V61H90.967V51.49h2.777l.1,1.222a2.294,2.294,0,0,1,2.083-1.4,2.888,2.888,0,0,1,.826.105Zm.378,1.986a5.613,5.613,0,0,1,.554-2.536,3.96,3.96,0,0,1,1.591-1.709,4.791,4.791,0,0,1,2.435-.6,4.373,4.373,0,0,1,3.366,1.323,5.076,5.076,0,0,1,1.23,3.6v.105a4.925,4.925,0,0,1-1.235,3.529,4.384,4.384,0,0,1-3.344,1.305,4.434,4.434,0,0,1-3.261-1.217,4.761,4.761,0,0,1-1.327-3.3Zm2.962.185a3.538,3.538,0,0,0,.413,1.934,1.376,1.376,0,0,0,1.222.615q1.582,0,1.617-2.435v-.3q0-2.558-1.635-2.558-1.485,0-1.608,2.206ZM110.681,61H107.71V47.5h2.971Z" transform="translate(717.333 528)" fill="#12263f"/>
    <path id="Trazado_806965" data-name="Trazado 806965" d="M42.759,13.9H37.934L37.046,19H34.041L36.255,6.2h8.323l-.413,2.382H38.857l-.51,2.944h4.825Zm7.418-1.731a8.273,8.273,0,0,0-.9-.088,2.233,2.233,0,0,0-1.986.9L46.222,19H43.331l1.652-9.51,2.7-.009-.22,1.248a2.64,2.64,0,0,1,2.2-1.441,4.144,4.144,0,0,1,.9.123ZM55.117,19a2.578,2.578,0,0,1-.123-.861,2.933,2.933,0,0,1-2.329,1.037,2.866,2.866,0,0,1-2.057-.826,2.483,2.483,0,0,1-.765-1.96,2.79,2.79,0,0,1,1.292-2.377,6.091,6.091,0,0,1,3.41-.831l.967.018.105-.536.035-.466a.755.755,0,0,0-.8-.826,1.111,1.111,0,0,0-1.169,1.046l-2.9.009a2.754,2.754,0,0,1,.624-1.666,3.7,3.7,0,0,1,1.578-1.09,5.512,5.512,0,0,1,2.123-.356A4.251,4.251,0,0,1,57,9.767a2.82,2.82,0,0,1,1.217,1.187,3.031,3.031,0,0,1,.308,1.753l-.712,4.474-.044.545a2.4,2.4,0,0,0,.167,1.107L57.929,19Zm-1.652-1.916A1.865,1.865,0,0,0,55.02,16.3l.29-1.529-.747-.009a1.969,1.969,0,0,0-1.2.409,1.55,1.55,0,0,0-.589,1.068.778.778,0,0,0,.136.593A.7.7,0,0,0,53.464,17.084Zm10-7.6-.193,1.143a3.414,3.414,0,0,1,2.777-1.31,2.509,2.509,0,0,1,1.415.4,1.843,1.843,0,0,1,.738,1.028A3.619,3.619,0,0,1,71.1,9.314a2.241,2.241,0,0,1,1.956.989,4.117,4.117,0,0,1,.461,2.711L72.519,19h-2.9l1.011-5.987.035-.518q0-.869-.817-.9a1.872,1.872,0,0,0-1.424.781L67.272,19h-2.9l1-5.969.035-.527q0-.9-.817-.9a1.86,1.86,0,0,0-1.406.781L62.016,19H59.125l1.652-9.51Zm15.5,9.694a4.421,4.421,0,0,1-2.272-.6,3.793,3.793,0,0,1-1.507-1.652,4.44,4.44,0,0,1-.4-2.333l.026-.246a5.829,5.829,0,0,1,1.63-3.713,4.51,4.51,0,0,1,3.415-1.314,3.678,3.678,0,0,1,2.092.621A3.468,3.468,0,0,1,83.215,11.6a5.1,5.1,0,0,1,.264,2.381l-.167,1.206h-5.66a1.854,1.854,0,0,0,.422,1.213,1.549,1.549,0,0,0,1.178.492,2.993,2.993,0,0,0,2.259-.967l1.213,1.6a3.578,3.578,0,0,1-1.5,1.2,5.263,5.263,0,0,1-2.1.451Zm.7-7.576a1.487,1.487,0,0,0-1.068.385,3.229,3.229,0,0,0-.787,1.347H80.7l.053-.254a1.929,1.929,0,0,0,.018-.577A1.017,1.017,0,0,0,79.665,11.6Zm12.779,3.489,1.907-5.6h2.83L93.358,19H90.923l-.545-5.607L87.874,19H85.421l-.527-9.51H87.61l-.088,5.66,2.435-5.66h2.013Zm9.694-5.774a3.994,3.994,0,0,1,2.206.637,3.59,3.59,0,0,1,1.367,1.727,5.33,5.33,0,0,1,.312,2.461l-.018.193a5.636,5.636,0,0,1-1.626,3.533,4.575,4.575,0,0,1-3.41,1.31,3.977,3.977,0,0,1-2.188-.628,3.612,3.612,0,0,1-1.367-1.709,5.179,5.179,0,0,1-.321-2.443,5.863,5.863,0,0,1,1.6-3.727A4.547,4.547,0,0,1,102.138,9.314ZM99.985,14.4l-.026.518q-.123,1.957,1.2,1.992,1.705.053,1.978-2.764l.035-.8a2.155,2.155,0,0,0-.294-1.259,1.073,1.073,0,0,0-.918-.487,1.512,1.512,0,0,0-1.314.654A4.278,4.278,0,0,0,99.985,14.4Zm13.368-2.228a8.273,8.273,0,0,0-.9-.088,2.233,2.233,0,0,0-1.986.9L109.4,19h-2.892l1.652-9.51,2.7-.009-.22,1.248a2.64,2.64,0,0,1,2.2-1.441,4.144,4.144,0,0,1,.9.123Zm4.254,3.322-1.055.914L116.1,19h-2.892l2.347-13.509h2.892L117.115,12.7l.352-.422,2.628-2.786h3.665l-4.043,4.043L122.168,19H119Zm10.582.782q.114-.58-.9-.87l-.624-.158a4.806,4.806,0,0,1-2.241-1.134,2.244,2.244,0,0,1-.668-1.731,2.758,2.758,0,0,1,1.217-2.228,4.633,4.633,0,0,1,2.861-.839,4.292,4.292,0,0,1,2.72.853,2.781,2.781,0,0,1,1.059,2.25l-2.883-.009q.035-1.125-.993-1.125a1.417,1.417,0,0,0-.817.259,1.007,1.007,0,0,0-.448.69q-.149.712,1.257.976a7.3,7.3,0,0,1,1.89.672,2.821,2.821,0,0,1,1.02.945,2.35,2.35,0,0,1,.325,1.354,2.541,2.541,0,0,1-.562,1.538,3.642,3.642,0,0,1-1.551,1.081,5.557,5.557,0,0,1-2.2.378,4.469,4.469,0,0,1-1.912-.431,3.408,3.408,0,0,1-1.38-1.147,2.979,2.979,0,0,1-.514-1.666l2.689.018A1.111,1.111,0,0,0,126.8,17.2a1.661,1.661,0,0,0,.914-.242A1.045,1.045,0,0,0,128.189,16.275Z" transform="translate(947.333 550)" fill="#12263f"/>
    <path id="Trazado_806966" data-name="Trazado 806966" d="M3.571,17V4.2H7.693a6.064,6.064,0,0,1,3.05.769,5.406,5.406,0,0,1,2.114,2.171,6.554,6.554,0,0,1,.769,3.142v.589a6.592,6.592,0,0,1-.743,3.151,5.429,5.429,0,0,1-2.092,2.18,5.93,5.93,0,0,1-3.01.8ZM6.656,6.585v8.042H7.729a2.4,2.4,0,0,0,2.039-.945,4.63,4.63,0,0,0,.712-2.808V10.32a4.592,4.592,0,0,0-.712-2.795,2.442,2.442,0,0,0-2.074-.94ZM19.673,17.176a4.889,4.889,0,0,1-3.542-1.305,4.507,4.507,0,0,1-1.354-3.4v-.246a5.84,5.84,0,0,1,.541-2.575A3.955,3.955,0,0,1,16.9,7.925a4.763,4.763,0,0,1,2.461-.611,4.117,4.117,0,0,1,3.164,1.244,4.887,4.887,0,0,1,1.16,3.467v1.151H17.792a2.135,2.135,0,0,0,.694,1.257,2.066,2.066,0,0,0,1.389.457,2.662,2.662,0,0,0,2.2-.984l1.354,1.6a3.784,3.784,0,0,1-1.569,1.217A5.3,5.3,0,0,1,19.673,17.176ZM19.339,9.6q-1.3,0-1.547,1.723H20.78v-.229a1.467,1.467,0,0,0-.36-1.1A1.434,1.434,0,0,0,19.339,9.6Zm10.512,4.729a.684.684,0,0,0-.4-.606,6.016,6.016,0,0,0-1.5-.475,6.853,6.853,0,0,1-1.828-.646,3.062,3.062,0,0,1-1.1-.971,2.319,2.319,0,0,1-.378-1.31,2.628,2.628,0,0,1,1.081-2.158,4.453,4.453,0,0,1,2.83-.848,4.934,4.934,0,0,1,3.023.853,2.666,2.666,0,0,1,1.143,2.241H29.754q0-1.143-1.2-1.143a1.194,1.194,0,0,0-.782.259.8.8,0,0,0-.316.646.737.737,0,0,0,.387.642,3.654,3.654,0,0,0,1.235.4,10.671,10.671,0,0,1,1.49.378,2.706,2.706,0,0,1,2.145,2.646,2.491,2.491,0,0,1-1.156,2.118,5.068,5.068,0,0,1-2.993.817,5.172,5.172,0,0,1-2.18-.439,3.645,3.645,0,0,1-1.494-1.2,2.707,2.707,0,0,1-.536-1.591h2.769a1.145,1.145,0,0,0,.439.962,1.808,1.808,0,0,0,1.081.3,1.422,1.422,0,0,0,.91-.246A.787.787,0,0,0,29.851,14.328ZM42.92,12.315a5.735,5.735,0,0,1-1,3.538,3.2,3.2,0,0,1-2.694,1.323,2.742,2.742,0,0,1-2.153-.958v4.438H34.113V7.49h2.769l.088.879a2.742,2.742,0,0,1,2.241-1.055,3.224,3.224,0,0,1,2.733,1.3,5.805,5.805,0,0,1,.976,3.564Zm-2.962-.185q0-2.531-1.477-2.531a1.394,1.394,0,0,0-1.406.756V14.1a1.439,1.439,0,0,0,1.424.791q1.415,0,1.459-2.443ZM47.35,17H44.379V3.5H47.35ZM52.3,17H49.327V7.49H52.3ZM49.151,5.029a1.334,1.334,0,0,1,.457-1.043,1.934,1.934,0,0,1,2.373,0,1.334,1.334,0,0,1,.457,1.043,1.334,1.334,0,0,1-.457,1.043,1.934,1.934,0,0,1-2.373,0A1.334,1.334,0,0,1,49.151,5.029Zm9.571,12.146a4.889,4.889,0,0,1-3.542-1.305,4.507,4.507,0,0,1-1.354-3.4v-.246a5.84,5.84,0,0,1,.541-2.575,3.955,3.955,0,0,1,1.578-1.727,4.763,4.763,0,0,1,2.461-.611A4.117,4.117,0,0,1,61.57,8.558a4.887,4.887,0,0,1,1.16,3.467v1.151H56.842a2.135,2.135,0,0,0,.694,1.257,2.066,2.066,0,0,0,1.389.457,2.662,2.662,0,0,0,2.2-.984l1.354,1.6a3.784,3.784,0,0,1-1.569,1.217A5.3,5.3,0,0,1,58.723,17.176ZM58.389,9.6q-1.3,0-1.547,1.723H59.83v-.229a1.467,1.467,0,0,0-.36-1.1A1.434,1.434,0,0,0,58.389,9.6Zm5.186,2.575a6.421,6.421,0,0,1,.475-2.549,3.821,3.821,0,0,1,1.362-1.709,3.591,3.591,0,0,1,2.065-.6,2.855,2.855,0,0,1,2.32,1L69.9,7.49h2.689V16.64a4.009,4.009,0,0,1-.584,2.184,3.75,3.75,0,0,1-1.692,1.424,6.219,6.219,0,0,1-2.566.5,5.365,5.365,0,0,1-2.026-.4,3.657,3.657,0,0,1-1.5-1.028l1.239-1.74a2.716,2.716,0,0,0,2.18.976,1.764,1.764,0,0,0,1.969-2.021v-.3a2.781,2.781,0,0,1-2.153.94,3.437,3.437,0,0,1-2.812-1.332,5.517,5.517,0,0,1-1.072-3.564Zm2.971.185a3.383,3.383,0,0,0,.439,1.85,1.387,1.387,0,0,0,1.23.681,1.573,1.573,0,0,0,1.4-.642v-4a1.534,1.534,0,0,0-1.38-.65,1.4,1.4,0,0,0-1.239.708A3.858,3.858,0,0,0,66.545,12.359Zm13.395,3.612a3.054,3.054,0,0,1-2.54,1.2,3,3,0,0,1-2.369-.91,3.826,3.826,0,0,1-.8-2.615V7.49h2.962v6.179a1.065,1.065,0,0,0,1.187,1.222,1.548,1.548,0,0,0,1.45-.729V7.49H82.8V17H80.027Zm9.088,1.2a4.889,4.889,0,0,1-3.542-1.305,4.507,4.507,0,0,1-1.354-3.4v-.246a5.84,5.84,0,0,1,.541-2.575A3.955,3.955,0,0,1,86.25,7.925a4.763,4.763,0,0,1,2.461-.611,4.117,4.117,0,0,1,3.164,1.244,4.887,4.887,0,0,1,1.16,3.467v1.151H87.146a2.135,2.135,0,0,0,.694,1.257,2.066,2.066,0,0,0,1.389.457,2.662,2.662,0,0,0,2.2-.984l1.354,1.6a3.784,3.784,0,0,1-1.569,1.217A5.3,5.3,0,0,1,89.027,17.176ZM88.693,9.6q-1.3,0-1.547,1.723h2.988v-.229a1.467,1.467,0,0,0-.36-1.1A1.434,1.434,0,0,0,88.693,9.6Z" transform="translate(1196.333 547)" fill="#fff"/>
    <path id="Trazado_806959" data-name="Trazado 806959" d="M-12264.333-9502v294h41" transform="translate(12772.666 10110)" fill="none" stroke="#451484" stroke-width="3"/>
    <path id="Trazado_806960" data-name="Trazado 806960" d="M-12264.333-9502v380h24.5" transform="translate(12987.916 10110)" fill="none" stroke="#451484" stroke-width="3"/>
    <path id="Trazado_806961" data-name="Trazado 806961" d="M-12264.333-9502v200h24.5" transform="translate(13233.166 10110)" fill="none" stroke="#451484" stroke-width="3"/>
    <line id="Línea_1930" data-name="Línea 1930" x1="41" transform="translate(508.833 714.5)" fill="none" stroke="#451484" stroke-width="3"/>
    <line id="Línea_1936" data-name="Línea 1936" x1="24" transform="translate(724.083 714.5)" fill="none" stroke="#451484" stroke-width="3"/>
    <line id="Línea_1939" data-name="Línea 1939" x1="24" transform="translate(969.333 714.5)" fill="none" stroke="#451484" stroke-width="3"/>
    <line id="Línea_1931" data-name="Línea 1931" x1="41" transform="translate(508.833 808)" fill="none" stroke="#451484" stroke-width="3"/>
    <line id="Línea_1937" data-name="Línea 1937" x1="24" transform="translate(724.083 808)" fill="none" stroke="#451484" stroke-width="3"/>
    <line id="Línea_1938" data-name="Línea 1938" x1="24" transform="translate(724.083 898)" fill="none" stroke="#451484" stroke-width="3"/>
    <g id="Grupo_1067034" data-name="Grupo 1067034">
      <line id="Línea_1933" data-name="Línea 1933" x1="35" transform="translate(431.833 561.5)" fill="none" stroke="#451484" stroke-width="3"/>
      <path id="Polígono_11" data-name="Polígono 11" d="M7,0l7,12H0Z" transform="translate(475.333 554) rotate(90)" fill="#451484"/>
    </g>
    <g id="Grupo_1067033" data-name="Grupo 1067033">
      <line id="Línea_1932" data-name="Línea 1932" x1="34" transform="translate(661.833 561.5)" fill="none" stroke="#451484" stroke-width="3"/>
      <path id="Polígono_12" data-name="Polígono 12" d="M7,0l7,12H0Z" transform="translate(705.333 554) rotate(90)" fill="#451484"/>
    </g>
    <g id="Grupo_1067032" data-name="Grupo 1067032">
      <line id="Línea_1934" data-name="Línea 1934" x1="33.833" transform="translate(895 561.5)" fill="none" stroke="#451484" stroke-width="3"/>
      <path id="Polígono_13" data-name="Polígono 13" d="M7,0l7,12H0Z" transform="translate(936.333 554) rotate(90)" fill="#451484"/>
    </g>
    <g id="Grupo_1067031" data-name="Grupo 1067031">
      <line id="Línea_1935" data-name="Línea 1935" x1="40.833" transform="translate(1125 561.5)" fill="none" stroke="#451484" stroke-width="3"/>
      <path id="Polígono_14" data-name="Polígono 14" d="M7,0l7,12H0Z" transform="translate(1172.333 554) rotate(90)" fill="#451484"/>
    </g>
  </g>
</svg>
