<svg xmlns="http://www.w3.org/2000/svg" xmlns:xlink="http://www.w3.org/1999/xlink" width="1320" height="506" viewBox="0 0 1320 506">
  <defs>
    <radialGradient id="radial-gradient" cx="0.696" cy="0.438" r="0.653" gradientTransform="matrix(0.16, -0.987, 0.415, 0.067, 0.403, 1.096)" gradientUnits="objectBoundingBox">
      <stop offset="0" stop-color="#793ec4"/>
      <stop offset="1" stop-color="#44226f"/>
    </radialGradient>
    <clipPath id="clip-path">
      <rect id="Rectángulo_375104" data-name="Rectángulo 375104" width="1320" height="506" rx="20" transform="translate(140.333 81)" fill="#451484"/>
    </clipPath>
  </defs>
  <g id="Grupo_1067053" data-name="Grupo 1067053" transform="translate(-140.333 -81)">
    <rect id="Rectángulo_373412" data-name="Rectángulo 373412" width="1320" height="506" rx="20" transform="translate(140.333 81)" fill="url(#radial-gradient)"/>
    <g id="Enmascarar_grupo_2" data-name="Enmascarar grupo 2" clip-path="url(#clip-path)">
      <g id="Grupo_1066133" data-name="Grupo 1066133" transform="translate(-4.291 -2)">
        <path id="Trazado_802082" data-name="Trazado 802082" d="M760.624,0V508H0l45.424-7.519a201.619,201.619,0,0,0,63.137-21.588,86.766,86.766,0,0,0,29.127-17.17A99.759,99.759,0,0,0,148.171,450.4a181.519,181.519,0,0,0,26.452-30.888,37.178,37.178,0,0,1,7.752-8.585c.407-.31.814-.6,1.24-.893,24.728-16.645,58.117-11.7,85.926-22.516,27.576-10.717,47.924-38.043,50.288-67.536,2.19-27.286-9.748-54.61-5.329-81.6,4.477-27.5,27.363-51.025,54.746-56.238,13.895-2.655,28.332-.969,42.3-3.159a77.618,77.618,0,0,0,51.567-32.692c12.131-17.867,18.41-42.421,38.428-50.54,19.65-7.965,41.742,4.748,62.827,2.6,20.445-2.074,36.936-17.809,48.292-34.94C624,46.3,632.006,26.956,645.029,11.065A103.291,103.291,0,0,1,655.513,0Z" transform="translate(705 81)" fill="#fff9e2"/>
        <path id="Trazado_802083" data-name="Trazado 802083" d="M760.624,0V5.891c-38.39,8.585-74.59,22.809-102.088,50.191-23.933,23.8-41.587,57.575-74.008,66.993-21.278,6.182-47.517,1.3-62.923,17.228-4.554,4.69-7.48,10.7-10.755,16.356a132.542,132.542,0,0,1-85.713,62.3c-16.86,3.6-35.6,4.418-48.564,15.774-13.275,11.627-16.433,31.123-15.329,48.738s5.581,35.134,4.07,52.711c-3.837,44.63-48.234,78.814-93,80.19-18.391.562-37.673-3.217-54.668,3.856-22.6,9.416-32.654,33.681-41.859,54.552A188.289,188.289,0,0,1,157.183,508H0l45.424-7.519a201.619,201.619,0,0,0,63.137-21.588A191.634,191.634,0,0,0,148.171,450.4a181.519,181.519,0,0,0,26.452-30.888,37.178,37.178,0,0,1,7.752-8.585c.407-.31.814-.6,1.24-.893,24.728-16.645,58.117-11.7,85.926-22.516,27.576-10.717,47.924-38.043,50.288-67.536,2.19-27.286-9.748-54.61-5.329-81.6,4.477-27.5,27.363-51.025,54.746-56.238,13.895-2.655,28.332-.969,42.3-3.159a77.618,77.618,0,0,0,51.567-32.692c12.131-17.867,18.41-42.421,38.428-50.54,19.65-7.965,41.742,4.748,62.827,2.6,20.445-2.074,36.936-17.809,48.292-34.94C624,46.3,632.006,26.956,645.029,11.065A103.291,103.291,0,0,1,655.513,0Z" transform="translate(705 81)" fill="#ffda47"/>
      </g>
      <g id="Grupo_1066134" data-name="Grupo 1066134" transform="translate(1285 451) rotate(180)">
        <path id="Trazado_802082-2" data-name="Trazado 802082" d="M760.624,0V508H0l45.424-7.519a201.619,201.619,0,0,0,63.137-21.588,86.766,86.766,0,0,0,29.127-17.17A99.759,99.759,0,0,0,148.171,450.4a181.519,181.519,0,0,0,26.452-30.888,37.178,37.178,0,0,1,7.752-8.585c.407-.31.814-.6,1.24-.893,24.728-16.645,58.117-11.7,85.926-22.516,27.576-10.717,47.924-38.043,50.288-67.536,2.19-27.286-9.748-54.61-5.329-81.6,4.477-27.5,27.363-51.025,54.746-56.238,13.895-2.655,28.332-.969,42.3-3.159a77.618,77.618,0,0,0,51.567-32.692c12.131-17.867,18.41-42.421,38.428-50.54,19.65-7.965,41.742,4.748,62.827,2.6,20.445-2.074,36.936-17.809,48.292-34.94C624,46.3,632.006,26.956,645.029,11.065A103.291,103.291,0,0,1,655.513,0Z" transform="translate(705 81)" fill="#dffdff"/>
        <path id="Trazado_802083-2" data-name="Trazado 802083" d="M760.624,0V5.891c-38.39,8.585-74.59,22.809-102.088,50.191-23.933,23.8-41.587,57.575-74.008,66.993-21.278,6.182-47.517,1.3-62.923,17.228-4.554,4.69-7.48,10.7-10.755,16.356a132.542,132.542,0,0,1-85.713,62.3c-16.86,3.6-35.6,4.418-48.564,15.774-13.275,11.627-16.433,31.123-15.329,48.738s5.581,35.134,4.07,52.711c-3.837,44.63-48.234,78.814-93,80.19-18.391.562-37.673-3.217-54.668,3.856-22.6,9.416-32.654,33.681-41.859,54.552A188.289,188.289,0,0,1,157.183,508H0l45.424-7.519a201.619,201.619,0,0,0,63.137-21.588A191.634,191.634,0,0,0,148.171,450.4a181.519,181.519,0,0,0,26.452-30.888,37.178,37.178,0,0,1,7.752-8.585c.407-.31.814-.6,1.24-.893,24.728-16.645,58.117-11.7,85.926-22.516,27.576-10.717,47.924-38.043,50.288-67.536,2.19-27.286-9.748-54.61-5.329-81.6,4.477-27.5,27.363-51.025,54.746-56.238,13.895-2.655,28.332-.969,42.3-3.159a77.618,77.618,0,0,0,51.567-32.692c12.131-17.867,18.41-42.421,38.428-50.54,19.65-7.965,41.742,4.748,62.827,2.6,20.445-2.074,36.936-17.809,48.292-34.94C624,46.3,632.006,26.956,645.029,11.065A103.291,103.291,0,0,1,655.513,0Z" transform="translate(705 81)" fill="#4be5f1"/>
      </g>
    </g>
    <g id="Grupo_1066128" data-name="Grupo 1066128" transform="translate(-486.273 -406.109) rotate(20)">
      <line id="Línea_1676" data-name="Línea 1676" y2="18.865" transform="translate(854.184 251.5)" fill="none" stroke="#fb405f" stroke-width="5"/>
      <line id="Línea_1677" data-name="Línea 1677" x2="18.243" transform="translate(844.666 261.451)" fill="none" stroke="#fb405f" stroke-width="5"/>
    </g>
    <g id="Grupo_1066129" data-name="Grupo 1066129" transform="translate(-322.273 -31.109) rotate(20)">
      <line id="Línea_1676-2" data-name="Línea 1676" y2="18.865" transform="translate(854.184 251.5)" fill="none" stroke="#4be5f1" stroke-width="5"/>
      <line id="Línea_1677-2" data-name="Línea 1677" x2="18.243" transform="translate(844.666 261.451)" fill="none" stroke="#4be5f1" stroke-width="5"/>
    </g>
    <circle id="Elipse_17" data-name="Elipse 17" cx="5" cy="5" r="5" transform="translate(193.333 119)" fill="#4be5f1"/>
    <circle id="Elipse_18" data-name="Elipse 18" cx="16" cy="16" r="16" transform="translate(161.333 529)" fill="#fb405f"/>
    <path id="Unión_1" data-name="Unión 1" d="M12796.033,11723.531c-6.416.819-12.836,2.372-14.736-6.009a6.643,6.643,0,0,0-5.3-5.5l-2.637,7.988-14.026-15.726,20.632-4.286-2.371,7.184c3.378.984,8.123,2.992,9.885,6.769,2.851,6.124,8.081,2.894,12.833,2.607s9.033,7.374,9.033,12.341l-5.94,2.5S12802.453,11722.712,12796.033,11723.531Z" transform="translate(-11536.671 -11576)" fill="#ffda47" stroke="rgba(0,0,0,0)" stroke-miterlimit="10" stroke-width="1"/>
    <path id="Unión_3" data-name="Unión 3" d="M12759.334,11731.947l.671-6.411s8.07,3.355,10.448-2.66,4.11-12.389,12.372-10.014a6.64,6.64,0,0,0,7.37-1.99l-5.728-6.163,20.541-4.708-6.2,20.143-5.149-5.539c-2.489,2.483-6.534,5.671-10.69,5.392-6.742-.453-6.435,5.685-8.475,9.991-1.177,2.481-4.594,3.549-8.109,3.549A15.318,15.318,0,0,1,12759.334,11731.947Z" transform="translate(-11450.677 -11190.422)" fill="#ffda47" stroke="rgba(0,0,0,0)" stroke-miterlimit="10" stroke-width="1"/>
    <path id="Unión_2" data-name="Unión 2" d="M12759.332,11726.591l5.006-.886c-.494-2.312-.819-5.759.854-8,2.715-3.639-.862-5.7-2.549-8.425s1.487-7.693,4.424-9.277l3.373,2.719s-4.835,3.33-2.3,6.866,5.491,6.841,1.138,10.637a4.46,4.46,0,0,0-1.562,4.887l5.566-.985-4.834,13.311Z" transform="translate(-11844.331 -11341.73)" fill="#ffda47" stroke="rgba(0,0,0,0)" stroke-miterlimit="10" stroke-width="1"/>
  </g>
</svg>
