<svg xmlns="http://www.w3.org/2000/svg" width="400" height="337.133" viewBox="0 0 400 337.133">
  <g id="Hand_coding-pana" data-name="Hand coding-pana" transform="translate(-15.35 -63.774)">
    <g id="freepik--Table--inject-2" transform="translate(15.35 356.524)">
      <path id="Trazado_806430" data-name="Trazado 806430" d="M15.88,440.367l45.487-30.715L281.776,408.6l10.083,32.232Z" transform="translate(-15.423 -408.6)" fill="#455a64"/>
      <path id="Trazado_806431" data-name="Trazado 806431" d="M291.217,457.946l-275.867-.2V444.76l275.988.862Z" transform="translate(-15.35 -413.597)" fill="#455a64"/>
      <path id="Trazado_806432" data-name="Trazado 806432" d="M284.935,445.632c0,.121-59.577.2-133.038.164S18.85,445.632,18.85,445.5s59.56-.2,133.047-.164S284.935,445.5,284.935,445.632Z" transform="translate(-15.834 -413.675)" fill="#263238"/>
    </g>
    <g id="freepik--Files--inject-2" transform="translate(300.47 63.774)">
      <path id="Trazado_806433" data-name="Trazado 806433" d="M240.183,103.721H196.851A5.421,5.421,0,0,1,191.43,98.3V38.352a5.412,5.412,0,0,1,5.421-5.412h27.466l21.261,21.907V98.3a5.421,5.421,0,0,1-5.4,5.421Z" transform="translate(-191.43 -32.94)" fill="#4be5f1"/>
      <g id="Grupo_1066833" data-name="Grupo 1066833" transform="translate(0 49.304)" opacity="0.2">
        <path id="Trazado_806434" data-name="Trazado 806434" d="M192.5,90.15h51.993a1.069,1.069,0,0,1,1.069,1.069v14.823a5.585,5.585,0,0,1-5.585,5.585H197.015a5.585,5.585,0,0,1-5.585-5.585V91.219A1.069,1.069,0,0,1,192.5,90.15Z" transform="translate(-191.43 -90.15)"/>
      </g>
      <g id="Grupo_1066834" data-name="Grupo 1066834" transform="translate(32.887)" opacity="0.2">
        <path id="Trazado_806435" data-name="Trazado 806435" d="M229.59,32.94V49.806a5.033,5.033,0,0,0,5.033,5.042h16.228Z" transform="translate(-229.59 -32.94)" fill="#fff"/>
      </g>
      <g id="Grupo_1066835" data-name="Grupo 1066835" transform="translate(33.101 18.348)" opacity="0.2">
        <path id="Trazado_806436" data-name="Trazado 806436" d="M229.84,54.23a5.6,5.6,0,0,0,4.447,5.438,5.352,5.352,0,0,0,.534.121c2.12.379,16.064,2.853,16.064,2.534V57.789H234.657S230.607,57.651,229.84,54.23Z" transform="translate(-229.838 -54.23)"/>
      </g>
      <path id="Trazado_806437" data-name="Trazado 806437" d="M209.41,100.3a4.637,4.637,0,0,1,8.041-2.87l-1.25,1.146a2.769,2.769,0,1,0-2.12,4.4,2.689,2.689,0,0,0,2.12-1l1.25,1.155a4.628,4.628,0,0,1-8.041-2.844Z" transform="translate(-193.915 -41.645)" fill="#fafafa"/>
      <path id="Trazado_806438" data-name="Trazado 806438" d="M219.4,103.7l.664-1.465a4.938,4.938,0,0,0,2.784.862c1.155,0,1.62-.379,1.62-.862,0-1.577-4.9-.491-4.9-3.62,0-1.439,1.155-2.585,3.551-2.585a5.662,5.662,0,0,1,2.922.75l-.6,1.482a4.731,4.731,0,0,0-2.336-.664c-1.155,0-1.594.431-1.594.957,0,1.551,4.9.483,4.9,3.577,0,1.4-1.172,2.585-3.577,2.585a6.033,6.033,0,0,1-3.43-1.017Z" transform="translate(-195.295 -41.658)" fill="#fafafa"/>
      <path id="Trazado_806439" data-name="Trazado 806439" d="M228.31,103.7l.655-1.465a4.981,4.981,0,0,0,2.784.862c1.155,0,1.62-.379,1.62-.862,0-1.577-4.9-.491-4.9-3.62,0-1.439,1.155-2.585,3.551-2.585a5.662,5.662,0,0,1,2.922.75l-.6,1.482a4.705,4.705,0,0,0-2.336-.664c-1.155,0-1.594.431-1.594.957,0,1.551,4.9.483,4.9,3.577,0,1.4-1.163,2.585-3.577,2.585a5.964,5.964,0,0,1-3.421-1.017Z" transform="translate(-196.526 -41.658)" fill="#fafafa"/>
      <path id="Trazado_806440" data-name="Trazado 806440" d="M212.085,67.93c.862.276,1.3.862,1.3,2.172V73.2a1.276,1.276,0,0,0,1.413,1.431h.345v2.361h-1.12c-2.422,0-3.654-1.241-3.654-3.447V70.025a.793.793,0,0,0-.862-.914h-.638v-2.37h.638a.784.784,0,0,0,.862-.9v-3.5c0-2.223,1.232-3.447,3.654-3.447h1.12v2.353H214.8a1.275,1.275,0,0,0-1.413,1.439v3.094C213.386,67.1,212.981,67.663,212.085,67.93Z" transform="translate(-193.84 -36.526)" fill="#fafafa"/>
      <path id="Trazado_806441" data-name="Trazado 806441" d="M235.8,66.74V69.1h-.646a.8.8,0,0,0-.862.914v3.5c0,2.223-1.241,3.447-3.663,3.447h-1.12V74.625h.353a1.275,1.275,0,0,0,1.413-1.431V70.1c0-1.336.405-1.9,1.293-2.172-.862-.267-1.293-.862-1.293-2.163V62.672a1.275,1.275,0,0,0-1.413-1.439h-.353V58.88h1.12c2.422,0,3.663,1.232,3.663,3.447v3.551a.791.791,0,0,0,.862.9Z" transform="translate(-196.692 -36.525)" fill="#fafafa"/>
      <path id="Trazado_806442" data-name="Trazado 806442" d="M310.411,154.048H266.458a5.5,5.5,0,0,1-5.5-5.507V87.688a5.5,5.5,0,0,1,5.5-5.5h27.88l21.545,22.243v44.108a5.5,5.5,0,0,1-5.473,5.507Z" transform="translate(-201.038 -39.746)" fill="#4be5f1"/>
      <g id="Grupo_1066836" data-name="Grupo 1066836" transform="translate(59.896 92.499)" opacity="0.2">
        <path id="Trazado_806443" data-name="Trazado 806443" d="M260.947,140.27h54.967v15.857a5.947,5.947,0,0,1-5.947,5.947H266.877a5.947,5.947,0,0,1-5.947-5.947V140.27Z" transform="translate(-260.93 -140.27)"/>
      </g>
      <g id="Grupo_1066837" data-name="Grupo 1066837" transform="translate(93.292 42.444)" opacity="0.2">
        <path id="Trazado_806444" data-name="Trazado 806444" d="M299.68,82.19V99.314a5.119,5.119,0,0,0,5.119,5.119H321.26Z" transform="translate(-299.68 -82.19)" fill="#fff"/>
      </g>
      <g id="Grupo_1066838" data-name="Grupo 1066838" transform="translate(93.514 61.077)" opacity="0.2">
        <path id="Trazado_806445" data-name="Trazado 806445" d="M299.94,103.81a5.685,5.685,0,0,0,4.516,5.516,5.017,5.017,0,0,0,.543.121c2.146.388,16.3,2.9,16.3,2.585v-4.611H304.835S300.724,107.283,299.94,103.81Z" transform="translate(-299.938 -103.81)"/>
      </g>
      <path id="Trazado_806446" data-name="Trazado 806446" d="M285.627,118.985l-6.6,2.413,6.6,2.4v2.482l-9.437-3.585v-2.585l9.437-3.585Z" transform="translate(-203.143 -44.489)" fill="#fafafa"/>
      <path id="Trazado_806447" data-name="Trazado 806447" d="M294.325,110.87h2.749l-6.515,18.667H287.81Z" transform="translate(-204.748 -43.709)" fill="#fafafa"/>
      <path id="Trazado_806448" data-name="Trazado 806448" d="M308.411,120.121v2.585L299,126.283v-2.448l6.6-2.4-6.6-2.413V116.57Z" transform="translate(-206.295 -44.496)" fill="#fafafa"/>
      <path id="Trazado_806449" data-name="Trazado 806449" d="M283.44,149.68v7.386h-1.724v-3.025h-3.352v3.025H276.64V149.68h1.724v2.913h3.352V149.68Z" transform="translate(-203.205 -49.072)" fill="#fafafa"/>
      <path id="Trazado_806450" data-name="Trazado 806450" d="M287.961,151.076H285.6v-1.4h6.438v1.4h-2.37v5.99h-1.724Z" transform="translate(-204.443 -49.072)" fill="#fafafa"/>
      <path id="Trazado_806451" data-name="Trazado 806451" d="M300.854,157.062v-4.43l-2.172,3.654h-.776l-2.163-3.559v4.309h-1.6V149.65h1.413l2.775,4.611,2.723-4.593h1.4v7.386Z" transform="translate(-205.623 -49.068)" fill="#fafafa"/>
      <path id="Trazado_806452" data-name="Trazado 806452" d="M305.82,149.68h1.724v6.033h3.706V157.1h-5.421Z" transform="translate(-207.237 -49.072)" fill="#fafafa"/>
    </g>
    <g id="freepik--Tabs--inject-2" transform="translate(39.027 97.427)">
      <rect id="Rectángulo_375710" data-name="Rectángulo 375710" width="85.096" height="137.158" rx="3.06" transform="translate(0.178 0.354)" fill="#fff"/>
      <path id="Trazado_806453" data-name="Trazado 806453" d="M46.137,108.37h78.994a2.991,2.991,0,0,1,2.991,2.991v12.333H43V111.5a3.111,3.111,0,0,1,3.137-3.128Z" transform="translate(-42.847 -108.016)" fill="#e0e0e0"/>
      <path id="Trazado_806454" data-name="Trazado 806454" d="M125.244,245.471a3.447,3.447,0,0,0,1.095-.241,2.879,2.879,0,0,0,1.724-2.585c0-2.939,0-7.256-.043-12.815,0-11.126,0-27.216-.069-47.1s0-43.573-.052-69.867v-1.232a3.99,3.99,0,0,0-.1-1.172,2.672,2.672,0,0,0-2.585-1.93H45.923a2.585,2.585,0,0,0-2.585,2.413V242.377a2.715,2.715,0,0,0,2.12,2.853,13.586,13.586,0,0,0,1.982.06H60.867l47.107.069,12.807.043h0l-12.807.043-47.107.069H47.285a15.227,15.227,0,0,1-2.06-.069,3.016,3.016,0,0,1-1.784-1.138,3.1,3.1,0,0,1-.612-2.051q0-2.068,0-4.188V110.787a3.025,3.025,0,0,1,.491-1.431,3.085,3.085,0,0,1,2.585-1.4h79.33a3.059,3.059,0,0,1,1.3.267,3.094,3.094,0,0,1,1.724,1.965,4.739,4.739,0,0,1,.112,1.284v1.232c0,26.294,0,49.985-.052,69.867s-.052,35.972-.069,47.1c0,5.559,0,9.876-.043,12.815a2.9,2.9,0,0,1-.655,1.8,3.025,3.025,0,0,1-1.129.862,3.327,3.327,0,0,1-.862.2Z" transform="translate(-42.823 -107.959)" fill="#263238"/>
      <path id="Trazado_806455" data-name="Trazado 806455" d="M56.783,118.246a2.508,2.508,0,1,1-.735-1.782,2.516,2.516,0,0,1,.735,1.782Z" transform="translate(-44.057 -109.033)" fill="#fff"/>
      <circle id="Elipse_4748" data-name="Elipse 4748" cx="2.508" cy="2.508" r="2.508" transform="translate(15.433 6.705)" fill="#fff"/>
      <circle id="Elipse_4749" data-name="Elipse 4749" cx="2.508" cy="2.508" r="2.508" transform="translate(23.154 6.705)" fill="#fff"/>
      <path id="Trazado_806456" data-name="Trazado 806456" d="M83.21,149.707H67.534a1.724,1.724,0,0,1-1.724-1.724h0a1.724,1.724,0,0,1,1.724-1.724H83.21a1.724,1.724,0,0,1,1.724,1.724h0A1.724,1.724,0,0,1,83.21,149.707Z" transform="translate(-45.999 -113.252)" fill="#263238"/>
      <path id="Trazado_806457" data-name="Trazado 806457" d="M83.21,160.037H67.534a1.724,1.724,0,0,1-1.724-1.724h0a1.724,1.724,0,0,1,1.724-1.724H83.21a1.724,1.724,0,0,1,1.724,1.724h0A1.724,1.724,0,0,1,83.21,160.037Z" transform="translate(-45.999 -114.679)" fill="#e0e0e0"/>
      <path id="Trazado_806458" data-name="Trazado 806458" d="M83.73,188.327H68.054A1.724,1.724,0,0,1,66.33,186.6h0a1.724,1.724,0,0,1,1.724-1.724H83.73a1.724,1.724,0,0,1,1.724,1.724h0A1.724,1.724,0,0,1,83.73,188.327Z" transform="translate(-46.071 -118.589)" fill="#e0e0e0"/>
      <path id="Trazado_806459" data-name="Trazado 806459" d="M83.21,170.707H67.534a1.724,1.724,0,0,1-1.724-1.724h0a1.724,1.724,0,0,1,1.724-1.724H83.21a1.724,1.724,0,0,1,1.724,1.724h0A1.724,1.724,0,0,1,83.21,170.707Z" transform="translate(-45.999 -116.154)" fill="#4be5f1"/>
      <path id="Trazado_806460" data-name="Trazado 806460" d="M83.21,230.227H67.534A1.724,1.724,0,0,1,65.81,228.5h0a1.724,1.724,0,0,1,1.724-1.724H83.21a1.724,1.724,0,0,1,1.724,1.724h0A1.724,1.724,0,0,1,83.21,230.227Z" transform="translate(-45.999 -124.379)" fill="#4be5f1"/>
      <path id="Trazado_806461" data-name="Trazado 806461" d="M112.34,149.707H96.664a1.724,1.724,0,0,1-1.724-1.724h0a1.724,1.724,0,0,1,1.724-1.724H112.34a1.724,1.724,0,0,1,1.724,1.724h0A1.724,1.724,0,0,1,112.34,149.707Z" transform="translate(-50.025 -113.252)" fill="#455a64"/>
      <path id="Trazado_806462" data-name="Trazado 806462" d="M129.32,160.037H96.571a1.629,1.629,0,0,1-1.551-1.724h0a1.629,1.629,0,0,1,1.551-1.724h32.792a1.629,1.629,0,0,1,1.551,1.724h0a1.629,1.629,0,0,1-1.594,1.724Z" transform="translate(-50.035 -114.679)" fill="#263238"/>
      <path id="Trazado_806463" data-name="Trazado 806463" d="M128.24,170.707H95.233a1.646,1.646,0,0,1-1.6-1.724h0a1.646,1.646,0,0,1,1.6-1.724H128.24a1.646,1.646,0,0,1,1.6,1.724h0a1.646,1.646,0,0,1-1.6,1.724Z" transform="translate(-49.843 -116.154)" fill="#e0e0e0"/>
      <path id="Trazado_806464" data-name="Trazado 806464" d="M100.57,179.337H67.563a1.646,1.646,0,0,1-1.6-1.724h0a1.646,1.646,0,0,1,1.6-1.724H100.57a1.646,1.646,0,0,1,1.6,1.724h0a1.646,1.646,0,0,1-1.6,1.724Z" transform="translate(-46.02 -117.346)" fill="#e0e0e0"/>
      <path id="Trazado_806465" data-name="Trazado 806465" d="M58.347,148.014a1.724,1.724,0,1,1-1.724-1.724A1.724,1.724,0,0,1,58.347,148.014Z" transform="translate(-44.492 -113.256)" fill="#455a64"/>
      <path id="Trazado_806466" data-name="Trazado 806466" d="M58.347,138.134a1.724,1.724,0,1,1-1.724-1.724A1.724,1.724,0,0,1,58.347,138.134Z" transform="translate(-44.492 -111.891)" fill="#455a64"/>
      <path id="Trazado_806467" data-name="Trazado 806467" d="M58.347,158.314a1.724,1.724,0,1,1-1.724-1.724A1.724,1.724,0,0,1,58.347,158.314Z" transform="translate(-44.492 -114.679)" fill="#455a64"/>
      <path id="Trazado_806468" data-name="Trazado 806468" d="M58.347,169.014a1.724,1.724,0,1,1-1.724-1.724A1.724,1.724,0,0,1,58.347,169.014Z" transform="translate(-44.492 -116.158)" fill="#455a64"/>
      <path id="Trazado_806469" data-name="Trazado 806469" d="M83.73,217.207H68.054a1.724,1.724,0,0,1-1.724-1.724h0a1.724,1.724,0,0,1,1.724-1.724H83.73a1.724,1.724,0,0,1,1.724,1.724h0A1.724,1.724,0,0,1,83.73,217.207Z" transform="translate(-46.071 -122.579)" fill="#e0e0e0"/>
      <path id="Trazado_806470" data-name="Trazado 806470" d="M83.21,199.587H67.534a1.724,1.724,0,0,1-1.724-1.724h0a1.724,1.724,0,0,1,1.724-1.724H83.21a1.724,1.724,0,0,1,1.724,1.724h0A1.724,1.724,0,0,1,83.21,199.587Z" transform="translate(-45.999 -120.145)" fill="#4be5f1"/>
      <path id="Trazado_806471" data-name="Trazado 806471" d="M128.24,199.587H95.233a1.646,1.646,0,0,1-1.6-1.724h0a1.646,1.646,0,0,1,1.6-1.724H128.24a1.646,1.646,0,0,1,1.6,1.724h0a1.646,1.646,0,0,1-1.6,1.724Z" transform="translate(-49.843 -120.145)" fill="#e0e0e0"/>
      <path id="Trazado_806472" data-name="Trazado 806472" d="M100.57,208.217H67.563a1.646,1.646,0,0,1-1.6-1.724h0a1.646,1.646,0,0,1,1.6-1.724H100.57a1.646,1.646,0,0,1,1.6,1.724h0a1.646,1.646,0,0,1-1.6,1.724Z" transform="translate(-46.02 -121.337)" fill="#e0e0e0"/>
      <path id="Trazado_806473" data-name="Trazado 806473" d="M58.347,197.894a1.724,1.724,0,1,1-1.724-1.724A1.724,1.724,0,0,1,58.347,197.894Z" transform="translate(-44.492 -120.149)" fill="#455a64"/>
      <rect id="Rectángulo_375711" data-name="Rectángulo 375711" width="11.462" height="3.284" rx="0.96" transform="translate(19.931 25.019)" fill="#455a64"/>
      <path id="Trazado_806474" data-name="Trazado 806474" d="M83.21,240.737H67.534a1.724,1.724,0,0,1-1.724-1.724h0a1.724,1.724,0,0,1,1.724-1.724H83.21a1.724,1.724,0,0,1,1.724,1.724h0A1.724,1.724,0,0,1,83.21,240.737Z" transform="translate(-45.999 -125.831)" fill="#263238"/>
      <path id="Trazado_806475" data-name="Trazado 806475" d="M112.34,240.737H96.664a1.724,1.724,0,0,1-1.724-1.724h0a1.724,1.724,0,0,1,1.724-1.724H112.34a1.724,1.724,0,0,1,1.724,1.724h0A1.724,1.724,0,0,1,112.34,240.737Z" transform="translate(-50.025 -125.831)" fill="#455a64"/>
      <path id="Trazado_806476" data-name="Trazado 806476" d="M58.347,239.044a1.724,1.724,0,1,1-1.724-1.724A1.724,1.724,0,0,1,58.347,239.044Z" transform="translate(-44.492 -125.835)" fill="#455a64"/>
      <path id="Trazado_806477" data-name="Trazado 806477" d="M58.347,248.544a1.724,1.724,0,1,1-1.724-1.724A1.724,1.724,0,0,1,58.347,248.544Z" transform="translate(-44.492 -127.148)" fill="#455a64"/>
      <rect id="Rectángulo_375712" data-name="Rectángulo 375712" width="11.462" height="3.284" rx="0.96" transform="translate(19.931 120.172)" fill="#455a64"/>
      <rect id="Rectángulo_375713" data-name="Rectángulo 375713" width="155.428" height="98.867" transform="translate(90.953 116.337)" fill="#fff"/>
      <rect id="Rectángulo_375714" data-name="Rectángulo 375714" width="27.992" height="98.867" transform="translate(90.953 116.337)" fill="#ebebeb"/>
      <path id="Trazado_806478" data-name="Trazado 806478" d="M162.427,255.224a1.844,1.844,0,0,1,.465-.2l.095-.465h.776l.121.457a1.957,1.957,0,0,1,.465.19l.4-.259.56.534-.241.405a1.844,1.844,0,0,1,.2.465l.465.095v.784l-.457.112a1.724,1.724,0,0,1-.181.474l.259.388-.543.56-.405-.241a1.87,1.87,0,0,1-.465.207l-.095.457h-.784l-.112-.457a1.957,1.957,0,0,1-.465-.19l-.4.259-.56-.543.241-.405a1.844,1.844,0,0,1-.2-.465l-.465-.095v-.776l.457-.112a1.861,1.861,0,0,1,.181-.474l-.259-.4.543-.56.405.241Zm.414,1.043a.68.68,0,1,1-.017.017Z" transform="translate(-59.167 -128.217)" fill="#e0e0e0"/>
      <path id="Trazado_806479" data-name="Trazado 806479" d="M167.986,280.278H155.8a1.25,1.25,0,0,1-1.25-1.258h0a1.25,1.25,0,0,1,1.25-1.25H168a1.25,1.25,0,0,1,1.258,1.25h0a1.258,1.258,0,0,1-1.275,1.258Z" transform="translate(-58.262 -131.425)" fill="#e0e0e0"/>
      <path id="Trazado_806480" data-name="Trazado 806480" d="M167.986,272.868H155.8a1.258,1.258,0,0,1-1.25-1.258h0a1.25,1.25,0,0,1,1.25-1.25H168a1.25,1.25,0,0,1,1.258,1.25h0a1.258,1.258,0,0,1-1.275,1.258Z" transform="translate(-58.262 -130.401)" fill="#e0e0e0"/>
      <path id="Trazado_806481" data-name="Trazado 806481" d="M167.986,266.078H155.8a1.25,1.25,0,0,1-1.25-1.25h0a1.258,1.258,0,0,1,1.25-1.258H168a1.258,1.258,0,0,1,1.241,1.232h0a1.25,1.25,0,0,1-1.258,1.275Z" transform="translate(-58.262 -129.462)" fill="#e0e0e0"/>
      <path id="Trazado_806482" data-name="Trazado 806482" d="M206.135,259.5H194.57a1.25,1.25,0,0,1-1.25-1.25h0a1.25,1.25,0,0,1,1.25-1.258h11.566a1.25,1.25,0,0,1,1.25,1.258h0a1.25,1.25,0,0,1-1.25,1.25Z" transform="translate(-63.619 -128.553)" fill="#263238"/>
      <path id="Trazado_806483" data-name="Trazado 806483" d="M206.135,267.118H194.57a1.25,1.25,0,0,1-1.25-1.258h0a1.25,1.25,0,0,1,1.25-1.25h11.566a1.25,1.25,0,0,1,1.25,1.25h0a1.25,1.25,0,0,1-1.25,1.258Z" transform="translate(-63.619 -129.606)" fill="#e0e0e0"/>
      <path id="Trazado_806484" data-name="Trazado 806484" d="M206.135,274.988H194.57a1.25,1.25,0,0,1-1.25-1.25h0a1.25,1.25,0,0,1,1.25-1.258h11.566a1.25,1.25,0,0,1,1.25,1.258h0a1.25,1.25,0,0,1-1.25,1.25Z" transform="translate(-63.619 -130.694)" fill="#4be5f1"/>
      <path id="Trazado_806485" data-name="Trazado 806485" d="M201.206,290.208H194.57a1.25,1.25,0,0,1-1.25-1.258h0a1.25,1.25,0,0,1,1.25-1.25h6.636a1.25,1.25,0,0,1,1.25,1.25h0a1.25,1.25,0,0,1-1.25,1.258Z" transform="translate(-63.619 -132.797)" fill="#263238"/>
      <path id="Trazado_806486" data-name="Trazado 806486" d="M201.206,298.1H194.57a1.25,1.25,0,0,1-1.25-1.258h0a1.25,1.25,0,0,1,1.25-1.25h6.636a1.25,1.25,0,0,1,1.25,1.25h0a1.25,1.25,0,0,1-1.25,1.258Z" transform="translate(-63.619 -133.887)" fill="#263238"/>
      <path id="Trazado_806487" data-name="Trazado 806487" d="M223.17,298.1H211.018a1.258,1.258,0,0,1-1.258-1.258h0a1.258,1.258,0,0,1,1.258-1.25H223.17a1.25,1.25,0,0,1,1.258,1.25h0a1.258,1.258,0,0,1-1.258,1.258Z" transform="translate(-65.891 -133.887)" fill="#e0e0e0"/>
      <path id="Trazado_806488" data-name="Trazado 806488" d="M215.2,305.108H203.04a1.25,1.25,0,0,1-1.25-1.25h0a1.258,1.258,0,0,1,1.25-1.258H215.2a1.258,1.258,0,0,1,1.25,1.258h0a1.25,1.25,0,0,1-1.25,1.25Z" transform="translate(-64.79 -134.856)" fill="#4be5f1"/>
      <rect id="Rectángulo_375715" data-name="Rectángulo 375715" width="10.057" height="2.508" rx="0.99" transform="translate(143.895 174.647)" fill="#4be5f1"/>
      <path id="Trazado_806489" data-name="Trazado 806489" d="M218.588,328.8h-7.549a1.258,1.258,0,0,1-1.258-1.258h0a1.25,1.25,0,0,1,1.258-1.25h7.549a1.25,1.25,0,0,1,1.25,1.25h0a1.25,1.25,0,0,1-1.25,1.258Z" transform="translate(-65.894 -138.129)" fill="#4be5f1"/>
      <path id="Trazado_806490" data-name="Trazado 806490" d="M218.588,345.358h-7.549a1.25,1.25,0,0,1-1.258-1.25h0a1.258,1.258,0,0,1,1.258-1.258h7.549a1.25,1.25,0,0,1,1.25,1.258h0a1.25,1.25,0,0,1-1.25,1.25Z" transform="translate(-65.894 -140.418)" fill="#4be5f1"/>
      <path id="Trazado_806491" data-name="Trazado 806491" d="M239.226,345.358H225.988a1.25,1.25,0,0,1-1.258-1.25h0a1.258,1.258,0,0,1,1.258-1.258h13.237a1.25,1.25,0,0,1,1.25,1.258h0a1.25,1.25,0,0,1-1.25,1.25Z" transform="translate(-67.96 -140.418)" fill="#455a64"/>
      <path id="Trazado_806492" data-name="Trazado 806492" d="M251.793,345.358h-1.9a1.25,1.25,0,0,1-1.258-1.25h0a1.258,1.258,0,0,1,1.258-1.258h1.9a1.258,1.258,0,0,1,1.258,1.258h0A1.258,1.258,0,0,1,251.793,345.358Z" transform="translate(-71.262 -140.418)" fill="#e0e0e0"/>
      <path id="Trazado_806493" data-name="Trazado 806493" d="M238.632,328.8h-11.2a1.258,1.258,0,0,1-1.258-1.258h0a1.25,1.25,0,0,1,1.258-1.25h11.2a1.25,1.25,0,0,1,1.25,1.25h0a1.25,1.25,0,0,1-1.25,1.258Z" transform="translate(-68.159 -138.129)" fill="#e0e0e0"/>
      <path id="Trazado_806494" data-name="Trazado 806494" d="M263.171,336.068H227.448a1.258,1.258,0,0,1-1.258-1.258h0a1.25,1.25,0,0,1,1.258-1.25h35.722a1.25,1.25,0,0,1,1.25,1.25h0a1.25,1.25,0,0,1-1.25,1.258Z" transform="translate(-68.161 -139.134)" fill="#e0e0e0"/>
      <path id="Trazado_806495" data-name="Trazado 806495" d="M270.022,328.8h-22.8a1.258,1.258,0,0,1-1.258-1.258h0a1.258,1.258,0,0,1,1.258-1.25h22.8a1.25,1.25,0,0,1,1.258,1.25h0a1.258,1.258,0,0,1-1.258,1.258Z" transform="translate(-70.893 -138.129)" fill="#455a64"/>
      <rect id="Rectángulo_375716" data-name="Rectángulo 375716" width="11.953" height="2.508" rx="0.99" transform="translate(157.236 174.647)" fill="#455a64"/>
      <rect id="Rectángulo_375717" data-name="Rectángulo 375717" width="4.852" height="2.508" rx="0.99" transform="translate(172.516 174.647)" fill="#e0e0e0"/>
      <rect id="Rectángulo_375718" data-name="Rectángulo 375718" width="14.323" height="2.508" rx="0.99" transform="translate(181.065 174.647)" fill="#e0e0e0"/>
      <path id="Trazado_806496" data-name="Trazado 806496" d="M226.264,305.108h-2.706a1.25,1.25,0,0,1-1.258-1.25h0a1.258,1.258,0,0,1,1.258-1.258h2.706a1.258,1.258,0,0,1,1.25,1.258h0A1.25,1.25,0,0,1,226.264,305.108Z" transform="translate(-67.624 -134.856)" fill="#263238"/>
      <path id="Trazado_806497" data-name="Trazado 806497" d="M250.556,305.108H233.32a1.25,1.25,0,0,1-1.25-1.25h0a1.258,1.258,0,0,1,1.25-1.258h17.236a1.267,1.267,0,0,1,1.258,1.258h0a1.258,1.258,0,0,1-1.258,1.25Z" transform="translate(-68.974 -134.856)" fill="#e0e0e0"/>
      <path id="Trazado_806498" data-name="Trazado 806498" d="M227.617,259.5H216.06a1.25,1.25,0,0,1-1.25-1.25h0a1.25,1.25,0,0,1,1.25-1.258h11.557a1.258,1.258,0,0,1,1.258,1.258h0a1.25,1.25,0,0,1-1.258,1.25Z" transform="translate(-66.589 -128.553)" fill="#455a64"/>
      <path id="Trazado_806499" data-name="Trazado 806499" d="M242.552,267.118H216.06a1.25,1.25,0,0,1-1.25-1.258h0a1.25,1.25,0,0,1,1.25-1.25h26.492a1.25,1.25,0,0,1,1.258,1.25h0a1.258,1.258,0,0,1-1.258,1.258Z" transform="translate(-66.589 -129.606)" fill="#263238"/>
      <path id="Trazado_806500" data-name="Trazado 806500" d="M270.992,274.988H216.06a1.25,1.25,0,0,1-1.25-1.25h0a1.25,1.25,0,0,1,1.25-1.258h54.932a1.25,1.25,0,0,1,1.25,1.258h0A1.25,1.25,0,0,1,270.992,274.988Z" transform="translate(-66.589 -130.694)" fill="#e0e0e0"/>
      <path id="Trazado_806501" data-name="Trazado 806501" d="M241.957,280.538h-25.9a1.258,1.258,0,0,1-1.25-1.258h0a1.25,1.25,0,0,1,1.25-1.25h25.9a1.25,1.25,0,0,1,1.258,1.25h0A1.258,1.258,0,0,1,241.957,280.538Z" transform="translate(-66.589 -131.461)" fill="#e0e0e0"/>
      <path id="Trazado_806502" data-name="Trazado 806502" d="M235.816,290.208H209.91a1.25,1.25,0,0,1-1.25-1.258h0a1.25,1.25,0,0,1,1.25-1.25h25.906a1.25,1.25,0,0,1,1.25,1.25h0a1.25,1.25,0,0,1-1.25,1.258Z" transform="translate(-65.739 -132.797)" fill="#455a64"/>
      <path id="Trazado_806503" data-name="Trazado 806503" d="M255.405,290.208h-8.687a1.258,1.258,0,0,1-1.258-1.258h0a1.25,1.25,0,0,1,1.258-1.25h8.687a1.258,1.258,0,0,1,1.258,1.25h0a1.258,1.258,0,0,1-1.258,1.258Z" transform="translate(-70.824 -132.797)" fill="#4be5f1"/>
      <path id="Trazado_806504" data-name="Trazado 806504" d="M279.923,290.158H263.548a1.25,1.25,0,0,1-1.258-1.25h0a1.258,1.258,0,0,1,1.258-1.258h16.374a1.25,1.25,0,0,1,1.25,1.258h0a1.25,1.25,0,0,1-1.25,1.25Z" transform="translate(-73.15 -132.79)" fill="#263238"/>
      <path id="Trazado_806505" data-name="Trazado 806505" d="M305.814,290.158H289.44a1.25,1.25,0,0,1-1.25-1.25h0a1.25,1.25,0,0,1,1.25-1.258h16.374a1.258,1.258,0,0,1,1.258,1.258h0a1.25,1.25,0,0,1-1.258,1.25Z" transform="translate(-76.729 -132.79)" fill="#e0e0e0"/>
      <path id="Trazado_806506" data-name="Trazado 806506" d="M162.694,288.128H155.8a1.258,1.258,0,0,1-1.25-1.258h0a1.25,1.25,0,0,1,1.25-1.25h6.895a1.25,1.25,0,0,1,1.25,1.25h0a1.258,1.258,0,0,1-1.25,1.258Z" transform="translate(-58.262 -132.509)" fill="#e0e0e0"/>
      <path id="Trazado_806507" data-name="Trazado 806507" d="M160.634,311.668H155.8a1.25,1.25,0,0,1-1.25-1.258h0a1.25,1.25,0,0,1,1.25-1.25h4.852a1.25,1.25,0,0,1,1.25,1.25h0a1.25,1.25,0,0,1-1.267,1.258Z" transform="translate(-58.262 -135.762)" fill="#e0e0e0"/>
      <path id="Trazado_806508" data-name="Trazado 806508" d="M169.244,295.968H155.8a1.25,1.25,0,0,1-1.25-1.25h0a1.25,1.25,0,0,1,1.25-1.258h13.444a1.25,1.25,0,0,1,1.25,1.258h0A1.25,1.25,0,0,1,169.244,295.968Z" transform="translate(-58.262 -133.593)" fill="#e0e0e0"/>
      <path id="Trazado_806509" data-name="Trazado 806509" d="M166.883,303.818H155.8a1.25,1.25,0,0,1-1.25-1.25h0a1.25,1.25,0,0,1,1.25-1.258h11.1a1.25,1.25,0,0,1,1.25,1.258h0a1.25,1.25,0,0,1-1.267,1.25Z" transform="translate(-58.262 -134.678)" fill="#e0e0e0"/>
      <path id="Trazado_806510" data-name="Trazado 806510" d="M187.791,258.245a1.275,1.275,0,1,1-1.275-1.275A1.275,1.275,0,0,1,187.791,258.245Z" transform="translate(-62.503 -128.55)" fill="#455a64"/>
      <circle id="Elipse_4750" data-name="Elipse 4750" cx="1.275" cy="1.275" r="1.275" transform="translate(122.737 121.723)" fill="#455a64"/>
      <circle id="Elipse_4751" data-name="Elipse 4751" cx="1.275" cy="1.275" r="1.275" transform="translate(122.737 134.961)" fill="#455a64"/>
      <circle id="Elipse_4752" data-name="Elipse 4752" cx="1.275" cy="1.275" r="1.275" transform="translate(122.737 141.769)" fill="#455a64"/>
      <circle id="Elipse_4753" data-name="Elipse 4753" cx="1.275" cy="1.275" r="1.275" transform="translate(122.737 148.569)" fill="#455a64"/>
      <path id="Trazado_806511" data-name="Trazado 806511" d="M187.791,289.517a1.275,1.275,0,1,1-1.275-1.267A1.275,1.275,0,0,1,187.791,289.517Z" transform="translate(-62.503 -132.873)" fill="#455a64"/>
      <circle id="Elipse_4754" data-name="Elipse 4754" cx="1.275" cy="1.275" r="1.275" transform="translate(122.737 162.177)" fill="#455a64"/>
      <circle id="Elipse_4755" data-name="Elipse 4755" cx="1.275" cy="1.275" r="1.275" transform="translate(122.737 168.977)" fill="#455a64"/>
      <path id="Trazado_806512" data-name="Trazado 806512" d="M187.791,313.205a1.275,1.275,0,1,1-1.275-1.275A1.275,1.275,0,0,1,187.791,313.205Z" transform="translate(-62.503 -136.145)" fill="#455a64"/>
      <path id="Trazado_806513" data-name="Trazado 806513" d="M187.791,321.1a1.275,1.275,0,1,1-1.275-1.275A1.275,1.275,0,0,1,187.791,321.1Z" transform="translate(-62.503 -137.235)" fill="#455a64"/>
      <circle id="Elipse_4756" data-name="Elipse 4756" cx="1.275" cy="1.275" r="1.275" transform="translate(122.737 189.393)" fill="#455a64"/>
      <path id="Trazado_806514" data-name="Trazado 806514" d="M187.791,336.885a1.275,1.275,0,1,1-1.275-1.275,1.276,1.276,0,0,1,1.275,1.275Z" transform="translate(-62.503 -139.417)" fill="#455a64"/>
      <circle id="Elipse_4757" data-name="Elipse 4757" cx="1.275" cy="1.275" r="1.275" transform="translate(122.737 203.001)" fill="#455a64"/>
      <path id="Trazado_806515" data-name="Trazado 806515" d="M153.022,227.31H300.488a3.3,3.3,0,0,1,3.3,3.3v10.221H148.36v-8.868a4.654,4.654,0,0,1,4.662-4.654Z" transform="translate(-57.407 -124.452)" fill="#e0e0e0"/>
      <circle id="Elipse_4758" data-name="Elipse 4758" cx="1.853" cy="1.853" r="1.853" transform="translate(97.133 108.158)" fill="#fff"/>
      <path id="Trazado_806516" data-name="Trazado 806516" d="M165.846,235.313a1.844,1.844,0,1,1-.54-1.313A1.853,1.853,0,0,1,165.846,235.313Z" transform="translate(-59.311 -125.302)" fill="#fff"/>
      <path id="Trazado_806517" data-name="Trazado 806517" d="M172.456,235.313a1.844,1.844,0,1,1-.54-1.313,1.853,1.853,0,0,1,.54,1.313Z" transform="translate(-60.224 -125.302)" fill="#fff"/>
      <path id="Trazado_806518" data-name="Trazado 806518" d="M186.72,355.88l13.143,14.211,11.919-14.211Z" transform="translate(-62.707 -142.218)" fill="#fff"/>
      <path id="Trazado_806519" data-name="Trazado 806519" d="M299.548,339.63a5.412,5.412,0,0,0,1.362-.259,4.2,4.2,0,0,0,2.654-2.853,4.309,4.309,0,0,0,.147-1.4v-14.3c0-13.66-.043-33.413-.069-57.828V231.059a4.033,4.033,0,0,0-3.171-3.508,17.71,17.71,0,0,0-2.637-.086h-145.6a3.938,3.938,0,0,0-1.56.491,4.007,4.007,0,0,0-1.922,2.585,11.945,11.945,0,0,0-.112,2.379V335.614a3.99,3.99,0,0,0,2.008,3.232,3.938,3.938,0,0,0,1.887.526H182.5l.06.06L194.622,352.1h-.267L204.9,339.518l.052-.06h.078l69.092.069,18.865.052h0l-18.865.052-69.092.069.129-.06-10.6,12.764-.129.155-.138-.147-12.065-12.651.138.06h-29.9a4.5,4.5,0,0,1-2.068-.577,4.421,4.421,0,0,1-2.223-3.568V231.739a5.273,5.273,0,0,1,.121-1.258,4.49,4.49,0,0,1,2.137-2.853,4.438,4.438,0,0,1,1.724-.552c.629-.043,1.172,0,1.724,0H297.746a16.857,16.857,0,0,1,2.706.095A4.4,4.4,0,0,1,303.9,231c.052.914,0,1.724,0,2.585v29.353c0,24.415-.06,44.168-.078,57.828v14.3a4.473,4.473,0,0,1-.164,1.422,4.145,4.145,0,0,1-1.25,2.008,4.051,4.051,0,0,1-1.474.862,4.15,4.15,0,0,1-1.026.207Z" transform="translate(-57.38 -124.417)" fill="#263238"/>
      <path id="Trazado_806520" data-name="Trazado 806520" d="M162.092,128.49H279.506a2.732,2.732,0,0,1,2.732,2.732v59.06a3.266,3.266,0,0,1-3.266,3.266H162.092a2.732,2.732,0,0,1-2.732-2.732V131.222a2.732,2.732,0,0,1,2.732-2.732Z" transform="translate(-58.927 -110.796)" fill="#fff"/>
      <path id="Trazado_806521" data-name="Trazado 806521" d="M162.35,128.49h116.9a2.991,2.991,0,0,1,2.991,2.991v10.98H159.36V131.515a2.99,2.99,0,0,1,2.991-3.025Z" transform="translate(-58.927 -110.796)" fill="#e0e0e0"/>
      <path id="Trazado_806522" data-name="Trazado 806522" d="M278.754,193.528a5.854,5.854,0,0,0,.939-.164,3.4,3.4,0,0,0,2.077-1.724,3.723,3.723,0,0,0,.379-1.982v-8.73c0-9.377,0-22.933-.069-39.687v-9.756a2.585,2.585,0,0,0-1.491-2.585,3.447,3.447,0,0,0-1.612-.241H162.857a4.852,4.852,0,0,0-1.138.078,2.81,2.81,0,0,0-2.129,2.292,7.232,7.232,0,0,0,0,1.155v57.69a3.275,3.275,0,0,0,2.025,3.146,4.749,4.749,0,0,0,1.991.233h60.956l39.687.069h10.79l-10.79.043-39.687.069-58.871.052h-2.086a5.317,5.317,0,0,1-2.146-.267,3.714,3.714,0,0,1-2.292-3.533V132.2a7.394,7.394,0,0,1,.043-1.224,3.215,3.215,0,0,1,2.465-2.654,4.748,4.748,0,0,1,1.241-.095H279a3.585,3.585,0,0,1,1.724.276,2.965,2.965,0,0,1,1.724,2.922v9.756c0,16.754-.052,30.31-.069,39.687v8.73a5.052,5.052,0,0,1-.069,1.094,3.836,3.836,0,0,1-.336.931,3.525,3.525,0,0,1-2.155,1.724,2.835,2.835,0,0,1-1.06.181Z" transform="translate(-58.899 -110.758)" fill="#263238"/>
      <circle id="Elipse_4759" data-name="Elipse 4759" cx="2.292" cy="2.292" r="2.292" transform="translate(107.285 23.476)" fill="#fff"/>
      <path id="Trazado_806523" data-name="Trazado 806523" d="M180.055,137.492a2.284,2.284,0,1,1-.666-1.62A2.292,2.292,0,0,1,180.055,137.492Z" transform="translate(-61.153 -111.724)" fill="#fff"/>
      <circle id="Elipse_4760" data-name="Elipse 4760" cx="2.292" cy="2.292" r="2.292" transform="translate(121.367 23.476)" fill="#fff"/>
      <path id="Trazado_806524" data-name="Trazado 806524" d="M197.9,167.044h-14.28a1.543,1.543,0,0,1-1.551-1.543h0a1.543,1.543,0,0,1,1.551-1.551H197.9a1.551,1.551,0,0,1,1.551,1.551h0a1.551,1.551,0,0,1-1.551,1.543Z" transform="translate(-62.065 -115.696)" fill="#263238"/>
      <path id="Trazado_806525" data-name="Trazado 806525" d="M197.9,176.5h-14.28a1.551,1.551,0,0,1-1.551-1.551h0a1.551,1.551,0,0,1,1.551-1.551H197.9a1.56,1.56,0,0,1,1.551,1.551h0A1.56,1.56,0,0,1,197.9,176.5Z" transform="translate(-62.065 -117.002)" fill="#e0e0e0"/>
      <path id="Trazado_806526" data-name="Trazado 806526" d="M281.047,167.044H239.611a1.551,1.551,0,0,1-1.551-1.543h0a1.551,1.551,0,0,1,1.551-1.551h41.436A1.551,1.551,0,0,1,282.6,165.5h0a1.551,1.551,0,0,1-1.551,1.543Z" transform="translate(-69.802 -115.696)" fill="#e0e0e0"/>
      <path id="Trazado_806527" data-name="Trazado 806527" d="M197.9,186.193h-14.28a1.551,1.551,0,0,1-1.551-1.551h0a1.543,1.543,0,0,1,1.551-1.551H197.9a1.551,1.551,0,0,1,1.551,1.551h0a1.56,1.56,0,0,1-1.551,1.551Z" transform="translate(-62.065 -118.341)" fill="#4be5f1"/>
      <path id="Trazado_806528" data-name="Trazado 806528" d="M273.932,176.5H259.643a1.551,1.551,0,0,1-1.543-1.551h0a1.551,1.551,0,0,1,1.543-1.551h14.289a1.56,1.56,0,0,1,1.551,1.551h0a1.56,1.56,0,0,1-1.551,1.551Z" transform="translate(-72.571 -117.002)" fill="#4be5f1"/>
      <path id="Trazado_806529" data-name="Trazado 806529" d="M224.46,167.044H210.171a1.551,1.551,0,0,1-1.551-1.543h0a1.551,1.551,0,0,1,1.551-1.551H224.46A1.543,1.543,0,0,1,226,165.5h0A1.543,1.543,0,0,1,224.46,167.044Z" transform="translate(-65.734 -115.696)" fill="#455a64"/>
      <path id="Trazado_806530" data-name="Trazado 806530" d="M242.86,176.5H210.171a1.56,1.56,0,0,1-1.551-1.551h0a1.56,1.56,0,0,1,1.551-1.551H242.86a1.551,1.551,0,0,1,1.551,1.551h0A1.551,1.551,0,0,1,242.86,176.5Z" transform="translate(-65.734 -117.002)" fill="#263238"/>
      <path id="Trazado_806531" data-name="Trazado 806531" d="M274.928,186.193H210.1a1.517,1.517,0,0,1-1.482-1.551h0a1.517,1.517,0,0,1,1.482-1.551h64.826a1.508,1.508,0,0,1,1.474,1.551h0a1.517,1.517,0,0,1-1.474,1.551Z" transform="translate(-65.734 -118.341)" fill="#e0e0e0"/>
      <path id="Trazado_806532" data-name="Trazado 806532" d="M242.179,193.043H210.171a1.56,1.56,0,0,1-1.551-1.551h0a1.56,1.56,0,0,1,1.551-1.551h32.008a1.551,1.551,0,0,1,1.551,1.551h0a1.551,1.551,0,0,1-1.551,1.551Z" transform="translate(-65.734 -119.288)" fill="#e0e0e0"/>
      <path id="Trazado_806533" data-name="Trazado 806533" d="M175.234,165.5a1.577,1.577,0,1,1-1.577-1.577,1.577,1.577,0,0,1,1.577,1.577Z" transform="translate(-60.684 -115.692)" fill="#455a64"/>
      <path id="Trazado_806534" data-name="Trazado 806534" d="M175.234,156.487a1.569,1.569,0,1,1-.459-1.118A1.577,1.577,0,0,1,175.234,156.487Z" transform="translate(-60.684 -114.447)" fill="#455a64"/>
      <circle id="Elipse_4761" data-name="Elipse 4761" cx="1.577" cy="1.577" r="1.577" transform="translate(111.396 56.311)" fill="#455a64"/>
      <circle id="Elipse_4762" data-name="Elipse 4762" cx="1.577" cy="1.577" r="1.577" transform="translate(111.396 64.723)" fill="#455a64"/>
      <rect id="Rectángulo_375719" data-name="Rectángulo 375719" width="10.445" height="2.99" rx="0.96" transform="translate(120.324 40.178)" fill="#455a64"/>
    </g>
    <g id="freepik--Drink--inject-2" transform="translate(52.141 334.331)">
      <path id="Trazado_806535" data-name="Trazado 806535" d="M85.444,432.543c-7.188,3.128-14.117,3.447-20.684,0l-4.8-40.273H89.8Z" transform="translate(-58.305 -384.151)" fill="#6f4439"/>
      <path id="Trazado_806536" data-name="Trazado 806536" d="M87.6,388.661l-.862-2.878L64.2,383a1.319,1.319,0,0,0-1.4.862l-1.629,4.749H58.3v5.214a85.992,85.992,0,0,0,32.361,0v-5.214Z" transform="translate(-58.076 -382.868)" fill="#e0e0e0"/>
      <path id="Trazado_806537" data-name="Trazado 806537" d="M87.566,388.641a.586.586,0,0,1,.207,0H90.7v.086c0,1.344,0,3.1.052,5.214v.1h-.1a75.485,75.485,0,0,1-13.892,1.586A94.907,94.907,0,0,1,58.35,394.1h-.31v-5.628h3.1l-.207.147c.543-1.586,1.086-3.137,1.6-4.654a1.551,1.551,0,0,1,.862-.991,1.594,1.594,0,0,1,.664-.121,5.949,5.949,0,0,1,.595.069l2.275.284,8.308.991L86.7,385.677h.052v.052c.259.9.465,1.62.621,2.137.06.224.112.414.155.56a1.31,1.31,0,0,1,0,.207.672.672,0,0,1-.069-.172l-.19-.534c-.181-.526-.414-1.232-.724-2.146l.069.06-11.445-1.31-8.265-.974-2.275-.276a1.948,1.948,0,0,0-1.051,0,1.112,1.112,0,0,0-.638.741l-1.594,4.662-.052.147H58.264l.224-.224v5.214l-.181-.224h.121a97.133,97.133,0,0,0,18.322,1.525,78.821,78.821,0,0,0,13.841-1.456l-.1.138c0-2.111,0-3.87.052-5.214l.086.086-2.3-.052h-.577Z" transform="translate(-58.04 -382.849)" fill="#263238"/>
      <path id="Trazado_806538" data-name="Trazado 806538" d="M87.707,421.562c-7.808,1.258-16.374,1.077-25.536,0L60.93,409.35a126.61,126.61,0,0,0,28.276,0Z" transform="translate(-58.439 -386.511)" fill="#ae7461"/>
      <path id="Trazado_806539" data-name="Trazado 806539" d="M75.1,413.9a2.706,2.706,0,0,0-1.051,3.447l.81,1.724a2.706,2.706,0,0,0,3.327,1.422Z" transform="translate(-60.218 -387.14)" fill="#6f4439"/>
      <path id="Trazado_806540" data-name="Trazado 806540" d="M75.94,413.588l3.085,6.636a2.723,2.723,0,0,0,1.051-3.447l-.81-1.724a2.715,2.715,0,0,0-3.327-1.465Z" transform="translate(-60.514 -387.078)" fill="#6f4439"/>
      <path id="Trazado_806541" data-name="Trazado 806541" d="M88.308,389.656a4.9,4.9,0,0,1-1.017.3c-.655.172-1.62.379-2.827.595a54.508,54.508,0,0,1-19.02,0c-1.2-.224-2.163-.431-2.827-.612a5.448,5.448,0,0,1-1.017-.31,4.859,4.859,0,0,1,1.051.138c.672.129,1.646.293,2.844.465a64.825,64.825,0,0,0,18.917,0c1.207-.172,2.18-.336,2.844-.457a4.537,4.537,0,0,1,1.051-.121Z" transform="translate(-58.532 -383.786)" fill="#263238"/>
    </g>
    <g id="freepik--Device--inject-2" transform="translate(91.426 280.269)">
      <path id="Trazado_806542" data-name="Trazado 806542" d="M109.464,320.16s-4.921,1.06-5.774,4.559,6.895,87.043,7.162,89.069c.491,3.2,3.189,7.265,9.256,7.041,5.3-.19,77.443,0,95.6,0,2.422,0,3.87-2.051,4.188-4.5h0l-89.327-5.274Z" transform="translate(-103.624 -320.124)" fill="#e0e0e0"/>
      <path id="Trazado_806543" data-name="Trazado 806543" d="M107.8,322.958l7.756,90.094a2.922,2.922,0,0,0,2.853,2.629l102.082.457-19.615-19.46-66.308-.465-7.093-70.591a2.215,2.215,0,0,0-1.724-1.922l-14.858-3.447a2.585,2.585,0,0,0-3.094,2.706Z" transform="translate(-104.2 -320.129)" fill="#e0e0e0"/>
      <path id="Trazado_806544" data-name="Trazado 806544" d="M107.8,322.947a2.112,2.112,0,0,1,0-.44,2.4,2.4,0,0,1,.4-1.215,2.586,2.586,0,0,1,1.724-1.146,3.24,3.24,0,0,1,1.362.112l1.508.345,7.886,1.81,5,1.155a2.344,2.344,0,0,1,1.887,2.008c.095.965.2,1.956.3,2.973,1.663,16.374,4.033,39.643,6.895,67.635l-.19-.181,66.317.44h.086l.069.069,19.606,19.451.388.388h-5.067L141.133,416l-16.805-.086h-6.067a3.1,3.1,0,0,1-1.913-.819,3.059,3.059,0,0,1-.957-1.827c-.078-.664-.121-1.3-.181-1.956-.1-1.293-.215-2.585-.327-3.852-.862-10.187-1.672-19.684-2.4-28.345-1.456-17.331-2.637-31.353-3.447-41.048-.4-4.843-.707-8.618-.914-11.161-.1-1.275-.172-2.241-.224-2.9s-.069-.991-.069-.991.052.328.112.982.155,1.637.267,2.9c.233,2.585.569,6.317,1,11.152.862,9.7,2.086,23.717,3.6,41.031.75,8.67,1.577,18.158,2.456,28.345q.164,1.913.336,3.852c.06.646.1,1.31.172,1.939a2.827,2.827,0,0,0,.862,1.6,2.758,2.758,0,0,0,1.724.707h6.05l16.805.069,74.823.319h4.525l-.164.379L200.7,396.821l.155.069-66.308-.5h-.172v-.172c-2.784-27.992-5.093-51.313-6.714-67.644-.1-1.017-.207-2.008-.3-2.973a2.137,2.137,0,0,0-1.724-1.844l-5-1.172-7.868-1.87-1.508-.353a3.1,3.1,0,0,0-1.319-.129,2.585,2.585,0,0,0-1.724,1.095,2.413,2.413,0,0,0-.414,1.189C107.79,322.8,107.815,322.947,107.8,322.947Z" transform="translate(-104.199 -320.118)" fill="#263238"/>
      <path id="Trazado_806545" data-name="Trazado 806545" d="M193.2,426.306h9.489l-12-15.556H185.06Z" transform="translate(-114.877 -332.642)" fill="#263238"/>
      <path id="Trazado_806546" data-name="Trazado 806546" d="M111.869,327.922l7.248,78.322,13.548-10.773-5.86-65.929a1.138,1.138,0,0,0-.974-1.034l-12.66-1.81a1.146,1.146,0,0,0-1.3,1.224Z" transform="translate(-104.763 -321.026)" fill="#263238"/>
      <path id="Trazado_806547" data-name="Trazado 806547" d="M128.7,426.306h9.79l9.954-15.556h-5.636Z" transform="translate(-107.089 -332.642)" fill="#263238"/>
      <path id="Trazado_806548" data-name="Trazado 806548" d="M142.65,426.306h9.489l5.2-15.556H151.7Z" transform="translate(-109.017 -332.642)" fill="#263238"/>
      <path id="Trazado_806549" data-name="Trazado 806549" d="M156.12,426.306h9.489l.508-15.556h-5.628Z" transform="translate(-110.878 -332.642)" fill="#263238"/>
      <path id="Trazado_806550" data-name="Trazado 806550" d="M168.62,426.306h9.489L174.6,410.75h-5.628Z" transform="translate(-112.605 -332.642)" fill="#263238"/>
      <path id="Trazado_806551" data-name="Trazado 806551" d="M181.02,426.306h9.489l-7.73-15.556H177.15Z" transform="translate(-113.784 -332.642)" fill="#263238"/>
      <path id="Trazado_806552" data-name="Trazado 806552" d="M194.638,425.259c0,.078-14.47.138-32.318.138s-32.309-.06-32.309-.138,14.461-.129,32.309-.129S194.638,425.19,194.638,425.259Z" transform="translate(-107.27 -334.629)" fill="#e0e0e0"/>
      <path id="Trazado_806553" data-name="Trazado 806553" d="M193.158,421.979c0,.078-13.737.138-30.689.138s-30.689-.06-30.689-.138,13.737-.129,30.689-.129S193.158,421.884,193.158,421.979Z" transform="translate(-107.515 -334.176)" fill="#e0e0e0"/>
      <path id="Trazado_806554" data-name="Trazado 806554" d="M193.742,418.957c0,.147-12.927.267-28.871.267S136,419.078,136,418.957s12.927-.267,28.879-.267S193.742,418.785,193.742,418.957Z" transform="translate(-108.098 -333.739)" fill="#e0e0e0"/>
      <path id="Trazado_806555" data-name="Trazado 806555" d="M194.359,416.186c0,.147-12.651.267-28.25.267s-28.259-.121-28.259-.267,12.651-.276,28.259-.276S194.359,416.031,194.359,416.186Z" transform="translate(-108.353 -333.355)" fill="#e0e0e0"/>
      <path id="Trazado_806556" data-name="Trazado 806556" d="M195.88,414.186c0,.147-12.738.267-28.44.267s-28.44-.121-28.44-.267,12.729-.276,28.44-.276S195.88,414.031,195.88,414.186Z" transform="translate(-108.512 -333.079)" fill="#e0e0e0"/>
      <path id="Trazado_806557" data-name="Trazado 806557" d="M197.29,412.087c0,.155-12.97.276-28.966.276s-28.974-.121-28.974-.276,12.927-.267,28.974-.267S197.29,411.975,197.29,412.087Z" transform="translate(-108.561 -332.79)" fill="#e0e0e0"/>
      <path id="Trazado_806558" data-name="Trazado 806558" d="M118.44,425.288l17.719-16.538" transform="translate(-105.671 -332.366)" fill="#e0e0e0"/>
      <path id="Trazado_806559" data-name="Trazado 806559" d="M136.164,408.75c.086.086-3.809,3.861-8.687,8.429s-8.911,8.2-9,8.11,3.8-3.861,8.687-8.437S136.044,408.655,136.164,408.75Z" transform="translate(-105.677 -332.365)" fill="#263238"/>
    </g>
    <g id="freepik--Character--inject-2" transform="translate(156.658 150.248)">
      <path id="Trazado_806560" data-name="Trazado 806560" d="M466.163,334.561s-.862-9.152-23.665-15c-11.005-2.827-37.282-4.18-40.255,12.927-.095.552-13.082,107.96-13.082,107.96h48.581Z" transform="translate(-208.313 -189.784)" fill="#455a64"/>
      <path id="Trazado_806561" data-name="Trazado 806561" d="M465.987,441.861H443.58l7.481-105.193c.552-5.119,5.852-8.816,11.841-8.248l2.008.19c5.981.569,9.782,6.334,9.609,12.927Z" transform="translate(-215.833 -191.237)" fill="#455a64"/>
      <path id="Trazado_806562" data-name="Trazado 806562" d="M445.529,440.829c-.129,0,1.456-20.744,3.533-46.3s3.861-46.271,3.982-46.262-1.456,20.735-3.533,46.3S445.649,440.838,445.529,440.829Z" transform="translate(-216.101 -193.987)" fill="#263238"/>
      <path id="Trazado_806563" data-name="Trazado 806563" d="M470.855,331.278a23.444,23.444,0,0,0-3.154-.741,11.816,11.816,0,0,0-12.5,7.17,24.234,24.234,0,0,0-.948,3.094,2.971,2.971,0,0,1,.043-.862,10.345,10.345,0,0,1,.612-2.336,11.652,11.652,0,0,1,12.841-7.36,10.21,10.21,0,0,1,2.327.646A2.911,2.911,0,0,1,470.855,331.278Z" transform="translate(-217.305 -191.474)" fill="#263238"/>
      <path id="Trazado_806564" data-name="Trazado 806564" d="M383.871,177.489c.233-6.162-3.947-6.989-7.162-6.283a10.9,10.9,0,0,0-13.4.733,9.7,9.7,0,0,0-14.341,8.437,8.1,8.1,0,0,0-6.584,13.892A7.756,7.756,0,0,0,346.2,209.29L384,184.116C386.266,181.729,383.75,180.781,383.871,177.489Z" transform="translate(-201.084 -169.25)" fill="#263238"/>
      <path id="Trazado_806565" data-name="Trazado 806565" d="M346.266,211.934A33.042,33.042,0,0,1,378.1,180.4l1.724-.06c18.469.422,28.44,16.374,27.5,34.8l-.483,61.482-.121,11.678-42.229,10.04L364.063,274s-17.822-2.12-18.667-19.822C344.956,245.631,345.551,227.947,346.266,211.934Z" transform="translate(-202.244 -170.782)" fill="#ae7461"/>
      <path id="Trazado_806566" data-name="Trazado 806566" d="M366.88,287.778a43.039,43.039,0,0,0,22.976-7.618s-5.007,12.927-22.743,11.979Z" transform="translate(-205.234 -184.576)" fill="#6f4439"/>
      <path id="Trazado_806567" data-name="Trazado 806567" d="M352.42,237.378a2.525,2.525,0,0,0,2.525,2.465,2.422,2.422,0,0,0,2.525-2.379A2.525,2.525,0,0,0,354.945,235a2.413,2.413,0,0,0-2.525,2.379Z" transform="translate(-203.236 -178.335)" fill="#263238"/>
      <path id="Trazado_806568" data-name="Trazado 806568" d="M350.994,227.546c.319.31,2.189-1.172,4.912-1.258s4.766,1.2,5.05.862c.138-.155-.2-.741-1.094-1.336a6.9,6.9,0,0,0-4.059-1.095,6.619,6.619,0,0,0-3.9,1.413C351.106,226.779,350.847,227.382,350.994,227.546Z" transform="translate(-203.033 -176.914)" fill="#263238"/>
      <path id="Trazado_806569" data-name="Trazado 806569" d="M377.81,236.728a2.534,2.534,0,0,0,2.534,2.465,2.422,2.422,0,0,0,2.525-2.379,2.525,2.525,0,0,0-2.525-2.465,2.422,2.422,0,0,0-2.534,2.379Z" transform="translate(-206.744 -178.245)" fill="#263238"/>
      <path id="Trazado_806570" data-name="Trazado 806570" d="M381.221,226c.319.319,2.189-1.163,4.912-1.258s4.766,1.207,5.05.862c.138-.155-.2-.741-1.094-1.344a6.981,6.981,0,0,0-4.059-1.095,6.722,6.722,0,0,0-3.9,1.413C381.324,225.255,381.022,225.866,381.221,226Z" transform="translate(-207.207 -176.7)" fill="#263238"/>
      <path id="Trazado_806571" data-name="Trazado 806571" d="M370.53,246.6c0-.155-1.724-.388-4.447-.646-.7-.043-1.362-.155-1.5-.629a3.533,3.533,0,0,1,.4-2.077q.862-2.585,1.862-5.369c2.585-7.636,4.438-13.91,4.128-14.013s-2.654,6.033-5.24,13.651l-1.793,5.421a4.059,4.059,0,0,0-.267,2.741,1.724,1.724,0,0,0,1.181.974,4.749,4.749,0,0,0,1.189.121C368.815,246.8,370.53,246.76,370.53,246.6Z" transform="translate(-204.773 -176.797)" fill="#263238"/>
      <path id="Trazado_806572" data-name="Trazado 806572" d="M379.65,252.1c-.448,0-.345,2.947-2.8,5.171s-5.61,1.974-5.619,2.387c0,.19.715.552,2.051.534a7.325,7.325,0,0,0,4.7-1.827,6.4,6.4,0,0,0,2.163-4.309C380.227,252.8,379.874,252.074,379.65,252.1Z" transform="translate(-205.835 -180.698)" fill="#263238"/>
      <path id="Trazado_806573" data-name="Trazado 806573" d="M380.855,216.984c.353.689,2.672,0,5.524-.078s5.248.448,5.516-.259c.112-.345-.388-.974-1.4-1.534a8.489,8.489,0,0,0-4.309-.965,8.257,8.257,0,0,0-4.145,1.215C381.131,215.993,380.7,216.648,380.855,216.984Z" transform="translate(-207.161 -175.453)" fill="#263238"/>
      <path id="Trazado_806574" data-name="Trazado 806574" d="M351.41,218.865c.457.646,2.361.086,4.611.164s4.145.612,4.619,0c.207-.3-.069-.939-.862-1.56a6.688,6.688,0,0,0-7.437-.121C351.505,217.934,351.212,218.555,351.41,218.865Z" transform="translate(-203.088 -175.748)" fill="#263238"/>
      <path id="Trazado_806575" data-name="Trazado 806575" d="M348.059,203.437s4.309-11.264,9.54-14.039c6.369-3.37,9.411,3.645,15.513,1.724s12.186-5.171,18.667-.621c7.084,4.973,3.982,8.756,4.688,16.6,2.861,31.818,9.006,40.617,10.126,25.544.121-1.646,4.645-3.12,5.067-10.092.56-9.04.517-19.994-1.724-26.32-1.887-5.326-5.093-8.946-10.747-12.858-8.928-6.171-20.882-5.886-28.974-4.774S346.826,189.57,348.059,203.437Z" transform="translate(-202.623 -170.455)" fill="#263238"/>
      <path id="Trazado_806576" data-name="Trazado 806576" d="M414.661,240.1a4.809,4.809,0,0,1,5.024-4.818c3.318.2,7.067,1.939,7.084,8.782.052,12.126-12.134,9.67-12.16,9.316S414.635,245.173,414.661,240.1Z" transform="translate(-211.828 -178.373)" fill="#ae7461"/>
      <path id="Trazado_806577" data-name="Trazado 806577" d="M417.649,249.455c.06,0,.215.147.577.31a2.146,2.146,0,0,0,1.577,0c1.276-.474,2.353-2.516,2.4-4.7a6.947,6.947,0,0,0-.595-3.025,2.465,2.465,0,0,0-1.6-1.62,1.069,1.069,0,0,0-1.241.586c-.164.336-.086.577-.147.6s-.259-.207-.164-.707a1.3,1.3,0,0,1,.474-.758,1.543,1.543,0,0,1,1.163-.31,2.947,2.947,0,0,1,2.215,1.87,7.145,7.145,0,0,1,.741,3.378c-.06,2.439-1.31,4.731-3.059,5.248a2.267,2.267,0,0,1-1.93-.319C417.674,249.731,417.614,249.455,417.649,249.455Z" transform="translate(-212.248 -179.002)" fill="#6f4439"/>
      <path id="Trazado_806578" data-name="Trazado 806578" d="M405.633,208.075a12.023,12.023,0,0,1-5.05,2.585c-1.887.293-4.094-.758-4.481-2.629-.172-.862,0-1.818-.577-2.448-.689-.758-1.9-.474-2.913-.327A7.756,7.756,0,0,1,384.389,200c-.862,1.379-2.947,1.388-4.309.56a18.933,18.933,0,0,1-3.447-3.4c-1.129-1.181-2.637-2.223-4.232-1.939a11.948,11.948,0,0,1-2.585.681c-1.6-.086-2.439-1.922-2.741-3.447s-.552-3.447-1.922-4.223-2.887-.233-4.309,0-3.352,0-3.783-1.422a2.853,2.853,0,0,1,.465-2.215,7.834,7.834,0,0,1,9.152-3.3,10.643,10.643,0,0,1,19.468-2.758,10.807,10.807,0,0,1,17.391,3.318,7.825,7.825,0,0,1,9.152,11.014c2.223,1.172,4.163,3.266,4.309,5.774s-2.223,5.085-4.662,4.516a4.328,4.328,0,1,1-7.343,4.585" transform="translate(-203.869 -169.81)" fill="#263238"/>
      <path id="Trazado_806579" data-name="Trazado 806579" d="M419.386,207.88a2.93,2.93,0,0,1-.672,2.353,3.861,3.861,0,0,1-2.379,1.534,4.18,4.18,0,0,1-3.49-.862l.509-.095a11.989,11.989,0,0,1-2.31,3.111,6.9,6.9,0,0,1-2.155,1.448,5.4,5.4,0,0,1-6.033-1.569,6.894,6.894,0,0,1-1.069-2.482,2.326,2.326,0,0,1-.129-.974,3.431,3.431,0,0,1,.388.862,7.99,7.99,0,0,0,1.2,2.267c1.215,1.724,4.981,2.456,7.291-.086a12.271,12.271,0,0,0,2.2-2.913l.207-.362.31.267a3.654,3.654,0,0,0,2.947.862,3.585,3.585,0,0,0,2.155-1.232,6.033,6.033,0,0,0,1.034-2.129Z" transform="translate(-210.039 -174.588)" fill="#455a64"/>
      <path id="Trazado_806580" data-name="Trazado 806580" d="M245.4,391.766s-22.864-.681-24.234-1.112a14.53,14.53,0,0,0-6.334,0c-1.629.517-8.136,2.827-8.136,2.827l-13.789,3.68s-13.867,9.04-13.591,10.859,1.8,3.059,4.309,2.12,15.013-7.455,15.013-7.455l13.789-1.456s18.8,6.757,22.605,6.421,13.531-1.982,13.531-1.982,1.37-9.747.681-11.29S245.4,391.766,245.4,391.766Z" transform="translate(-179.315 -199.796)" fill="#ae7461"/>
      <path id="Trazado_806581" data-name="Trazado 806581" d="M180.449,416.947s11.591-12.419,14.8-14.091,21.08-4.611,21.08-4.611,5.722-2.37,7.817-1.534,24.286,4.188,25.26,4.309-4.74,19.546-4.74,19.546a45.255,45.255,0,0,1-16.616-.7c-8.928-2.094-12.005-4.887-12.005-4.887l-8.911-2.344-5.464,2.077s-.974,8.084-4.887,7.662l-1.81-1.258,1.4-8.928-5.722,2.37s-4.473,6.7-7.817,5.722S180.449,416.947,180.449,416.947Z" transform="translate(-179.454 -200.657)" fill="#ae7461"/>
      <path id="Trazado_806582" data-name="Trazado 806582" d="M180.438,416.93a3,3,0,0,0-.086.974,2.155,2.155,0,0,0,.431,1.086,3.18,3.18,0,0,0,1.31.957,3.3,3.3,0,0,0,2.008.293,6.178,6.178,0,0,0,2.224-1.129,20.381,20.381,0,0,0,4.206-4.619h0l5.714-2.387.233-.1v.25c-.414,2.689-.862,5.705-1.37,8.937l-.069-.155,1.81,1.25h-.078a2.585,2.585,0,0,0,2.017-.733,6.033,6.033,0,0,0,1.336-1.939,17.736,17.736,0,0,0,1.336-4.835v-.112l.1-.043,5.447-2.086h.121l8.928,2.327h.052a23.27,23.27,0,0,0,6.171,3.146,52.309,52.309,0,0,0,7.024,1.956,45.666,45.666,0,0,0,7.5.862,42.521,42.521,0,0,0,7.756-.431l-.172.155c.4-1.37.862-2.835,1.241-4.309,1.232-4.4,2.465-8.713,3.352-12.988a14.744,14.744,0,0,0,.25-1.586,2.531,2.531,0,0,0,0-.362c0-.06-.052-.086,0,0h-.1l-.8-.121-3.189-.483-6.248-.982c-4.094-.664-8.067-1.319-11.884-2.043-.948-.2-1.879-.362-2.827-.646a5.222,5.222,0,0,0-2.68-.086,27.437,27.437,0,0,0-5.171,1.551h-.043c-6.24,1.043-11.953,2.077-16.943,3.266a31.024,31.024,0,0,0-3.542,1.043,10.737,10.737,0,0,0-2.818,1.9c-1.724,1.431-3.154,2.844-4.473,4.12-2.637,2.585-4.637,4.637-6.033,6.033l-1.56,1.612c-.362.362-.552.534-.552.534s.164-.2.508-.577l1.517-1.646c1.353-1.422,3.335-3.525,5.947-6.11,1.31-1.284,2.766-2.715,4.456-4.163.422-.362.862-.733,1.327-1.077a6.567,6.567,0,0,1,1.551-.862,31.622,31.622,0,0,1,3.585-1.069c5-1.224,10.7-2.275,16.952-3.353h-.043a27.9,27.9,0,0,1,5.248-1.594,5.679,5.679,0,0,1,2.887.095c.862.267,1.827.431,2.766.629,3.8.715,7.756,1.353,11.876,2.008l6.248.974,3.189.491.8.121h.267a.448.448,0,0,1,.2.345,2.589,2.589,0,0,1,0,.448,14.562,14.562,0,0,1-.25,1.646c-.862,4.309-2.129,8.618-3.361,13.022-.422,1.482-.862,2.956-1.241,4.309v.138h-.138a42.124,42.124,0,0,1-7.834.431,44.7,44.7,0,0,1-7.567-.862,50.754,50.754,0,0,1-7.084-1.982,32.075,32.075,0,0,1-3.3-1.387,16.091,16.091,0,0,1-3.008-1.844l.086.043-8.911-2.353h.121l-5.464,2.077.121-.155a17.84,17.84,0,0,1-1.388,4.947A6.231,6.231,0,0,1,199,421.739a2.965,2.965,0,0,1-2.284.819h-.043l-1.81-1.258-.086-.06v-.1c.508-3.223.991-6.24,1.413-8.928l.2.155-5.731,2.353.052-.043a20.314,20.314,0,0,1-4.309,4.637,6.353,6.353,0,0,1-2.3,1.129,3.387,3.387,0,0,1-2.094-.327,3.18,3.18,0,0,1-1.336-1.017,2.189,2.189,0,0,1-.422-1.138,1.939,1.939,0,0,1,.19-1.026Z" transform="translate(-179.443 -200.64)" fill="#6f4439"/>
      <path id="Trazado_806583" data-name="Trazado 806583" d="M218.113,407.815a3.782,3.782,0,0,1-.862,0c-.56-.043-1.37-.121-2.379-.224l-3.516-.4-1.017-.112a3.052,3.052,0,0,0-1.008,0,21.2,21.2,0,0,0-2.172.448c-2.9.862-5.817,1.4-6.895,3.128a6.594,6.594,0,0,0-1.034,2.086c-.155.534-.2.862-.224.862a1.9,1.9,0,0,1,.06-.862,5.783,5.783,0,0,1,.948-2.223,5.223,5.223,0,0,1,1.181-1.215,6.55,6.55,0,0,1,1.724-.862,43.54,43.54,0,0,1,4.163-1.284,19.231,19.231,0,0,1,2.223-.457,3.757,3.757,0,0,1,1.12,0l1.008.138,3.516.483c1,.146,1.8.276,2.361.371A2.92,2.92,0,0,1,218.113,407.815Z" transform="translate(-182.033 -202.056)" fill="#6f4439"/>
      <path id="Trazado_806584" data-name="Trazado 806584" d="M185.08,413.412a8.081,8.081,0,0,1,.957-.965c.646-.595,1.594-1.431,2.792-2.43s2.654-2.172,4.309-3.387c.862-.6,1.724-1.224,2.706-1.81a16.269,16.269,0,0,1,1.543-.81,13.635,13.635,0,0,1,1.724-.543,90.29,90.29,0,0,1,12.065-2.068l3.671-.457a8.258,8.258,0,0,1,1.353-.112,7.319,7.319,0,0,1-1.327.284l-3.645.595a111.059,111.059,0,0,0-11.979,2.189,13.133,13.133,0,0,0-1.646.526,15.38,15.38,0,0,0-1.5.776c-.957.569-1.844,1.172-2.689,1.767-1.724,1.189-3.146,2.327-4.369,3.292l-2.878,2.318A8.745,8.745,0,0,1,185.08,413.412Z" transform="translate(-180.112 -201.25)" fill="#6f4439"/>
      <path id="Trazado_806585" data-name="Trazado 806585" d="M339.3,319.784a133.262,133.262,0,0,0-10.919,18.426c-4.145,8.618-17.538,37.963-17.538,37.963l-54.579,2.861.81,21.089s52.709,18.779,64.507,15.151,24.372-17.236,24.372-17.236l5.645-88.939S346.914,308.227,339.3,319.784Z" transform="translate(-189.948 -188.572)" fill="#4be5f1"/>
      <path id="Trazado_806586" data-name="Trazado 806586" d="M361.646,306.8s-14,31.741-16.038,45.185c-4.059,26.716-5.421,43.392-5.421,43.392l-4.757,41.307h93.205s3.085-76.555,1.1-102.22c-1.482-19.236-16.219-31.215-22.243-37.791a59.008,59.008,0,0,1-2.017-5.783l-43.435,11.126Z" transform="translate(-200.888 -186.058)" fill="#4be5f1"/>
      <path id="Trazado_806587" data-name="Trazado 806587" d="M357.232,314.94a1.163,1.163,0,0,1-.1.3c-.095.215-.207.508-.362.862l-1.388,3.318c-1.2,2.878-2.93,7.058-4.671,12.367a147.234,147.234,0,0,0-4.818,18.96c-1.388,7.248-2.508,15.289-3.447,23.76-1.724,16.961-3.266,32.31-4.4,43.444-.577,5.541-1.043,10.031-1.37,13.16-.172,1.534-.3,2.732-.4,3.577-.052.4-.086.7-.112.931a2.079,2.079,0,0,1-.06.319,2.224,2.224,0,0,1,0-.319c0-.233.043-.543.069-.939.078-.862.181-2.042.31-3.585.293-3.137.715-7.627,1.232-13.177,1.077-11.117,2.5-26.492,4.309-43.461.931-8.472,2.068-16.53,3.447-23.786a143.469,143.469,0,0,1,4.921-19.012c1.784-5.3,3.559-9.48,4.809-12.333.621-1.439,1.129-2.542,1.474-3.284.164-.362.293-.638.4-.862A2.6,2.6,0,0,1,357.232,314.94Z" transform="translate(-200.981 -189.382)" fill="#263238"/>
      <g id="Grupo_1066839" data-name="Grupo 1066839" transform="translate(136.231 153.705)" opacity="0.3">
        <path id="Trazado_806588" data-name="Trazado 806588" d="M405.835,369.421c-.862-8.454-4.662-16.943-11.617-21.821L337.39,428.749c10.032,5.412,21.175,11,32.318,8.618,6.033-1.284,11.324-4.818,15.651-9.17,8.989-9.04,13.867-21.356,17.288-33.611C404.93,386.382,406.689,377.876,405.835,369.421Z" transform="translate(-337.39 -347.6)"/>
      </g>
      <path id="Trazado_806589" data-name="Trazado 806589" d="M400.7,354.011c-7.076,25.053-23.01,55.622-27.906,61.766a38,38,0,0,1-29.733,14.591c-6.412,0-60.6-10.557-76.7-13.712a6.894,6.894,0,0,1-5.4-5.335l-.138-.664-7.2-1.965,3.852-19.4.767-1.077,77.5,2.439h0l22.545-62.8c.431-.715,6.938-21.787,24.6-20.83" transform="translate(-189.583 -188.284)" fill="#4be5f1"/>
      <path id="Trazado_806590" data-name="Trazado 806590" d="M382.842,307.049h-.586a16.193,16.193,0,0,0-1.724.043,19.435,19.435,0,0,0-6.515,1.543,23.649,23.649,0,0,0-8.506,6.558,42.678,42.678,0,0,0-7.153,12.746h0c-5.7,15.909-13.427,37.523-22.485,62.818l-.043.138h-.147l-77.469-2.43.19-.095-.767,1.077v-.086c-1.112,5.61-2.292,11.574-3.447,17.607l-.353,1.793-.164-.267,7.231,1.948.138.043v.129a7.041,7.041,0,0,0,2.129,4.18,6.694,6.694,0,0,0,1.982,1.267,11.873,11.873,0,0,0,2.318.595l9.48,1.853,18.529,3.559c12.143,2.3,23.838,4.49,35,6.377,2.792.465,5.55.862,8.273,1.293,1.362.172,2.723.362,4.059.422a32.809,32.809,0,0,0,4.016-.2,38.108,38.108,0,0,0,14.651-4.7,39.109,39.109,0,0,0,10.936-9.325,53.341,53.341,0,0,0,3.758-5.671c1.129-1.922,2.2-3.826,3.206-5.7a306.316,306.316,0,0,0,16.616-36.619c1.637-4.447,2.809-7.937,3.551-10.342.362-1.181.646-2.086.862-2.706s.293-.914.293-.914-.078.31-.25.922l-.793,2.723c-.715,2.387-1.862,5.886-3.447,10.342a300.529,300.529,0,0,1-16.512,36.7c-1,1.879-2.068,3.783-3.189,5.714a52.06,52.06,0,0,1-3.783,5.722,39.291,39.291,0,0,1-11.091,9.463,38.454,38.454,0,0,1-14.78,4.766,31.893,31.893,0,0,1-4.068.207c-1.379-.06-2.732-.25-4.1-.422-2.732-.388-5.5-.862-8.291-1.284-11.2-1.879-22.864-4.059-35.016-6.352l-18.529-3.559-9.48-1.844a12.106,12.106,0,0,1-2.4-.62,6.947,6.947,0,0,1-2.12-1.353,7.5,7.5,0,0,1-2.267-4.412l.164.172-7.231-1.948-.2-.06v-.2c.112-.569.241-1.181.362-1.793,1.2-6.033,2.379-12,3.447-17.607v-.052h0l.767-1.077.069-.095h.25l77.5,2.465-.19.129,22.614-62.775h0a42.418,42.418,0,0,1,7.222-12.738,23.587,23.587,0,0,1,8.618-6.558,19.217,19.217,0,0,1,6.558-1.491,12.861,12.861,0,0,1,1.724,0Z" transform="translate(-189.542 -188.29)" fill="#263238"/>
      <path id="Trazado_806591" data-name="Trazado 806591" d="M327.671,396.781a28.567,28.567,0,0,0-3.74-5.481,28.2,28.2,0,0,0-5.171-4.119,5.981,5.981,0,0,1,1.8.819,16.538,16.538,0,0,1,3.732,2.991,16.771,16.771,0,0,1,2.723,3.93,6.437,6.437,0,0,1,.655,1.862Z" transform="translate(-198.584 -199.364)" fill="#263238"/>
      <path id="Trazado_806592" data-name="Trazado 806592" d="M358.318,419.306c-.078,0-.233-.991-.681-2.585a24.536,24.536,0,0,0-2.542-5.791,24.052,24.052,0,0,0-3.99-4.9c-1.181-1.12-2.008-1.724-1.965-1.775a2.293,2.293,0,0,1,.629.353,15.52,15.52,0,0,1,1.551,1.181,20.994,20.994,0,0,1,6.627,10.859,13.133,13.133,0,0,1,.336,1.922,2.385,2.385,0,0,1,.034.741Z" transform="translate(-202.782 -201.723)" fill="#263238"/>
      <g id="Grupo_1066840" data-name="Grupo 1066840" transform="translate(134.861 149.267)" opacity="0.3">
        <path id="Trazado_806593" data-name="Trazado 806593" d="M335.8,395.081l4.507.172c.733-17.71,4.378-35.334,7.5-52.8C339.851,358.7,337.765,377.1,335.8,395.081Z" transform="translate(-335.8 -342.45)"/>
      </g>
      <path id="Trazado_806594" data-name="Trazado 806594" d="M410.4,297.6a1.56,1.56,0,0,1-.431.147l-1.241.345-4.568,1.215c-3.852,1.026-9.17,2.491-15.082,3.982s-11.316,2.646-15.263,3.292c-1.974.327-3.577.56-4.688.672l-1.284.129a1.6,1.6,0,0,1-.448,0,1.725,1.725,0,0,1,.44-.1l1.267-.215c1.1-.164,2.7-.448,4.654-.81,3.921-.724,9.308-1.922,15.211-3.447s11.2-2.913,15.116-3.861c1.939-.474,3.516-.862,4.611-1.077l1.258-.259A1.725,1.725,0,0,1,410.4,297.6Z" transform="translate(-205.306 -186.984)" fill="#263238"/>
    </g>
  </g>
</svg>
