<svg xmlns="http://www.w3.org/2000/svg" xmlns:xlink="http://www.w3.org/1999/xlink" width="340.006" height="398" viewBox="0 0 340.006 398">
  <defs>
    <clipPath id="clip-path">
      <rect id="Rectángulo_375180" data-name="Rectángulo 375180" width="340.006" height="398" fill="none"/>
    </clipPath>
  </defs>
  <g id="Grupo_1066190" data-name="Grupo 1066190" transform="translate(-59.994)">
    <g id="Grupo_1066189" data-name="Grupo 1066189" transform="translate(59.994)" clip-path="url(#clip-path)">
      <path id="Trazado_802403" data-name="Trazado 802403" d="M234.575,239.6H.5V14.123A7.812,7.812,0,0,1,8.312,6.311H226.763a7.812,7.812,0,0,1,7.812,7.812Z" transform="translate(-0.042 -0.525)" fill="#451484"/>
      <path id="Trazado_802404" data-name="Trazado 802404" d="M234.533,240.014H.458A.459.459,0,0,1,0,239.555V14.082A8.28,8.28,0,0,1,8.271,5.811H226.721a8.28,8.28,0,0,1,8.271,8.271V239.555a.459.459,0,0,1-.458.458M.917,239.1H234.075V14.082a7.362,7.362,0,0,0-7.354-7.354H8.271A7.362,7.362,0,0,0,.917,14.082Z" transform="translate(0 -0.483)" fill="#263238"/>
      <path id="Trazado_802405" data-name="Trazado 802405" d="M240.386,233.786H6.311V8.312A7.812,7.812,0,0,1,14.123.5H232.574a7.812,7.812,0,0,1,7.812,7.812Z" transform="translate(-0.525 -0.042)" fill="#fff"/>
      <path id="Trazado_802406" data-name="Trazado 802406" d="M240.344,234.2H6.269a.459.459,0,0,1-.458-.458V8.271A8.28,8.28,0,0,1,14.082,0H232.532A8.28,8.28,0,0,1,240.8,8.271V233.745a.458.458,0,0,1-.458.458M6.728,233.287H239.886V8.271A7.362,7.362,0,0,0,232.532.917H14.082A7.363,7.363,0,0,0,6.728,8.271Z" transform="translate(-0.483)" fill="#263238"/>
      <path id="Trazado_802407" data-name="Trazado 802407" d="M240.386,22.8H6.311V8.312A7.812,7.812,0,0,1,14.123.5H232.574a7.812,7.812,0,0,1,7.812,7.812Z" transform="translate(-0.525 -0.042)" fill="#4be5f1"/>
      <path id="Trazado_802408" data-name="Trazado 802408" d="M240.344,23.215H6.269a.459.459,0,0,1-.458-.458V8.271A8.28,8.28,0,0,1,14.082,0H232.532A8.28,8.28,0,0,1,240.8,8.271V22.756a.458.458,0,0,1-.458.458M6.728,22.3H239.886V8.271A7.362,7.362,0,0,0,232.532.917H14.082A7.362,7.362,0,0,0,6.728,8.271Z" transform="translate(-0.483)" fill="#263238"/>
      <path id="Trazado_802409" data-name="Trazado 802409" d="M219.9,13.1a3.635,3.635,0,1,0-3.635,3.634A3.635,3.635,0,0,0,219.9,13.1" transform="translate(-17.687 -0.788)" fill="#fff"/>
      <path id="Trazado_802410" data-name="Trazado 802410" d="M216.226,17.154a4.093,4.093,0,1,1,4.093-4.093,4.1,4.1,0,0,1-4.093,4.093m0-7.269a3.176,3.176,0,1,0,3.176,3.176,3.18,3.18,0,0,0-3.176-3.176" transform="translate(-17.646 -0.746)" fill="#263238"/>
      <path id="Trazado_802411" data-name="Trazado 802411" d="M231.793,13.1a3.634,3.634,0,1,0-3.634,3.634,3.635,3.635,0,0,0,3.634-3.634" transform="translate(-18.677 -0.788)" fill="#fff"/>
      <path id="Trazado_802412" data-name="Trazado 802412" d="M228.117,17.154a4.093,4.093,0,1,1,4.093-4.093,4.1,4.1,0,0,1-4.093,4.093m0-7.269a3.176,3.176,0,1,0,3.176,3.176,3.179,3.179,0,0,0-3.176-3.176" transform="translate(-18.635 -0.746)" fill="#263238"/>
      <path id="Trazado_802413" data-name="Trazado 802413" d="M243.684,13.1a3.634,3.634,0,1,0-3.634,3.634,3.635,3.635,0,0,0,3.634-3.634" transform="translate(-19.666 -0.788)" fill="#fb405f"/>
      <path id="Trazado_802414" data-name="Trazado 802414" d="M240.008,17.154a4.093,4.093,0,1,1,4.092-4.093,4.1,4.1,0,0,1-4.092,4.093m0-7.269a3.176,3.176,0,1,0,3.175,3.176,3.18,3.18,0,0,0-3.175-3.176" transform="translate(-19.624 -0.746)" fill="#263238"/>
      <path id="Trazado_802415" data-name="Trazado 802415" d="M49.595,40.609H32.383a1.375,1.375,0,1,1,0-2.75H49.595a1.375,1.375,0,1,1,0,2.75" transform="translate(-2.579 -3.149)" fill="#263238"/>
      <path id="Trazado_802416" data-name="Trazado 802416" d="M97.044,51.636H32.383a1.375,1.375,0,1,1,0-2.75h64.66a1.375,1.375,0,0,1,0,2.75" transform="translate(-2.579 -4.067)" fill="#c4c4c4"/>
      <path id="Trazado_802417" data-name="Trazado 802417" d="M206.133,51.636H141.472a1.375,1.375,0,0,1,0-2.75h64.661a1.375,1.375,0,1,1,0,2.75" transform="translate(-11.654 -4.067)" fill="#c4c4c4"/>
      <path id="Trazado_802418" data-name="Trazado 802418" d="M133.062,51.636H107.476a1.375,1.375,0,1,1,0-2.75h25.586a1.375,1.375,0,0,1,0,2.75" transform="translate(-8.826 -4.067)" fill="#263238"/>
      <path id="Trazado_802419" data-name="Trazado 802419" d="M69.6,62.664H32.383a1.375,1.375,0,1,1,0-2.75H69.6a1.375,1.375,0,1,1,0,2.75" transform="translate(-2.579 -4.984)" fill="#263238"/>
      <path id="Trazado_802420" data-name="Trazado 802420" d="M115.263,62.664H78.048a1.375,1.375,0,0,1,0-2.75h37.214a1.375,1.375,0,1,1,0,2.75" transform="translate(-6.378 -4.984)" fill="#263238"/>
      <path id="Trazado_802421" data-name="Trazado 802421" d="M160.929,62.664H123.713a1.375,1.375,0,1,1,0-2.75h37.215a1.375,1.375,0,1,1,0,2.75" transform="translate(-10.177 -4.984)" fill="#263238"/>
      <path id="Trazado_802422" data-name="Trazado 802422" d="M185.2,62.664H169.379a1.375,1.375,0,0,1,0-2.75H185.2a1.375,1.375,0,1,1,0,2.75" transform="translate(-13.975 -4.984)" fill="#263238"/>
      <path id="Trazado_802423" data-name="Trazado 802423" d="M73.442,40.609H56.23a1.375,1.375,0,0,1,0-2.75H73.442a1.375,1.375,0,1,1,0,2.75" transform="translate(-4.563 -3.149)" fill="#263238"/>
      <path id="Trazado_802424" data-name="Trazado 802424" d="M185.069,40.609H167.857a1.375,1.375,0,0,1,0-2.75h17.211a1.375,1.375,0,1,1,0,2.75" transform="translate(-13.849 -3.149)" fill="#263238"/>
      <path id="Trazado_802425" data-name="Trazado 802425" d="M160.207,40.609H143a1.375,1.375,0,0,1,0-2.75h17.211a1.375,1.375,0,0,1,0,2.75" transform="translate(-11.78 -3.149)" fill="#c4c4c4"/>
      <path id="Trazado_802426" data-name="Trazado 802426" d="M130.318,40.609H80.077a1.375,1.375,0,1,1,0-2.75h50.241a1.375,1.375,0,0,1,0,2.75" transform="translate(-6.547 -3.149)" fill="#263238"/>
      <path id="Trazado_802427" data-name="Trazado 802427" d="M49.595,107.936H32.383a1.375,1.375,0,1,1,0-2.75H49.595a1.375,1.375,0,1,1,0,2.75" transform="translate(-2.579 -8.75)" fill="#263238"/>
      <path id="Trazado_802428" data-name="Trazado 802428" d="M97.044,118.964H32.383a1.375,1.375,0,1,1,0-2.75h64.66a1.375,1.375,0,0,1,0,2.75" transform="translate(-2.579 -9.667)" fill="#c4c4c4"/>
      <path id="Trazado_802429" data-name="Trazado 802429" d="M206.133,118.964H141.472a1.375,1.375,0,0,1,0-2.75h64.661a1.375,1.375,0,1,1,0,2.75" transform="translate(-11.654 -9.667)" fill="#263238"/>
      <path id="Trazado_802430" data-name="Trazado 802430" d="M133.062,118.964H107.476a1.375,1.375,0,1,1,0-2.75h25.586a1.375,1.375,0,0,1,0,2.75" transform="translate(-8.826 -9.667)" fill="#263238"/>
      <path id="Trazado_802431" data-name="Trazado 802431" d="M69.6,129.992H32.383a1.375,1.375,0,0,1,0-2.75H69.6a1.375,1.375,0,1,1,0,2.75" transform="translate(-2.579 -10.584)" fill="#263238"/>
      <path id="Trazado_802432" data-name="Trazado 802432" d="M115.263,129.992H78.048a1.375,1.375,0,0,1,0-2.75h37.214a1.375,1.375,0,0,1,0,2.75" transform="translate(-6.378 -10.584)" fill="#263238"/>
      <path id="Trazado_802433" data-name="Trazado 802433" d="M160.929,129.992H123.713a1.375,1.375,0,0,1,0-2.75h37.215a1.375,1.375,0,1,1,0,2.75" transform="translate(-10.177 -10.584)" fill="#c4c4c4"/>
      <path id="Trazado_802434" data-name="Trazado 802434" d="M185.2,129.992H169.379a1.375,1.375,0,0,1,0-2.75H185.2a1.375,1.375,0,1,1,0,2.75" transform="translate(-13.975 -10.584)" fill="#263238"/>
      <path id="Trazado_802435" data-name="Trazado 802435" d="M73.442,107.936H56.23a1.375,1.375,0,1,1,0-2.75H73.442a1.375,1.375,0,1,1,0,2.75" transform="translate(-4.563 -8.75)" fill="#263238"/>
      <path id="Trazado_802436" data-name="Trazado 802436" d="M185.069,107.936H167.857a1.375,1.375,0,0,1,0-2.75h17.211a1.375,1.375,0,1,1,0,2.75" transform="translate(-13.849 -8.75)" fill="#263238"/>
      <path id="Trazado_802437" data-name="Trazado 802437" d="M160.207,107.936H143a1.375,1.375,0,0,1,0-2.75h17.211a1.375,1.375,0,0,1,0,2.75" transform="translate(-11.78 -8.75)" fill="#c4c4c4"/>
      <path id="Trazado_802438" data-name="Trazado 802438" d="M130.318,107.936H80.077a1.375,1.375,0,1,1,0-2.75h50.241a1.375,1.375,0,0,1,0,2.75" transform="translate(-6.547 -8.75)" fill="#263238"/>
      <path id="Trazado_802439" data-name="Trazado 802439" d="M49.595,207.186H32.383a1.375,1.375,0,1,1,0-2.75H49.595a1.375,1.375,0,1,1,0,2.75" transform="translate(-2.579 -17.006)" fill="#263238"/>
      <path id="Trazado_802440" data-name="Trazado 802440" d="M97.044,218.214H32.383a1.375,1.375,0,0,1,0-2.75h64.66a1.375,1.375,0,0,1,0,2.75" transform="translate(-2.579 -17.923)" fill="#c4c4c4"/>
      <path id="Trazado_802441" data-name="Trazado 802441" d="M206.133,218.214H141.472a1.375,1.375,0,0,1,0-2.75h64.661a1.375,1.375,0,1,1,0,2.75" transform="translate(-11.654 -17.923)" fill="#263238"/>
      <path id="Trazado_802442" data-name="Trazado 802442" d="M133.062,218.214H107.476a1.375,1.375,0,1,1,0-2.75h25.586a1.375,1.375,0,0,1,0,2.75" transform="translate(-8.826 -17.923)" fill="#263238"/>
      <path id="Trazado_802443" data-name="Trazado 802443" d="M69.6,229.242H32.383a1.375,1.375,0,1,1,0-2.75H69.6a1.375,1.375,0,1,1,0,2.75" transform="translate(-2.579 -18.84)" fill="#263238"/>
      <path id="Trazado_802444" data-name="Trazado 802444" d="M115.263,229.242H78.048a1.375,1.375,0,1,1,0-2.75h37.214a1.375,1.375,0,1,1,0,2.75" transform="translate(-6.378 -18.84)" fill="#263238"/>
      <path id="Trazado_802445" data-name="Trazado 802445" d="M160.929,229.242H123.713a1.375,1.375,0,1,1,0-2.75h37.215a1.375,1.375,0,1,1,0,2.75" transform="translate(-10.177 -18.84)" fill="#c4c4c4"/>
      <path id="Trazado_802446" data-name="Trazado 802446" d="M185.2,229.242H169.379a1.375,1.375,0,0,1,0-2.75H185.2a1.375,1.375,0,1,1,0,2.75" transform="translate(-13.975 -18.84)" fill="#263238"/>
      <path id="Trazado_802447" data-name="Trazado 802447" d="M73.442,207.186H56.23a1.375,1.375,0,1,1,0-2.75H73.442a1.375,1.375,0,1,1,0,2.75" transform="translate(-4.563 -17.006)" fill="#263238"/>
      <path id="Trazado_802448" data-name="Trazado 802448" d="M185.069,207.186H167.857a1.375,1.375,0,0,1,0-2.75h17.211a1.375,1.375,0,1,1,0,2.75" transform="translate(-13.849 -17.006)" fill="#263238"/>
      <path id="Trazado_802449" data-name="Trazado 802449" d="M160.207,207.186H143a1.375,1.375,0,0,1,0-2.75h17.211a1.375,1.375,0,0,1,0,2.75" transform="translate(-11.78 -17.006)" fill="#c4c4c4"/>
      <path id="Trazado_802450" data-name="Trazado 802450" d="M130.318,207.186H80.077a1.375,1.375,0,1,1,0-2.75h50.241a1.375,1.375,0,0,1,0,2.75" transform="translate(-6.547 -17.006)" fill="#263238"/>
      <path id="Trazado_802451" data-name="Trazado 802451" d="M155.133,74.273H137.92a1.375,1.375,0,1,1,0-2.75h17.212a1.375,1.375,0,1,1,0,2.75" transform="translate(-11.358 -5.95)" fill="#263238"/>
      <path id="Trazado_802452" data-name="Trazado 802452" d="M130.271,74.273H113.058a1.375,1.375,0,0,1,0-2.75h17.212a1.375,1.375,0,1,1,0,2.75" transform="translate(-9.29 -5.95)" fill="#263238"/>
      <path id="Trazado_802453" data-name="Trazado 802453" d="M100.381,74.273H50.141a1.375,1.375,0,0,1,0-2.75h50.24a1.375,1.375,0,0,1,0,2.75" transform="translate(-4.057 -5.95)" fill="#263238"/>
      <path id="Trazado_802454" data-name="Trazado 802454" d="M155.133,94.007H137.92a1.375,1.375,0,1,1,0-2.75h17.212a1.375,1.375,0,1,1,0,2.75" transform="translate(-11.358 -7.591)" fill="#263238"/>
      <path id="Trazado_802455" data-name="Trazado 802455" d="M130.271,94.007H113.058a1.375,1.375,0,0,1,0-2.75h17.212a1.375,1.375,0,1,1,0,2.75" transform="translate(-9.29 -7.591)" fill="#263238"/>
      <path id="Trazado_802456" data-name="Trazado 802456" d="M100.381,94.007H50.141a1.375,1.375,0,0,1,0-2.75h50.24a1.375,1.375,0,0,1,0,2.75" transform="translate(-4.057 -7.591)" fill="#c4c4c4"/>
      <path id="Trazado_802457" data-name="Trazado 802457" d="M67.354,84.139H50.142a1.375,1.375,0,0,1,0-2.75H67.354a1.375,1.375,0,0,1,0,2.75" transform="translate(-4.057 -6.77)" fill="#263238"/>
      <path id="Trazado_802458" data-name="Trazado 802458" d="M92.216,84.139H75a1.375,1.375,0,0,1,0-2.75H92.216a1.375,1.375,0,0,1,0,2.75" transform="translate(-6.125 -6.77)" fill="#263238"/>
      <path id="Trazado_802459" data-name="Trazado 802459" d="M152.136,84.139H101.9a1.375,1.375,0,0,1,0-2.75h50.241a1.375,1.375,0,1,1,0,2.75" transform="translate(-8.362 -6.77)" fill="#c4c4c4"/>
      <path id="Trazado_802460" data-name="Trazado 802460" d="M155.133,143.341H137.92a1.375,1.375,0,1,1,0-2.75h17.212a1.375,1.375,0,1,1,0,2.75" transform="translate(-11.358 -11.695)" fill="#263238"/>
      <path id="Trazado_802461" data-name="Trazado 802461" d="M130.271,143.341H113.058a1.375,1.375,0,0,1,0-2.75h17.212a1.375,1.375,0,1,1,0,2.75" transform="translate(-9.29 -11.695)" fill="#263238"/>
      <path id="Trazado_802462" data-name="Trazado 802462" d="M100.381,143.341H50.141a1.375,1.375,0,0,1,0-2.75h50.24a1.375,1.375,0,0,1,0,2.75" transform="translate(-4.057 -11.695)" fill="#263238"/>
      <path id="Trazado_802463" data-name="Trazado 802463" d="M155.133,163.075H137.92a1.375,1.375,0,1,1,0-2.75h17.212a1.375,1.375,0,1,1,0,2.75" transform="translate(-11.358 -13.336)" fill="#263238"/>
      <path id="Trazado_802464" data-name="Trazado 802464" d="M130.271,163.075H113.058a1.375,1.375,0,1,1,0-2.75h17.212a1.375,1.375,0,1,1,0,2.75" transform="translate(-9.29 -13.336)" fill="#263238"/>
      <path id="Trazado_802465" data-name="Trazado 802465" d="M100.381,163.075H50.141a1.375,1.375,0,1,1,0-2.75h50.24a1.375,1.375,0,1,1,0,2.75" transform="translate(-4.057 -13.336)" fill="#c4c4c4"/>
      <path id="Trazado_802466" data-name="Trazado 802466" d="M67.354,153.208H50.142a1.375,1.375,0,1,1,0-2.75H67.354a1.375,1.375,0,1,1,0,2.75" transform="translate(-4.057 -12.516)" fill="#263238"/>
      <path id="Trazado_802467" data-name="Trazado 802467" d="M92.216,153.208H75a1.375,1.375,0,0,1,0-2.75H92.216a1.375,1.375,0,1,1,0,2.75" transform="translate(-6.125 -12.516)" fill="#263238"/>
      <path id="Trazado_802468" data-name="Trazado 802468" d="M152.136,153.208H101.9a1.375,1.375,0,1,1,0-2.75h50.241a1.375,1.375,0,1,1,0,2.75" transform="translate(-8.362 -12.516)" fill="#c4c4c4"/>
      <path id="Trazado_802469" data-name="Trazado 802469" d="M67.354,174.683H50.142a1.375,1.375,0,1,1,0-2.75H67.354a1.375,1.375,0,1,1,0,2.75" transform="translate(-4.057 -14.302)" fill="#263238"/>
      <path id="Trazado_802470" data-name="Trazado 802470" d="M92.216,174.683H75a1.375,1.375,0,0,1,0-2.75H92.216a1.375,1.375,0,1,1,0,2.75" transform="translate(-6.125 -14.302)" fill="#263238"/>
      <path id="Trazado_802471" data-name="Trazado 802471" d="M152.136,174.683H101.9a1.375,1.375,0,1,1,0-2.75h50.241a1.375,1.375,0,1,1,0,2.75" transform="translate(-8.362 -14.302)" fill="#c4c4c4"/>
      <path id="Trazado_802472" data-name="Trazado 802472" d="M67.354,194.417H50.142a1.375,1.375,0,1,1,0-2.75H67.354a1.375,1.375,0,1,1,0,2.75" transform="translate(-4.057 -15.944)" fill="#263238"/>
      <path id="Trazado_802473" data-name="Trazado 802473" d="M92.216,194.417H75a1.375,1.375,0,0,1,0-2.75H92.216a1.375,1.375,0,1,1,0,2.75" transform="translate(-6.125 -15.944)" fill="#263238"/>
      <path id="Trazado_802474" data-name="Trazado 802474" d="M152.136,194.417H101.9a1.375,1.375,0,1,1,0-2.75h50.241a1.375,1.375,0,1,1,0,2.75" transform="translate(-8.362 -15.944)" fill="#c4c4c4"/>
      <path id="Trazado_802475" data-name="Trazado 802475" d="M155.133,184.55H137.92a1.375,1.375,0,1,1,0-2.75h17.212a1.375,1.375,0,1,1,0,2.75" transform="translate(-11.358 -15.123)" fill="#263238"/>
      <path id="Trazado_802476" data-name="Trazado 802476" d="M130.271,184.55H113.058a1.375,1.375,0,1,1,0-2.75h17.212a1.375,1.375,0,1,1,0,2.75" transform="translate(-9.29 -15.123)" fill="#263238"/>
      <path id="Trazado_802477" data-name="Trazado 802477" d="M100.381,184.55H50.141a1.375,1.375,0,1,1,0-2.75h50.24a1.375,1.375,0,1,1,0,2.75" transform="translate(-4.057 -15.123)" fill="#c4c4c4"/>
      <g id="Grupo_1066192" data-name="Grupo 1066192" transform="translate(17.923 32.574)">
        <rect id="Rectángulo_375162" data-name="Rectángulo 375162" width="5.495" height="6.209" fill="#4be5f1"/>
        <rect id="Rectángulo_375163" data-name="Rectángulo 375163" width="5.495" height="6.209" transform="translate(0 10.201)" fill="#4be5f1"/>
        <rect id="Rectángulo_375164" data-name="Rectángulo 375164" width="5.495" height="6.209" transform="translate(0 20.4)" fill="#4be5f1"/>
        <rect id="Rectángulo_375165" data-name="Rectángulo 375165" width="5.495" height="6.209" transform="translate(0 30.601)" fill="#4be5f1"/>
        <rect id="Rectángulo_375166" data-name="Rectángulo 375166" width="5.495" height="6.209" transform="translate(0 40.8)" fill="#4be5f1"/>
        <rect id="Rectángulo_375167" data-name="Rectángulo 375167" width="5.495" height="6.209" transform="translate(0 51.001)" fill="#4be5f1"/>
        <rect id="Rectángulo_375168" data-name="Rectángulo 375168" width="5.495" height="6.209" transform="translate(0 61.2)" fill="#4be5f1"/>
        <rect id="Rectángulo_375169" data-name="Rectángulo 375169" width="5.495" height="6.209" transform="translate(0 71.401)" fill="#4be5f1"/>
        <rect id="Rectángulo_375170" data-name="Rectángulo 375170" width="5.495" height="6.209" transform="translate(0 81.601)" fill="#4be5f1"/>
        <rect id="Rectángulo_375171" data-name="Rectángulo 375171" width="5.495" height="6.209" transform="translate(0 91.801)" fill="#4be5f1"/>
        <rect id="Rectángulo_375172" data-name="Rectángulo 375172" width="5.495" height="6.209" transform="translate(0 102.002)" fill="#4be5f1"/>
        <rect id="Rectángulo_375173" data-name="Rectángulo 375173" width="5.495" height="6.209" transform="translate(0 112.201)" fill="#4be5f1"/>
        <rect id="Rectángulo_375174" data-name="Rectángulo 375174" width="5.495" height="6.209" transform="translate(0 122.402)" fill="#4be5f1"/>
        <rect id="Rectángulo_375175" data-name="Rectángulo 375175" width="5.495" height="6.209" transform="translate(0 132.602)" fill="#4be5f1"/>
        <rect id="Rectángulo_375176" data-name="Rectángulo 375176" width="5.495" height="6.209" transform="translate(0 142.802)" fill="#4be5f1"/>
        <rect id="Rectángulo_375177" data-name="Rectángulo 375177" width="5.495" height="6.209" transform="translate(0 153.003)" fill="#4be5f1"/>
        <rect id="Rectángulo_375178" data-name="Rectángulo 375178" width="5.495" height="6.209" transform="translate(0 163.203)" fill="#4be5f1"/>
        <rect id="Rectángulo_375179" data-name="Rectángulo 375179" width="5.495" height="6.209" transform="translate(0 173.403)" fill="#4be5f1"/>
      </g>
      <path id="Trazado_802478" data-name="Trazado 802478" d="M257.417,223.074l-7.406,103.579-2,63.177s-3.137.571-3.137,2.567.285,5.417.285,7.984-4.561,15.4-4.561,15.4h21.1s-.285-7.413,0-11.975.285-6.843.855-7.984,2-3.992,2-6.559.569-8.269.854-11.12S284.8,279.891,284.8,279.891s3.992,52.465,4.847,60.163.285,20.021.57,28.575,5.7,33.931,5.7,33.931-1.14,11.975-1.14,13.4H333.27s1.426-2,0-2.566-4.277-1.141-5.131-1.426-15.112-11.405-15.112-11.405.284-5.418,0-6.273-2.852-3.993-2.852-6.844,3.707-30.855,3.707-45.4V310.685c0-5.989.57-66.152.57-66.152l-.57-23.1Z" transform="translate(-20.014 -18.42)" fill="#263238"/>
      <path id="Trazado_802479" data-name="Trazado 802479" d="M333.229,416.378H294.736a.459.459,0,0,1-.458-.458c0-1.39,1.033-12.294,1.136-13.375-.314-1.479-5.422-25.665-5.7-33.942-.106-3.208-.094-6.875-.081-10.758a175.678,175.678,0,0,0-.487-17.782c-.721-6.489-3.7-45.2-4.6-56.862-3.356,16.771-18.48,92.443-18.73,94.942-.278,2.771-.854,8.532-.854,11.074,0,2.675-1.432,5.54-2.044,6.763-.414.827-.509,2.523-.665,5.331-.04.74-.086,1.563-.144,2.476-.28,4.486,0,11.855,0,11.929a.459.459,0,0,1-.458.477h-21.1a.459.459,0,0,1-.433-.612c1.57-4.413,4.536-13.276,4.536-15.243,0-1.353-.079-2.928-.156-4.451-.067-1.33-.129-2.586-.129-3.533,0-1.919,2.244-2.7,3.147-2.934l1.985-62.824L256.918,223a.458.458,0,0,1,.444-.425l56.465-1.637a.45.45,0,0,1,.328.126.457.457,0,0,1,.143.322l.57,23.1c-.005.618-.57,60.247-.57,66.163v31.365c0,10.1-1.8,26.833-2.876,36.83-.482,4.48-.831,7.718-.831,8.568,0,1.953,1.346,4.15,2.15,5.463a7.574,7.574,0,0,1,.678,1.235c.278.831.1,4.906.036,6.2,5.617,4.38,14.06,10.87,14.8,11.19.286.1.87.238,1.545.4a31.769,31.769,0,0,1,3.6,1.028,1.375,1.375,0,0,1,.862.9,3.28,3.28,0,0,1-.659,2.358.457.457,0,0,1-.372.192m-38.019-.917h37.771a2.148,2.148,0,0,0,.4-1.375.466.466,0,0,0-.322-.307,31.041,31.041,0,0,0-3.478-.987c-.695-.171-1.3-.318-1.629-.429-.862-.287-11.889-8.859-15.248-11.479a.459.459,0,0,1-.176-.386,41.321,41.321,0,0,0,.023-6.1,8.353,8.353,0,0,0-.59-1.046c-.854-1.4-2.285-3.731-2.285-5.943,0-.9.351-4.158.836-8.667,1.074-9.978,2.871-26.677,2.871-36.731V310.643c0-5.921.565-65.554.57-66.156l-.558-22.621-55.59,1.612-7.377,103.166L248.432,389.8a.46.46,0,0,1-.376.436c-.027,0-2.761.526-2.761,2.115,0,.924.062,2.169.128,3.488.077,1.534.157,3.121.157,4.5,0,2.317-3.455,12.319-4.373,14.939h19.978c-.057-1.715-.226-7.679.017-11.546.057-.911.1-1.732.144-2.469.168-3.026.26-4.693.759-5.691.533-1.065,1.947-3.895,1.947-6.354,0-2.588.579-8.38.857-11.163.285-2.843,18.616-94.4,19.4-98.3a.451.451,0,0,1,.478-.367.458.458,0,0,1,.429.423c.04.524,4,52.545,4.846,60.147a176.083,176.083,0,0,1,.492,17.887c-.014,3.874-.026,7.533.08,10.724.281,8.416,5.639,33.6,5.693,33.851a.479.479,0,0,1,.008.14c-.011.11-.981,10.313-1.122,12.9m-47.237-25.674h0Z" transform="translate(-19.973 -18.378)" fill="#263238"/>
      <path id="Trazado_802480" data-name="Trazado 802480" d="M255.881,220.609s.228,6.4,1.651,7.585,22.538,3.559,37.011,3.084,20.231-3.408,21.18-6.255-.892-7.409-.892-7.409l-57.062-1.046a8.315,8.315,0,0,0-1.889,4.04" transform="translate(-21.285 -18.015)" fill="#fb405f"/>
      <path id="Trazado_802481" data-name="Trazado 802481" d="M290.541,231.758c-13.9,0-31.85-2.007-33.344-3.252-1.537-1.281-1.791-7.246-1.815-7.921a.458.458,0,0,1,.006-.1,8.736,8.736,0,0,1,2.012-4.277.5.5,0,0,1,.337-.138l57.062,1.046a.459.459,0,0,1,.416.287c.078.193,1.893,4.752.9,7.725-1.255,3.764-9.129,6.159-21.6,6.568-1.273.041-2.6.061-3.975.061M256.3,220.6c.091,2.4.569,6.436,1.484,7.2,1.2.978,21.814,3.466,36.7,2.978,17.618-.578,20.344-4.694,20.761-5.941.754-2.264-.409-5.8-.777-6.812l-56.537-1.036A8.212,8.212,0,0,0,256.3,220.6" transform="translate(-21.244 -17.974)" fill="#263238"/>
      <path id="Trazado_802482" data-name="Trazado 802482" d="M272.659,114.966s-22.645,8.236-25.077,9.358-4.491,2.245-4.866,3.556-12.538,31.439-12.538,31.439l-25.826-25.264s-2.994-2.993-4.678-4.3-4.679-1.123-6.737-1.5-3.556-3.555-4.3-1.684-.562,2.806.187,3.368a13.1,13.1,0,0,1,1.684,1.685,37.686,37.686,0,0,1-5.241-1.685c-1.5-.749-3.368-5.614-4.3-3.181s4.679,8.421,6.176,9.732,2.432,1.122,5.427,1.5,7.673.561,7.673.561,23.955,43.417,25.826,44.727,2.994,2.62,4.491,2.058,16.656-16.467,16.656-16.467,1.872,40.984,2.433,43.042,2.058,1.871,2.807,2.058,20.772,2.246,29.194,2.246,20.585-1.684,23.018-2.62,3.93-1.871,3.93-4.678,1.31-28.072,1.31-28.072,11.6,10.106,14.41,10.293a5.484,5.484,0,0,0,5.615-2.994c.935-1.871,14.223-47.533,14.223-47.533s6.55-5.428,6.55-5.99.936-15.907-.935-15.346-6.363,2.058-6.363,2.058,1.871-3.367.561-6.363-3.742-3.929-3.742-2.058a59.192,59.192,0,0,1-.375,8.235c-.374,1.684-1.871,5.8-1.684,8.8s.187,3.742.187,4.866S321.69,163.81,321.69,163.81s-10.292-33.312-11.415-35-18.9-10.48-18.9-10.48Z" transform="translate(-15.044 -9.312)" fill="#fff"/>
      <path id="Trazado_802483" data-name="Trazado 802483" d="M281.6,216.627c-8.261,0-28.477-2.052-29.306-2.259a3.806,3.806,0,0,0-.386-.066,2.872,2.872,0,0,1-2.752-2.317c-.523-1.919-2.094-35.461-2.4-42.072-3.664,3.833-14.682,15.28-16.086,15.806-1.422.533-2.543-.324-3.843-1.317-.332-.253-.686-.524-1.073-.795-1.875-1.312-22.857-39.253-25.84-44.656-1.026-.045-4.877-.231-7.453-.553-.583-.073-1.088-.125-1.534-.17-1.881-.193-2.825-.289-4.139-1.438-.076-.067-7.518-7.078-6.3-10.241.226-.586.551-.909.965-.962.821-.106,1.537.9,2.367,2.065a6.85,6.85,0,0,0,1.605,1.833,25.042,25.042,0,0,0,3.608,1.237,6.211,6.211,0,0,0-.532-.46c-1.3-.971-.861-2.6-.338-3.9a1.238,1.238,0,0,1,.819-.848c.624-.149,1.212.359,1.892.949a5,5,0,0,0,2.1,1.3c.568.1,1.216.162,1.9.226,1.747.16,3.726.342,5.035,1.361,1.687,1.312,4.6,4.218,4.721,4.342l25.333,24.782c4.265-10.568,11.981-29.762,12.266-30.759.406-1.421,2.338-2.565,5.115-3.846,2.422-1.119,24.187-9.036,25.113-9.372a.465.465,0,0,1,.237-.021l18.714,3.369a.464.464,0,0,1,.122.039c1.832.907,17.923,8.9,19.08,10.637,1.054,1.582,9.248,27.932,11.169,34.131,6.513-10.918,15.811-26.766,16.067-27.937,0-1.069,0-1.808-.19-4.788a24.464,24.464,0,0,1,1.275-7.363c.178-.626.33-1.163.419-1.561a59.947,59.947,0,0,0,.363-8.135,1.276,1.276,0,0,1,.935-1.4c1.156-.24,2.777,1.195,3.686,3.272a7.791,7.791,0,0,1-.136,5.783c1.437-.475,4.069-1.339,5.385-1.735a.775.775,0,0,1,.717.139c.69.538,1.409,2.733.836,15.022-.017.347-.027.567-.027.624,0,.23,0,.771-6.607,6.251-.944,3.245-13.286,45.623-14.213,47.477a5.972,5.972,0,0,1-6.056,3.246c-2.562-.171-11.25-7.459-13.97-9.792-.237,4.6-1.262,24.656-1.262,27.113,0,3.22-1.912,4.217-4.223,5.106-2.593,1-14.783,2.651-23.184,2.651m-34.435-48.264a.443.443,0,0,1,.16.029.457.457,0,0,1,.3.408c.647,14.158,1.984,41.354,2.418,42.944a1.992,1.992,0,0,0,2,1.65c.178.026.34.049.479.084.814.188,20.772,2.232,29.084,2.232,8.658,0,20.637-1.736,22.854-2.589,2.515-.967,3.636-1.81,3.636-4.25,0-2.787,1.258-27.063,1.311-28.1a.459.459,0,0,1,.759-.322c4.617,4.021,12.193,10.051,14.139,10.181a5.029,5.029,0,0,0,5.174-2.742c.726-1.451,9.6-31.677,14.193-47.457a.457.457,0,0,1,.148-.226,69.077,69.077,0,0,0,6.387-5.726c0-.112.013-.309.026-.576.56-12.018-.2-13.92-.446-14.219-1.885.569-6.233,2.018-6.277,2.033a.458.458,0,0,1-.546-.656c.017-.032,1.743-3.213.543-5.957-.88-2.011-2.176-2.84-2.659-2.742-.171.036-.206.292-.206.5a58.662,58.662,0,0,1-.385,8.334c-.092.412-.248.966-.432,1.613a23.839,23.839,0,0,0-1.242,7.055c.188,3.009.188,3.759.188,4.895S327.069,155.588,322.041,164a.451.451,0,0,1-.447.22.457.457,0,0,1-.383-.32c-4.13-13.364-10.563-33.682-11.36-34.877-.766-1.15-11.829-6.911-18.665-10.295L272.657,115.4c-1.758.639-22.627,8.239-24.925,9.3-2.2,1.017-4.289,2.117-4.617,3.265-.377,1.318-12.057,30.255-12.554,31.486a.46.46,0,0,1-.332.277.454.454,0,0,1-.414-.121l-25.826-25.264c-.033-.033-3-2.993-4.639-4.271-1.1-.853-2.856-1.015-4.556-1.171-.707-.065-1.374-.127-1.982-.237a5.727,5.727,0,0,1-2.538-1.511c-.34-.294-.91-.788-1.076-.751,0,0-.08.04-.182.3-.76,1.9-.409,2.5.036,2.832a13.43,13.43,0,0,1,1.762,1.757.459.459,0,0,1,.036.537.454.454,0,0,1-.5.2,37.4,37.4,0,0,1-5.334-1.718,6.863,6.863,0,0,1-1.941-2.121c-.424-.593-1.212-1.657-1.506-1.688,0,0-.1.054-.224.381-.734,1.91,3.966,7.4,6.05,9.221,1.094.957,1.835,1.032,3.627,1.216.452.046.964.1,1.555.172,2.94.368,7.588.557,7.634.558a.457.457,0,0,1,.383.236c9.567,17.341,24.3,43.521,25.689,44.576.4.277.76.555,1.1.816,1.327,1.013,2.062,1.527,2.964,1.187,1.06-.424,10.674-10.257,16.485-16.356a.458.458,0,0,1,.332-.142" transform="translate(-15.002 -9.27)" fill="#263238"/>
      <path id="Trazado_802484" data-name="Trazado 802484" d="M358.989,129.936a.466.466,0,0,1-.178-.036.458.458,0,0,1-.245-.6,7.622,7.622,0,0,0-.832-6.892.458.458,0,1,1,.742-.538,8.444,8.444,0,0,1,.935,7.786.457.457,0,0,1-.422.281" transform="translate(-29.75 -10.122)" fill="#263238"/>
      <path id="Trazado_802485" data-name="Trazado 802485" d="M367.3,118.092s-4.491,1.871-4.678,2.62-.561,2.619,1.123,2.619,5.01-1.3,5.643-2.5c.935-1.785-.4-3.109-2.088-2.735" transform="translate(-30.15 -9.818)" fill="#fff"/>
      <path id="Trazado_802486" data-name="Trazado 802486" d="M363.7,123.75a1.642,1.642,0,0,1-1.375-.592,2.987,2.987,0,0,1-.193-2.6c.2-.8,2.8-2.038,4.947-2.932a.581.581,0,0,1,.077-.025,2.46,2.46,0,0,1,2.536.784,2.367,2.367,0,0,1,.058,2.612c-.767,1.464-4.314,2.75-6.05,2.75m3.693-5.259c-1.943.812-4.158,1.935-4.384,2.328-.281,1.136-.1,1.6.039,1.775.046.059.187.239.653.239,1.564,0,4.7-1.233,5.237-2.259a1.492,1.492,0,0,0,.027-1.628,1.54,1.54,0,0,0-1.571-.455" transform="translate(-30.108 -9.777)" fill="#263238"/>
      <path id="Trazado_802487" data-name="Trazado 802487" d="M366.986,123.982s-4.491,1.871-4.678,2.62-.561,2.619,1.123,2.619,5.01-1.3,5.643-2.5c.935-1.785-.4-3.109-2.088-2.735" transform="translate(-30.124 -10.308)" fill="#fff"/>
      <path id="Trazado_802488" data-name="Trazado 802488" d="M363.389,129.639a1.645,1.645,0,0,1-1.375-.591,2.987,2.987,0,0,1-.193-2.6c.2-.8,2.8-2.038,4.946-2.932a.415.415,0,0,1,.077-.025,2.459,2.459,0,0,1,2.536.784,2.365,2.365,0,0,1,.058,2.611c-.767,1.465-4.313,2.75-6.049,2.75m3.693-5.259c-1.943.812-4.158,1.936-4.384,2.329-.281,1.135-.1,1.6.039,1.775.046.059.187.238.653.238,1.564,0,4.7-1.233,5.237-2.259a1.494,1.494,0,0,0,.027-1.628,1.547,1.547,0,0,0-1.57-.455" transform="translate(-30.082 -10.266)" fill="#263238"/>
      <path id="Trazado_802489" data-name="Trazado 802489" d="M366.515,128.615s-4.491,1.871-4.679,2.62-.561,2.62,1.123,2.62,5.01-1.3,5.643-2.506c.935-1.785-.4-3.109-2.088-2.735" transform="translate(-30.085 -10.693)" fill="#fff"/>
      <path id="Trazado_802490" data-name="Trazado 802490" d="M362.917,134.273a1.643,1.643,0,0,1-1.375-.592,2.99,2.99,0,0,1-.193-2.6c.2-.8,2.8-2.038,4.947-2.932a.624.624,0,0,1,.077-.025,2.464,2.464,0,0,1,2.536.784,2.367,2.367,0,0,1,.058,2.612c-.767,1.465-4.314,2.75-6.05,2.75m3.693-5.259c-1.943.812-4.158,1.935-4.384,2.328-.281,1.136-.1,1.6.039,1.775.047.06.187.239.653.239,1.564,0,4.7-1.233,5.238-2.259a1.494,1.494,0,0,0,.027-1.628,1.54,1.54,0,0,0-1.571-.455" transform="translate(-30.043 -10.652)" fill="#263238"/>
      <path id="Trazado_802491" data-name="Trazado 802491" d="M366.387,133.745s-3.274,1.364-3.411,1.91-.409,1.91.819,1.91,3.653-.944,4.114-1.825a1.312,1.312,0,0,0-1.522-1.994" transform="translate(-30.183 -11.122)" fill="#fff"/>
      <path id="Trazado_802492" data-name="Trazado 802492" d="M363.753,137.981a1.319,1.319,0,0,1-1.1-.479,2.285,2.285,0,0,1-.162-2c.047-.191.19-.769,3.678-2.222a.607.607,0,0,1,.076-.025,1.922,1.922,0,0,1,1.976.618,1.842,1.842,0,0,1,.052,2.036c-.578,1.1-3.225,2.072-4.521,2.072m2.73-3.839a13.66,13.66,0,0,0-3.129,1.645c-.182.771-.046,1.064.023,1.151.024.031.1.127.376.127,1.185,0,3.369-.931,3.708-1.58a.963.963,0,0,0,.033-1.054,1.006,1.006,0,0,0-1.01-.288" transform="translate(-30.142 -11.08)" fill="#263238"/>
      <path id="Trazado_802493" data-name="Trazado 802493" d="M340.308,164.233l-10.407-8.92c-2.9,4.908-5.2,8.772-5.2,8.772s-10.293-33.312-11.416-35-18.9-10.48-18.9-10.48l-18.714-3.368s-22.644,8.234-25.078,9.357-4.491,2.245-4.866,3.555-12.538,31.44-12.538,31.44l-7.044-6.89L217,163.432c5.706,10.062,11.207,19.516,12.065,20.117,1.871,1.31,2.994,2.619,4.491,2.058s16.656-16.469,16.656-16.469,1.871,40.984,2.433,43.044,2.058,1.871,2.806,2.058,20.773,2.245,29.2,2.245,22.842-2.946,25.274-3.881,3.93-1.872,3.93-4.679-.946-26.81-.946-26.81,11.6,10.106,14.41,10.293a5.482,5.482,0,0,0,5.614-2.994c.464-.928,3.965-12.625,7.378-24.181" transform="translate(-18.051 -9.586)" fill="#fb405f"/>
      <path id="Trazado_802494" data-name="Trazado 802494" d="M284.607,216.9c-8.26,0-28.477-2.052-29.306-2.259a3.807,3.807,0,0,0-.386-.066,2.872,2.872,0,0,1-2.752-2.317c-.523-1.919-2.094-35.461-2.4-42.072-3.664,3.833-14.682,15.28-16.086,15.806-1.421.532-2.544-.325-3.843-1.317-.332-.253-.686-.524-1.073-.795-.322-.225-1.175-.822-12.2-20.266a.459.459,0,0,1,.049-.523l9.139-10.729a.462.462,0,0,1,.328-.16.442.442,0,0,1,.342.13l6.554,6.411c4.265-10.568,11.981-29.762,12.266-30.759.406-1.421,2.338-2.565,5.115-3.846,2.422-1.119,24.186-9.036,25.112-9.372a.465.465,0,0,1,.237-.021l18.714,3.369a.464.464,0,0,1,.122.039c1.832.907,17.923,8.9,19.08,10.637,1.054,1.582,9.248,27.931,11.169,34.131.843-1.414,2.609-4.384,4.677-7.886a.457.457,0,0,1,.693-.116l10.406,8.921a.456.456,0,0,1,.141.478c-4.516,15.3-7.008,23.46-7.406,24.256a5.972,5.972,0,0,1-6.056,3.246c-2.535-.17-11.063-7.3-13.88-9.715.184,4.716.9,23.294.9,25.774,0,3.22-1.913,4.217-4.224,5.107-2.492.958-17.039,3.912-25.439,3.912m-34.435-48.264a.443.443,0,0,1,.16.029.457.457,0,0,1,.3.408c.647,14.158,1.984,41.354,2.418,42.943a1.992,1.992,0,0,0,2,1.651c.178.026.34.05.479.084.814.188,20.772,2.232,29.084,2.232s22.657-2.907,25.11-3.852c2.514-.966,3.636-1.81,3.636-4.25,0-2.766-.936-26.552-.945-26.791a.458.458,0,0,1,.759-.364c4.617,4.021,12.193,10.051,14.139,10.181a5.034,5.034,0,0,0,5.174-2.742c.209-.418,1.433-4.076,7.264-23.821l-9.766-8.371c-2.766,4.683-4.929,8.3-4.929,8.3a.458.458,0,0,1-.831-.1c-4.13-13.364-10.563-33.682-11.36-34.877-.766-1.15-11.829-6.911-18.665-10.295l-18.529-3.334c-1.758.639-22.627,8.239-24.925,9.3-2.2,1.017-4.289,2.117-4.617,3.266-.377,1.317-12.057,30.254-12.554,31.485a.46.46,0,0,1-.332.277.454.454,0,0,1-.414-.121l-6.693-6.547-8.612,10.11c9.316,16.422,11.376,19.388,11.773,19.69.4.277.76.555,1.1.816,1.328,1.013,2.061,1.527,2.965,1.187,1.059-.425,10.674-10.257,16.484-16.356a.458.458,0,0,1,.332-.142" transform="translate(-18.009 -9.545)" fill="#263238"/>
      <path id="Trazado_802495" data-name="Trazado 802495" d="M252.9,171.847a.46.46,0,0,1-.456-.408l-3.181-28.633a.458.458,0,0,1,.911-.1l3.181,28.633a.458.458,0,0,1-.4.506l-.051,0" transform="translate(-20.734 -11.837)" fill="#263238"/>
      <path id="Trazado_802496" data-name="Trazado 802496" d="M321.566,184.13h-.009a.459.459,0,0,1-.449-.468l.748-37.242a.476.476,0,0,1,.468-.449.458.458,0,0,1,.448.468l-.748,37.241a.459.459,0,0,1-.458.449" transform="translate(-26.711 -12.142)" fill="#263238"/>
      <path id="Trazado_802497" data-name="Trazado 802497" d="M284.943,135.639c5.24,6.363,9.918,11.6,9.918,11.6s7.988-17.257,10.234-25.635c-3.3-1.7-5.929-3-5.929-3l-18.714-3.368s-2.5.908-5.914,2.159c1.642,3.584,6.2,13.136,10.406,18.239" transform="translate(-22.837 -9.586)" fill="#263238"/>
      <path id="Trazado_802498" data-name="Trazado 802498" d="M294.819,147.659a.46.46,0,0,1-.342-.153c-.047-.053-4.745-5.32-9.93-11.617-4.2-5.1-8.722-14.526-10.469-18.34a.458.458,0,0,1,.259-.622c3.418-1.251,5.915-2.159,5.915-2.159a.465.465,0,0,1,.237-.021l18.714,3.368a.515.515,0,0,1,.122.04s2.633,1.3,5.935,3a.458.458,0,0,1,.234.526c-2.23,8.32-10.18,25.536-10.261,25.709a.458.458,0,0,1-.348.26.432.432,0,0,1-.068.005m-19.7-30.041c1.862,4.028,6.156,12.856,10.135,17.688,4.228,5.134,8.13,9.581,9.441,11.064,1.436-3.145,7.742-17.129,9.817-24.567-2.858-1.466-5.146-2.6-5.535-2.8l-18.528-3.334c-.5.182-2.576.937-5.331,1.945" transform="translate(-22.795 -9.545)" fill="#263238"/>
      <path id="Trazado_802499" data-name="Trazado 802499" d="M251.123,162.137a.46.46,0,0,1-.439-.326L246.2,146.939a.458.458,0,0,1,.877-.264l4.482,14.871a.457.457,0,0,1-.307.57.444.444,0,0,1-.132.02" transform="translate(-20.478 -12.174)" fill="#263238"/>
      <path id="Trazado_802500" data-name="Trazado 802500" d="M321.963,172.3a.453.453,0,0,1-.078-.005.459.459,0,0,1-.375-.529l3.464-20.371a.464.464,0,0,1,.529-.375.458.458,0,0,1,.375.529l-3.463,20.371a.459.459,0,0,1-.452.38" transform="translate(-26.744 -12.562)" fill="#263238"/>
      <path id="Trazado_802501" data-name="Trazado 802501" d="M331.072,175.143a.459.459,0,0,1-.411-.662l3.075-6.21a.458.458,0,0,1,.821.407l-3.074,6.21a.46.46,0,0,1-.412.255" transform="translate(-27.502 -13.976)" fill="#263238"/>
      <path id="Trazado_802502" data-name="Trazado 802502" d="M238.714,169.643a.458.458,0,0,1-.37-.188l-4.1-5.608a.459.459,0,1,1,.74-.542l4.1,5.609a.457.457,0,0,1-.1.64.451.451,0,0,1-.27.089" transform="translate(-19.478 -13.569)" fill="#263238"/>
      <path id="Trazado_802503" data-name="Trazado 802503" d="M202.334,137.416a.459.459,0,0,1-.3-.108c-1.041-.876-4.117-3.151-5.815-3.151-2.129,0-6.713,1.784-6.76,1.8a.459.459,0,0,1-.427-.05l-2.649-1.834a.459.459,0,1,1,.523-.754l2.449,1.7c.986-.373,4.826-1.777,6.864-1.777,2.381,0,6.244,3.23,6.407,3.367a.458.458,0,0,1-.3.809" transform="translate(-15.488 -11.083)" fill="#263238"/>
      <path id="Trazado_802504" data-name="Trazado 802504" d="M314.8,80.45s2.562,8.025,2.732,10.586-1.025,4.1-.854,5.805,2.39,5.122,1.707,6.146-4.952,1.879-4.952,1.879-1.878,9.391-3.927,9.732a71.87,71.87,0,0,1-8.708,0s-5.805,18.611-6.659,19.123-14.855-17.074-14.855-19.806,3.928-16.22,3.928-16.22l-4.44-14s-2.9-4.611,3.415-8.537,19.294-1.879,23.392-1.366,9.22,6.659,9.22,6.659" transform="translate(-23.134 -6.056)" fill="#fff"/>
      <path id="Trazado_802505" data-name="Trazado 802505" d="M294.055,134.15a.823.823,0,0,1-.4-.121c-2.056-1.164-14.873-17.257-14.873-20.154,0-2.651,3.474-14.719,3.907-16.215l-4.381-13.818a5.8,5.8,0,0,1-.557-4.065c.441-1.913,1.837-3.612,4.15-5.051,6.029-3.747,17.741-2.21,22.743-1.553l.947.122c4.229.529,9.3,6.563,9.516,6.82a.5.5,0,0,1,.085.154c.1.33,2.58,8.108,2.752,10.7a9.992,9.992,0,0,1-.5,3.59,6.032,6.032,0,0,0-.352,2.2,11.243,11.243,0,0,0,.876,2.563c.695,1.65,1.3,3.076.757,3.883-.677,1.016-3.794,1.766-4.944,2.011-.528,2.564-2.137,9.447-4.24,9.8a64.293,64.293,0,0,1-8.451.023c-2.2,7.048-5.9,18.526-6.755,19.041a.528.528,0,0,1-.277.077m-.406-60.939c-4.164,0-8.416.523-11.263,2.294-5.83,3.624-3.375,7.732-3.268,7.9a.487.487,0,0,1,.049.1l4.439,14a.456.456,0,0,1,0,.267c-.039.134-3.909,13.457-3.909,16.093,0,2.232,12.085,17.735,14.256,19.267.844-1.522,4.3-12.113,6.362-18.721a.46.46,0,0,1,.461-.321,72.193,72.193,0,0,0,8.61.006c1.072-.179,2.679-5,3.553-9.37a.456.456,0,0,1,.359-.359c1.7-.339,4.262-1.086,4.66-1.683.265-.4-.4-1.975-.839-3.019a11.347,11.347,0,0,1-.943-2.827,6.783,6.783,0,0,1,.382-2.54,9.1,9.1,0,0,0,.47-3.281c-.156-2.335-2.408-9.515-2.684-10.39-.567-.661-5.221-5.974-8.868-6.43l-.953-.124a84.3,84.3,0,0,0-10.877-.87" transform="translate(-23.092 -6.014)" fill="#263238"/>
      <path id="Trazado_802506" data-name="Trazado 802506" d="M318.925,93.116a.46.46,0,0,1-.436-.317,2.6,2.6,0,0,0-1.439-1.551c-.8-.253-1.8.057-2.974.926a.458.458,0,1,1-.545-.737c1.43-1.057,2.711-1.413,3.807-1.059a3.5,3.5,0,0,1,2.025,2.143.458.458,0,0,1-.3.574.467.467,0,0,1-.14.022" transform="translate(-26.065 -7.507)" fill="#263238"/>
      <path id="Trazado_802507" data-name="Trazado 802507" d="M316.953,97.341c0,1.172-.523,2.122-1.167,2.122s-1.166-.95-1.166-2.122.523-2.121,1.166-2.121,1.167.95,1.167,2.121" transform="translate(-26.171 -7.921)" fill="#263238"/>
      <path id="Trazado_802508" data-name="Trazado 802508" d="M312.965,109.356a.331.331,0,0,1-.042,0,5.5,5.5,0,0,1-3.377-1.692.458.458,0,0,1,.689-.6,4.643,4.643,0,0,0,2.772,1.383.458.458,0,0,1-.041.915" transform="translate(-25.74 -8.893)" fill="#263238"/>
      <path id="Trazado_802509" data-name="Trazado 802509" d="M302.392,118.22l-5.122-1.879,3.415,6.318Z" transform="translate(-24.728 -9.678)" fill="#263238"/>
      <path id="Trazado_802510" data-name="Trazado 802510" d="M300.643,123.077a.459.459,0,0,1-.4-.24l-3.415-6.318a.458.458,0,0,1,.561-.648l5.122,1.878a.46.46,0,0,1,.27.6l-1.707,4.439a.46.46,0,0,1-.4.293h-.029m-2.436-5.929,2.365,4.376,1.183-3.075Z" transform="translate(-24.686 -9.636)" fill="#263238"/>
      <path id="Trazado_802511" data-name="Trazado 802511" d="M293.66,106.517a.271.271,0,0,1-.039,0,.458.458,0,0,1-.419-.5l.3-3.651a14.779,14.779,0,0,1-2.553-.487,5.118,5.118,0,0,1-2.107-1.7.459.459,0,0,1,.746-.534,4.244,4.244,0,0,0,1.65,1.369,16.512,16.512,0,0,0,2.8.491.458.458,0,0,1,.415.5l-.341,4.1a.459.459,0,0,1-.457.42" transform="translate(-24.02 -8.273)" fill="#263238"/>
      <path id="Trazado_802512" data-name="Trazado 802512" d="M288.268,89.682a3.256,3.256,0,0,1,4.661,1.185c.181.309.378.543.575.592.683.171,2.049,1.024,2.731-.342s-.171-4.439.683-5.293,3.928-.854,4.269-2.22-2.731-5.122-1.878-5.976,11.781,2.561,13.659,2.9,8.879-3.415,9.391-9.05-4.61-10.928-8.536-9.9a68.4,68.4,0,0,0-12.294,4.1c-5.464,2.391-17.758,1.366-22.538,8.025s-1.025,16.562.171,18.1,3.244,7.684,5.293,7.342a7.477,7.477,0,0,0,3.756-2.39s-2.685-5.061.058-7.07" transform="translate(-23.011 -5.112)" fill="#263238"/>
      <path id="Trazado_802513" data-name="Trazado 802513" d="M284.243,99.572c-1.645,0-3.007-2.761-4.216-5.209a17.085,17.085,0,0,0-1.271-2.323c-1.2-1.539-5.182-11.681-.181-18.647,3.283-4.573,9.8-5.616,15.547-6.535a32.709,32.709,0,0,0,7.18-1.643A65.607,65.607,0,0,1,312.884,61.3l.779-.2a6.155,6.155,0,0,1,5.413,1.639,10.6,10.6,0,0,1,3.7,8.748c-.321,3.527-2.966,6.029-4.514,7.206-1.99,1.514-4.266,2.465-5.416,2.253-.553-.1-1.806-.442-3.392-.876-2.952-.806-9.095-2.481-9.9-2.121-.142.237.613,1.717.975,2.429.653,1.28,1.27,2.488,1.066,3.3-.266,1.063-1.592,1.442-2.761,1.778a4.6,4.6,0,0,0-1.627.656c-.31.31-.288,1.356-.269,2.279a6.636,6.636,0,0,1-.328,2.894c-.743,1.485-2.18.961-2.871.709-.143-.052-.272-.1-.382-.128a1.511,1.511,0,0,1-.859-.8,3.1,3.1,0,0,0-2.006-1.461,2.471,2.471,0,0,0-1.989.414c-2.39,1.75.052,6.438.077,6.486a.458.458,0,0,1-.052.508,7.871,7.871,0,0,1-4.034,2.549,1.466,1.466,0,0,1-.244.02m30.552-37.7a3.525,3.525,0,0,0-.9.114l-.782.2a64.86,64.86,0,0,0-11.444,3.871,33.22,33.22,0,0,1-7.4,1.709c-5.572.891-11.887,1.9-14.948,6.164-4.69,6.53-.824,16.284.16,17.55a16.983,16.983,0,0,1,1.369,2.48c.9,1.822,2.414,4.855,3.488,4.691a6.633,6.633,0,0,0,3.282-2.014c-.552-1.161-2.321-5.417.336-7.363a3.378,3.378,0,0,1,2.716-.573,3.981,3.981,0,0,1,2.611,1.9c.192.327.3.382.3.382.125.031.286.088.462.153.959.349,1.412.391,1.736-.259a6.172,6.172,0,0,0,.233-2.464c-.026-1.214-.05-2.36.536-2.947a4.836,4.836,0,0,1,2.023-.889c.931-.266,1.987-.568,2.124-1.119.12-.479-.5-1.69-.994-2.662-.777-1.524-1.449-2.84-.764-3.526.629-.628,2.939-.215,10.751,1.918,1.5.41,2.8.765,3.315.858.637.114,2.571-.465,4.7-2.081,1.427-1.086,3.866-3.382,4.155-6.559a9.652,9.652,0,0,0-3.377-7.966,5.886,5.886,0,0,0-3.688-1.565M288.226,89.64h0Z" transform="translate(-22.969 -5.07)" fill="#263238"/>
    </g>
  </g>
</svg>
