<svg xmlns="http://www.w3.org/2000/svg" width="400" height="269.212" viewBox="0 0 400 269.212">
  <g id="Software_integration-bro" data-name="Software integration-bro" transform="translate(-19.894 -25.55)">
    <g id="freepik--background-simple--inject-2" transform="translate(19.894 26.313)" opacity="0.3">
      <path id="Trazado_806252" data-name="Trazado 806252" d="M419.814,174.982s5.915-105.288-83.4-134.271S202.14,33.021,173.748,60.23s-37.856,44.954-70.389,48.5S40.66,118.2,25.28,157.829s4.141,70.98,33.716,90.5,63.882-1.183,91.092,11.239,44.363,33.124,99.964,35.49,57.376-13.6,85.768-38.448S414.49,257.793,419.814,174.982Z" transform="translate(-19.894 -26.84)" fill="#4be5f1"/>
    </g>
    <g id="freepik--Device--inject-2" transform="translate(135.56 91.307)">
      <rect id="Rectángulo_375665" data-name="Rectángulo 375665" width="17.875" height="72.122" transform="translate(103.868 118.969)" fill="#263238" stroke="#263238" stroke-linecap="round" stroke-linejoin="round" stroke-width="1"/>
      <rect id="Rectángulo_375666" data-name="Rectángulo 375666" width="225.611" height="136.844" transform="translate(4.543 0)" fill="#263238" stroke="#263238" stroke-linecap="round" stroke-linejoin="round" stroke-width="1"/>
      <rect id="Rectángulo_375667" data-name="Rectángulo 375667" width="225.611" height="136.844" transform="translate(0 0)" fill="#4be5f1" stroke="#263238" stroke-linecap="round" stroke-linejoin="round" stroke-width="1"/>
      <rect id="Rectángulo_375668" data-name="Rectángulo 375668" width="209.351" height="126.984" transform="translate(8.127 4.927)" fill="#fff" stroke="#263238" stroke-linecap="round" stroke-linejoin="round" stroke-width="1"/>
      <rect id="Rectángulo_375669" data-name="Rectángulo 375669" width="209.351" height="7.648" transform="translate(8.127 124.269)" fill="#fff" stroke="#263238" stroke-linecap="round" stroke-linejoin="round" stroke-width="1"/>
      <path id="Trazado_806260" data-name="Trazado 806260" d="M362.028,446.1l-66.278,4.282V454.7h130.6v-4.318Z" transform="translate(-248.246 -263.1)" fill="#263238" stroke="#263238" stroke-linecap="round" stroke-linejoin="round" stroke-width="1"/>
      <rect id="Rectángulo_375670" data-name="Rectángulo 375670" width="209.351" height="126.984" transform="translate(8.127 4.927)" fill="#fff" stroke="#263238" stroke-linecap="round" stroke-linejoin="round" stroke-width="1"/>
      <rect id="Rectángulo_375671" data-name="Rectángulo 375671" width="100.946" height="28.599" transform="translate(112.173 11.824)" fill="#fff" stroke="#263238" stroke-linecap="round" stroke-linejoin="round" stroke-width="1"/>
      <rect id="Rectángulo_375672" data-name="Rectángulo 375672" width="63.652" height="37.868" transform="translate(149.065 47.273)" fill="#fff" stroke="#263238" stroke-linecap="round" stroke-linejoin="round" stroke-width="1"/>
      <path id="Trazado_806261" data-name="Trazado 806261" d="M467.45,262.854l22.158-17.727,9.263,6.85,19.336-14.906,12.487,12.084v13.7Z" transform="translate(-318.385 -177.713)" fill="#263238" stroke="#263238" stroke-linecap="round" stroke-linejoin="round" stroke-width="1"/>
      <path id="Trazado_806262" data-name="Trazado 806262" d="M487.211,229.936a4.43,4.43,0,1,1-4.43-4.436A4.43,4.43,0,0,1,487.211,229.936Z" transform="translate(-322.838 -172.986)" fill="#263238" stroke="#263238" stroke-linecap="round" stroke-linejoin="round" stroke-width="1"/>
      <rect id="Rectángulo_375673" data-name="Rectángulo 375673" width="63.652" height="37.868" transform="translate(149.065 90.376)" fill="#fff" stroke="#263238" stroke-linecap="round" stroke-linejoin="round" stroke-width="1"/>
      <path id="Trazado_806263" data-name="Trazado 806263" d="M467.45,335.724,489.608,318l9.263,6.85,19.336-14.906,12.487,12.09v13.693Z" transform="translate(-318.385 -207.48)" fill="#263238" stroke="#263238" stroke-linecap="round" stroke-linejoin="round" stroke-width="1"/>
      <path id="Trazado_806264" data-name="Trazado 806264" d="M487.211,302.8a4.43,4.43,0,1,1-4.43-4.43A4.43,4.43,0,0,1,487.211,302.8Z" transform="translate(-322.838 -202.753)" fill="#263238" stroke="#263238" stroke-linecap="round" stroke-linejoin="round" stroke-width="1"/>
      <path id="Trazado_806265" data-name="Trazado 806265" d="M412.2,310.064,409.72,294.85h1.775l1.633,10.931,2.041-10.842h1.5l2.088,10.9,1.6-10.99h1.733l-2.443,15.213H418.1L415.978,298.8l-2.141,11.268Z" transform="translate(-294.803 -201.316)" fill="#263238"/>
      <line id="Línea_1776" data-name="Línea 1776" x2="14.882" transform="translate(129.569 94.457)" fill="none" stroke="#263238" stroke-miterlimit="10" stroke-width="1"/>
      <line id="Línea_1777" data-name="Línea 1777" x2="14.882" transform="translate(129.569 98.562)" fill="none" stroke="#263238" stroke-miterlimit="10" stroke-width="1"/>
      <line id="Línea_1778" data-name="Línea 1778" x2="14.882" transform="translate(129.569 102.667)" fill="none" stroke="#263238" stroke-miterlimit="10" stroke-width="1"/>
      <line id="Línea_1779" data-name="Línea 1779" x2="14.882" transform="translate(129.569 106.772)" fill="none" stroke="#263238" stroke-miterlimit="10" stroke-width="1"/>
      <line id="Línea_1780" data-name="Línea 1780" x2="14.882" transform="translate(129.569 110.877)" fill="none" stroke="#263238" stroke-miterlimit="10" stroke-width="1"/>
      <line id="Línea_1781" data-name="Línea 1781" x2="14.882" transform="translate(129.569 114.982)" fill="none" stroke="#263238" stroke-miterlimit="10" stroke-width="1"/>
      <line id="Línea_1782" data-name="Línea 1782" x2="14.882" transform="translate(129.569 119.087)" fill="none" stroke="#263238" stroke-miterlimit="10" stroke-width="1"/>
      <line id="Línea_1783" data-name="Línea 1783" x2="14.882" transform="translate(129.569 123.193)" fill="none" stroke="#263238" stroke-miterlimit="10" stroke-width="1"/>
      <line id="Línea_1784" data-name="Línea 1784" x2="14.882" transform="translate(129.569 127.298)" fill="none" stroke="#263238" stroke-miterlimit="10" stroke-width="1"/>
      <path id="Trazado_806266" data-name="Trazado 806266" d="M341.733,188a20.436,20.436,0,0,0-11.416,3.466V145.05H229.17V272.034H330.317V225.625A20.543,20.543,0,1,0,341.733,188Z" transform="translate(-221.049 -140.123)" fill="#263238" stroke="#263238" stroke-linecap="round" stroke-linejoin="round" stroke-width="1"/>
      <line id="Línea_1785" data-name="Línea 1785" x2="45.522" transform="translate(18.65 24.311)" fill="none" stroke="#fff" stroke-linecap="round" stroke-linejoin="round" stroke-width="2"/>
      <line id="Línea_1786" data-name="Línea 1786" x2="23.767" transform="translate(18.65 37.933)" fill="none" stroke="#fff" stroke-linecap="round" stroke-linejoin="round" stroke-width="2"/>
      <line id="Línea_1787" data-name="Línea 1787" x2="22.158" transform="translate(18.65 30.439)" fill="none" stroke="#fb405f" stroke-linecap="round" stroke-linejoin="round" stroke-width="2"/>
      <line id="Línea_1788" data-name="Línea 1788" x2="11.682" transform="translate(45.64 30.439)" fill="none" stroke="#fb405f" stroke-linecap="round" stroke-linejoin="round" stroke-width="2"/>
      <line id="Línea_1789" data-name="Línea 1789" x2="11.682" transform="translate(64.172 30.439)" fill="none" stroke="#fb405f" stroke-linecap="round" stroke-linejoin="round" stroke-width="2"/>
      <line id="Línea_1790" data-name="Línea 1790" x2="22.158" transform="translate(18.65 43.724)" fill="none" stroke="#fff" stroke-linecap="round" stroke-linejoin="round" stroke-width="2"/>
      <line id="Línea_1791" data-name="Línea 1791" x2="11.682" transform="translate(45.64 43.724)" fill="none" stroke="#fff" stroke-linecap="round" stroke-linejoin="round" stroke-width="2"/>
      <line id="Línea_1792" data-name="Línea 1792" x2="11.682" transform="translate(64.172 43.724)" fill="none" stroke="#fb405f" stroke-linecap="round" stroke-linejoin="round" stroke-width="2"/>
      <line id="Línea_1793" data-name="Línea 1793" x2="22.158" transform="translate(18.65 57.003)" fill="none" stroke="#fff" stroke-linecap="round" stroke-linejoin="round" stroke-width="2"/>
      <line id="Línea_1794" data-name="Línea 1794" x2="11.682" transform="translate(45.64 57.003)" fill="none" stroke="#fb405f" stroke-linecap="round" stroke-linejoin="round" stroke-width="2"/>
      <line id="Línea_1795" data-name="Línea 1795" x2="11.682" transform="translate(64.172 57.003)" fill="none" stroke="#fff" stroke-linecap="round" stroke-linejoin="round" stroke-width="2"/>
      <line id="Línea_1796" data-name="Línea 1796" x2="16.852" transform="translate(32.343 62.794)" fill="none" stroke="#fff" stroke-linecap="round" stroke-linejoin="round" stroke-width="2"/>
      <line id="Línea_1797" data-name="Línea 1797" x2="8.884" transform="translate(52.875 62.794)" fill="none" stroke="#fff" stroke-linecap="round" stroke-linejoin="round" stroke-width="2"/>
      <line id="Línea_1798" data-name="Línea 1798" x2="8.89" transform="translate(66.964 62.794)" fill="none" stroke="#fff" stroke-linecap="round" stroke-linejoin="round" stroke-width="2"/>
      <line id="Línea_1799" data-name="Línea 1799" x2="16.852" transform="translate(32.343 69.945)" fill="none" stroke="#fff" stroke-linecap="round" stroke-linejoin="round" stroke-width="2"/>
      <line id="Línea_1800" data-name="Línea 1800" x2="8.884" transform="translate(52.875 69.945)" fill="none" stroke="#fff" stroke-linecap="round" stroke-linejoin="round" stroke-width="2"/>
      <line id="Línea_1801" data-name="Línea 1801" x2="8.89" transform="translate(66.964 69.945)" fill="none" stroke="#fff" stroke-linecap="round" stroke-linejoin="round" stroke-width="2"/>
      <line id="Línea_1802" data-name="Línea 1802" x2="45.522" transform="translate(18.65 77.777)" fill="none" stroke="#fb405f" stroke-linecap="round" stroke-linejoin="round" stroke-width="2"/>
      <line id="Línea_1803" data-name="Línea 1803" x2="23.767" transform="translate(18.65 91.399)" fill="none" stroke="#fff" stroke-linecap="round" stroke-linejoin="round" stroke-width="2"/>
      <line id="Línea_1804" data-name="Línea 1804" x2="22.158" transform="translate(18.65 83.905)" fill="none" stroke="#fb405f" stroke-linecap="round" stroke-linejoin="round" stroke-width="2"/>
      <line id="Línea_1805" data-name="Línea 1805" x2="11.682" transform="translate(45.64 83.905)" fill="none" stroke="#fff" stroke-linecap="round" stroke-linejoin="round" stroke-width="2"/>
      <line id="Línea_1806" data-name="Línea 1806" x2="11.682" transform="translate(64.172 83.905)" fill="none" stroke="#fb405f" stroke-linecap="round" stroke-linejoin="round" stroke-width="2"/>
      <line id="Línea_1807" data-name="Línea 1807" x2="22.158" transform="translate(18.65 97.19)" fill="none" stroke="#fb405f" stroke-linecap="round" stroke-linejoin="round" stroke-width="2"/>
      <line id="Línea_1808" data-name="Línea 1808" x2="11.682" transform="translate(45.64 97.19)" fill="none" stroke="#fb405f" stroke-linecap="round" stroke-linejoin="round" stroke-width="2"/>
      <line id="Línea_1809" data-name="Línea 1809" x2="11.682" transform="translate(64.172 97.19)" fill="none" stroke="#fff" stroke-linecap="round" stroke-linejoin="round" stroke-width="2"/>
      <line id="Línea_1810" data-name="Línea 1810" x2="22.158" transform="translate(18.65 110.469)" fill="none" stroke="#fff" stroke-linecap="round" stroke-linejoin="round" stroke-width="2"/>
      <line id="Línea_1811" data-name="Línea 1811" x2="11.682" transform="translate(45.64 110.469)" fill="none" stroke="#fb405f" stroke-linecap="round" stroke-linejoin="round" stroke-width="2"/>
      <line id="Línea_1812" data-name="Línea 1812" x2="11.682" transform="translate(64.172 110.469)" fill="none" stroke="#fb405f" stroke-linecap="round" stroke-linejoin="round" stroke-width="2"/>
      <line id="Línea_1813" data-name="Línea 1813" x2="16.852" transform="translate(32.343 116.26)" fill="none" stroke="#fff" stroke-linecap="round" stroke-linejoin="round" stroke-width="2"/>
      <line id="Línea_1814" data-name="Línea 1814" x2="8.884" transform="translate(52.875 116.26)" fill="none" stroke="#fff" stroke-linecap="round" stroke-linejoin="round" stroke-width="2"/>
      <line id="Línea_1815" data-name="Línea 1815" x2="8.89" transform="translate(66.964 116.26)" fill="none" stroke="#fff" stroke-linecap="round" stroke-linejoin="round" stroke-width="2"/>
      <line id="Línea_1816" data-name="Línea 1816" x2="16.852" transform="translate(32.343 123.411)" fill="none" stroke="#fff" stroke-linecap="round" stroke-linejoin="round" stroke-width="2"/>
      <line id="Línea_1817" data-name="Línea 1817" x2="8.884" transform="translate(52.875 123.411)" fill="none" stroke="#fff" stroke-linecap="round" stroke-linejoin="round" stroke-width="2"/>
      <line id="Línea_1818" data-name="Línea 1818" x2="8.89" transform="translate(66.964 123.411)" fill="none" stroke="#fff" stroke-linecap="round" stroke-linejoin="round" stroke-width="2"/>
      <path id="Trazado_806267" data-name="Trazado 806267" d="M249.07,162.476l4.277-2.206v.639l-3.6,1.81h0l3.6,1.8v.639l-4.277-2.206Z" transform="translate(-229.178 -146.34)" fill="#fff" stroke="#fff" stroke-miterlimit="10" stroke-width="1"/>
      <path id="Trazado_806268" data-name="Trazado 806268" d="M260.63,164.584l2.585-6.684h.591l-2.579,6.684Z" transform="translate(-233.9 -145.372)" fill="#fff" stroke="#fff" stroke-miterlimit="10" stroke-width="1"/>
      <path id="Trazado_806269" data-name="Trazado 806269" d="M274.617,163.007,270.34,165.2v-.639l3.632-1.8h0l-3.632-1.81v-.639l4.277,2.195Z" transform="translate(-237.866 -146.356)" fill="#fff" stroke="#fff" stroke-miterlimit="10" stroke-width="1"/>
    </g>
    <g id="freepik--Gears--inject-2" transform="translate(198.81 26.467)">
      <line id="Línea_1819" data-name="Línea 1819" x1="17.952" y2="27.221" transform="translate(0 40.642)" fill="none" stroke="#263238" stroke-miterlimit="10" stroke-width="1" stroke-dasharray="5"/>
      <path id="Trazado_806270" data-name="Trazado 806270" d="M372.683,54.934V48.753l-6.152-.686a15.019,15.019,0,0,0-1.538-3.679l3.9-4.88-4.371-4.371-4.85,3.886A14.788,14.788,0,0,0,356,37.485l-.692-6.2h-6.163l-.686,6.175a14.788,14.788,0,0,0-3.679,1.514l-4.874-3.9-4.371,4.371,3.88,4.856a14.788,14.788,0,0,0-1.538,3.667l-6.2.692V54.84l6.169.686a15.018,15.018,0,0,0,1.514,3.679l-3.9,4.874,4.371,4.371,4.856-3.88a14.787,14.787,0,0,0,3.667,1.538l.692,6.2h6.181l.686-6.169a15.018,15.018,0,0,0,3.679-1.514l4.874,3.9,4.371-4.371-3.851-4.856a14.789,14.789,0,0,0,1.538-3.667ZM352.17,59.175a7.388,7.388,0,1,1,.018,0Z" transform="translate(-326.173 -28.808)" fill="#4be5f1" stroke="#263238" stroke-linecap="round" stroke-linejoin="round" stroke-width="1"/>
      <path id="Trazado_806271" data-name="Trazado 806271" d="M422.866,40.817l-.657-4.093-4.141.231a9.773,9.773,0,0,0-1.408-2.265l2-3.661-3.378-2.413L412.5,31.726a9.665,9.665,0,0,0-2.6-.591L408.752,27.1l-4.093.686.231,4.141a9.93,9.93,0,0,0-2.271,1.408l-3.656-2.041-2.413,3.377,3.111,2.786a9.664,9.664,0,0,0-.591,2.6L395,41.237l.686,4.093,4.141-.231a9.932,9.932,0,0,0,1.408,2.271l-2.041,3.655,3.377,2.413,2.786-3.111a9.666,9.666,0,0,0,2.6.592l1.148,4.034,4.123-.7-.231-4.141a9.772,9.772,0,0,0,2.265-1.408l3.661,2,2.413-3.377-3.111-2.786a9.666,9.666,0,0,0,.592-2.6ZM409.752,45.9a4.951,4.951,0,1,1,4.07-5.7A4.951,4.951,0,0,1,409.752,45.9Z" transform="translate(-352.039 -27.1)" fill="#263238" stroke="#263238" stroke-miterlimit="10" stroke-width="1"/>
    </g>
    <g id="freepik--Chart--inject-2" transform="translate(134.774 25.55)">
      <line id="Línea_1820" data-name="Línea 1820" x2="0.29" y2="1.455" transform="translate(29.25 41.843)" fill="none" stroke="#263238" stroke-miterlimit="10" stroke-width="1"/>
      <line id="Línea_1821" data-name="Línea 1821" x2="4.064" y2="20.454" transform="translate(30.084 46.025)" fill="none" stroke="#263238" stroke-miterlimit="10" stroke-width="1" stroke-dasharray="4.701 4.701"/>
      <line id="Línea_1822" data-name="Línea 1822" x2="0.29" y2="1.455" transform="translate(34.42 67.84)" fill="none" stroke="#263238" stroke-miterlimit="10" stroke-width="1"/>
      <rect id="Rectángulo_375674" data-name="Rectángulo 375674" width="8.352" height="31.095" transform="translate(41.766 39.305) rotate(180)" fill="#fb405f" stroke="#263238" stroke-linecap="round" stroke-linejoin="round" stroke-width="1"/>
      <rect id="Rectángulo_375675" data-name="Rectángulo 375675" width="8.352" height="24.133" transform="translate(30.628 39.305) rotate(180)" fill="#263238" stroke="#263238" stroke-miterlimit="10" stroke-width="1"/>
      <rect id="Rectángulo_375676" data-name="Rectángulo 375676" width="8.352" height="18.561" transform="translate(19.496 39.305) rotate(180)" fill="#fb405f" stroke="#263238" stroke-linecap="round" stroke-linejoin="round" stroke-width="1"/>
      <rect id="Rectángulo_375677" data-name="Rectángulo 375677" width="8.352" height="13.924" transform="translate(8.352 39.305) rotate(180)" fill="#263238" stroke="#263238" stroke-miterlimit="10" stroke-width="1"/>
      <path id="Trazado_806272" data-name="Trazado 806272" d="M220.156,50.309l-.816-1.071,8.541-6.5,4.235,1.414,6.992-7.53,4.111,1.254,7.459-8.547,3.159,2.041,3.277-2.319.781,1.1L253.872,33l-2.946-1.9-7.264,8.322-4.141-1.26L232.513,45.7,228.13,44.24Z" transform="translate(-216.246 -26.98)" fill="#263238"/>
      <path id="Trazado_806273" data-name="Trazado 806273" d="M283.154,31.276l2.638-5.726-6.282.58Z" transform="translate(-240.826 -25.55)" fill="#263238"/>
    </g>
    <g id="freepik--Search--inject-2" transform="translate(47.82 40.929)">
      <line id="Línea_1823" data-name="Línea 1823" x2="1.23" y2="0.816" transform="translate(50.73 25.364)" fill="none" stroke="#263238" stroke-miterlimit="10" stroke-width="1"/>
      <line id="Línea_1824" data-name="Línea 1824" x2="38.335" y2="25.346" transform="translate(54.433 27.813)" fill="none" stroke="#263238" stroke-miterlimit="10" stroke-width="1" stroke-dasharray="5.012 5.012"/>
      <line id="Línea_1825" data-name="Línea 1825" x2="1.23" y2="0.816" transform="translate(94.004 53.975)" fill="none" stroke="#263238" stroke-miterlimit="10" stroke-width="1"/>
      <path id="Trazado_806274" data-name="Trazado 806274" d="M82.9,51.55h42.943a3.774,3.774,0,0,1,3.774,3.774V84.692H79.13V55.318A3.774,3.774,0,0,1,82.9,51.55Z" transform="translate(-72.018 -51.55)" fill="#fff" stroke="#263238" stroke-linecap="round" stroke-linejoin="round" stroke-width="1"/>
      <line id="Línea_1826" data-name="Línea 1826" x2="23.915" transform="translate(19.848 13.315)" fill="none" stroke="#263238" stroke-linecap="round" stroke-linejoin="round" stroke-width="1"/>
      <line id="Línea_1827" data-name="Línea 1827" x2="23.915" transform="translate(19.848 17.177)" fill="none" stroke="#263238" stroke-linecap="round" stroke-linejoin="round" stroke-width="1"/>
      <line id="Línea_1828" data-name="Línea 1828" x2="23.915" transform="translate(19.848 21.034)" fill="none" stroke="#263238" stroke-linecap="round" stroke-linejoin="round" stroke-width="1"/>
      <line id="Línea_1829" data-name="Línea 1829" x2="23.915" transform="translate(19.848 24.89)" fill="none" stroke="#263238" stroke-linecap="round" stroke-linejoin="round" stroke-width="1"/>
      <path id="Trazado_806275" data-name="Trazado 806275" d="M129.615,56.779V54.638a3.088,3.088,0,0,0-3.088-3.088H82.212a3.082,3.082,0,0,0-3.082,3.088v2.141Z" transform="translate(-72.018 -51.55)" fill="#fb405f" stroke="#263238" stroke-linecap="round" stroke-linejoin="round" stroke-width="1"/>
      <path id="Trazado_806276" data-name="Trazado 806276" d="M148.8,55.661a.781.781,0,1,0-.775.781.781.781,0,0,0,.775-.781Z" transform="translate(-99.84 -52.91)" fill="#263238" stroke="#263238" stroke-linecap="round" stroke-linejoin="round" stroke-width="1"/>
      <path id="Trazado_806277" data-name="Trazado 806277" d="M154.072,55.661a.781.781,0,1,0-.781.781.781.781,0,0,0,.781-.781Z" transform="translate(-101.993 -52.91)" fill="#263238" stroke="#263238" stroke-linecap="round" stroke-linejoin="round" stroke-width="1"/>
      <path id="Trazado_806278" data-name="Trazado 806278" d="M159.342,55.661a.781.781,0,1,0-.781.781A.781.781,0,0,0,159.342,55.661Z" transform="translate(-104.146 -52.91)" fill="#263238" stroke="#263238" stroke-linecap="round" stroke-linejoin="round" stroke-width="1"/>
      <path id="Trazado_806279" data-name="Trazado 806279" d="M67.812,106.324h0a1.958,1.958,0,0,1-.225-2.792l14.2-16.272,2.165,1.775-13.356,17a1.952,1.952,0,0,1-2.78.29Z" transform="translate(-67.106 -66.137)" fill="#263238" stroke="#263238" stroke-linejoin="round" stroke-width="1"/>
      <path id="Trazado_806280" data-name="Trazado 806280" d="M78.018,94.58l-10.41,11.942a1.955,1.955,0,1,0,3,2.5L80.461,96.5Z" transform="translate(-67.126 -69.128)" fill="#fff" stroke="#263238" stroke-linejoin="round" stroke-width="1"/>
      <path id="Trazado_806281" data-name="Trazado 806281" d="M101.774,65.43a8.944,8.944,0,1,0,1.183,12.593A8.944,8.944,0,0,0,101.774,65.43ZM91.192,78.213A7.654,7.654,0,1,1,101.969,77.2,7.654,7.654,0,0,1,91.192,78.213Z" transform="translate(-75.284 -56.38)" fill="#263238" stroke="#263238" stroke-linejoin="round" stroke-width="1"/>
    </g>
    <g id="freepik--Outline--inject-2" transform="translate(40.63 107.598)">
      <line id="Línea_1830" data-name="Línea 1830" x2="1.479" transform="translate(40.258 28.954)" fill="none" stroke="#263238" stroke-miterlimit="10" stroke-width="1"/>
      <line id="Línea_1831" data-name="Línea 1831" x2="51.857" transform="translate(44.706 28.954)" fill="none" stroke="#263238" stroke-miterlimit="10" stroke-width="1" stroke-dasharray="5.01 5.01"/>
      <line id="Línea_1832" data-name="Línea 1832" x2="1.479" transform="translate(98.048 28.954)" fill="none" stroke="#263238" stroke-miterlimit="10" stroke-width="1"/>
      <line id="Línea_1833" data-name="Línea 1833" x2="33.438" transform="translate(15.929 6.944)" fill="none" stroke="#263238" stroke-linecap="round" stroke-linejoin="round" stroke-width="1"/>
      <line id="Línea_1834" data-name="Línea 1834" y1="16.473" transform="translate(32.651 6.944)" fill="none" stroke="#263238" stroke-linecap="round" stroke-linejoin="round" stroke-width="1"/>
      <line id="Línea_1835" data-name="Línea 1835" y2="20.839" transform="translate(6.152 11.043)" fill="none" stroke="#263238" stroke-linecap="round" stroke-linejoin="round" stroke-width="1"/>
      <path id="Trazado_806282" data-name="Trazado 806282" d="M119.75,221.86h30.279v18.313" transform="translate(-81.421 -187.789)" fill="none" stroke="#263238" stroke-linecap="round" stroke-linejoin="round" stroke-width="1"/>
      <line id="Línea_1836" data-name="Línea 1836" y2="17.668" transform="translate(49.367 34.384)" fill="none" stroke="#263238" stroke-linecap="round" stroke-linejoin="round" stroke-width="1"/>
      <rect id="Rectángulo_375678" data-name="Rectángulo 375678" width="21.767" height="14.829" transform="translate(0.154 0)" fill="#263238" stroke="#263238" stroke-miterlimit="10" stroke-width="1"/>
      <rect id="Rectángulo_375679" data-name="Rectángulo 375679" width="21.767" height="14.829" transform="translate(41.322 0)" fill="#fb405f" stroke="#263238" stroke-linecap="round" stroke-linejoin="round" stroke-width="1"/>
      <rect id="Rectángulo_375680" data-name="Rectángulo 375680" width="13.948" height="9.5" transform="translate(42.582 47.634)" fill="#fb405f" stroke="#263238" stroke-linecap="round" stroke-linejoin="round" stroke-width="1"/>
      <rect id="Rectángulo_375681" data-name="Rectángulo 375681" width="13.948" height="9.5" transform="translate(0 27.132)" fill="#fff" stroke="#263238" stroke-linecap="round" stroke-linejoin="round" stroke-width="1"/>
      <rect id="Rectángulo_375682" data-name="Rectángulo 375682" width="13.948" height="9.5" transform="translate(60.884 47.634)" fill="#263238" stroke="#263238" stroke-miterlimit="10" stroke-width="1"/>
      <rect id="Rectángulo_375683" data-name="Rectángulo 375683" width="15.515" height="15.515" transform="translate(21.676 34.386) rotate(-45)" fill="#fb405f" stroke="#263238" stroke-linecap="round" stroke-linejoin="round" stroke-width="1"/>
    </g>
    <g id="freepik--Design--inject-2" transform="translate(43.641 197.228)">
      <line id="Línea_1837" data-name="Línea 1837" y1="0.479" x2="1.402" transform="translate(69.987 9.103)" fill="none" stroke="#263238" stroke-miterlimit="10" stroke-width="1"/>
      <line id="Línea_1838" data-name="Línea 1838" y1="7.187" x2="21.058" transform="translate(74.198 0.958)" fill="none" stroke="#263238" stroke-miterlimit="10" stroke-width="1" stroke-dasharray="5.016 5.016"/>
      <line id="Línea_1839" data-name="Línea 1839" y1="0.479" x2="1.402" transform="translate(96.658)" fill="none" stroke="#263238" stroke-miterlimit="10" stroke-width="1"/>
      <rect id="Rectángulo_375684" data-name="Rectángulo 375684" width="66.668" height="15.657" transform="translate(0 0.384)" fill="#fff" stroke="#263238" stroke-linecap="round" stroke-linejoin="round" stroke-width="1"/>
      <rect id="Rectángulo_375685" data-name="Rectángulo 375685" width="34.845" height="20.732" transform="translate(31.598 19.792)" fill="#fff" stroke="#263238" stroke-linecap="round" stroke-linejoin="round" stroke-width="1"/>
      <path id="Trazado_806283" data-name="Trazado 806283" d="M113.46,374.553l12.132-9.7,5.069,3.75,10.588-8.163,6.838,6.619v7.494Z" transform="translate(-81.862 -334.029)" fill="#263238" stroke="#263238" stroke-linecap="round" stroke-linejoin="round" stroke-width="1"/>
      <circle id="Elipse_4739" data-name="Elipse 4739" cx="2.425" cy="2.425" r="2.425" transform="translate(35.129 22.661)" fill="#263238" stroke="#263238" stroke-linecap="round" stroke-linejoin="round" stroke-width="1"/>
      <rect id="Rectángulo_375686" data-name="Rectángulo 375686" width="34.845" height="20.732" transform="translate(31.598 43.393)" fill="#fff" stroke="#263238" stroke-linecap="round" stroke-linejoin="round" stroke-width="1"/>
      <path id="Trazado_806284" data-name="Trazado 806284" d="M113.46,414.449l12.132-9.707,5.069,3.75,10.588-8.163,6.838,6.619v7.5Z" transform="translate(-81.862 -350.324)" fill="#263238" stroke="#263238" stroke-linecap="round" stroke-linejoin="round" stroke-width="1"/>
      <circle id="Elipse_4740" data-name="Elipse 4740" cx="2.425" cy="2.425" r="2.425" transform="translate(35.129 46.262)" fill="#263238" stroke="#263238" stroke-linecap="round" stroke-linejoin="round" stroke-width="1"/>
      <line id="Línea_1840" data-name="Línea 1840" x2="26.488" transform="translate(1.011 21.353)" fill="none" stroke="#263238" stroke-miterlimit="10" stroke-width="1"/>
      <line id="Línea_1841" data-name="Línea 1841" x2="26.488" transform="translate(1.011 27.239)" fill="none" stroke="#263238" stroke-miterlimit="10" stroke-width="1"/>
      <line id="Línea_1842" data-name="Línea 1842" x2="26.488" transform="translate(1.011 33.124)" fill="none" stroke="#263238" stroke-miterlimit="10" stroke-width="1"/>
      <line id="Línea_1843" data-name="Línea 1843" x2="26.488" transform="translate(1.011 39.01)" fill="none" stroke="#263238" stroke-miterlimit="10" stroke-width="1"/>
      <line id="Línea_1844" data-name="Línea 1844" x2="26.488" transform="translate(1.011 44.895)" fill="none" stroke="#263238" stroke-miterlimit="10" stroke-width="1"/>
      <line id="Línea_1845" data-name="Línea 1845" x2="26.488" transform="translate(1.011 50.781)" fill="none" stroke="#263238" stroke-miterlimit="10" stroke-width="1"/>
      <line id="Línea_1846" data-name="Línea 1846" x2="26.488" transform="translate(1.011 56.666)" fill="none" stroke="#263238" stroke-miterlimit="10" stroke-width="1"/>
      <line id="Línea_1847" data-name="Línea 1847" x2="26.488" transform="translate(1.011 62.552)" fill="none" stroke="#263238" stroke-miterlimit="10" stroke-width="1"/>
    </g>
  </g>
</svg>
