<svg id="html-5" xmlns="http://www.w3.org/2000/svg" width="190" height="190" viewBox="0 0 190 190">
  <path id="Trazado_806607" data-name="Trazado 806607" d="M190,95A95,95,0,1,1,95,0,94.843,94.843,0,0,1,190,95Z" fill="#f2f2f2"/>
  <path id="Trazado_806608" data-name="Trazado 806608" d="M208.739,119.474,197.893,245.246a95.012,95.012,0,0,1-115.916.333L71.105,119.474Z" transform="translate(-44.718 -75.138)" fill="#e64c18"/>
  <path id="Trazado_806609" data-name="Trazado 806609" d="M256.546,151.249V282.215l45.242-12.772,10.092-118.194Z" transform="translate(-161.343 -95.121)" fill="#f36518"/>
  <path id="Trazado_806610" data-name="Trazado 806610" d="M140.9,195.528l4.436,52.533h58.968l-1.929,21.7-18.56,5.026-19.33-5.415L164,255.843H146l2.254,26.674,35.567,10.052,35.567-10.052,4.408-52.193h-62.1l-1.541-17.011h0l65.109-.341,1.472-17.444Z" transform="translate(-88.615 -122.969)" fill="#fff"/>
  <path id="Trazado_806611" data-name="Trazado 806611" d="M122.949,16.8v9.025h-8.623V16.8H106.3V42.668h8.022V34.244h8.623v8.423h8.022V16.8Z" transform="translate(-66.855 -10.563)"/>
  <path id="Trazado_806612" data-name="Trazado 806612" d="M207.714,16.8H183.045v9.025h8.022V42.869h8.624V25.821h8.022Z" transform="translate(-115.118 -10.563)"/>
  <path id="Trazado_806613" data-name="Trazado 806613" d="M358.668,34.985V17.337h-8.624V43.209H371.1V34.985Z" transform="translate(-220.145 -10.903)"/>
  <path id="Trazado_806614" data-name="Trazado 806614" d="M279.906,17.337l-6.016,9.225-6.017-9.225h-8.624V43.209h8.624V30.373L273.89,39.6l6.016-9.226V43.209h8.624V17.337Z" transform="translate(-163.043 -10.903)"/>
</svg>
